<?xml version="1.0" encoding="UTF-8" standalone="no"?>
<!DOCTYPE svg PUBLIC "-//W3C//DTD SVG 1.1//EN"
 "http://www.w3.org/Graphics/SVG/1.1/DTD/svg11.dtd">
<!-- Generated by graphviz version 2.43.0 (0)
 -->
<!-- Title: %3 Pages: 1 -->
<svg width="929pt" height="122pt"
 viewBox="0.00 0.00 929.19 122.00" xmlns="http://www.w3.org/2000/svg" xmlns:xlink="http://www.w3.org/1999/xlink">
<g id="graph0" class="graph" transform="scale(1 1) rotate(0) translate(4 118)">
<title>%3</title>
<polygon fill="white" stroke="transparent" points="-4,4 -4,-118 925.19,-118 925.19,4 -4,4"/>
<!-- 1.0.0 -->
<g id="node1" class="node">
<title>1.0.0</title>
<ellipse fill="none" stroke="black" cx="33.15" cy="-66" rx="33.29" ry="18"/>
<text text-anchor="middle" x="33.15" y="-62.3" font-family="Times,serif" font-size="14.00">start</text>
</g>
<!-- 3.0.3 -->
<g id="node3" class="node">
<title>3.0.3</title>
<polygon fill="none" stroke="black" points="112.79,-56 112.79,-75 149.79,-75 149.79,-56 112.79,-56"/>
<text text-anchor="start" x="115.79" y="-62.4" font-family="Monospace" font-size="12.00">ATCG</text>
<text text-anchor="start" x="118.79" y="-44" font-family="Times,serif" font-size="10.00">3:0&#45;3</text>
</g>
<!-- 1.0.0&#45;&gt;3.0.3 -->
<g id="edge13" class="edge">
<title>1.0.0:e&#45;&gt;3.0.3:w</title>
<path fill="none" stroke="black" d="M66.29,-66C82.57,-66 89.02,-66 101.45,-66"/>
<polygon fill="black" stroke="black" points="101.79,-69.5 111.79,-66 101.79,-62.5 101.79,-69.5"/>
</g>
<!-- 2.0.0 -->
<g id="node2" class="node">
<title>2.0.0</title>
<ellipse fill="none" stroke="black" cx="893.24" cy="-66" rx="27.9" ry="18"/>
<text text-anchor="middle" x="893.24" y="-62.3" font-family="Times,serif" font-size="14.00">end</text>
</g>
<!-- 3.4.4 -->
<g id="node4" class="node">
<title>3.4.4</title>
<polygon fill="none" stroke="black" points="208.29,-89 208.29,-108 237.29,-108 237.29,-89 208.29,-89"/>
<text text-anchor="start" x="218.79" y="-95.4" font-family="Monospace" font-size="12.00">A</text>
<text text-anchor="start" x="210.29" y="-77" font-family="Times,serif" font-size="10.00">3:4&#45;4</text>
</g>
<!-- 3.0.3&#45;&gt;3.4.4 -->
<g id="edge1" class="edge">
<title>3.0.3:e&#45;&gt;3.4.4:w</title>
<path fill="none" stroke="black" stroke-dasharray="5,2" d="M150.79,-66C179.87,-66 178.21,-99 207.29,-99"/>
</g>
<!-- 6.0.0 -->
<g id="node10" class="node">
<title>6.0.0</title>
<polygon fill="none" stroke="black" points="208.29,-23 208.29,-42 237.29,-42 237.29,-23 208.29,-23"/>
<text text-anchor="start" x="218.79" y="-29.4" font-family="Monospace" font-size="12.00">G</text>
<text text-anchor="start" x="210.29" y="-11" font-family="Times,serif" font-size="10.00">6:0&#45;0</text>
</g>
<!-- 3.0.3&#45;&gt;6.0.0 -->
<g id="edge7" class="edge">
<title>3.0.3:e&#45;&gt;6.0.0:w</title>
<path fill="none" stroke="black" d="M150.79,-66C176.01,-66 178.11,-41.18 197.19,-34.59"/>
<polygon fill="black" stroke="black" points="197.96,-38.01 207.29,-33 196.87,-31.1 197.96,-38.01"/>
</g>
<!-- 3.5.15 -->
<g id="node5" class="node">
<title>3.5.15</title>
<polygon fill="none" stroke="black" points="295.29,-56 295.29,-75 369.29,-75 369.29,-56 295.29,-56"/>
<text text-anchor="start" x="298.29" y="-62.4" font-family="Monospace" font-size="12.00">TCG...TCG</text>
<text text-anchor="start" x="316.79" y="-44" font-family="Times,serif" font-size="10.00">3:5&#45;15</text>
</g>
<!-- 3.4.4&#45;&gt;3.5.15 -->
<g id="edge2" class="edge">
<title>3.4.4:e&#45;&gt;3.5.15:w</title>
<path fill="none" stroke="black" stroke-dasharray="5,2" d="M238.29,-99C267.18,-99 265.41,-66 294.29,-66"/>
</g>
<!-- 3.16.17 -->
<g id="node6" class="node">
<title>3.16.17</title>
<polygon fill="none" stroke="black" points="434.79,-89 434.79,-108 475.79,-108 475.79,-89 434.79,-89"/>
<text text-anchor="start" x="447.29" y="-95.4" font-family="Monospace" font-size="12.00">AT</text>
<text text-anchor="start" x="436.79" y="-77" font-family="Times,serif" font-size="10.00">3:16&#45;17</text>
</g>
<!-- 3.5.15&#45;&gt;3.16.17 -->
<g id="edge3" class="edge">
<title>3.5.15:e&#45;&gt;3.16.17:w</title>
<path fill="none" stroke="black" stroke-dasharray="5,2" d="M370.29,-66C402.1,-66 401.99,-99 433.79,-99"/>
</g>
<!-- 7.0.6 -->
<g id="node11" class="node">
<title>7.0.6</title>
<polygon fill="none" stroke="black" points="425.79,-23 425.79,-42 484.79,-42 484.79,-23 425.79,-23"/>
<text text-anchor="start" x="428.79" y="-29.4" font-family="Monospace" font-size="12.00">GAATCAG</text>
<text text-anchor="start" x="442.79" y="-11" font-family="Times,serif" font-size="10.00">7:0&#45;6</text>
</g>
<!-- 3.5.15&#45;&gt;7.0.6 -->
<g id="edge9" class="edge">
<title>3.5.15:e&#45;&gt;7.0.6:w</title>
<path fill="none" stroke="black" d="M370.29,-66C394.63,-66 396.48,-41.63 414.49,-34.77"/>
<polygon fill="black" stroke="black" points="415.53,-38.15 424.79,-33 414.35,-31.25 415.53,-38.15"/>
</g>
<!-- 3.18.26 -->
<g id="node7" class="node">
<title>3.18.26</title>
<polygon fill="none" stroke="black" points="540.29,-56 540.29,-75 614.29,-75 614.29,-56 540.29,-56"/>
<text text-anchor="start" x="543.29" y="-62.4" font-family="Monospace" font-size="12.00">CGG...CAC</text>
<text text-anchor="start" x="558.79" y="-44" font-family="Times,serif" font-size="10.00">3:18&#45;26</text>
</g>
<!-- 3.16.17&#45;&gt;3.18.26 -->
<g id="edge4" class="edge">
<title>3.16.17:e&#45;&gt;3.18.26:w</title>
<path fill="none" stroke="black" stroke-dasharray="5,2" d="M476.79,-99C508.21,-99 507.88,-66 539.29,-66"/>
</g>
<!-- 3.27.27 -->
<g id="node8" class="node">
<title>3.27.27</title>
<polygon fill="none" stroke="black" points="670.79,-87 670.79,-106 711.79,-106 711.79,-87 670.79,-87"/>
<text text-anchor="start" x="687.29" y="-93.4" font-family="Monospace" font-size="12.00">A</text>
<text text-anchor="start" x="672.79" y="-75" font-family="Times,serif" font-size="10.00">3:27&#45;27</text>
</g>
<!-- 3.18.26&#45;&gt;3.27.27 -->
<g id="edge5" class="edge">
<title>3.18.26:e&#45;&gt;3.27.27:w</title>
<path fill="none" stroke="black" stroke-dasharray="5,2" d="M615.29,-66C643.16,-66 641.93,-97 669.79,-97"/>
</g>
<!-- 3.28.33 -->
<g id="node9" class="node">
<title>3.28.33</title>
<polygon fill="none" stroke="black" points="767.29,-56 767.29,-75 819.29,-75 819.29,-56 767.29,-56"/>
<text text-anchor="start" x="770.29" y="-62.4" font-family="Monospace" font-size="12.00">CAGAGA</text>
<text text-anchor="start" x="774.79" y="-44" font-family="Times,serif" font-size="10.00">3:28&#45;33</text>
</g>
<!-- 3.18.26&#45;&gt;3.28.33 -->
<g id="edge11" class="edge">
<title>3.18.26:e&#45;&gt;3.28.33:w</title>
<path fill="none" stroke="black" d="M615.29,-66C635.88,-66 639.85,-57.46 660.29,-55 687.21,-51.76 694.38,-51.76 721.29,-55 737.9,-57 743.64,-63.01 756.25,-65.2"/>
<polygon fill="black" stroke="black" points="756.05,-68.69 766.29,-66 756.61,-61.71 756.05,-68.69"/>
</g>
<!-- 3.27.27&#45;&gt;3.28.33 -->
<g id="edge6" class="edge">
<title>3.27.27:e&#45;&gt;3.28.33:w</title>
<path fill="none" stroke="black" stroke-dasharray="5,2" d="M712.79,-97C740.28,-97 738.81,-66 766.29,-66"/>
</g>
<!-- 3.28.33&#45;&gt;2.0.0 -->
<g id="edge8" class="edge">
<title>3.28.33:e&#45;&gt;2.0.0:w</title>
<path fill="none" stroke="black" d="M820.29,-66C836.39,-66 842.77,-66 855.07,-66"/>
<polygon fill="black" stroke="black" points="855.29,-69.5 865.29,-66 855.29,-62.5 855.29,-69.5"/>
</g>
<!-- 6.0.0&#45;&gt;3.5.15 -->
<g id="edge10" class="edge">
<title>6.0.0:e&#45;&gt;3.5.15:w</title>
<path fill="none" stroke="black" d="M238.29,-33C263.35,-33 265.34,-57.82 284.26,-64.41"/>
<polygon fill="black" stroke="black" points="283.87,-67.89 294.29,-66 284.97,-60.98 283.87,-67.89"/>
</g>
<!-- 7.0.6&#45;&gt;3.18.26 -->
<g id="edge12" class="edge">
<title>7.0.6:e&#45;&gt;3.18.26:w</title>
<path fill="none" stroke="black" d="M485.79,-33C509.8,-33 511.43,-57.37 529.14,-64.23"/>
<polygon fill="black" stroke="black" points="528.84,-67.73 539.29,-66 530.05,-60.83 528.84,-67.73"/>
</g>
</g>
</svg>
