<?xml version="1.0" encoding="UTF-8" standalone="no"?>
<!DOCTYPE svg PUBLIC "-//W3C//DTD SVG 1.1//EN"
 "http://www.w3.org/Graphics/SVG/1.1/DTD/svg11.dtd">
<!-- Generated by graphviz version 2.43.0 (0)
 -->
<!-- Title: %3 Pages: 1 -->
<svg width="634pt" height="254pt"
 viewBox="0.00 0.00 634.19 254.00" xmlns="http://www.w3.org/2000/svg" xmlns:xlink="http://www.w3.org/1999/xlink">
<g id="graph0" class="graph" transform="scale(1 1) rotate(0) translate(4 250)">
<title>%3</title>
<polygon fill="white" stroke="transparent" points="-4,4 -4,-250 630.19,-250 630.19,4 -4,4"/>
<!-- 1.0.0 -->
<g id="node1" class="node">
<title>1.0.0</title>
<ellipse fill="none" stroke="black" cx="33.15" cy="-132" rx="33.29" ry="18"/>
<text text-anchor="middle" x="33.15" y="-128.3" font-family="Times,serif" font-size="14.00">start</text>
</g>
<!-- 3.0.6 -->
<g id="node3" class="node">
<title>3.0.6</title>
<polygon fill="none" stroke="black" points="112.79,-122 112.79,-141 171.79,-141 171.79,-122 112.79,-122"/>
<text text-anchor="start" x="115.79" y="-128.4" font-family="Monospace" font-size="12.00">ATCGATC</text>
<text text-anchor="start" x="129.79" y="-110" font-family="Times,serif" font-size="10.00">3:0&#45;6</text>
</g>
<!-- 1.0.0&#45;&gt;3.0.6 -->
<g id="edge11" class="edge">
<title>1.0.0:e&#45;&gt;3.0.6:w</title>
<path fill="none" stroke="black" d="M66.29,-132C82.57,-132 89.02,-132 101.45,-132"/>
<polygon fill="black" stroke="black" points="101.79,-135.5 111.79,-132 101.79,-128.5 101.79,-135.5"/>
</g>
<!-- 2.0.0 -->
<g id="node2" class="node">
<title>2.0.0</title>
<ellipse fill="none" stroke="black" cx="598.24" cy="-132" rx="27.9" ry="18"/>
<text text-anchor="middle" x="598.24" y="-128.3" font-family="Times,serif" font-size="14.00">end</text>
</g>
<!-- 3.7.19 -->
<g id="node4" class="node">
<title>3.7.19</title>
<polygon fill="none" stroke="black" points="320.29,-221 320.29,-240 394.29,-240 394.29,-221 320.29,-221"/>
<text text-anchor="start" x="323.29" y="-227.4" font-family="Monospace" font-size="12.00">GAT...TCG</text>
<text text-anchor="start" x="341.79" y="-209" font-family="Times,serif" font-size="10.00">3:7&#45;19</text>
</g>
<!-- 3.0.6&#45;&gt;3.7.19 -->
<g id="edge1" class="edge">
<title>3.0.6:e&#45;&gt;3.7.19:w</title>
<path fill="none" stroke="black" stroke-dasharray="5,2" d="M172.79,-132C204.93,-132 191.69,-169.57 217.29,-189 256.34,-218.64 270.27,-231 319.29,-231"/>
</g>
<!-- 6.0.3 -->
<g id="node6" class="node">
<title>6.0.3</title>
<polygon fill="none" stroke="black" points="227.79,-155 227.79,-174 264.79,-174 264.79,-155 227.79,-155"/>
<text text-anchor="start" x="230.79" y="-161.4" font-family="Monospace" font-size="12.00">CAAC</text>
<text text-anchor="start" x="233.79" y="-143" font-family="Times,serif" font-size="10.00">6:0&#45;3</text>
</g>
<!-- 3.0.6&#45;&gt;6.0.3 -->
<g id="edge3" class="edge">
<title>3.0.6:e&#45;&gt;6.0.3:w</title>
<path fill="none" stroke="black" d="M172.79,-132C196.97,-132 198.7,-156.37 216.56,-163.23"/>
<polygon fill="black" stroke="black" points="216.34,-166.74 226.79,-165 217.54,-159.84 216.34,-166.74"/>
</g>
<!-- 5.0.3 -->
<g id="node7" class="node">
<title>5.0.3</title>
<polygon fill="none" stroke="black" points="227.79,-89 227.79,-108 264.79,-108 264.79,-89 227.79,-89"/>
<text text-anchor="start" x="230.79" y="-95.4" font-family="Monospace" font-size="12.00">TAAT</text>
<text text-anchor="start" x="233.79" y="-77" font-family="Times,serif" font-size="10.00">5:0&#45;3</text>
</g>
<!-- 3.0.6&#45;&gt;5.0.3 -->
<g id="edge16" class="edge">
<title>3.0.6:e&#45;&gt;5.0.3:w</title>
<path fill="none" stroke="black" d="M172.79,-132C196.97,-132 198.7,-107.63 216.56,-100.77"/>
<polygon fill="black" stroke="black" points="217.54,-104.16 226.79,-99 216.34,-97.26 217.54,-104.16"/>
</g>
<!-- 4.0.3 -->
<g id="node10" class="node">
<title>4.0.3</title>
<polygon fill="none" stroke="black" points="227.79,-23 227.79,-42 264.79,-42 264.79,-23 227.79,-23"/>
<text text-anchor="start" x="230.79" y="-29.4" font-family="Monospace" font-size="12.00">AAAA</text>
<text text-anchor="start" x="233.79" y="-11" font-family="Times,serif" font-size="10.00">4:0&#45;3</text>
</g>
<!-- 3.0.6&#45;&gt;4.0.3 -->
<g id="edge19" class="edge">
<title>3.0.6:e&#45;&gt;4.0.3:w</title>
<path fill="none" stroke="black" d="M172.79,-132C219,-132 183.31,-47.86 216.72,-34.72"/>
<polygon fill="black" stroke="black" points="217.52,-38.13 226.79,-33 216.35,-31.23 217.52,-38.13"/>
</g>
<!-- 3.20.33 -->
<g id="node5" class="node">
<title>3.20.33</title>
<polygon fill="none" stroke="black" points="450.29,-122 450.29,-141 524.29,-141 524.29,-122 450.29,-122"/>
<text text-anchor="start" x="453.29" y="-128.4" font-family="Monospace" font-size="12.00">GGA...AGA</text>
<text text-anchor="start" x="468.79" y="-110" font-family="Times,serif" font-size="10.00">3:20&#45;33</text>
</g>
<!-- 3.7.19&#45;&gt;3.20.33 -->
<g id="edge2" class="edge">
<title>3.7.19:e&#45;&gt;3.20.33:w</title>
<path fill="none" stroke="black" stroke-dasharray="5,2" d="M395.29,-231C445.41,-231 399.17,-132 449.29,-132"/>
</g>
<!-- 3.20.33&#45;&gt;2.0.0 -->
<g id="edge12" class="edge">
<title>3.20.33:e&#45;&gt;2.0.0:w</title>
<path fill="none" stroke="black" d="M525.29,-132C541.39,-132 547.77,-132 560.07,-132"/>
<polygon fill="black" stroke="black" points="560.29,-135.5 570.29,-132 560.29,-128.5 560.29,-135.5"/>
</g>
<!-- 9.0.6 -->
<g id="node8" class="node">
<title>9.0.6</title>
<polygon fill="none" stroke="black" points="328.29,-155 328.29,-174 387.29,-174 387.29,-155 328.29,-155"/>
<text text-anchor="start" x="331.29" y="-161.4" font-family="Monospace" font-size="12.00">ATGCTAA</text>
<text text-anchor="start" x="345.29" y="-143" font-family="Times,serif" font-size="10.00">9:0&#45;6</text>
</g>
<!-- 6.0.3&#45;&gt;9.0.6 -->
<g id="edge14" class="edge">
<title>6.0.3:e&#45;&gt;9.0.6:w</title>
<path fill="none" stroke="black" d="M265.79,-165C289.39,-165 297.71,-165 317.13,-165"/>
<polygon fill="black" stroke="black" points="317.29,-168.5 327.29,-165 317.29,-161.5 317.29,-168.5"/>
</g>
<!-- 7.0.6 -->
<g id="node9" class="node">
<title>7.0.6</title>
<polygon fill="none" stroke="black" points="328.29,-89 328.29,-108 387.29,-108 387.29,-89 328.29,-89"/>
<text text-anchor="start" x="331.29" y="-95.4" font-family="Monospace" font-size="12.00">ATGATAA</text>
<text text-anchor="start" x="345.29" y="-77" font-family="Times,serif" font-size="10.00">7:0&#45;6</text>
</g>
<!-- 6.0.3&#45;&gt;7.0.6 -->
<g id="edge5" class="edge">
<title>6.0.3:e&#45;&gt;7.0.6:w</title>
<path fill="none" stroke="black" d="M265.79,-165C301.97,-165 290.29,-111.26 317.12,-100.77"/>
<polygon fill="black" stroke="black" points="318.04,-104.16 327.29,-99 316.84,-97.26 318.04,-104.16"/>
</g>
<!-- 8.0.6 -->
<g id="node11" class="node">
<title>8.0.6</title>
<polygon fill="none" stroke="black" points="328.29,-23 328.29,-42 387.29,-42 387.29,-23 328.29,-23"/>
<text text-anchor="start" x="331.29" y="-29.4" font-family="Monospace" font-size="12.00">ATGTTAA</text>
<text text-anchor="start" x="345.29" y="-11" font-family="Times,serif" font-size="10.00">8:0&#45;6</text>
</g>
<!-- 6.0.3&#45;&gt;8.0.6 -->
<g id="edge18" class="edge">
<title>6.0.3:e&#45;&gt;8.0.6:w</title>
<path fill="none" stroke="black" d="M265.79,-165C326.72,-165 270.08,-48.02 317.23,-34.31"/>
<polygon fill="black" stroke="black" points="317.83,-37.76 327.29,-33 316.93,-30.82 317.83,-37.76"/>
</g>
<!-- 5.0.3&#45;&gt;9.0.6 -->
<g id="edge4" class="edge">
<title>5.0.3:e&#45;&gt;9.0.6:w</title>
<path fill="none" stroke="black" d="M265.79,-99C301.97,-99 290.29,-152.74 317.12,-163.23"/>
<polygon fill="black" stroke="black" points="316.84,-166.74 327.29,-165 318.04,-159.84 316.84,-166.74"/>
</g>
<!-- 5.0.3&#45;&gt;7.0.6 -->
<g id="edge17" class="edge">
<title>5.0.3:e&#45;&gt;7.0.6:w</title>
<path fill="none" stroke="black" d="M265.79,-99C289.39,-99 297.71,-99 317.13,-99"/>
<polygon fill="black" stroke="black" points="317.29,-102.5 327.29,-99 317.29,-95.5 317.29,-102.5"/>
</g>
<!-- 5.0.3&#45;&gt;8.0.6 -->
<g id="edge10" class="edge">
<title>5.0.3:e&#45;&gt;8.0.6:w</title>
<path fill="none" stroke="black" d="M265.79,-99C301.97,-99 290.29,-45.26 317.12,-34.77"/>
<polygon fill="black" stroke="black" points="318.04,-38.16 327.29,-33 316.84,-31.26 318.04,-38.16"/>
</g>
<!-- 9.0.6&#45;&gt;3.20.33 -->
<g id="edge6" class="edge">
<title>9.0.6:e&#45;&gt;3.20.33:w</title>
<path fill="none" stroke="black" d="M388.29,-165C415.39,-165 418.17,-139.51 439.37,-133.33"/>
<polygon fill="black" stroke="black" points="439.85,-136.8 449.29,-132 438.92,-129.86 439.85,-136.8"/>
</g>
<!-- 7.0.6&#45;&gt;3.20.33 -->
<g id="edge9" class="edge">
<title>7.0.6:e&#45;&gt;3.20.33:w</title>
<path fill="none" stroke="black" d="M388.29,-99C415.39,-99 418.17,-124.49 439.37,-130.67"/>
<polygon fill="black" stroke="black" points="438.92,-134.14 449.29,-132 439.85,-127.2 438.92,-134.14"/>
</g>
<!-- 4.0.3&#45;&gt;9.0.6 -->
<g id="edge8" class="edge">
<title>4.0.3:e&#45;&gt;9.0.6:w</title>
<path fill="none" stroke="black" d="M265.79,-33C326.72,-33 270.08,-149.98 317.23,-163.69"/>
<polygon fill="black" stroke="black" points="316.93,-167.18 327.29,-165 317.83,-160.24 316.93,-167.18"/>
</g>
<!-- 4.0.3&#45;&gt;7.0.6 -->
<g id="edge15" class="edge">
<title>4.0.3:e&#45;&gt;7.0.6:w</title>
<path fill="none" stroke="black" d="M265.79,-33C301.97,-33 290.29,-86.74 317.12,-97.23"/>
<polygon fill="black" stroke="black" points="316.84,-100.74 327.29,-99 318.04,-93.84 316.84,-100.74"/>
</g>
<!-- 4.0.3&#45;&gt;8.0.6 -->
<g id="edge7" class="edge">
<title>4.0.3:e&#45;&gt;8.0.6:w</title>
<path fill="none" stroke="black" d="M265.79,-33C289.39,-33 297.71,-33 317.13,-33"/>
<polygon fill="black" stroke="black" points="317.29,-36.5 327.29,-33 317.29,-29.5 317.29,-36.5"/>
</g>
<!-- 8.0.6&#45;&gt;3.20.33 -->
<g id="edge13" class="edge">
<title>8.0.6:e&#45;&gt;3.20.33:w</title>
<path fill="none" stroke="black" d="M388.29,-33C436.14,-33 403.38,-117.85 439.26,-130.44"/>
<polygon fill="black" stroke="black" points="438.88,-133.93 449.29,-132 439.95,-127.01 438.88,-133.93"/>
</g>
</g>
</svg>
