<?xml version="1.0" encoding="UTF-8" standalone="no"?>
<!DOCTYPE svg PUBLIC "-//W3C//DTD SVG 1.1//EN"
 "http://www.w3.org/Graphics/SVG/1.1/DTD/svg11.dtd">
<!-- Generated by graphviz version 12.1.1 (20240910.0053)
 -->
<!-- Pages: 1 -->
<svg width="439pt" height="110pt"
 viewBox="0.00 0.00 439.00 109.50" xmlns="http://www.w3.org/2000/svg" xmlns:xlink="http://www.w3.org/1999/xlink">
<g id="graph0" class="graph" transform="scale(1 1) rotate(0) translate(4 105.5)">
<polygon fill="white" stroke="none" points="-4,4 -4,-105.5 435,-105.5 435,4 -4,4"/>
<!-- start -->
<g id="node1" class="node">
<title>start</title>
<ellipse fill="none" stroke="black" cx="27" cy="-58.75" rx="27" ry="18"/>
<text text-anchor="middle" x="27" y="-53.7" font-family="serif,serif" font-size="14.00">start</text>
</g>
<!-- 1.0 -->
<g id="node2" class="node">
<title>1.0</title>
<polygon fill="none" stroke="black" points="92,-49.25 92,-69.5 158,-69.5 158,-49.25 92,-49.25"/>
<text text-anchor="start" x="95" y="-56.1" font-family="Monospace" font-weight="bold" font-size="12.00">ATGTATAC</text>
<text text-anchor="start" x="114.12" y="-35.75" font-family="serif,serif" font-size="10.00">1:0&#45;7</text>
</g>
<!-- start&#45;&gt;1.0 -->
<g id="edge1" class="edge">
<title>start:e&#45;&gt;1.0:w</title>
<path fill="none" stroke="black" d="M54,-58.75C65.82,-58.75 71.27,-59.07 79.5,-59.25"/>
<polygon fill="black" stroke="black" points="79.45,-62.75 89.49,-59.36 79.52,-55.75 79.45,-62.75"/>
</g>
<!-- 1.8 -->
<g id="node3" class="node">
<title>1.8</title>
<polygon fill="none" stroke="black" points="210.13,-79.25 210.13,-99.5 235.88,-99.5 235.88,-79.25 210.13,-79.25"/>
<text text-anchor="start" x="215.5" y="-85.1" font-family="Monospace" font-size="12.00">AT</text>
<text text-anchor="start" x="212.13" y="-65.75" font-family="serif,serif" font-size="10.00">1:8&#45;9</text>
</g>
<!-- 1.0&#45;&gt;1.8 -->
<g id="edge2" class="edge">
<title>1.0:e&#45;&gt;1.8:w</title>
<path fill="none" stroke="black" stroke-dasharray="5,2" d="M159,-59.38C180.5,-59.38 182.96,-79.95 197.92,-87.02"/>
<polygon fill="black" stroke="black" points="197.14,-90.43 207.64,-89.06 198.58,-83.58 197.14,-90.43"/>
</g>
<!-- 2.0 -->
<g id="node4" class="node">
<title>2.0</title>
<polygon fill="none" stroke="black" points="210.13,-19.25 210.13,-39.5 235.88,-39.5 235.88,-19.25 210.13,-19.25"/>
<text text-anchor="start" x="215.5" y="-26.1" font-family="Monospace" font-weight="bold" font-size="12.00">TG</text>
<text text-anchor="start" x="212.13" y="-5.75" font-family="serif,serif" font-size="10.00">2:0&#45;1</text>
</g>
<!-- 1.0&#45;&gt;2.0 -->
<g id="edge3" class="edge">
<title>1.0:e&#45;&gt;2.0:w</title>
<path fill="none" stroke="black" d="M159,-59.38C180.5,-59.38 182.96,-38.8 197.92,-31.73"/>
<polygon fill="black" stroke="black" points="198.58,-35.17 207.64,-29.69 197.14,-28.32 198.58,-35.17"/>
</g>
<!-- 1.10 -->
<g id="node5" class="node">
<title>1.10</title>
<polygon fill="none" stroke="black" points="288,-49.25 288,-69.5 339,-69.5 339,-49.25 288,-49.25"/>
<text text-anchor="start" x="291" y="-56.1" font-family="Monospace" font-weight="bold" font-size="12.00">CACGGC</text>
<text text-anchor="start" x="297.38" y="-35.75" font-family="serif,serif" font-size="10.00">1:10&#45;15</text>
</g>
<!-- 1.8&#45;&gt;1.10 -->
<g id="edge4" class="edge">
<title>1.8:e&#45;&gt;1.10:w</title>
<path fill="none" stroke="black" stroke-dasharray="5,2" d="M236.88,-89.38C258.38,-89.38 260.84,-68.8 275.79,-61.73"/>
<polygon fill="black" stroke="black" points="276.45,-65.17 285.52,-59.69 275.01,-58.32 276.45,-65.17"/>
</g>
<!-- 2.0&#45;&gt;1.10 -->
<g id="edge5" class="edge">
<title>2.0:e&#45;&gt;1.10:w</title>
<path fill="none" stroke="black" d="M236.88,-29.38C258.38,-29.38 260.84,-49.95 275.79,-57.02"/>
<polygon fill="black" stroke="black" points="275.01,-60.43 285.52,-59.06 276.45,-53.58 275.01,-60.43"/>
</g>
<!-- end -->
<g id="node6" class="node">
<title>end</title>
<ellipse fill="none" stroke="black" cx="404" cy="-58.75" rx="27" ry="18"/>
<text text-anchor="middle" x="404" y="-53.7" font-family="serif,serif" font-size="14.00">end</text>
</g>
<!-- 1.10&#45;&gt;end -->
<g id="edge6" class="edge">
<title>1.10:e&#45;&gt;end:w</title>
<path fill="none" stroke="black" d="M340,-59.38C351.82,-59.38 357.27,-59.05 365.5,-58.87"/>
<polygon fill="black" stroke="black" points="365.52,-62.37 375.49,-58.77 365.45,-55.37 365.52,-62.37"/>
</g>
</g>
</svg>
