<?xml version="1.0" encoding="UTF-8" standalone="no"?>
<!DOCTYPE svg PUBLIC "-//W3C//DTD SVG 1.1//EN"
 "http://www.w3.org/Graphics/SVG/1.1/DTD/svg11.dtd">
<!-- Generated by graphviz version 12.2.1 (20241206.2353)
 -->
<!-- Pages: 1 -->
<svg width="350pt" height="116pt"
 viewBox="0.00 0.00 350.40 116.00" xmlns="http://www.w3.org/2000/svg" xmlns:xlink="http://www.w3.org/1999/xlink">
<g id="graph0" class="graph" transform="scale(1 1) rotate(0) translate(4 112)">
<polygon fill="white" stroke="none" points="-4,4 -4,-112 346.4,-112 346.4,4 -4,4"/>
<!-- start -->
<g id="node1" class="node">
<title>start</title>
<ellipse fill="none" stroke="black" cx="16.2" cy="-90" rx="16.2" ry="10.8"/>
<text text-anchor="middle" x="16.2" y="-85.72" font-family="serif,serif" font-size="12.00">Start</text>
</g>
<!-- 1 -->
<g id="node2" class="node">
<title>1</title>
<text text-anchor="start" x="51.95" y="-84.95" font-family="serif,serif" font-size="14.00">1:</text>
<polygon fill="none" stroke="black" points="64.45,-78.38 64.45,-101.62 78.7,-101.62 78.7,-78.38 64.45,-78.38"/>
<text text-anchor="start" x="67.45" y="-85.33" font-family="Monospace" font-size="14.00">A</text>
<polygon fill="none" stroke="black" points="78.7,-78.38 78.7,-101.62 92.95,-101.62 92.95,-78.38 78.7,-78.38"/>
<text text-anchor="start" x="81.7" y="-85.33" font-family="Monospace" font-size="14.00">T</text>
<polygon fill="none" stroke="black" points="92.95,-78.38 92.95,-101.62 107.2,-101.62 107.2,-78.38 92.95,-78.38"/>
<text text-anchor="start" x="95.95" y="-85.33" font-family="Monospace" font-size="14.00">G</text>
<polygon fill="none" stroke="black" points="107.2,-78.38 107.2,-101.62 121.45,-101.62 121.45,-78.38 107.2,-78.38"/>
<text text-anchor="start" x="110.2" y="-85.33" font-family="Monospace" font-size="14.00">T</text>
<polygon fill="none" stroke="black" points="121.45,-78.38 121.45,-101.62 135.7,-101.62 135.7,-78.38 121.45,-78.38"/>
<text text-anchor="start" x="124.45" y="-85.33" font-family="Monospace" font-size="14.00">A</text>
<polygon fill="none" stroke="black" points="135.7,-78.38 135.7,-101.62 149.95,-101.62 149.95,-78.38 135.7,-78.38"/>
<text text-anchor="start" x="138.7" y="-85.33" font-family="Monospace" font-size="14.00">T</text>
<polygon fill="none" stroke="black" points="149.95,-78.38 149.95,-101.62 164.2,-101.62 164.2,-78.38 149.95,-78.38"/>
<text text-anchor="start" x="152.95" y="-85.33" font-family="Monospace" font-size="14.00">A</text>
<polygon fill="none" stroke="black" points="164.2,-78.38 164.2,-101.62 178.45,-101.62 178.45,-78.38 164.2,-78.38"/>
<text text-anchor="start" x="167.2" y="-85.33" font-family="Monospace" font-size="14.00">C</text>
<polygon fill="none" stroke="black" points="178.45,-78.38 178.45,-101.62 192.7,-101.62 192.7,-78.38 178.45,-78.38"/>
<text text-anchor="start" x="181.45" y="-85.33" font-family="Monospace" font-size="14.00">A</text>
<polygon fill="none" stroke="black" points="192.7,-78.38 192.7,-101.62 206.95,-101.62 206.95,-78.38 192.7,-78.38"/>
<text text-anchor="start" x="195.7" y="-85.33" font-family="Monospace" font-size="14.00">T</text>
<polygon fill="none" stroke="black" points="206.95,-78.38 206.95,-101.62 221.2,-101.62 221.2,-78.38 206.95,-78.38"/>
<text text-anchor="start" x="209.95" y="-85.33" font-family="Monospace" font-size="14.00">C</text>
<polygon fill="none" stroke="black" points="221.2,-78.38 221.2,-101.62 235.45,-101.62 235.45,-78.38 221.2,-78.38"/>
<text text-anchor="start" x="224.2" y="-85.33" font-family="Monospace" font-size="14.00">A</text>
<polygon fill="none" stroke="black" points="235.45,-78.38 235.45,-101.62 249.7,-101.62 249.7,-78.38 235.45,-78.38"/>
<text text-anchor="start" x="238.45" y="-85.33" font-family="Monospace" font-size="14.00">C</text>
<polygon fill="none" stroke="black" points="249.7,-78.38 249.7,-101.62 263.95,-101.62 263.95,-78.38 249.7,-78.38"/>
<text text-anchor="start" x="252.7" y="-85.33" font-family="Monospace" font-size="14.00">G</text>
<polygon fill="none" stroke="black" points="263.95,-78.38 263.95,-101.62 278.2,-101.62 278.2,-78.38 263.95,-78.38"/>
<text text-anchor="start" x="266.95" y="-85.33" font-family="Monospace" font-size="14.00">G</text>
<polygon fill="none" stroke="black" points="278.2,-78.38 278.2,-101.62 292.45,-101.62 292.45,-78.38 278.2,-78.38"/>
<text text-anchor="start" x="281.2" y="-85.33" font-family="Monospace" font-size="14.00">C</text>
</g>
<!-- start&#45;&gt;1 -->
<g id="edge1" class="edge">
<title>start&#45;&gt;1:caption</title>
<path fill="none" stroke="black" d="M32.86,-90C34.72,-90 36.66,-90 38.64,-90"/>
<polygon fill="black" stroke="black" points="38.43,-93.5 48.43,-90 38.43,-86.5 38.43,-93.5"/>
</g>
<!-- 2 -->
<g id="node3" class="node">
<title>2</title>
<text text-anchor="start" x="165.7" y="-12.95" font-family="serif,serif" font-size="14.00">2:</text>
<polygon fill="none" stroke="black" points="178.2,-6.38 178.2,-29.62 192.45,-29.62 192.45,-6.38 178.2,-6.38"/>
<text text-anchor="start" x="181.2" y="-14.32" font-family="Monospace" font-weight="bold" font-size="14.00">T</text>
<polygon fill="none" stroke="black" points="192.45,-6.38 192.45,-29.62 206.7,-29.62 206.7,-6.38 192.45,-6.38"/>
<text text-anchor="start" x="195.45" y="-14.32" font-family="Monospace" font-weight="bold" font-size="14.00">G</text>
</g>
<!-- 1&#45;&gt;2 -->
<g id="edge2" class="edge">
<title>1:7&#45;&gt;2:0</title>
<path fill="none" stroke="black" d="M171.32,-77.38C171.32,-60.09 180.22,-54.44 183.83,-41.88"/>
<polygon fill="black" stroke="black" points="187.28,-42.5 185.13,-32.13 180.34,-41.58 187.28,-42.5"/>
</g>
<!-- end -->
<g id="node4" class="node">
<title>end</title>
<ellipse fill="none" stroke="black" cx="326.2" cy="-90" rx="16.2" ry="10.8"/>
<text text-anchor="middle" x="326.2" y="-85.72" font-family="serif,serif" font-size="12.00">End</text>
</g>
<!-- 1&#45;&gt;end -->
<g id="edge3" class="edge">
<title>1:15&#45;&gt;end:w</title>
<path fill="none" stroke="black" d="M292.45,-90C295.13,-90 297.12,-90 298.9,-90"/>
<polygon fill="black" stroke="black" points="298.49,-93.5 308.49,-90 298.49,-86.5 298.49,-93.5"/>
</g>
<!-- 2&#45;&gt;1 -->
<g id="edge4" class="edge">
<title>2:1&#45;&gt;1:10</title>
<path fill="none" stroke="black" d="M199.57,-30.62C199.57,-47.96 208.78,-53.54 212.52,-66.1"/>
<polygon fill="black" stroke="black" points="209.04,-66.45 213.87,-75.88 215.97,-65.49 209.04,-66.45"/>
</g>
</g>
</svg>
