<?xml version="1.0" encoding="UTF-8" standalone="no"?>
<!DOCTYPE svg PUBLIC "-//W3C//DTD SVG 1.1//EN"
 "http://www.w3.org/Graphics/SVG/1.1/DTD/svg11.dtd">
<!-- Generated by graphviz version 12.1.1 (20240910.0053)
 -->
<!-- Pages: 1 -->
<svg width="428pt" height="116pt"
 viewBox="0.00 0.00 428.00 116.00" xmlns="http://www.w3.org/2000/svg" xmlns:xlink="http://www.w3.org/1999/xlink">
<g id="graph0" class="graph" transform="scale(1 1) rotate(0) translate(4 112)">
<polygon fill="white" stroke="none" points="-4,4 -4,-112 424,-112 424,4 -4,4"/>
<!-- start -->
<g id="node1" class="node">
<title>start</title>
<ellipse fill="none" stroke="black" cx="27" cy="-90" rx="27" ry="18"/>
<text text-anchor="middle" x="27" y="-84.95" font-family="serif,serif" font-size="14.00">start</text>
</g>
<!-- 1 -->
<g id="node2" class="node">
<title>1</title>
<text text-anchor="start" x="74.75" y="-84.95" font-family="serif,serif" font-size="14.00">1:</text>
<polygon fill="none" stroke="black" points="88.25,-77.38 88.25,-102.62 104.5,-102.62 104.5,-77.38 88.25,-77.38"/>
<text text-anchor="start" x="92.25" y="-85.33" font-family="Monospace" font-size="14.00">A</text>
<polygon fill="none" stroke="black" points="104.5,-77.38 104.5,-102.62 120.75,-102.62 120.75,-77.38 104.5,-77.38"/>
<text text-anchor="start" x="108.5" y="-85.33" font-family="Monospace" font-size="14.00">T</text>
<polygon fill="none" stroke="black" points="120.75,-77.38 120.75,-102.62 137,-102.62 137,-77.38 120.75,-77.38"/>
<text text-anchor="start" x="124.75" y="-85.33" font-family="Monospace" font-size="14.00">G</text>
<polygon fill="none" stroke="black" points="137,-77.38 137,-102.62 153.25,-102.62 153.25,-77.38 137,-77.38"/>
<text text-anchor="start" x="141" y="-85.33" font-family="Monospace" font-size="14.00">T</text>
<polygon fill="none" stroke="black" points="153.25,-77.38 153.25,-102.62 169.5,-102.62 169.5,-77.38 153.25,-77.38"/>
<text text-anchor="start" x="157.25" y="-85.33" font-family="Monospace" font-size="14.00">A</text>
<polygon fill="none" stroke="black" points="169.5,-77.38 169.5,-102.62 185.75,-102.62 185.75,-77.38 169.5,-77.38"/>
<text text-anchor="start" x="173.5" y="-85.33" font-family="Monospace" font-size="14.00">T</text>
<polygon fill="none" stroke="black" points="185.75,-77.38 185.75,-102.62 202,-102.62 202,-77.38 185.75,-77.38"/>
<text text-anchor="start" x="189.75" y="-85.33" font-family="Monospace" font-size="14.00">A</text>
<polygon fill="none" stroke="black" points="202,-77.38 202,-102.62 218.25,-102.62 218.25,-77.38 202,-77.38"/>
<text text-anchor="start" x="206" y="-85.33" font-family="Monospace" font-size="14.00">C</text>
<polygon fill="none" stroke="black" points="218.25,-77.38 218.25,-102.62 234.5,-102.62 234.5,-77.38 218.25,-77.38"/>
<text text-anchor="start" x="222.25" y="-85.33" font-family="Monospace" font-size="14.00">A</text>
<polygon fill="none" stroke="black" points="234.5,-77.38 234.5,-102.62 250.75,-102.62 250.75,-77.38 234.5,-77.38"/>
<text text-anchor="start" x="238.5" y="-85.33" font-family="Monospace" font-size="14.00">T</text>
<polygon fill="none" stroke="black" points="250.75,-77.38 250.75,-102.62 267,-102.62 267,-77.38 250.75,-77.38"/>
<text text-anchor="start" x="254.75" y="-85.33" font-family="Monospace" font-size="14.00">C</text>
<polygon fill="none" stroke="black" points="267,-77.38 267,-102.62 283.25,-102.62 283.25,-77.38 267,-77.38"/>
<text text-anchor="start" x="271" y="-85.33" font-family="Monospace" font-size="14.00">A</text>
<polygon fill="none" stroke="black" points="283.25,-77.38 283.25,-102.62 299.5,-102.62 299.5,-77.38 283.25,-77.38"/>
<text text-anchor="start" x="287.25" y="-85.33" font-family="Monospace" font-size="14.00">C</text>
<polygon fill="none" stroke="black" points="299.5,-77.38 299.5,-102.62 315.75,-102.62 315.75,-77.38 299.5,-77.38"/>
<text text-anchor="start" x="303.5" y="-85.33" font-family="Monospace" font-size="14.00">G</text>
<polygon fill="none" stroke="black" points="315.75,-77.38 315.75,-102.62 332,-102.62 332,-77.38 315.75,-77.38"/>
<text text-anchor="start" x="319.75" y="-85.33" font-family="Monospace" font-size="14.00">G</text>
<polygon fill="none" stroke="black" points="332,-77.38 332,-102.62 348.25,-102.62 348.25,-77.38 332,-77.38"/>
<text text-anchor="start" x="336" y="-85.33" font-family="Monospace" font-size="14.00">C</text>
</g>
<!-- start&#45;&gt;1 -->
<g id="edge1" class="edge">
<title>start&#45;&gt;1:caption</title>
<path fill="none" stroke="black" d="M54.37,-90C56.34,-90 58.35,-90 60.36,-90"/>
<polygon fill="black" stroke="black" points="60.24,-93.5 70.24,-90 60.24,-86.5 60.24,-93.5"/>
</g>
<!-- 2 -->
<g id="node3" class="node">
<title>2</title>
<text text-anchor="start" x="204.5" y="-12.95" font-family="serif,serif" font-size="14.00">2:</text>
<polygon fill="none" stroke="black" points="218,-5.38 218,-30.62 234.25,-30.62 234.25,-5.38 218,-5.38"/>
<text text-anchor="start" x="222" y="-14.32" font-family="Monospace" font-weight="bold" font-size="14.00">T</text>
<polygon fill="none" stroke="black" points="234.25,-5.38 234.25,-30.62 250.5,-30.62 250.5,-5.38 234.25,-5.38"/>
<text text-anchor="start" x="238.25" y="-14.32" font-family="Monospace" font-weight="bold" font-size="14.00">G</text>
</g>
<!-- 1&#45;&gt;2 -->
<g id="edge2" class="edge">
<title>1:7&#45;&gt;2:0</title>
<path fill="none" stroke="black" d="M210.12,-76.38C210.12,-59.71 220.09,-54.63 224.29,-42.86"/>
<polygon fill="black" stroke="black" points="227.72,-43.55 225.88,-33.12 220.81,-42.42 227.72,-43.55"/>
</g>
<!-- end -->
<g id="node4" class="node">
<title>end</title>
<ellipse fill="none" stroke="black" cx="393" cy="-90" rx="27" ry="18"/>
<text text-anchor="middle" x="393" y="-84.95" font-family="serif,serif" font-size="14.00">end</text>
</g>
<!-- 1&#45;&gt;end -->
<g id="edge3" class="edge">
<title>1:15&#45;&gt;end:w</title>
<path fill="none" stroke="black" d="M348.25,-90C350.96,-90 352.98,-90 354.77,-90"/>
<polygon fill="black" stroke="black" points="354.49,-93.5 364.49,-90 354.49,-86.5 354.49,-93.5"/>
</g>
<!-- 2&#45;&gt;1 -->
<g id="edge4" class="edge">
<title>2:1&#45;&gt;1:10</title>
<path fill="none" stroke="black" d="M242.38,-31.62C242.38,-48.35 252.65,-53.35 256.98,-65.12"/>
<polygon fill="black" stroke="black" points="253.51,-65.6 258.62,-74.88 260.42,-64.44 253.51,-65.6"/>
</g>
</g>
</svg>
