<?xml version="1.0" encoding="UTF-8" standalone="no"?>
<!DOCTYPE svg PUBLIC "-//W3C//DTD SVG 1.1//EN"
 "http://www.w3.org/Graphics/SVG/1.1/DTD/svg11.dtd">
<!-- Generated by graphviz version 12.1.1 (20240910.0053)
 -->
<!-- Pages: 1 -->
<svg width="398pt" height="116pt"
 viewBox="0.00 0.00 398.00 116.00" xmlns="http://www.w3.org/2000/svg" xmlns:xlink="http://www.w3.org/1999/xlink">
<g id="graph0" class="graph" transform="scale(1 1) rotate(0) translate(4 112)">
<polygon fill="white" stroke="none" points="-4,4 -4,-112 394,-112 394,4 -4,4"/>
<!-- source -->
<g id="node1" class="node">
<title>source</title>
<ellipse fill="none" stroke="black" cx="27" cy="-90" rx="27" ry="18"/>
<text text-anchor="middle" x="27" y="-84.95" font-family="Times,serif" font-size="14.00">start</text>
</g>
<!-- 1 -->
<g id="node2" class="node">
<title>1</title>
<text text-anchor="start" x="73.88" y="-84.95" font-family="Times,serif" font-size="14.00">1: </text>
<polygon fill="none" stroke="black" points="90.12,-78.75 90.12,-101.25 104.38,-101.25 104.38,-78.75 90.12,-78.75"/>
<text text-anchor="start" x="93.12" y="-85.95" font-family="Courier New" font-weight="bold" font-size="14.00">A</text>
<polygon fill="none" stroke="black" points="104.38,-78.75 104.38,-101.25 118.62,-101.25 118.62,-78.75 104.38,-78.75"/>
<text text-anchor="start" x="107.38" y="-85.95" font-family="Courier New" font-weight="bold" font-size="14.00">T</text>
<polygon fill="none" stroke="black" points="118.62,-78.75 118.62,-101.25 132.88,-101.25 132.88,-78.75 118.62,-78.75"/>
<text text-anchor="start" x="121.62" y="-85.95" font-family="Courier New" font-weight="bold" font-size="14.00">G</text>
<polygon fill="none" stroke="black" points="132.88,-78.75 132.88,-101.25 147.12,-101.25 147.12,-78.75 132.88,-78.75"/>
<text text-anchor="start" x="135.88" y="-85.95" font-family="Courier New" font-weight="bold" font-size="14.00">T</text>
<polygon fill="none" stroke="black" points="147.12,-78.75 147.12,-101.25 161.38,-101.25 161.38,-78.75 147.12,-78.75"/>
<text text-anchor="start" x="150.12" y="-85.95" font-family="Courier New" font-weight="bold" font-size="14.00">A</text>
<polygon fill="none" stroke="black" points="161.38,-78.75 161.38,-101.25 175.62,-101.25 175.62,-78.75 161.38,-78.75"/>
<text text-anchor="start" x="164.38" y="-85.95" font-family="Courier New" font-weight="bold" font-size="14.00">T</text>
<polygon fill="none" stroke="black" points="175.62,-78.75 175.62,-101.25 189.88,-101.25 189.88,-78.75 175.62,-78.75"/>
<text text-anchor="start" x="178.62" y="-85.95" font-family="Courier New" font-weight="bold" font-size="14.00">A</text>
<polygon fill="none" stroke="black" points="189.88,-78.75 189.88,-101.25 204.12,-101.25 204.12,-78.75 189.88,-78.75"/>
<text text-anchor="start" x="192.88" y="-85.95" font-family="Courier New" font-weight="bold" font-size="14.00">C</text>
<polygon fill="none" stroke="black" points="204.12,-78.75 204.12,-101.25 218.38,-101.25 218.38,-78.75 204.12,-78.75"/>
<text text-anchor="start" x="207.12" y="-84.95" font-family="Courier New" font-size="14.00">A</text>
<polygon fill="none" stroke="black" points="218.38,-78.75 218.38,-101.25 232.62,-101.25 232.62,-78.75 218.38,-78.75"/>
<text text-anchor="start" x="221.38" y="-84.95" font-family="Courier New" font-size="14.00">T</text>
<polygon fill="none" stroke="black" points="232.62,-78.75 232.62,-101.25 246.88,-101.25 246.88,-78.75 232.62,-78.75"/>
<text text-anchor="start" x="235.62" y="-85.95" font-family="Courier New" font-weight="bold" font-size="14.00">C</text>
<polygon fill="none" stroke="black" points="246.88,-78.75 246.88,-101.25 261.12,-101.25 261.12,-78.75 246.88,-78.75"/>
<text text-anchor="start" x="249.88" y="-85.95" font-family="Courier New" font-weight="bold" font-size="14.00">A</text>
<polygon fill="none" stroke="black" points="261.12,-78.75 261.12,-101.25 275.38,-101.25 275.38,-78.75 261.12,-78.75"/>
<text text-anchor="start" x="264.12" y="-85.95" font-family="Courier New" font-weight="bold" font-size="14.00">C</text>
<polygon fill="none" stroke="black" points="275.38,-78.75 275.38,-101.25 289.62,-101.25 289.62,-78.75 275.38,-78.75"/>
<text text-anchor="start" x="278.38" y="-85.95" font-family="Courier New" font-weight="bold" font-size="14.00">G</text>
<polygon fill="none" stroke="black" points="289.62,-78.75 289.62,-101.25 303.88,-101.25 303.88,-78.75 289.62,-78.75"/>
<text text-anchor="start" x="292.62" y="-85.95" font-family="Courier New" font-weight="bold" font-size="14.00">G</text>
<polygon fill="none" stroke="black" points="303.88,-78.75 303.88,-101.25 318.12,-101.25 318.12,-78.75 303.88,-78.75"/>
<text text-anchor="start" x="306.88" y="-85.95" font-family="Courier New" font-weight="bold" font-size="14.00">C</text>
</g>
<!-- source&#45;&gt;1 -->
<g id="edge1" class="edge">
<title>source:e&#45;&gt;1:caption</title>
<path fill="none" stroke="black" d="M54,-90C56.73,-90 58.76,-90 60.56,-90"/>
<polygon fill="black" stroke="black" points="60.36,-93.5 70.36,-90 60.36,-86.5 60.36,-93.5"/>
</g>
<!-- 2 -->
<g id="node3" class="node">
<title>2</title>
<text text-anchor="start" x="187.62" y="-12.95" font-family="Times,serif" font-size="14.00">2: </text>
<polygon fill="none" stroke="black" points="203.88,-6.75 203.88,-29.25 218.12,-29.25 218.12,-6.75 203.88,-6.75"/>
<text text-anchor="start" x="206.88" y="-13.95" font-family="Courier New" font-weight="bold" font-size="14.00">T</text>
<polygon fill="none" stroke="black" points="218.12,-6.75 218.12,-29.25 232.38,-29.25 232.38,-6.75 218.12,-6.75"/>
<text text-anchor="start" x="221.12" y="-13.95" font-family="Courier New" font-weight="bold" font-size="14.00">G</text>
</g>
<!-- 1&#45;&gt;2 -->
<g id="edge2" class="edge">
<title>1:7&#45;&gt;2:0</title>
<path fill="none" stroke="black" d="M197,-77.75C197,-60.04 206.07,-54.33 209.61,-41.3"/>
<polygon fill="black" stroke="black" points="213.03,-42.11 210.81,-31.75 206.09,-41.24 213.03,-42.11"/>
</g>
<!-- sink -->
<g id="node4" class="node">
<title>sink</title>
<ellipse fill="none" stroke="black" cx="363" cy="-90" rx="27" ry="18"/>
<text text-anchor="middle" x="363" y="-84.95" font-family="Times,serif" font-size="14.00">sink</text>
</g>
<!-- 1&#45;&gt;sink -->
<g id="edge3" class="edge">
<title>1:15&#45;&gt;sink:w</title>
<path fill="none" stroke="black" d="M318.12,-90C320.86,-90 322.88,-90 324.69,-90"/>
<polygon fill="black" stroke="black" points="324.49,-93.5 334.49,-90 324.49,-86.5 324.49,-93.5"/>
</g>
<!-- 2&#45;&gt;1 -->
<g id="edge4" class="edge">
<title>2:1&#45;&gt;1:10</title>
<path fill="none" stroke="black" d="M225.25,-30.25C225.25,-48.01 234.64,-53.65 238.31,-66.68"/>
<polygon fill="black" stroke="black" points="234.79,-66.79 239.55,-76.25 241.73,-65.88 234.79,-66.79"/>
</g>
</g>
</svg>
