<?xml version="1.0" encoding="UTF-8" standalone="no"?>
<!DOCTYPE svg PUBLIC "-//W3C//DTD SVG 1.1//EN"
 "http://www.w3.org/Graphics/SVG/1.1/DTD/svg11.dtd">
<!-- Generated by graphviz version 12.1.1 (20240910.0053)
 -->
<!-- Pages: 1 -->
<svg width="581pt" height="98pt"
 viewBox="0.00 0.00 581.00 98.00" xmlns="http://www.w3.org/2000/svg" xmlns:xlink="http://www.w3.org/1999/xlink">
<g id="graph0" class="graph" transform="scale(1 1) rotate(0) translate(4 94)">
<polygon fill="white" stroke="none" points="-4,4 -4,-94 577,-94 577,4 -4,4"/>
<!-- source -->
<g id="node1" class="node">
<title>source</title>
<ellipse fill="none" stroke="black" cx="27" cy="-45" rx="27" ry="18"/>
<text text-anchor="middle" x="27" y="-39.95" font-family="Times,serif" font-size="14.00">start</text>
</g>
<!-- 1.0 -->
<g id="node2" class="node">
<title>1.0</title>
<text text-anchor="start" x="92" y="-39.95" font-family="Times,serif" font-size="14.00">1.0: </text>
<polygon fill="none" stroke="black" points="118.75,-33.75 118.75,-56.25 133,-56.25 133,-33.75 118.75,-33.75"/>
<text text-anchor="start" x="121.75" y="-40.95" font-family="Courier New" font-weight="bold" font-size="14.00">A</text>
<polygon fill="none" stroke="black" points="133,-33.75 133,-56.25 147.25,-56.25 147.25,-33.75 133,-33.75"/>
<text text-anchor="start" x="136" y="-40.95" font-family="Courier New" font-weight="bold" font-size="14.00">T</text>
<polygon fill="none" stroke="black" points="147.25,-33.75 147.25,-56.25 161.5,-56.25 161.5,-33.75 147.25,-33.75"/>
<text text-anchor="start" x="150.25" y="-40.95" font-family="Courier New" font-weight="bold" font-size="14.00">G</text>
<polygon fill="none" stroke="black" points="161.5,-33.75 161.5,-56.25 175.75,-56.25 175.75,-33.75 161.5,-33.75"/>
<text text-anchor="start" x="164.5" y="-40.95" font-family="Courier New" font-weight="bold" font-size="14.00">T</text>
<polygon fill="none" stroke="black" points="175.75,-33.75 175.75,-56.25 190,-56.25 190,-33.75 175.75,-33.75"/>
<text text-anchor="start" x="178.75" y="-40.95" font-family="Courier New" font-weight="bold" font-size="14.00">A</text>
<polygon fill="none" stroke="black" points="190,-33.75 190,-56.25 204.25,-56.25 204.25,-33.75 190,-33.75"/>
<text text-anchor="start" x="193" y="-40.95" font-family="Courier New" font-weight="bold" font-size="14.00">T</text>
<polygon fill="none" stroke="black" points="204.25,-33.75 204.25,-56.25 218.5,-56.25 218.5,-33.75 204.25,-33.75"/>
<text text-anchor="start" x="207.25" y="-40.95" font-family="Courier New" font-weight="bold" font-size="14.00">A</text>
<polygon fill="none" stroke="black" points="218.5,-33.75 218.5,-56.25 232.75,-56.25 232.75,-33.75 218.5,-33.75"/>
<text text-anchor="start" x="221.5" y="-40.95" font-family="Courier New" font-weight="bold" font-size="14.00">C</text>
</g>
<!-- source&#45;&gt;1.0 -->
<g id="edge1" class="edge">
<title>source:e&#45;&gt;1.0:w</title>
<path fill="none" stroke="black" d="M54,-45C65.38,-45 70.68,-45 78.55,-45"/>
<polygon fill="black" stroke="black" points="78.49,-48.5 88.49,-45 78.49,-41.5 78.49,-48.5"/>
</g>
<!-- 1.8 -->
<g id="node3" class="node">
<title>1.8</title>
<text text-anchor="start" x="270.75" y="-66.95" font-family="Times,serif" font-size="14.00">1.8: </text>
<polygon fill="none" stroke="black" points="297.5,-60.75 297.5,-83.25 311.75,-83.25 311.75,-60.75 297.5,-60.75"/>
<text text-anchor="start" x="300.5" y="-66.95" font-family="Courier New" font-size="14.00">A</text>
<polygon fill="none" stroke="black" points="311.75,-60.75 311.75,-83.25 326,-83.25 326,-60.75 311.75,-60.75"/>
<text text-anchor="start" x="314.75" y="-66.95" font-family="Courier New" font-size="14.00">T</text>
</g>
<!-- 1.0&#45;&gt;1.8 -->
<g id="edge2" class="edge">
<title>1.0:e&#45;&gt;1.8:w</title>
<path fill="none" stroke="black" stroke-dasharray="5,2" d="M232.75,-45C248.06,-45 249.31,-60.83 258.02,-68.25"/>
<polygon fill="black" stroke="black" points="256.73,-71.5 267.32,-71.5 259.04,-64.89 256.73,-71.5"/>
</g>
<!-- 2.0 -->
<g id="node4" class="node">
<title>2.0</title>
<text text-anchor="start" x="270.75" y="-12.95" font-family="Times,serif" font-size="14.00">2.0: </text>
<polygon fill="none" stroke="black" points="297.5,-6.75 297.5,-29.25 311.75,-29.25 311.75,-6.75 297.5,-6.75"/>
<text text-anchor="start" x="300.5" y="-13.95" font-family="Courier New" font-weight="bold" font-size="14.00">T</text>
<polygon fill="none" stroke="black" points="311.75,-6.75 311.75,-29.25 326,-29.25 326,-6.75 311.75,-6.75"/>
<text text-anchor="start" x="314.75" y="-13.95" font-family="Courier New" font-weight="bold" font-size="14.00">G</text>
</g>
<!-- 1.0&#45;&gt;2.0 -->
<g id="edge3" class="edge">
<title>1.0:e&#45;&gt;2.0:w</title>
<path fill="none" stroke="black" d="M232.75,-45C248.06,-45 249.31,-29.17 258.02,-21.75"/>
<polygon fill="black" stroke="black" points="259.04,-25.11 267.32,-18.5 256.73,-18.5 259.04,-25.11"/>
</g>
<!-- 1.10 -->
<g id="node5" class="node">
<title>1.10</title>
<text text-anchor="start" x="364" y="-39.95" font-family="Times,serif" font-size="14.00">1.10: </text>
<polygon fill="none" stroke="black" points="397.5,-33.75 397.5,-56.25 411.75,-56.25 411.75,-33.75 397.5,-33.75"/>
<text text-anchor="start" x="400.5" y="-40.95" font-family="Courier New" font-weight="bold" font-size="14.00">C</text>
<polygon fill="none" stroke="black" points="411.75,-33.75 411.75,-56.25 426,-56.25 426,-33.75 411.75,-33.75"/>
<text text-anchor="start" x="414.75" y="-40.95" font-family="Courier New" font-weight="bold" font-size="14.00">A</text>
<polygon fill="none" stroke="black" points="426,-33.75 426,-56.25 440.25,-56.25 440.25,-33.75 426,-33.75"/>
<text text-anchor="start" x="429" y="-40.95" font-family="Courier New" font-weight="bold" font-size="14.00">C</text>
<polygon fill="none" stroke="black" points="440.25,-33.75 440.25,-56.25 454.5,-56.25 454.5,-33.75 440.25,-33.75"/>
<text text-anchor="start" x="443.25" y="-40.95" font-family="Courier New" font-weight="bold" font-size="14.00">G</text>
<polygon fill="none" stroke="black" points="454.5,-33.75 454.5,-56.25 468.75,-56.25 468.75,-33.75 454.5,-33.75"/>
<text text-anchor="start" x="457.5" y="-40.95" font-family="Courier New" font-weight="bold" font-size="14.00">G</text>
<polygon fill="none" stroke="black" points="468.75,-33.75 468.75,-56.25 483,-56.25 483,-33.75 468.75,-33.75"/>
<text text-anchor="start" x="471.75" y="-40.95" font-family="Courier New" font-weight="bold" font-size="14.00">C</text>
</g>
<!-- 1.8&#45;&gt;1.10 -->
<g id="edge4" class="edge">
<title>1.8:e&#45;&gt;1.10:w</title>
<path fill="none" stroke="black" stroke-dasharray="5,2" d="M326,-72C341.31,-72 342.56,-56.17 351.27,-48.75"/>
<polygon fill="black" stroke="black" points="352.29,-52.11 360.57,-45.5 349.98,-45.5 352.29,-52.11"/>
</g>
<!-- 2.0&#45;&gt;1.10 -->
<g id="edge5" class="edge">
<title>2.0:e&#45;&gt;1.10:w</title>
<path fill="none" stroke="black" d="M326,-18C341.31,-18 342.56,-33.83 351.27,-41.25"/>
<polygon fill="black" stroke="black" points="349.98,-44.5 360.57,-44.5 352.29,-37.89 349.98,-44.5"/>
</g>
<!-- sink -->
<g id="node6" class="node">
<title>sink</title>
<ellipse fill="none" stroke="black" cx="546" cy="-45" rx="27" ry="18"/>
<text text-anchor="middle" x="546" y="-39.95" font-family="Times,serif" font-size="14.00">end</text>
</g>
<!-- 1.10&#45;&gt;sink -->
<g id="edge6" class="edge">
<title>1.10:e&#45;&gt;sink:w</title>
<path fill="none" stroke="black" d="M483,-45C494.38,-45 499.69,-45 507.56,-45"/>
<polygon fill="black" stroke="black" points="507.49,-48.5 517.49,-45 507.49,-41.5 507.49,-48.5"/>
</g>
</g>
</svg>
