<?xml version="1.0" encoding="UTF-8" standalone="no"?>
<!DOCTYPE svg PUBLIC "-//W3C//DTD SVG 1.1//EN"
 "http://www.w3.org/Graphics/SVG/1.1/DTD/svg11.dtd">
<!-- Generated by graphviz version 12.1.1 (20240910.0053)
 -->
<!-- Pages: 1 -->
<svg width="469pt" height="114pt"
 viewBox="0.00 0.00 469.00 114.00" xmlns="http://www.w3.org/2000/svg" xmlns:xlink="http://www.w3.org/1999/xlink">
<g id="graph0" class="graph" transform="scale(1 1) rotate(0) translate(4 110)">
<polygon fill="white" stroke="none" points="-4,4 -4,-110 465,-110 465,4 -4,4"/>
<g id="clust1" class="cluster">
<title>cluster_1</title>
</g>
<!-- 1.0 -->
<g id="node1" class="node">
<title>1.0</title>
<text text-anchor="start" x="106" y="-79.9" font-family="Times,serif" font-size="8.00">0</text>
<text text-anchor="start" x="170.25" y="-79.9" font-family="Times,serif" font-size="8.00">7</text>
<text text-anchor="start" x="91.75" y="-60.45" font-family="Times,serif" font-size="14.00">1:</text>
<polygon fill="none" stroke="black" points="104,-54.5 104,-76.5 176,-76.5 176,-54.5 104,-54.5"/>
<text text-anchor="start" x="107" y="-61.2" font-family="Courier New" font-weight="bold" font-size="14.00">ATGTATAC</text>
</g>
<!-- 1.8 -->
<g id="node2" class="node">
<title>1.8</title>
<text text-anchor="start" x="237" y="-79.9" font-family="Times,serif" font-size="8.00">8</text>
<text text-anchor="start" x="251.25" y="-79.9" font-family="Times,serif" font-size="8.00">9</text>
<text text-anchor="start" x="222.75" y="-60.45" font-family="Times,serif" font-size="14.00">1:</text>
<polygon fill="none" stroke="black" points="235,-54.5 235,-76.5 257,-76.5 257,-54.5 235,-54.5"/>
<text text-anchor="start" x="237.75" y="-60.2" font-family="Courier New" font-size="14.00">AT</text>
</g>
<!-- 1.0&#45;&gt;1.8 -->
<g id="edge1" class="edge">
<title>1.0:e&#45;&gt;1.8:w</title>
<path fill="none" stroke="black" stroke-dasharray="5,2" d="M176,-65.5C191.12,-65.5 197.48,-65.5 208.63,-65.5"/>
<polygon fill="black" stroke="black" points="208.49,-69 218.49,-65.5 208.49,-62 208.49,-69"/>
</g>
<!-- 2.0 -->
<g id="node4" class="node">
<title>2.0</title>
<text text-anchor="start" x="237" y="-25.9" font-family="Times,serif" font-size="8.00">0</text>
<text text-anchor="start" x="251.25" y="-25.9" font-family="Times,serif" font-size="8.00">1</text>
<text text-anchor="start" x="222.75" y="-6.45" font-family="Times,serif" font-size="14.00">2:</text>
<polygon fill="none" stroke="black" points="235,-0.5 235,-22.5 257,-22.5 257,-0.5 235,-0.5"/>
<text text-anchor="start" x="237.75" y="-7.2" font-family="Courier New" font-weight="bold" font-size="14.00">TG</text>
</g>
<!-- 1.0&#45;&gt;2.0 -->
<g id="edge3" class="edge">
<title>1.0:e&#45;&gt;2.0:w</title>
<path fill="none" stroke="black" d="M176,-65.5C202.36,-65.5 193.28,-26.34 209.12,-14.72"/>
<polygon fill="black" stroke="black" points="209.95,-18.12 218.55,-11.93 207.97,-11.41 209.95,-18.12"/>
</g>
<!-- 1.10 -->
<g id="node3" class="node">
<title>1.10</title>
<text text-anchor="start" x="318" y="-79.9" font-family="Times,serif" font-size="8.00">10</text>
<text text-anchor="start" x="361.5" y="-79.9" font-family="Times,serif" font-size="8.00">15</text>
<text text-anchor="start" x="303.75" y="-60.45" font-family="Times,serif" font-size="14.00">1:</text>
<polygon fill="none" stroke="black" points="316,-54.5 316,-76.5 371,-76.5 371,-54.5 316,-54.5"/>
<text text-anchor="start" x="318.75" y="-61.2" font-family="Courier New" font-weight="bold" font-size="14.00">CACGGC</text>
</g>
<!-- 1.8&#45;&gt;1.10 -->
<g id="edge2" class="edge">
<title>1.8:e&#45;&gt;1.10:w</title>
<path fill="none" stroke="black" stroke-dasharray="5,2" d="M258,-65.5C273.12,-65.5 279.48,-65.5 290.63,-65.5"/>
<polygon fill="black" stroke="black" points="290.49,-69 300.49,-65.5 290.49,-62 290.49,-69"/>
</g>
<!-- sink -->
<g id="node5" class="node">
<title>sink</title>
<ellipse fill="none" stroke="black" cx="434" cy="-66" rx="27" ry="18"/>
<text text-anchor="middle" x="434" y="-60.95" font-family="Times,serif" font-size="14.00">end</text>
</g>
<!-- 1.10&#45;&gt;sink -->
<g id="edge4" class="edge">
<title>1.10:e&#45;&gt;sink:w</title>
<path fill="none" stroke="black" d="M372,-65.5C382.94,-65.5 388.11,-65.75 395.62,-65.89"/>
<polygon fill="black" stroke="black" points="395.45,-69.39 405.49,-65.99 395.52,-62.39 395.45,-69.39"/>
</g>
<!-- 2.0&#45;&gt;1.10 -->
<g id="edge5" class="edge">
<title>2.0:e&#45;&gt;1.10:w</title>
<path fill="none" stroke="black" d="M258,-11.5C284.36,-11.5 275.28,-50.66 291.12,-62.28"/>
<polygon fill="black" stroke="black" points="289.97,-65.59 300.55,-65.07 291.95,-58.88 289.97,-65.59"/>
</g>
<!-- source -->
<g id="node6" class="node">
<title>source</title>
<ellipse fill="none" stroke="black" cx="27" cy="-66" rx="27" ry="18"/>
<text text-anchor="middle" x="27" y="-60.95" font-family="Times,serif" font-size="14.00">start</text>
</g>
<!-- source&#45;&gt;1.0 -->
<g id="edge6" class="edge">
<title>source:e&#45;&gt;1.0:w</title>
<path fill="none" stroke="black" d="M54,-66C64.94,-66 70.11,-65.75 77.62,-65.61"/>
<polygon fill="black" stroke="black" points="77.52,-69.11 87.49,-65.51 77.45,-62.11 77.52,-69.11"/>
</g>
</g>
</svg>
