<?xml version="1.0" encoding="UTF-8" standalone="no"?>
<!DOCTYPE svg PUBLIC "-//W3C//DTD SVG 1.1//EN"
 "http://www.w3.org/Graphics/SVG/1.1/DTD/svg11.dtd">
<!-- Generated by graphviz version 12.1.1 (20240910.0053)
 -->
<!-- Pages: 1 -->
<svg width="469pt" height="98pt"
 viewBox="0.00 0.00 469.00 98.00" xmlns="http://www.w3.org/2000/svg" xmlns:xlink="http://www.w3.org/1999/xlink">
<g id="graph0" class="graph" transform="scale(1 1) rotate(0) translate(4 94)">
<polygon fill="white" stroke="none" points="-4,4 -4,-94 465,-94 465,4 -4,4"/>
<!-- source -->
<g id="node1" class="node">
<title>source</title>
<ellipse fill="none" stroke="black" cx="27" cy="-39" rx="27" ry="18"/>
<text text-anchor="middle" x="27" y="-33.95" font-family="Times,serif" font-size="14.00">start</text>
</g>
<!-- 1.0 -->
<g id="node2" class="node">
<title>1.0</title>
<text text-anchor="start" x="106" y="-52.9" font-family="Times,serif" font-size="8.00">0</text>
<text text-anchor="start" x="170.25" y="-52.9" font-family="Times,serif" font-size="8.00">7</text>
<text text-anchor="start" x="91.75" y="-33.45" font-family="Times,serif" font-size="14.00">1:</text>
<polygon fill="none" stroke="black" points="104,-27.5 104,-49.5 176,-49.5 176,-27.5 104,-27.5"/>
<text text-anchor="start" x="107" y="-34.2" font-family="Courier New" font-weight="bold" font-size="14.00">ATGTATAC</text>
</g>
<!-- source&#45;&gt;1.0 -->
<g id="edge1" class="edge">
<title>source:e&#45;&gt;1.0:w</title>
<path fill="none" stroke="black" d="M54,-39C65.38,-39 70.68,-38.75 78.55,-38.6"/>
<polygon fill="black" stroke="black" points="78.52,-42.1 88.49,-38.51 78.46,-35.1 78.52,-42.1"/>
</g>
<!-- 1.8 -->
<g id="node3" class="node">
<title>1.8</title>
<text text-anchor="start" x="237" y="-79.9" font-family="Times,serif" font-size="8.00">8</text>
<text text-anchor="start" x="251.25" y="-79.9" font-family="Times,serif" font-size="8.00">9</text>
<text text-anchor="start" x="222.75" y="-60.45" font-family="Times,serif" font-size="14.00">1:</text>
<polygon fill="none" stroke="black" points="235,-54.5 235,-76.5 257,-76.5 257,-54.5 235,-54.5"/>
<text text-anchor="start" x="237.75" y="-60.2" font-family="Courier New" font-size="14.00">AT</text>
</g>
<!-- 1.0&#45;&gt;1.8 -->
<g id="edge2" class="edge">
<title>1.0:e&#45;&gt;1.8:w</title>
<path fill="none" stroke="black" stroke-dasharray="5,2" d="M176,-38.5C194.46,-38.5 196.85,-55.98 209.03,-62.81"/>
<polygon fill="black" stroke="black" points="207.98,-66.16 218.53,-65.14 209.65,-59.36 207.98,-66.16"/>
</g>
<!-- 2.0 -->
<g id="node4" class="node">
<title>2.0</title>
<text text-anchor="start" x="237" y="-25.9" font-family="Times,serif" font-size="8.00">0</text>
<text text-anchor="start" x="251.25" y="-25.9" font-family="Times,serif" font-size="8.00">1</text>
<text text-anchor="start" x="222.75" y="-6.45" font-family="Times,serif" font-size="14.00">2:</text>
<polygon fill="none" stroke="black" points="235,-0.5 235,-22.5 257,-22.5 257,-0.5 235,-0.5"/>
<text text-anchor="start" x="237.75" y="-7.2" font-family="Courier New" font-weight="bold" font-size="14.00">TG</text>
</g>
<!-- 1.0&#45;&gt;2.0 -->
<g id="edge3" class="edge">
<title>1.0:e&#45;&gt;2.0:w</title>
<path fill="none" stroke="black" d="M176,-38.5C194.46,-38.5 196.85,-21.02 209.03,-14.19"/>
<polygon fill="black" stroke="black" points="209.65,-17.64 218.53,-11.86 207.98,-10.84 209.65,-17.64"/>
</g>
<!-- 1.10 -->
<g id="node5" class="node">
<title>1.10</title>
<text text-anchor="start" x="318" y="-52.9" font-family="Times,serif" font-size="8.00">10</text>
<text text-anchor="start" x="361.5" y="-52.9" font-family="Times,serif" font-size="8.00">15</text>
<text text-anchor="start" x="303.75" y="-33.45" font-family="Times,serif" font-size="14.00">1:</text>
<polygon fill="none" stroke="black" points="316,-27.5 316,-49.5 371,-49.5 371,-27.5 316,-27.5"/>
<text text-anchor="start" x="318.75" y="-34.2" font-family="Courier New" font-weight="bold" font-size="14.00">CACGGC</text>
</g>
<!-- 1.8&#45;&gt;1.10 -->
<g id="edge4" class="edge">
<title>1.8:e&#45;&gt;1.10:w</title>
<path fill="none" stroke="black" stroke-dasharray="5,2" d="M258,-65.5C276.46,-65.5 278.85,-48.02 291.03,-41.19"/>
<polygon fill="black" stroke="black" points="291.65,-44.64 300.53,-38.86 289.98,-37.84 291.65,-44.64"/>
</g>
<!-- 2.0&#45;&gt;1.10 -->
<g id="edge5" class="edge">
<title>2.0:e&#45;&gt;1.10:w</title>
<path fill="none" stroke="black" d="M258,-11.5C276.46,-11.5 278.85,-28.98 291.03,-35.81"/>
<polygon fill="black" stroke="black" points="289.98,-39.16 300.53,-38.14 291.65,-32.36 289.98,-39.16"/>
</g>
<!-- sink -->
<g id="node6" class="node">
<title>sink</title>
<ellipse fill="none" stroke="black" cx="434" cy="-39" rx="27" ry="18"/>
<text text-anchor="middle" x="434" y="-33.95" font-family="Times,serif" font-size="14.00">end</text>
</g>
<!-- 1.10&#45;&gt;sink -->
<g id="edge6" class="edge">
<title>1.10:e&#45;&gt;sink:w</title>
<path fill="none" stroke="black" d="M371,-38.5C382.38,-38.5 387.68,-38.75 395.55,-38.9"/>
<polygon fill="black" stroke="black" points="395.46,-42.4 405.49,-38.99 395.52,-35.4 395.46,-42.4"/>
</g>
</g>
</svg>
