<?xml version="1.0" encoding="UTF-8" standalone="no"?>
<!DOCTYPE svg PUBLIC "-//W3C//DTD SVG 1.1//EN"
 "http://www.w3.org/Graphics/SVG/1.1/DTD/svg11.dtd">
<!-- Generated by graphviz version 12.1.1 (20240910.0053)
 -->
<!-- Pages: 1 -->
<svg width="495pt" height="98pt"
 viewBox="0.00 0.00 494.76 98.00" xmlns="http://www.w3.org/2000/svg" xmlns:xlink="http://www.w3.org/1999/xlink">
<g id="graph0" class="graph" transform="scale(1 1) rotate(0) translate(4 94)">
<polygon fill="white" stroke="none" points="-4,4 -4,-94 490.76,-94 490.76,4 -4,4"/>
<!-- source -->
<g id="node1" class="node">
<title>source</title>
<ellipse fill="none" stroke="black" cx="27" cy="-45" rx="27" ry="18"/>
<text text-anchor="middle" x="27" y="-39.95" font-family="Times,serif" font-size="14.00">start</text>
</g>
<!-- 1.0 -->
<g id="node2" class="node">
<title>1.0</title>
<text text-anchor="start" x="92" y="-39.95" font-family="Times,serif" font-size="14.00">1.0: </text>
<polygon fill="none" stroke="black" points="118.75,-33.75 118.75,-56.25 166,-56.25 166,-33.75 118.75,-33.75"/>
<text text-anchor="start" x="121.75" y="-40.95" font-family="Courier New" font-weight="bold" font-size="14.00">A</text>
<text text-anchor="start" x="130" y="-40.95" font-family="Courier New" font-size="14.00"> … </text>
<text text-anchor="start" x="154.75" y="-40.95" font-family="Courier New" font-weight="bold" font-size="14.00">C</text>
</g>
<!-- source&#45;&gt;1.0 -->
<g id="edge1" class="edge">
<title>source:e&#45;&gt;1.0:caption</title>
<path fill="none" stroke="black" d="M54,-45C65.38,-45 70.68,-45 78.55,-45"/>
<polygon fill="black" stroke="black" points="78.49,-48.5 88.49,-45 78.49,-41.5 78.49,-48.5"/>
</g>
<!-- 1.8 -->
<g id="node3" class="node">
<title>1.8</title>
<text text-anchor="start" x="204" y="-66.95" font-family="Times,serif" font-size="14.00">1.8: </text>
<polygon fill="none" stroke="black" points="230.75,-60.75 230.75,-83.25 278,-83.25 278,-60.75 230.75,-60.75"/>
<text text-anchor="start" x="233.75" y="-66.95" font-family="Courier New" font-size="14.00">A … T</text>
</g>
<!-- 1.0&#45;&gt;1.8 -->
<g id="edge2" class="edge">
<title>1.0:e&#45;&gt;1.8:caption</title>
<path fill="none" stroke="black" stroke-dasharray="5,2" d="M166,-45C181.32,-45 182.56,-60.83 191.28,-68.25"/>
<polygon fill="black" stroke="black" points="189.98,-71.5 200.57,-71.5 192.29,-64.89 189.98,-71.5"/>
</g>
<!-- 2.0 -->
<g id="node4" class="node">
<title>2.0</title>
<text text-anchor="start" x="204" y="-12.95" font-family="Times,serif" font-size="14.00">2.0: </text>
<polygon fill="none" stroke="black" points="230.75,-6.75 230.75,-29.25 278,-29.25 278,-6.75 230.75,-6.75"/>
<text text-anchor="start" x="233.75" y="-13.95" font-family="Courier New" font-weight="bold" font-size="14.00">T</text>
<text text-anchor="start" x="242" y="-13.95" font-family="Courier New" font-size="14.00"> … </text>
<text text-anchor="start" x="266.75" y="-13.95" font-family="Courier New" font-weight="bold" font-size="14.00">G</text>
</g>
<!-- 1.0&#45;&gt;2.0 -->
<g id="edge3" class="edge">
<title>1.0:e&#45;&gt;2.0:caption</title>
<path fill="none" stroke="black" d="M166,-45C181.32,-45 182.56,-29.17 191.28,-21.75"/>
<polygon fill="black" stroke="black" points="192.29,-25.11 200.57,-18.5 189.98,-18.5 192.29,-25.11"/>
</g>
<!-- 1.10 -->
<g id="node5" class="node">
<title>1.10</title>
<text text-anchor="start" x="316.01" y="-39.95" font-family="Times,serif" font-size="14.00">1.10: </text>
<polygon fill="none" stroke="black" points="349.51,-33.75 349.51,-56.25 396.76,-56.25 396.76,-33.75 349.51,-33.75"/>
<text text-anchor="start" x="352.51" y="-40.95" font-family="Courier New" font-weight="bold" font-size="14.00">C</text>
<text text-anchor="start" x="360.76" y="-40.95" font-family="Courier New" font-size="14.00"> … </text>
<text text-anchor="start" x="385.51" y="-40.95" font-family="Courier New" font-weight="bold" font-size="14.00">C</text>
</g>
<!-- 1.8&#45;&gt;1.10 -->
<g id="edge4" class="edge">
<title>1.8:e&#45;&gt;1.10:caption</title>
<path fill="none" stroke="black" stroke-dasharray="5,2" d="M278.01,-72C293.32,-72 294.56,-56.17 303.28,-48.75"/>
<polygon fill="black" stroke="black" points="304.3,-52.11 312.58,-45.5 301.98,-45.5 304.3,-52.11"/>
</g>
<!-- 2.0&#45;&gt;1.10 -->
<g id="edge5" class="edge">
<title>2.0:e&#45;&gt;1.10:caption</title>
<path fill="none" stroke="black" d="M278.01,-18C293.32,-18 294.56,-33.83 303.28,-41.25"/>
<polygon fill="black" stroke="black" points="301.98,-44.5 312.58,-44.5 304.3,-37.89 301.98,-44.5"/>
</g>
<!-- sink -->
<g id="node6" class="node">
<title>sink</title>
<ellipse fill="none" stroke="black" cx="459.76" cy="-45" rx="27" ry="18"/>
<text text-anchor="middle" x="459.76" y="-39.95" font-family="Times,serif" font-size="14.00">end</text>
</g>
<!-- 1.10&#45;&gt;sink -->
<g id="edge6" class="edge">
<title>1.10:e&#45;&gt;sink:caption</title>
<path fill="none" stroke="black" d="M396.76,-45C404.64,-45 413.09,-45 421.13,-45"/>
<polygon fill="black" stroke="black" points="421,-48.5 431,-45 421,-41.5 421,-48.5"/>
</g>
</g>
</svg>
