<?xml version="1.0" encoding="UTF-8" standalone="no"?>
<!DOCTYPE svg PUBLIC "-//W3C//DTD SVG 1.1//EN"
 "http://www.w3.org/Graphics/SVG/1.1/DTD/svg11.dtd">
<!-- Generated by graphviz version 12.1.1 (20240910.0053)
 -->
<!-- Pages: 1 -->
<svg width="396pt" height="110pt"
 viewBox="0.00 0.00 395.80 109.50" xmlns="http://www.w3.org/2000/svg" xmlns:xlink="http://www.w3.org/1999/xlink">
<g id="graph0" class="graph" transform="scale(1 1) rotate(0) translate(4 105.5)">
<polygon fill="white" stroke="none" points="-4,4 -4,-105.5 391.8,-105.5 391.8,4 -4,4"/>
<!-- start -->
<g id="node1" class="node">
<title>start</title>
<ellipse fill="none" stroke="black" cx="16.2" cy="-88.75" rx="16.2" ry="10.8"/>
<text text-anchor="middle" x="16.2" y="-84.48" font-family="serif,serif" font-size="12.00">Start</text>
</g>
<!-- 1.0 -->
<g id="node2" class="node">
<title>1.0</title>
<polygon fill="none" stroke="black" points="70.4,-79.25 70.4,-99.5 136.4,-99.5 136.4,-79.25 70.4,-79.25"/>
<text text-anchor="start" x="73.4" y="-85.1" font-family="Monospace" font-size="12.00">ATGTATAC</text>
<text text-anchor="start" x="92.52" y="-65.75" font-family="serif,serif" font-size="10.00">1:0&#45;7</text>
</g>
<!-- start&#45;&gt;1.0 -->
<g id="edge1" class="edge">
<title>start:e&#45;&gt;1.0:w</title>
<path fill="none" stroke="black" d="M32.4,-88.75C44.22,-88.75 49.67,-89.07 57.9,-89.25"/>
<polygon fill="black" stroke="black" points="57.85,-92.75 67.89,-89.36 57.92,-85.75 57.85,-92.75"/>
</g>
<!-- 1.8 -->
<g id="node3" class="node">
<title>1.8</title>
<polygon fill="none" stroke="black" points="188.52,-79.25 188.52,-99.5 214.27,-99.5 214.27,-79.25 188.52,-79.25"/>
<text text-anchor="start" x="193.9" y="-85.1" font-family="Monospace" font-size="12.00">AT</text>
<text text-anchor="start" x="190.52" y="-65.75" font-family="serif,serif" font-size="10.00">1:8&#45;9</text>
</g>
<!-- 1.0&#45;&gt;1.8 -->
<g id="edge2" class="edge">
<title>1.0:e&#45;&gt;1.8:w</title>
<path fill="none" stroke="black" stroke-dasharray="5,2" d="M137.4,-89.38C159.68,-89.38 165.25,-89.38 187.52,-89.38"/>
</g>
<!-- 2.0 -->
<g id="node4" class="node">
<title>2.0</title>
<polygon fill="none" stroke="black" points="188.52,-19.25 188.52,-39.5 214.27,-39.5 214.27,-19.25 188.52,-19.25"/>
<text text-anchor="start" x="193.9" y="-26.1" font-family="Monospace" font-weight="bold" font-size="12.00">TG</text>
<text text-anchor="start" x="190.52" y="-5.75" font-family="serif,serif" font-size="10.00">2:0&#45;1</text>
</g>
<!-- 1.0&#45;&gt;2.0 -->
<g id="edge3" class="edge">
<title>1.0:e&#45;&gt;2.0:w</title>
<path fill="none" stroke="black" d="M137.4,-89.38C167.67,-89.38 156.87,-43.85 176.55,-32.11"/>
<polygon fill="black" stroke="black" points="177.2,-35.56 186.06,-29.74 175.51,-28.76 177.2,-35.56"/>
</g>
<!-- 1.10 -->
<g id="node5" class="node">
<title>1.10</title>
<polygon fill="none" stroke="black" points="266.4,-79.25 266.4,-99.5 317.4,-99.5 317.4,-79.25 266.4,-79.25"/>
<text text-anchor="start" x="269.4" y="-85.1" font-family="Monospace" font-size="12.00">CACGGC</text>
<text text-anchor="start" x="275.78" y="-65.75" font-family="serif,serif" font-size="10.00">1:10&#45;15</text>
</g>
<!-- 1.8&#45;&gt;1.10 -->
<g id="edge4" class="edge">
<title>1.8:e&#45;&gt;1.10:w</title>
<path fill="none" stroke="black" stroke-dasharray="5,2" d="M215.27,-89.38C237.55,-89.38 243.12,-89.38 265.4,-89.38"/>
</g>
<!-- 2.0&#45;&gt;1.10 -->
<g id="edge5" class="edge">
<title>2.0:e&#45;&gt;1.10:w</title>
<path fill="none" stroke="black" d="M215.27,-29.38C245.54,-29.38 234.75,-74.9 254.43,-86.64"/>
<polygon fill="black" stroke="black" points="253.38,-89.99 263.93,-89.01 255.07,-83.19 253.38,-89.99"/>
</g>
<!-- end -->
<g id="node6" class="node">
<title>end</title>
<ellipse fill="none" stroke="black" cx="371.6" cy="-88.75" rx="16.2" ry="10.8"/>
<text text-anchor="middle" x="371.6" y="-84.48" font-family="serif,serif" font-size="12.00">End</text>
</g>
<!-- 1.10&#45;&gt;end -->
<g id="edge6" class="edge">
<title>1.10:e&#45;&gt;end:w</title>
<path fill="none" stroke="black" d="M318.4,-89.38C330.22,-89.38 335.67,-89.05 343.9,-88.87"/>
<polygon fill="black" stroke="black" points="343.92,-92.37 353.89,-88.77 343.85,-85.37 343.92,-92.37"/>
</g>
</g>
</svg>
