<?xml version="1.0" encoding="UTF-8" standalone="no"?>
<!DOCTYPE svg PUBLIC "-//W3C//DTD SVG 1.1//EN"
 "http://www.w3.org/Graphics/SVG/1.1/DTD/svg11.dtd">
<!-- Generated by graphviz version 12.1.1 (20240910.0053)
 -->
<!-- Pages: 1 -->
<svg width="439pt" height="115pt"
 viewBox="0.00 0.00 439.00 114.75" xmlns="http://www.w3.org/2000/svg" xmlns:xlink="http://www.w3.org/1999/xlink">
<g id="graph0" class="graph" transform="scale(1 1) rotate(0) translate(4 110.75)">
<polygon fill="white" stroke="none" points="-4,4 -4,-110.75 435,-110.75 435,4 -4,4"/>
<!-- start -->
<g id="node1" class="node">
<title>start</title>
<ellipse fill="none" stroke="black" cx="27" cy="-88.75" rx="27" ry="18"/>
<text text-anchor="middle" x="27" y="-83.7" font-family="serif,serif" font-size="14.00">start</text>
</g>
<!-- 1.0 -->
<g id="node2" class="node">
<title>1.0</title>
<polygon fill="none" stroke="black" points="92,-79.25 92,-99.5 158,-99.5 158,-79.25 92,-79.25"/>
<text text-anchor="start" x="95" y="-86.1" font-family="Monospace" font-weight="bold" font-size="12.00">ATGTATAC</text>
<text text-anchor="start" x="114.12" y="-65.75" font-family="serif,serif" font-size="10.00">1:0&#45;7</text>
</g>
<!-- start&#45;&gt;1.0 -->
<g id="edge1" class="edge">
<title>start:e&#45;&gt;1.0:w</title>
<path fill="none" stroke="black" d="M54,-88.75C65.82,-88.75 71.27,-89.07 79.5,-89.25"/>
<polygon fill="black" stroke="black" points="79.45,-92.75 89.49,-89.36 79.52,-85.75 79.45,-92.75"/>
</g>
<!-- 1.8 -->
<g id="node3" class="node">
<title>1.8</title>
<polygon fill="none" stroke="black" points="210.13,-79.25 210.13,-99.5 235.88,-99.5 235.88,-79.25 210.13,-79.25"/>
<text text-anchor="start" x="215.5" y="-85.1" font-family="Monospace" font-size="12.00">AT</text>
<text text-anchor="start" x="212.13" y="-65.75" font-family="serif,serif" font-size="10.00">1:8&#45;9</text>
</g>
<!-- 1.0&#45;&gt;1.8 -->
<g id="edge2" class="edge">
<title>1.0:e&#45;&gt;1.8:w</title>
<path fill="none" stroke="black" stroke-dasharray="5,2" d="M159,-89.38C176.93,-89.38 184.03,-89.38 197.73,-89.38"/>
<polygon fill="black" stroke="black" points="197.61,-92.88 207.61,-89.38 197.61,-85.88 197.61,-92.88"/>
</g>
<!-- 2.0 -->
<g id="node4" class="node">
<title>2.0</title>
<polygon fill="none" stroke="black" points="210.13,-19.25 210.13,-39.5 235.88,-39.5 235.88,-19.25 210.13,-19.25"/>
<text text-anchor="start" x="215.5" y="-26.1" font-family="Monospace" font-weight="bold" font-size="12.00">TG</text>
<text text-anchor="start" x="212.13" y="-5.75" font-family="serif,serif" font-size="10.00">2:0&#45;1</text>
</g>
<!-- 1.0&#45;&gt;2.0 -->
<g id="edge3" class="edge">
<title>1.0:e&#45;&gt;2.0:w</title>
<path fill="none" stroke="black" d="M159,-89.38C189.27,-89.38 178.47,-43.85 198.15,-32.11"/>
<polygon fill="black" stroke="black" points="198.8,-35.56 207.66,-29.74 197.11,-28.76 198.8,-35.56"/>
</g>
<!-- 1.10 -->
<g id="node5" class="node">
<title>1.10</title>
<polygon fill="none" stroke="black" points="288,-79.25 288,-99.5 339,-99.5 339,-79.25 288,-79.25"/>
<text text-anchor="start" x="291" y="-86.1" font-family="Monospace" font-weight="bold" font-size="12.00">CACGGC</text>
<text text-anchor="start" x="297.38" y="-65.75" font-family="serif,serif" font-size="10.00">1:10&#45;15</text>
</g>
<!-- 1.8&#45;&gt;1.10 -->
<g id="edge4" class="edge">
<title>1.8:e&#45;&gt;1.10:w</title>
<path fill="none" stroke="black" stroke-dasharray="5,2" d="M236.88,-89.38C254.8,-89.38 261.91,-89.38 275.61,-89.38"/>
<polygon fill="black" stroke="black" points="275.49,-92.88 285.49,-89.38 275.49,-85.88 275.49,-92.88"/>
</g>
<!-- 2.0&#45;&gt;1.10 -->
<g id="edge5" class="edge">
<title>2.0:e&#45;&gt;1.10:w</title>
<path fill="none" stroke="black" d="M236.88,-29.38C267.14,-29.38 256.35,-74.9 276.03,-86.64"/>
<polygon fill="black" stroke="black" points="274.98,-89.99 285.53,-89.01 276.67,-83.19 274.98,-89.99"/>
</g>
<!-- end -->
<g id="node6" class="node">
<title>end</title>
<ellipse fill="none" stroke="black" cx="404" cy="-88.75" rx="27" ry="18"/>
<text text-anchor="middle" x="404" y="-83.7" font-family="serif,serif" font-size="14.00">end</text>
</g>
<!-- 1.10&#45;&gt;end -->
<g id="edge6" class="edge">
<title>1.10:e&#45;&gt;end:w</title>
<path fill="none" stroke="black" d="M340,-89.38C351.82,-89.38 357.27,-89.05 365.5,-88.87"/>
<polygon fill="black" stroke="black" points="365.52,-92.37 375.49,-88.77 365.45,-85.37 365.52,-92.37"/>
</g>
</g>
</svg>
