<?xml version="1.0" encoding="UTF-8" standalone="no"?>
<!DOCTYPE svg PUBLIC "-//W3C//DTD SVG 1.1//EN"
 "http://www.w3.org/Graphics/SVG/1.1/DTD/svg11.dtd">
<!-- Generated by graphviz version 12.1.1 (20240910.0053)
 -->
<!-- Pages: 1 -->
<svg width="477pt" height="98pt"
 viewBox="0.00 0.00 477.00 98.00" xmlns="http://www.w3.org/2000/svg" xmlns:xlink="http://www.w3.org/1999/xlink">
<g id="graph0" class="graph" transform="scale(1 1) rotate(0) translate(4 94)">
<polygon fill="white" stroke="none" points="-4,4 -4,-94 473,-94 473,4 -4,4"/>
<!-- source -->
<g id="node1" class="node">
<title>source</title>
<ellipse fill="none" stroke="black" cx="27" cy="-39" rx="27" ry="18"/>
<text text-anchor="middle" x="27" y="-33.95" font-family="Times,serif" font-size="14.00">start</text>
</g>
<!-- 1.0 -->
<g id="node2" class="node">
<title>1.0</title>
<text text-anchor="start" x="110" y="-52.9" font-family="Times,serif" font-size="8.00">0</text>
<text text-anchor="start" x="174.25" y="-52.9" font-family="Times,serif" font-size="8.00">7</text>
<text text-anchor="start" x="91.88" y="-33.45" font-family="Times,serif" font-size="14.00">1: </text>
<polygon fill="none" stroke="black" points="108,-27.5 108,-49.5 180,-49.5 180,-27.5 108,-27.5"/>
<text text-anchor="start" x="111" y="-34.2" font-family="Courier New" font-weight="bold" font-size="14.00">A</text>
<text text-anchor="start" x="119.25" y="-34.2" font-family="Courier New" font-weight="bold" font-size="14.00">T</text>
<text text-anchor="start" x="127.5" y="-34.2" font-family="Courier New" font-weight="bold" font-size="14.00">G</text>
<text text-anchor="start" x="135.75" y="-34.2" font-family="Courier New" font-weight="bold" font-size="14.00">T</text>
<text text-anchor="start" x="144" y="-34.2" font-family="Courier New" font-weight="bold" font-size="14.00">A</text>
<text text-anchor="start" x="152.25" y="-34.2" font-family="Courier New" font-weight="bold" font-size="14.00">T</text>
<text text-anchor="start" x="160.5" y="-34.2" font-family="Courier New" font-weight="bold" font-size="14.00">A</text>
<text text-anchor="start" x="168.75" y="-34.2" font-family="Courier New" font-weight="bold" font-size="14.00">C</text>
</g>
<!-- source&#45;&gt;1.0 -->
<g id="edge1" class="edge">
<title>source:e&#45;&gt;1.0:w</title>
<path fill="none" stroke="black" d="M54,-39C65.38,-39 70.68,-38.75 78.55,-38.6"/>
<polygon fill="black" stroke="black" points="78.52,-42.1 88.49,-38.51 78.46,-35.1 78.52,-42.1"/>
</g>
<!-- 1.8 -->
<g id="node3" class="node">
<title>1.8</title>
<text text-anchor="start" x="243" y="-79.9" font-family="Times,serif" font-size="8.00">8</text>
<text text-anchor="start" x="257.25" y="-79.9" font-family="Times,serif" font-size="8.00">9</text>
<text text-anchor="start" x="224.88" y="-60.45" font-family="Times,serif" font-size="14.00">1: </text>
<polygon fill="none" stroke="black" points="241,-54.5 241,-76.5 263,-76.5 263,-54.5 241,-54.5"/>
<text text-anchor="start" x="243.75" y="-60.2" font-family="Courier New" font-size="14.00">AT</text>
</g>
<!-- 1.0&#45;&gt;1.8 -->
<g id="edge2" class="edge">
<title>1.0:e&#45;&gt;1.8:w</title>
<path fill="none" stroke="black" stroke-dasharray="5,2" d="M180,-38.5C197.68,-38.5 199.76,-55.65 211.11,-62.61"/>
<polygon fill="black" stroke="black" points="209.97,-65.93 220.54,-65.11 211.77,-59.16 209.97,-65.93"/>
</g>
<!-- 2.0 -->
<g id="node4" class="node">
<title>2.0</title>
<text text-anchor="start" x="243" y="-25.9" font-family="Times,serif" font-size="8.00">0</text>
<text text-anchor="start" x="257.25" y="-25.9" font-family="Times,serif" font-size="8.00">1</text>
<text text-anchor="start" x="224.88" y="-6.45" font-family="Times,serif" font-size="14.00">2: </text>
<polygon fill="none" stroke="black" points="241,-0.5 241,-22.5 263,-22.5 263,-0.5 241,-0.5"/>
<text text-anchor="start" x="243.75" y="-7.2" font-family="Courier New" font-weight="bold" font-size="14.00">T</text>
<text text-anchor="start" x="252" y="-7.2" font-family="Courier New" font-weight="bold" font-size="14.00">G</text>
</g>
<!-- 1.0&#45;&gt;2.0 -->
<g id="edge3" class="edge">
<title>1.0:e&#45;&gt;2.0:w</title>
<path fill="none" stroke="black" d="M180,-38.5C197.68,-38.5 199.76,-21.35 211.11,-14.39"/>
<polygon fill="black" stroke="black" points="211.77,-17.84 220.54,-11.89 209.97,-11.07 211.77,-17.84"/>
</g>
<!-- 1.10 -->
<g id="node5" class="node">
<title>1.10</title>
<text text-anchor="start" x="326" y="-52.9" font-family="Times,serif" font-size="8.00">10</text>
<text text-anchor="start" x="369.5" y="-52.9" font-family="Times,serif" font-size="8.00">15</text>
<text text-anchor="start" x="307.88" y="-33.45" font-family="Times,serif" font-size="14.00">1: </text>
<polygon fill="none" stroke="black" points="324,-27.5 324,-49.5 379,-49.5 379,-27.5 324,-27.5"/>
<text text-anchor="start" x="326.75" y="-34.2" font-family="Courier New" font-weight="bold" font-size="14.00">C</text>
<text text-anchor="start" x="335" y="-34.2" font-family="Courier New" font-weight="bold" font-size="14.00">A</text>
<text text-anchor="start" x="343.25" y="-34.2" font-family="Courier New" font-weight="bold" font-size="14.00">C</text>
<text text-anchor="start" x="351.5" y="-34.2" font-family="Courier New" font-weight="bold" font-size="14.00">G</text>
<text text-anchor="start" x="359.75" y="-34.2" font-family="Courier New" font-weight="bold" font-size="14.00">G</text>
<text text-anchor="start" x="368" y="-34.2" font-family="Courier New" font-weight="bold" font-size="14.00">C</text>
</g>
<!-- 1.8&#45;&gt;1.10 -->
<g id="edge4" class="edge">
<title>1.8:e&#45;&gt;1.10:w</title>
<path fill="none" stroke="black" stroke-dasharray="5,2" d="M264,-65.5C281.68,-65.5 283.76,-48.35 295.11,-41.39"/>
<polygon fill="black" stroke="black" points="295.77,-44.84 304.54,-38.89 293.97,-38.07 295.77,-44.84"/>
</g>
<!-- 2.0&#45;&gt;1.10 -->
<g id="edge5" class="edge">
<title>2.0:e&#45;&gt;1.10:w</title>
<path fill="none" stroke="black" d="M264,-11.5C281.68,-11.5 283.76,-28.65 295.11,-35.61"/>
<polygon fill="black" stroke="black" points="293.97,-38.93 304.54,-38.11 295.77,-32.16 293.97,-38.93"/>
</g>
<!-- sink -->
<g id="node6" class="node">
<title>sink</title>
<ellipse fill="none" stroke="black" cx="442" cy="-39" rx="27" ry="18"/>
<text text-anchor="middle" x="442" y="-33.95" font-family="Times,serif" font-size="14.00">end</text>
</g>
<!-- 1.10&#45;&gt;sink -->
<g id="edge6" class="edge">
<title>1.10:e&#45;&gt;sink:w</title>
<path fill="none" stroke="black" d="M379,-38.5C390.38,-38.5 395.69,-38.75 403.55,-38.9"/>
<polygon fill="black" stroke="black" points="403.46,-42.4 413.49,-38.99 403.52,-35.4 403.46,-42.4"/>
</g>
</g>
</svg>
