<?xml version="1.0" encoding="UTF-8" standalone="no"?>
<!DOCTYPE svg PUBLIC "-//W3C//DTD SVG 1.1//EN"
 "http://www.w3.org/Graphics/SVG/1.1/DTD/svg11.dtd">
<!-- Generated by graphviz version 12.1.1 (20240910.0053)
 -->
<!-- Pages: 1 -->
<svg width="394pt" height="116pt"
 viewBox="0.00 0.00 394.00 116.00" xmlns="http://www.w3.org/2000/svg" xmlns:xlink="http://www.w3.org/1999/xlink">
<g id="graph0" class="graph" transform="scale(1 1) rotate(0) translate(4 112)">
<polygon fill="white" stroke="none" points="-4,4 -4,-112 390,-112 390,4 -4,4"/>
<!-- source -->
<g id="node1" class="node">
<title>source</title>
<ellipse fill="none" stroke="black" cx="27" cy="-90" rx="27" ry="18"/>
<text text-anchor="middle" x="27" y="-84.95" font-family="Times,serif" font-size="14.00">start</text>
</g>
<!-- 1 -->
<g id="node2" class="node">
<title>1</title>
<text text-anchor="start" x="73.75" y="-84.95" font-family="Times,serif" font-size="14.00">1:</text>
<polygon fill="none" stroke="black" points="86.25,-78.75 86.25,-101.25 100.5,-101.25 100.5,-78.75 86.25,-78.75"/>
<text text-anchor="start" x="89.25" y="-85.95" font-family="Courier New" font-weight="bold" font-size="14.00">A</text>
<polygon fill="none" stroke="black" points="100.5,-78.75 100.5,-101.25 114.75,-101.25 114.75,-78.75 100.5,-78.75"/>
<text text-anchor="start" x="103.5" y="-85.95" font-family="Courier New" font-weight="bold" font-size="14.00">T</text>
<polygon fill="none" stroke="black" points="114.75,-78.75 114.75,-101.25 129,-101.25 129,-78.75 114.75,-78.75"/>
<text text-anchor="start" x="117.75" y="-85.95" font-family="Courier New" font-weight="bold" font-size="14.00">G</text>
<polygon fill="none" stroke="black" points="129,-78.75 129,-101.25 143.25,-101.25 143.25,-78.75 129,-78.75"/>
<text text-anchor="start" x="132" y="-85.95" font-family="Courier New" font-weight="bold" font-size="14.00">T</text>
<polygon fill="none" stroke="black" points="143.25,-78.75 143.25,-101.25 157.5,-101.25 157.5,-78.75 143.25,-78.75"/>
<text text-anchor="start" x="146.25" y="-85.95" font-family="Courier New" font-weight="bold" font-size="14.00">A</text>
<polygon fill="none" stroke="black" points="157.5,-78.75 157.5,-101.25 171.75,-101.25 171.75,-78.75 157.5,-78.75"/>
<text text-anchor="start" x="160.5" y="-85.95" font-family="Courier New" font-weight="bold" font-size="14.00">T</text>
<polygon fill="none" stroke="black" points="171.75,-78.75 171.75,-101.25 186,-101.25 186,-78.75 171.75,-78.75"/>
<text text-anchor="start" x="174.75" y="-85.95" font-family="Courier New" font-weight="bold" font-size="14.00">A</text>
<polygon fill="none" stroke="black" points="186,-78.75 186,-101.25 200.25,-101.25 200.25,-78.75 186,-78.75"/>
<text text-anchor="start" x="189" y="-85.95" font-family="Courier New" font-weight="bold" font-size="14.00">C</text>
<polygon fill="none" stroke="black" points="200.25,-78.75 200.25,-101.25 214.5,-101.25 214.5,-78.75 200.25,-78.75"/>
<text text-anchor="start" x="203.25" y="-84.95" font-family="Courier New" font-size="14.00">A</text>
<polygon fill="none" stroke="black" points="214.5,-78.75 214.5,-101.25 228.75,-101.25 228.75,-78.75 214.5,-78.75"/>
<text text-anchor="start" x="217.5" y="-84.95" font-family="Courier New" font-size="14.00">T</text>
<polygon fill="none" stroke="black" points="228.75,-78.75 228.75,-101.25 243,-101.25 243,-78.75 228.75,-78.75"/>
<text text-anchor="start" x="231.75" y="-85.95" font-family="Courier New" font-weight="bold" font-size="14.00">C</text>
<polygon fill="none" stroke="black" points="243,-78.75 243,-101.25 257.25,-101.25 257.25,-78.75 243,-78.75"/>
<text text-anchor="start" x="246" y="-85.95" font-family="Courier New" font-weight="bold" font-size="14.00">A</text>
<polygon fill="none" stroke="black" points="257.25,-78.75 257.25,-101.25 271.5,-101.25 271.5,-78.75 257.25,-78.75"/>
<text text-anchor="start" x="260.25" y="-85.95" font-family="Courier New" font-weight="bold" font-size="14.00">C</text>
<polygon fill="none" stroke="black" points="271.5,-78.75 271.5,-101.25 285.75,-101.25 285.75,-78.75 271.5,-78.75"/>
<text text-anchor="start" x="274.5" y="-85.95" font-family="Courier New" font-weight="bold" font-size="14.00">G</text>
<polygon fill="none" stroke="black" points="285.75,-78.75 285.75,-101.25 300,-101.25 300,-78.75 285.75,-78.75"/>
<text text-anchor="start" x="288.75" y="-85.95" font-family="Courier New" font-weight="bold" font-size="14.00">G</text>
<polygon fill="none" stroke="black" points="300,-78.75 300,-101.25 314.25,-101.25 314.25,-78.75 300,-78.75"/>
<text text-anchor="start" x="303" y="-85.95" font-family="Courier New" font-weight="bold" font-size="14.00">C</text>
</g>
<!-- source&#45;&gt;1 -->
<g id="edge1" class="edge">
<title>source:e&#45;&gt;1:caption</title>
<path fill="none" stroke="black" d="M54,-90C56.71,-90 58.72,-90 60.52,-90"/>
<polygon fill="black" stroke="black" points="60.23,-93.5 70.23,-90 60.23,-86.5 60.23,-93.5"/>
</g>
<!-- 2 -->
<g id="node3" class="node">
<title>2</title>
<text text-anchor="start" x="187.5" y="-12.95" font-family="Times,serif" font-size="14.00">2:</text>
<polygon fill="none" stroke="black" points="200,-6.75 200,-29.25 214.25,-29.25 214.25,-6.75 200,-6.75"/>
<text text-anchor="start" x="203" y="-13.95" font-family="Courier New" font-weight="bold" font-size="14.00">T</text>
<polygon fill="none" stroke="black" points="214.25,-6.75 214.25,-29.25 228.5,-29.25 228.5,-6.75 214.25,-6.75"/>
<text text-anchor="start" x="217.25" y="-13.95" font-family="Courier New" font-weight="bold" font-size="14.00">G</text>
</g>
<!-- 1&#45;&gt;2 -->
<g id="edge2" class="edge">
<title>1:7&#45;&gt;2:0</title>
<path fill="none" stroke="black" d="M193.12,-77.75C193.12,-60.04 202.19,-54.33 205.73,-41.3"/>
<polygon fill="black" stroke="black" points="209.16,-42.11 206.94,-31.75 202.21,-41.24 209.16,-42.11"/>
</g>
<!-- sink -->
<g id="node4" class="node">
<title>sink</title>
<ellipse fill="none" stroke="black" cx="359" cy="-90" rx="27" ry="18"/>
<text text-anchor="middle" x="359" y="-84.95" font-family="Times,serif" font-size="14.00">sink</text>
</g>
<!-- 1&#45;&gt;sink -->
<g id="edge3" class="edge">
<title>1:15&#45;&gt;sink:w</title>
<path fill="none" stroke="black" d="M314.25,-90C316.96,-90 318.98,-90 320.77,-90"/>
<polygon fill="black" stroke="black" points="320.49,-93.5 330.49,-90 320.49,-86.5 320.49,-93.5"/>
</g>
<!-- 2&#45;&gt;1 -->
<g id="edge4" class="edge">
<title>2:1&#45;&gt;1:10</title>
<path fill="none" stroke="black" d="M221.38,-30.25C221.38,-48.01 230.76,-53.65 234.43,-66.68"/>
<polygon fill="black" stroke="black" points="230.92,-66.79 235.68,-76.25 237.86,-65.88 230.92,-66.79"/>
</g>
</g>
</svg>
