<?xml version="1.0" encoding="UTF-8" standalone="no"?>
<!DOCTYPE svg PUBLIC "-//W3C//DTD SVG 1.1//EN"
 "http://www.w3.org/Graphics/SVG/1.1/DTD/svg11.dtd">
<!-- Generated by graphviz version 12.1.1 (20240910.0053)
 -->
<!-- Pages: 1 -->
<svg width="442pt" height="108pt"
 viewBox="0.00 0.00 441.50 107.88" xmlns="http://www.w3.org/2000/svg" xmlns:xlink="http://www.w3.org/1999/xlink">
<g id="graph0" class="graph" transform="scale(1 1) rotate(0) translate(4 103.88)">
<polygon fill="white" stroke="none" points="-4,4 -4,-103.88 437.5,-103.88 437.5,4 -4,4"/>
<!-- start -->
<g id="node1" class="node">
<title>start</title>
<ellipse fill="none" stroke="black" cx="27" cy="-81.88" rx="27" ry="18"/>
<text text-anchor="middle" x="27" y="-76.83" font-family="Times,serif" font-size="14.00">start</text>
</g>
<!-- 1.0 -->
<g id="node2" class="node">
<title>1.0</title>
<polygon fill="none" stroke="black" points="90,-71.25 90,-93.75 162,-93.75 162,-71.25 90,-71.25"/>
<text text-anchor="start" x="93" y="-78.45" font-family="Courier,monospace" font-weight="bold" font-size="14.00">ATGTATAC</text>
<text text-anchor="start" x="113.25" y="-59.75" font-family="Times,serif" font-size="10.00">1.0 &#45; 7</text>
</g>
<!-- start&#45;&gt;1.0 -->
<g id="edge1" class="edge">
<title>start:e&#45;&gt;1.0:w</title>
<path fill="none" stroke="black" d="M54,-81.88C65.38,-81.88 70.68,-82.19 78.55,-82.37"/>
<polygon fill="black" stroke="black" points="78.45,-85.87 88.49,-82.48 78.53,-78.87 78.45,-85.87"/>
</g>
<!-- 1.8 -->
<g id="node3" class="node">
<title>1.8</title>
<polygon fill="none" stroke="black" points="213.75,-71.25 213.75,-93.75 236.25,-93.75 236.25,-71.25 213.75,-71.25"/>
<text text-anchor="start" x="216.75" y="-77.45" font-family="Courier,monospace" font-size="14.00">AT</text>
<text text-anchor="start" x="218.62" y="-59.75" font-family="Times,serif" font-size="10.00">1.8</text>
</g>
<!-- 1.0&#45;&gt;1.8 -->
<g id="edge2" class="edge">
<title>1.0:e&#45;&gt;1.8:w</title>
<path fill="none" stroke="black" stroke-dasharray="5,2" d="M162,-82.5C180.33,-82.5 187.49,-82.5 201.62,-82.5"/>
<polygon fill="black" stroke="black" points="201.24,-86 211.24,-82.5 201.24,-79 201.24,-86"/>
</g>
<!-- 2.0 -->
<g id="node4" class="node">
<title>2.0</title>
<polygon fill="none" stroke="black" points="213.75,-15.25 213.75,-37.75 236.25,-37.75 236.25,-15.25 213.75,-15.25"/>
<text text-anchor="start" x="216.75" y="-22.45" font-family="Courier,monospace" font-weight="bold" font-size="14.00">TG</text>
<text text-anchor="start" x="218.62" y="-3.75" font-family="Times,serif" font-size="10.00">2.0</text>
</g>
<!-- 1.0&#45;&gt;2.0 -->
<g id="edge3" class="edge">
<title>1.0:e&#45;&gt;2.0:w</title>
<path fill="none" stroke="black" d="M162,-82.5C191.13,-82.5 182.64,-40.39 201.78,-29.2"/>
<polygon fill="black" stroke="black" points="202.41,-32.65 211.28,-26.86 200.73,-25.85 202.41,-32.65"/>
</g>
<!-- 1.10 -->
<g id="node5" class="node">
<title>1.10</title>
<polygon fill="none" stroke="black" points="288,-71.25 288,-93.75 343.5,-93.75 343.5,-71.25 288,-71.25"/>
<text text-anchor="start" x="291" y="-78.45" font-family="Courier,monospace" font-weight="bold" font-size="14.00">CACGGC</text>
<text text-anchor="start" x="297.75" y="-59.75" font-family="Times,serif" font-size="10.00">1.10 &#45; 15</text>
</g>
<!-- 1.8&#45;&gt;1.10 -->
<g id="edge4" class="edge">
<title>1.8:e&#45;&gt;1.10:w</title>
<path fill="none" stroke="black" stroke-dasharray="5,2" d="M237.25,-82.5C255.58,-82.5 262.74,-82.5 276.87,-82.5"/>
<polygon fill="black" stroke="black" points="276.49,-86 286.49,-82.5 276.49,-79 276.49,-86"/>
</g>
<!-- 2.0&#45;&gt;1.10 -->
<g id="edge5" class="edge">
<title>2.0:e&#45;&gt;1.10:w</title>
<path fill="none" stroke="black" d="M237.25,-26.5C266.38,-26.5 257.89,-68.61 277.03,-79.8"/>
<polygon fill="black" stroke="black" points="275.98,-83.15 286.53,-82.14 277.66,-76.35 275.98,-83.15"/>
</g>
<!-- end -->
<g id="node6" class="node">
<title>end</title>
<ellipse fill="none" stroke="black" cx="406.5" cy="-81.88" rx="27" ry="18"/>
<text text-anchor="middle" x="406.5" y="-76.83" font-family="Times,serif" font-size="14.00">end</text>
</g>
<!-- 1.10&#45;&gt;end -->
<g id="edge6" class="edge">
<title>1.10:e&#45;&gt;end:w</title>
<path fill="none" stroke="black" d="M343.5,-82.5C354.88,-82.5 360.18,-82.18 368.05,-82"/>
<polygon fill="black" stroke="black" points="368.03,-85.5 377.99,-81.89 367.95,-78.5 368.03,-85.5"/>
</g>
</g>
</svg>
