<?xml version="1.0" encoding="UTF-8" standalone="no"?>
<!DOCTYPE svg PUBLIC "-//W3C//DTD SVG 1.1//EN"
 "http://www.w3.org/Graphics/SVG/1.1/DTD/svg11.dtd">
<!-- Generated by graphviz version 12.1.1 (20240910.0053)
 -->
<!-- Pages: 1 -->
<svg width="442pt" height="102pt"
 viewBox="0.00 0.00 441.50 101.75" xmlns="http://www.w3.org/2000/svg" xmlns:xlink="http://www.w3.org/1999/xlink">
<g id="graph0" class="graph" transform="scale(1 1) rotate(0) translate(4 97.75)">
<polygon fill="white" stroke="none" points="-4,4 -4,-97.75 437.5,-97.75 437.5,4 -4,4"/>
<!-- start -->
<g id="node1" class="node">
<title>start</title>
<ellipse fill="none" stroke="black" cx="27" cy="-53.88" rx="27" ry="18"/>
<text text-anchor="middle" x="27" y="-48.83" font-family="Times,serif" font-size="14.00">start</text>
</g>
<!-- 1.0 -->
<g id="node2" class="node">
<title>1.0</title>
<polygon fill="none" stroke="black" points="90,-43.25 90,-65.75 162,-65.75 162,-43.25 90,-43.25"/>
<text text-anchor="start" x="93" y="-50.45" font-family="Courier,monospace" font-weight="bold" font-size="14.00">ATGTATAC</text>
<text text-anchor="start" x="113.25" y="-31.75" font-family="Times,serif" font-size="10.00">1.0 &#45; 7</text>
</g>
<!-- start&#45;&gt;1.0 -->
<g id="edge1" class="edge">
<title>start:e&#45;&gt;1.0:w</title>
<path fill="none" stroke="black" d="M54,-53.88C65.38,-53.88 70.68,-54.19 78.55,-54.37"/>
<polygon fill="black" stroke="black" points="78.45,-57.87 88.49,-54.48 78.53,-50.87 78.45,-57.87"/>
</g>
<!-- 1.8 -->
<g id="node3" class="node">
<title>1.8</title>
<polygon fill="none" stroke="black" points="213.75,-71.25 213.75,-93.75 236.25,-93.75 236.25,-71.25 213.75,-71.25"/>
<text text-anchor="start" x="216.75" y="-77.45" font-family="Courier,monospace" font-size="14.00">AT</text>
<text text-anchor="start" x="218.62" y="-59.75" font-family="Times,serif" font-size="10.00">1.8</text>
</g>
<!-- 1.0&#45;&gt;1.8 -->
<g id="edge2" class="edge">
<title>1.0:e&#45;&gt;1.8:w</title>
<path fill="none" stroke="black" stroke-dasharray="5,2" d="M162,-54.5C183.33,-54.5 186.47,-73.7 201.55,-80.3"/>
<polygon fill="black" stroke="black" points="200.78,-83.72 211.26,-82.21 202.13,-76.85 200.78,-83.72"/>
</g>
<!-- 2.0 -->
<g id="node4" class="node">
<title>2.0</title>
<polygon fill="none" stroke="black" points="213.75,-15.25 213.75,-37.75 236.25,-37.75 236.25,-15.25 213.75,-15.25"/>
<text text-anchor="start" x="216.75" y="-22.45" font-family="Courier,monospace" font-weight="bold" font-size="14.00">TG</text>
<text text-anchor="start" x="218.62" y="-3.75" font-family="Times,serif" font-size="10.00">2.0</text>
</g>
<!-- 1.0&#45;&gt;2.0 -->
<g id="edge3" class="edge">
<title>1.0:e&#45;&gt;2.0:w</title>
<path fill="none" stroke="black" d="M162,-54.5C183.33,-54.5 186.47,-35.3 201.55,-28.7"/>
<polygon fill="black" stroke="black" points="202.13,-32.15 211.26,-26.79 200.78,-25.28 202.13,-32.15"/>
</g>
<!-- 1.10 -->
<g id="node5" class="node">
<title>1.10</title>
<polygon fill="none" stroke="black" points="288,-43.25 288,-65.75 343.5,-65.75 343.5,-43.25 288,-43.25"/>
<text text-anchor="start" x="291" y="-50.45" font-family="Courier,monospace" font-weight="bold" font-size="14.00">CACGGC</text>
<text text-anchor="start" x="297.75" y="-31.75" font-family="Times,serif" font-size="10.00">1.10 &#45; 15</text>
</g>
<!-- 1.8&#45;&gt;1.10 -->
<g id="edge4" class="edge">
<title>1.8:e&#45;&gt;1.10:w</title>
<path fill="none" stroke="black" stroke-dasharray="5,2" d="M237.25,-82.5C258.58,-82.5 261.72,-63.3 276.8,-56.7"/>
<polygon fill="black" stroke="black" points="277.38,-60.15 286.51,-54.79 276.03,-53.28 277.38,-60.15"/>
</g>
<!-- 2.0&#45;&gt;1.10 -->
<g id="edge5" class="edge">
<title>2.0:e&#45;&gt;1.10:w</title>
<path fill="none" stroke="black" d="M237.25,-26.5C258.58,-26.5 261.72,-45.7 276.8,-52.3"/>
<polygon fill="black" stroke="black" points="276.03,-55.72 286.51,-54.21 277.38,-48.85 276.03,-55.72"/>
</g>
<!-- end -->
<g id="node6" class="node">
<title>end</title>
<ellipse fill="none" stroke="black" cx="406.5" cy="-53.88" rx="27" ry="18"/>
<text text-anchor="middle" x="406.5" y="-48.83" font-family="Times,serif" font-size="14.00">end</text>
</g>
<!-- 1.10&#45;&gt;end -->
<g id="edge6" class="edge">
<title>1.10:e&#45;&gt;end:w</title>
<path fill="none" stroke="black" d="M343.5,-54.5C354.88,-54.5 360.18,-54.18 368.05,-54"/>
<polygon fill="black" stroke="black" points="368.03,-57.5 377.99,-53.89 367.95,-50.5 368.03,-57.5"/>
</g>
</g>
</svg>
