<?xml version="1.0" encoding="UTF-8" standalone="no"?>
<!DOCTYPE svg PUBLIC "-//W3C//DTD SVG 1.1//EN"
 "http://www.w3.org/Graphics/SVG/1.1/DTD/svg11.dtd">
<!-- Generated by graphviz version 12.1.1 (20240910.0053)
 -->
<!-- Pages: 1 -->
<svg width="473pt" height="98pt"
 viewBox="0.00 0.00 472.75 98.00" xmlns="http://www.w3.org/2000/svg" xmlns:xlink="http://www.w3.org/1999/xlink">
<g id="graph0" class="graph" transform="scale(1 1) rotate(0) translate(4 94)">
<polygon fill="white" stroke="none" points="-4,4 -4,-94 468.75,-94 468.75,4 -4,4"/>
<!-- source -->
<g id="node1" class="node">
<title>source</title>
<ellipse fill="none" stroke="black" cx="27" cy="-45" rx="27" ry="18"/>
<text text-anchor="middle" x="27" y="-39.95" font-family="Times,serif" font-size="14.00">start</text>
</g>
<!-- 1.0 -->
<g id="node2" class="node">
<title>1.0</title>
<text text-anchor="start" x="92" y="-39.95" font-family="Times,serif" font-size="14.00">1.0: </text>
<polygon fill="none" stroke="black" points="118.75,-33.75 118.75,-56.25 166,-56.25 166,-33.75 118.75,-33.75"/>
<text text-anchor="start" x="121.75" y="-40.95" font-family="Courier New" font-weight="bold" font-size="14.00">A</text>
<text text-anchor="start" x="130" y="-40.95" font-family="Courier New" font-size="14.00"> … </text>
<text text-anchor="start" x="154.75" y="-40.95" font-family="Courier New" font-weight="bold" font-size="14.00">C</text>
</g>
<!-- source&#45;&gt;1.0 -->
<g id="edge1" class="edge">
<title>source:e&#45;&gt;1.0:caption</title>
<path fill="none" stroke="black" d="M54,-45C65.38,-45 70.68,-45 78.55,-45"/>
<polygon fill="black" stroke="black" points="78.49,-48.5 88.49,-45 78.49,-41.5 78.49,-48.5"/>
</g>
<!-- 1.8 -->
<g id="node3" class="node">
<title>1.8</title>
<text text-anchor="start" x="205.38" y="-66.95" font-family="Times,serif" font-size="14.00">1.8: </text>
<polygon fill="none" stroke="black" points="232.13,-60.75 232.13,-83.25 254.63,-83.25 254.63,-60.75 232.13,-60.75"/>
<text text-anchor="start" x="235.13" y="-66.95" font-family="Courier New" font-size="14.00">AT</text>
</g>
<!-- 1.0&#45;&gt;1.8 -->
<g id="edge2" class="edge">
<title>1.0:e&#45;&gt;1.8:caption</title>
<path fill="none" stroke="black" stroke-dasharray="5,2" d="M166,-45C181.42,-45 182.75,-60.83 191.56,-68.25"/>
<polygon fill="black" stroke="black" points="190.35,-71.53 200.95,-71.5 192.65,-64.92 190.35,-71.53"/>
</g>
<!-- 2.0 -->
<g id="node4" class="node">
<title>2.0</title>
<text text-anchor="start" x="205.38" y="-12.95" font-family="Times,serif" font-size="14.00">2.0: </text>
<polygon fill="none" stroke="black" points="232.13,-6.75 232.13,-29.25 254.63,-29.25 254.63,-6.75 232.13,-6.75"/>
<text text-anchor="start" x="235.13" y="-13.95" font-family="Courier New" font-weight="bold" font-size="14.00">T</text>
<text text-anchor="start" x="243.38" y="-13.95" font-family="Courier New" font-weight="bold" font-size="14.00">G</text>
</g>
<!-- 1.0&#45;&gt;2.0 -->
<g id="edge3" class="edge">
<title>1.0:e&#45;&gt;2.0:caption</title>
<path fill="none" stroke="black" d="M166,-45C181.42,-45 182.75,-29.17 191.56,-21.75"/>
<polygon fill="black" stroke="black" points="192.65,-25.08 200.95,-18.5 190.35,-18.47 192.65,-25.08"/>
</g>
<!-- 1.10 -->
<g id="node5" class="node">
<title>1.10</title>
<text text-anchor="start" x="294" y="-39.95" font-family="Times,serif" font-size="14.00">1.10: </text>
<polygon fill="none" stroke="black" points="327.5,-33.75 327.5,-56.25 374.75,-56.25 374.75,-33.75 327.5,-33.75"/>
<text text-anchor="start" x="330.5" y="-40.95" font-family="Courier New" font-weight="bold" font-size="14.00">C</text>
<text text-anchor="start" x="338.75" y="-40.95" font-family="Courier New" font-size="14.00"> … </text>
<text text-anchor="start" x="363.5" y="-40.95" font-family="Courier New" font-weight="bold" font-size="14.00">C</text>
</g>
<!-- 1.8&#45;&gt;1.10 -->
<g id="edge4" class="edge">
<title>1.8:e&#45;&gt;1.10:caption</title>
<path fill="none" stroke="black" stroke-dasharray="5,2" d="M256,-72C271.32,-72 272.56,-56.17 281.28,-48.75"/>
<polygon fill="black" stroke="black" points="282.29,-52.11 290.57,-45.5 279.98,-45.5 282.29,-52.11"/>
</g>
<!-- 2.0&#45;&gt;1.10 -->
<g id="edge5" class="edge">
<title>2.0:e&#45;&gt;1.10:caption</title>
<path fill="none" stroke="black" d="M256,-18C271.32,-18 272.56,-33.83 281.28,-41.25"/>
<polygon fill="black" stroke="black" points="279.98,-44.5 290.57,-44.5 282.29,-37.89 279.98,-44.5"/>
</g>
<!-- sink -->
<g id="node6" class="node">
<title>sink</title>
<ellipse fill="none" stroke="black" cx="437.75" cy="-45" rx="27" ry="18"/>
<text text-anchor="middle" x="437.75" y="-39.95" font-family="Times,serif" font-size="14.00">end</text>
</g>
<!-- 1.10&#45;&gt;sink -->
<g id="edge6" class="edge">
<title>1.10:e&#45;&gt;sink:caption</title>
<path fill="none" stroke="black" d="M374.75,-45C382.64,-45 391.08,-45 399.13,-45"/>
<polygon fill="black" stroke="black" points="398.99,-48.5 408.99,-45 398.99,-41.5 398.99,-48.5"/>
</g>
</g>
</svg>
