<?xml version="1.0" encoding="UTF-8" standalone="no"?>
<!DOCTYPE svg PUBLIC "-//W3C//DTD SVG 1.1//EN"
 "http://www.w3.org/Graphics/SVG/1.1/DTD/svg11.dtd">
<!-- Generated by graphviz version 12.1.1 (20240910.0053)
 -->
<!-- Pages: 1 -->
<svg width="477pt" height="114pt"
 viewBox="0.00 0.00 477.00 114.00" xmlns="http://www.w3.org/2000/svg" xmlns:xlink="http://www.w3.org/1999/xlink">
<g id="graph0" class="graph" transform="scale(1 1) rotate(0) translate(4 110)">
<polygon fill="white" stroke="none" points="-4,4 -4,-110 473,-110 473,4 -4,4"/>
<g id="clust1" class="cluster">
<title>cluster_1</title>
</g>
<!-- 1.0 -->
<g id="node1" class="node">
<title>1.0</title>
<text text-anchor="start" x="110" y="-79.9" font-family="Times,serif" font-size="8.00">0</text>
<text text-anchor="start" x="174.25" y="-79.9" font-family="Times,serif" font-size="8.00">7</text>
<text text-anchor="start" x="91.88" y="-60.45" font-family="Times,serif" font-size="14.00">1: </text>
<polygon fill="none" stroke="black" points="108,-54.5 108,-76.5 180,-76.5 180,-54.5 108,-54.5"/>
<text text-anchor="start" x="111" y="-61.2" font-family="Courier New" font-weight="bold" font-size="14.00">A</text>
<text text-anchor="start" x="119.25" y="-61.2" font-family="Courier New" font-weight="bold" font-size="14.00">T</text>
<text text-anchor="start" x="127.5" y="-61.2" font-family="Courier New" font-weight="bold" font-size="14.00">G</text>
<text text-anchor="start" x="135.75" y="-61.2" font-family="Courier New" font-weight="bold" font-size="14.00">T</text>
<text text-anchor="start" x="144" y="-61.2" font-family="Courier New" font-weight="bold" font-size="14.00">A</text>
<text text-anchor="start" x="152.25" y="-61.2" font-family="Courier New" font-weight="bold" font-size="14.00">T</text>
<text text-anchor="start" x="160.5" y="-61.2" font-family="Courier New" font-weight="bold" font-size="14.00">A</text>
<text text-anchor="start" x="168.75" y="-61.2" font-family="Courier New" font-weight="bold" font-size="14.00">C</text>
</g>
<!-- 1.8 -->
<g id="node2" class="node">
<title>1.8</title>
<text text-anchor="start" x="243" y="-79.9" font-family="Times,serif" font-size="8.00">8</text>
<text text-anchor="start" x="257.25" y="-79.9" font-family="Times,serif" font-size="8.00">9</text>
<text text-anchor="start" x="224.88" y="-60.45" font-family="Times,serif" font-size="14.00">1: </text>
<polygon fill="none" stroke="black" points="241,-54.5 241,-76.5 263,-76.5 263,-54.5 241,-54.5"/>
<text text-anchor="start" x="243.75" y="-60.2" font-family="Courier New" font-size="14.00">AT</text>
</g>
<!-- 1.0&#45;&gt;1.8 -->
<g id="edge1" class="edge">
<title>1.0:e&#45;&gt;1.8:w</title>
<path fill="none" stroke="black" stroke-dasharray="5,2" d="M180,-65.5C194.15,-65.5 200.25,-65.5 210.5,-65.5"/>
<polygon fill="black" stroke="black" points="210.49,-69 220.49,-65.5 210.49,-62 210.49,-69"/>
</g>
<!-- 2.0 -->
<g id="node4" class="node">
<title>2.0</title>
<text text-anchor="start" x="243" y="-25.9" font-family="Times,serif" font-size="8.00">0</text>
<text text-anchor="start" x="257.25" y="-25.9" font-family="Times,serif" font-size="8.00">1</text>
<text text-anchor="start" x="224.88" y="-6.45" font-family="Times,serif" font-size="14.00">2: </text>
<polygon fill="none" stroke="black" points="241,-0.5 241,-22.5 263,-22.5 263,-0.5 241,-0.5"/>
<text text-anchor="start" x="243.75" y="-7.2" font-family="Courier New" font-weight="bold" font-size="14.00">T</text>
<text text-anchor="start" x="252" y="-7.2" font-family="Courier New" font-weight="bold" font-size="14.00">G</text>
</g>
<!-- 1.0&#45;&gt;2.0 -->
<g id="edge3" class="edge">
<title>1.0:e&#45;&gt;2.0:w</title>
<path fill="none" stroke="black" d="M180,-65.5C205.89,-65.5 196.09,-26.34 211.39,-14.72"/>
<polygon fill="black" stroke="black" points="212,-18.19 220.55,-11.94 209.97,-11.49 212,-18.19"/>
</g>
<!-- 1.10 -->
<g id="node3" class="node">
<title>1.10</title>
<text text-anchor="start" x="326" y="-79.9" font-family="Times,serif" font-size="8.00">10</text>
<text text-anchor="start" x="369.5" y="-79.9" font-family="Times,serif" font-size="8.00">15</text>
<text text-anchor="start" x="307.88" y="-60.45" font-family="Times,serif" font-size="14.00">1: </text>
<polygon fill="none" stroke="black" points="324,-54.5 324,-76.5 379,-76.5 379,-54.5 324,-54.5"/>
<text text-anchor="start" x="326.75" y="-61.2" font-family="Courier New" font-weight="bold" font-size="14.00">C</text>
<text text-anchor="start" x="335" y="-61.2" font-family="Courier New" font-weight="bold" font-size="14.00">A</text>
<text text-anchor="start" x="343.25" y="-61.2" font-family="Courier New" font-weight="bold" font-size="14.00">C</text>
<text text-anchor="start" x="351.5" y="-61.2" font-family="Courier New" font-weight="bold" font-size="14.00">G</text>
<text text-anchor="start" x="359.75" y="-61.2" font-family="Courier New" font-weight="bold" font-size="14.00">G</text>
<text text-anchor="start" x="368" y="-61.2" font-family="Courier New" font-weight="bold" font-size="14.00">C</text>
</g>
<!-- 1.8&#45;&gt;1.10 -->
<g id="edge2" class="edge">
<title>1.8:e&#45;&gt;1.10:w</title>
<path fill="none" stroke="black" stroke-dasharray="5,2" d="M264,-65.5C278.15,-65.5 284.25,-65.5 294.5,-65.5"/>
<polygon fill="black" stroke="black" points="294.49,-69 304.49,-65.5 294.49,-62 294.49,-69"/>
</g>
<!-- sink -->
<g id="node5" class="node">
<title>sink</title>
<ellipse fill="none" stroke="black" cx="442" cy="-66" rx="27" ry="18"/>
<text text-anchor="middle" x="442" y="-60.95" font-family="Times,serif" font-size="14.00">end</text>
</g>
<!-- 1.10&#45;&gt;sink -->
<g id="edge4" class="edge">
<title>1.10:e&#45;&gt;sink:w</title>
<path fill="none" stroke="black" d="M380,-65.5C390.94,-65.5 396.11,-65.75 403.62,-65.89"/>
<polygon fill="black" stroke="black" points="403.46,-69.39 413.49,-65.99 403.52,-62.39 403.46,-69.39"/>
</g>
<!-- 2.0&#45;&gt;1.10 -->
<g id="edge5" class="edge">
<title>2.0:e&#45;&gt;1.10:w</title>
<path fill="none" stroke="black" d="M264,-11.5C289.89,-11.5 280.09,-50.66 295.39,-62.28"/>
<polygon fill="black" stroke="black" points="293.97,-65.51 304.55,-65.06 296,-58.81 293.97,-65.51"/>
</g>
<!-- source -->
<g id="node6" class="node">
<title>source</title>
<ellipse fill="none" stroke="black" cx="27" cy="-66" rx="27" ry="18"/>
<text text-anchor="middle" x="27" y="-60.95" font-family="Times,serif" font-size="14.00">start</text>
</g>
<!-- source&#45;&gt;1.0 -->
<g id="edge6" class="edge">
<title>source:e&#45;&gt;1.0:w</title>
<path fill="none" stroke="black" d="M54,-66C64.94,-66 70.11,-65.75 77.62,-65.61"/>
<polygon fill="black" stroke="black" points="77.52,-69.11 87.49,-65.51 77.45,-62.11 77.52,-69.11"/>
</g>
</g>
</svg>
