<?xml version="1.0" encoding="UTF-8" standalone="no"?>
<!DOCTYPE svg PUBLIC "-//W3C//DTD SVG 1.1//EN"
 "http://www.w3.org/Graphics/SVG/1.1/DTD/svg11.dtd">
<!-- Generated by graphviz version 12.1.1 (20240910.0053)
 -->
<!-- Pages: 1 -->
<svg width="442pt" height="108pt"
 viewBox="0.00 0.00 441.50 107.88" xmlns="http://www.w3.org/2000/svg" xmlns:xlink="http://www.w3.org/1999/xlink">
<g id="graph0" class="graph" transform="scale(1 1) rotate(0) translate(4 103.88)">
<polygon fill="white" stroke="none" points="-4,4 -4,-103.88 437.5,-103.88 437.5,4 -4,4"/>
<!-- start -->
<g id="node1" class="node">
<title>start</title>
<ellipse fill="none" stroke="black" cx="27" cy="-81.88" rx="27" ry="18"/>
<text text-anchor="middle" x="27" y="-76.83" font-family="Times,serif" font-size="14.00">start</text>
</g>
<!-- 1.0 -->
<g id="node2" class="node">
<title>1.0</title>
<polygon fill="none" stroke="black" points="90,-71.25 90,-93.75 162,-93.75 162,-71.25 90,-71.25"/>
<text text-anchor="start" x="93" y="-78.45" font-family="Courier,monospace" font-weight="bold" font-size="14.00">ATGTATAC</text>
<text text-anchor="start" x="115.12" y="-59.75" font-family="Times,serif" font-size="10.00">1:0&#45;7</text>
</g>
<!-- start&#45;&gt;1.0 -->
<g id="edge1" class="edge">
<title>start:e&#45;&gt;1.0:w</title>
<path fill="none" stroke="black" d="M54,-81.88C65.38,-81.88 70.68,-82.19 78.55,-82.37"/>
<polygon fill="black" stroke="black" points="78.45,-85.87 88.49,-82.48 78.53,-78.87 78.45,-85.87"/>
</g>
<!-- 1.8 -->
<g id="node3" class="node">
<title>1.8</title>
<polygon fill="none" stroke="black" points="212.12,-71.25 212.12,-93.75 237.88,-93.75 237.88,-71.25 212.12,-71.25"/>
<text text-anchor="start" x="216.75" y="-77.45" font-family="Courier,monospace" font-size="14.00">AT</text>
<text text-anchor="start" x="214.12" y="-59.75" font-family="Times,serif" font-size="10.00">1:8&#45;9</text>
</g>
<!-- 1.0&#45;&gt;1.8 -->
<g id="edge2" class="edge">
<title>1.0:e&#45;&gt;1.8:w</title>
<path fill="none" stroke="black" stroke-dasharray="5,2" d="M162,-82.5C179.57,-82.5 186.53,-82.5 199.96,-82.5"/>
<polygon fill="black" stroke="black" points="199.61,-86 209.61,-82.5 199.61,-79 199.61,-86"/>
</g>
<!-- 2.0 -->
<g id="node4" class="node">
<title>2.0</title>
<polygon fill="none" stroke="black" points="212.12,-15.25 212.12,-37.75 237.88,-37.75 237.88,-15.25 212.12,-15.25"/>
<text text-anchor="start" x="216.75" y="-22.45" font-family="Courier,monospace" font-weight="bold" font-size="14.00">TG</text>
<text text-anchor="start" x="214.12" y="-3.75" font-family="Times,serif" font-size="10.00">2:0&#45;1</text>
</g>
<!-- 1.0&#45;&gt;2.0 -->
<g id="edge3" class="edge">
<title>1.0:e&#45;&gt;2.0:w</title>
<path fill="none" stroke="black" d="M162,-82.5C190.71,-82.5 181.67,-40.39 200.35,-29.2"/>
<polygon fill="black" stroke="black" points="200.81,-32.7 209.66,-26.87 199.11,-25.91 200.81,-32.7"/>
</g>
<!-- 1.10 -->
<g id="node5" class="node">
<title>1.10</title>
<polygon fill="none" stroke="black" points="288,-71.25 288,-93.75 343.5,-93.75 343.5,-71.25 288,-71.25"/>
<text text-anchor="start" x="291" y="-78.45" font-family="Courier,monospace" font-weight="bold" font-size="14.00">CACGGC</text>
<text text-anchor="start" x="299.62" y="-59.75" font-family="Times,serif" font-size="10.00">1:10&#45;15</text>
</g>
<!-- 1.8&#45;&gt;1.10 -->
<g id="edge4" class="edge">
<title>1.8:e&#45;&gt;1.10:w</title>
<path fill="none" stroke="black" stroke-dasharray="5,2" d="M238.88,-82.5C256.44,-82.5 263.41,-82.5 276.84,-82.5"/>
<polygon fill="black" stroke="black" points="276.49,-86 286.49,-82.5 276.49,-79 276.49,-86"/>
</g>
<!-- 2.0&#45;&gt;1.10 -->
<g id="edge5" class="edge">
<title>2.0:e&#45;&gt;1.10:w</title>
<path fill="none" stroke="black" d="M238.88,-26.5C267.59,-26.5 258.55,-68.61 277.23,-79.8"/>
<polygon fill="black" stroke="black" points="275.98,-83.09 286.53,-82.13 277.68,-76.3 275.98,-83.09"/>
</g>
<!-- end -->
<g id="node6" class="node">
<title>end</title>
<ellipse fill="none" stroke="black" cx="406.5" cy="-81.88" rx="27" ry="18"/>
<text text-anchor="middle" x="406.5" y="-76.83" font-family="Times,serif" font-size="14.00">end</text>
</g>
<!-- 1.10&#45;&gt;end -->
<g id="edge6" class="edge">
<title>1.10:e&#45;&gt;end:w</title>
<path fill="none" stroke="black" d="M343.5,-82.5C354.88,-82.5 360.18,-82.18 368.05,-82"/>
<polygon fill="black" stroke="black" points="368.03,-85.5 377.99,-81.89 367.95,-78.5 368.03,-85.5"/>
</g>
</g>
</svg>
