<?xml version="1.0" encoding="UTF-8" standalone="no"?>
<!DOCTYPE svg PUBLIC "-//W3C//DTD SVG 1.1//EN"
 "http://www.w3.org/Graphics/SVG/1.1/DTD/svg11.dtd">
<!-- Generated by graphviz version 12.1.1 (20240910.0053)
 -->
<!-- Pages: 1 -->
<svg width="1048pt" height="242pt"
 viewBox="0.00 0.00 1048.03 241.50" xmlns="http://www.w3.org/2000/svg" xmlns:xlink="http://www.w3.org/1999/xlink">
<g id="graph0" class="graph" transform="scale(1 1) rotate(0) translate(4 237.5)">
<polygon fill="white" stroke="none" points="-4,4 -4,-237.5 1044.03,-237.5 1044.03,4 -4,4"/>
<!-- start -->
<g id="node1" class="node">
<title>start</title>
<ellipse fill="none" stroke="black" cx="27" cy="-124.25" rx="27" ry="18"/>
<text text-anchor="middle" x="27" y="-119.2" font-family="serif,serif" font-size="14.00">start</text>
</g>
<!-- 3.0 -->
<g id="node2" class="node">
<title>3.0</title>
<polygon fill="none" stroke="black" points="204,-208.25 204,-231.5 276,-231.5 276,-208.25 204,-208.25"/>
<text text-anchor="start" x="207" y="-215.2" font-family="Monospace" font-size="14.00">MTI..WAG</text>
<text text-anchor="start" x="221.25" y="-194.75" font-family="serif,serif" font-size="10.00">3:0&#45;1048</text>
</g>
<!-- start&#45;&gt;3.0 -->
<g id="edge1" class="edge">
<title>start:e&#45;&gt;3.0:w</title>
<path fill="none" stroke="black" d="M54,-124.25C54,-124.25 90,-179.25 90,-179.25 90,-179.25 164.6,-206.07 192.58,-216.13"/>
<polygon fill="black" stroke="black" points="190.99,-219.27 201.58,-219.36 193.35,-212.69 190.99,-219.27"/>
</g>
<!-- 4.0 -->
<g id="node3" class="node">
<title>4.0</title>
<polygon fill="none" stroke="black" points="92,-145.25 92,-168.5 164,-168.5 164,-145.25 92,-145.25"/>
<text text-anchor="start" x="95" y="-152.2" font-family="Monospace" font-size="14.00">MTI..ACD</text>
<text text-anchor="start" x="114.5" y="-131.75" font-family="serif,serif" font-size="10.00">4:0&#45;63</text>
</g>
<!-- start&#45;&gt;4.0 -->
<g id="edge2" class="edge">
<title>start:e&#45;&gt;4.0:w</title>
<path fill="none" stroke="black" d="M54,-124.25C54,-124.25 71.49,-139.67 82.42,-149.31"/>
<polygon fill="black" stroke="black" points="80.05,-151.89 89.87,-155.87 84.68,-146.64 80.05,-151.89"/>
</g>
<!-- 12.0 -->
<g id="node4" class="node">
<title>12.0</title>
<polygon fill="none" stroke="black" points="92,-82.25 92,-105.5 164,-105.5 164,-82.25 92,-82.25"/>
<text text-anchor="start" x="95" y="-89.2" font-family="Monospace" font-size="14.00">MKQ..VCD</text>
<text text-anchor="start" x="111.88" y="-68.75" font-family="serif,serif" font-size="10.00">12:0&#45;64</text>
</g>
<!-- start&#45;&gt;12.0 -->
<g id="edge3" class="edge">
<title>start:e&#45;&gt;12.0:w</title>
<path fill="none" stroke="black" d="M54,-124.25C54,-124.25 71.49,-109.89 82.42,-100.92"/>
<polygon fill="black" stroke="black" points="84.32,-103.89 89.83,-94.84 79.88,-98.48 84.32,-103.89"/>
</g>
<!-- 20.0 -->
<g id="node5" class="node">
<title>20.0</title>
<polygon fill="none" stroke="black" points="92,-19.25 92,-42.5 164,-42.5 164,-19.25 92,-19.25"/>
<text text-anchor="start" x="95" y="-26.2" font-family="Monospace" font-size="14.00">MKE..VCD</text>
<text text-anchor="start" x="111.88" y="-5.75" font-family="serif,serif" font-size="10.00">20:0&#45;64</text>
</g>
<!-- start&#45;&gt;20.0 -->
<g id="edge4" class="edge">
<title>start:e&#45;&gt;20.0:w</title>
<path fill="none" stroke="black" d="M54,-124.25C54,-124.25 77.27,-65.54 86.9,-41.22"/>
<polygon fill="black" stroke="black" points="90.01,-42.87 90.44,-32.28 83.51,-40.29 90.01,-42.87"/>
</g>
<!-- end -->
<g id="node6" class="node">
<title>end</title>
<ellipse fill="none" stroke="black" cx="1013.03" cy="-124.25" rx="27" ry="18"/>
<text text-anchor="middle" x="1013.03" y="-119.2" font-family="serif,serif" font-size="14.00">end</text>
</g>
<!-- 3.0&#45;&gt;end -->
<g id="edge5" class="edge">
<title>3.0:e&#45;&gt;end:w</title>
<path fill="none" stroke="black" d="M277,-219.88C277,-219.88 463.01,-208.25 463.01,-208.25 463.01,-208.25 463.01,-208.25 801.02,-208.25 801.02,-208.25 950.03,-179.25 950.03,-179.25 950.03,-179.25 969.44,-149.59 979.75,-133.83"/>
<polygon fill="black" stroke="black" points="982.65,-135.8 985.2,-125.52 976.79,-131.97 982.65,-135.8"/>
</g>
<!-- 5.0 -->
<g id="node7" class="node">
<title>5.0</title>
<polygon fill="none" stroke="black" points="204,-145.25 204,-168.5 276,-168.5 276,-145.25 204,-145.25"/>
<text text-anchor="start" x="207" y="-152.2" font-family="Monospace" font-size="14.00">ESR..MVD</text>
<text text-anchor="start" x="226.5" y="-131.75" font-family="serif,serif" font-size="10.00">5:0&#45;57</text>
</g>
<!-- 4.0&#45;&gt;5.0 -->
<g id="edge6" class="edge">
<title>4.0:e&#45;&gt;5.0:w</title>
<path fill="none" stroke="black" d="M165,-156.88C165,-156.88 180.6,-156.88 191.81,-156.88"/>
<polygon fill="black" stroke="black" points="191.49,-160.38 201.49,-156.88 191.49,-153.38 191.49,-160.38"/>
</g>
<!-- 13.0 -->
<g id="node8" class="node">
<title>13.0</title>
<polygon fill="none" stroke="black" points="204,-82.25 204,-105.5 276,-105.5 276,-82.25 204,-82.25"/>
<text text-anchor="start" x="207" y="-89.2" font-family="Monospace" font-size="14.00">EKR..MLD</text>
<text text-anchor="start" x="223.88" y="-68.75" font-family="serif,serif" font-size="10.00">13:0&#45;57</text>
</g>
<!-- 4.0&#45;&gt;13.0 -->
<g id="edge7" class="edge">
<title>4.0:e&#45;&gt;13.0:w</title>
<path fill="none" stroke="black" d="M165,-156.88C165,-156.88 186.38,-121.44 197.07,-103.72"/>
<polygon fill="black" stroke="black" points="200.05,-105.54 202.22,-95.17 194.06,-101.93 200.05,-105.54"/>
</g>
<!-- 21.0 -->
<g id="node9" class="node">
<title>21.0</title>
<polygon fill="none" stroke="black" points="204,-19.25 204,-42.5 276,-42.5 276,-19.25 204,-19.25"/>
<text text-anchor="start" x="207" y="-26.2" font-family="Monospace" font-size="14.00">EER..MVD</text>
<text text-anchor="start" x="223.88" y="-5.75" font-family="serif,serif" font-size="10.00">21:0&#45;57</text>
</g>
<!-- 4.0&#45;&gt;21.0 -->
<g id="edge8" class="edge">
<title>4.0:e&#45;&gt;21.0:w</title>
<path fill="none" stroke="black" d="M165,-156.88C165,-156.88 190.57,-72.09 199.76,-41.62"/>
<polygon fill="black" stroke="black" points="203.03,-42.91 202.57,-32.32 196.33,-40.89 203.03,-42.91"/>
</g>
<!-- 12.0&#45;&gt;5.0 -->
<g id="edge9" class="edge">
<title>12.0:e&#45;&gt;5.0:w</title>
<path fill="none" stroke="black" d="M165,-93.88C165,-93.88 186.38,-129.31 197.07,-147.03"/>
<polygon fill="black" stroke="black" points="194.06,-148.82 202.22,-155.58 200.05,-145.21 194.06,-148.82"/>
</g>
<!-- 12.0&#45;&gt;13.0 -->
<g id="edge10" class="edge">
<title>12.0:e&#45;&gt;13.0:w</title>
<path fill="none" stroke="black" d="M165,-93.88C165,-93.88 180.6,-93.88 191.81,-93.88"/>
<polygon fill="black" stroke="black" points="191.49,-97.38 201.49,-93.88 191.49,-90.38 191.49,-97.38"/>
</g>
<!-- 12.0&#45;&gt;21.0 -->
<g id="edge11" class="edge">
<title>12.0:e&#45;&gt;21.0:w</title>
<path fill="none" stroke="black" d="M165,-93.88C165,-93.88 186.38,-58.44 197.07,-40.72"/>
<polygon fill="black" stroke="black" points="200.05,-42.54 202.22,-32.17 194.06,-38.93 200.05,-42.54"/>
</g>
<!-- 20.0&#45;&gt;5.0 -->
<g id="edge12" class="edge">
<title>20.0:e&#45;&gt;5.0:w</title>
<path fill="none" stroke="black" d="M165,-30.88C165,-30.88 190.57,-115.66 199.76,-146.13"/>
<polygon fill="black" stroke="black" points="196.33,-146.86 202.57,-155.43 203.03,-144.84 196.33,-146.86"/>
</g>
<!-- 20.0&#45;&gt;13.0 -->
<g id="edge13" class="edge">
<title>20.0:e&#45;&gt;13.0:w</title>
<path fill="none" stroke="black" d="M165,-30.88C165,-30.88 186.38,-66.31 197.07,-84.03"/>
<polygon fill="black" stroke="black" points="194.06,-85.82 202.22,-92.58 200.05,-82.21 194.06,-85.82"/>
</g>
<!-- 20.0&#45;&gt;21.0 -->
<g id="edge14" class="edge">
<title>20.0:e&#45;&gt;21.0:w</title>
<path fill="none" stroke="black" d="M165,-30.88C165,-30.88 180.6,-30.88 191.81,-30.88"/>
<polygon fill="black" stroke="black" points="191.49,-34.38 201.49,-30.88 191.49,-27.38 191.49,-34.38"/>
</g>
<!-- 6.0 -->
<g id="node10" class="node">
<title>6.0</title>
<polygon fill="none" stroke="black" points="316.01,-145.25 316.01,-168.5 388.01,-168.5 388.01,-145.25 316.01,-145.25"/>
<text text-anchor="start" x="319.01" y="-152.2" font-family="Monospace" font-size="14.00">IAV..NSF</text>
<text text-anchor="start" x="338.51" y="-131.75" font-family="serif,serif" font-size="10.00">6:0&#45;43</text>
</g>
<!-- 5.0&#45;&gt;6.0 -->
<g id="edge15" class="edge">
<title>5.0:e&#45;&gt;6.0:w</title>
<path fill="none" stroke="black" d="M277,-156.88C277,-156.88 292.6,-156.88 303.81,-156.88"/>
<polygon fill="black" stroke="black" points="303.49,-160.38 313.49,-156.88 303.49,-153.38 303.49,-160.38"/>
</g>
<!-- 14.0 -->
<g id="node11" class="node">
<title>14.0</title>
<polygon fill="none" stroke="black" points="316.01,-82.25 316.01,-105.5 388.01,-105.5 388.01,-82.25 316.01,-82.25"/>
<text text-anchor="start" x="319.01" y="-89.2" font-family="Monospace" font-size="14.00">IAT..NSF</text>
<text text-anchor="start" x="335.88" y="-68.75" font-family="serif,serif" font-size="10.00">14:0&#45;43</text>
</g>
<!-- 5.0&#45;&gt;14.0 -->
<g id="edge16" class="edge">
<title>5.0:e&#45;&gt;14.0:w</title>
<path fill="none" stroke="black" d="M277,-156.88C277,-156.88 298.38,-121.44 309.07,-103.72"/>
<polygon fill="black" stroke="black" points="312.06,-105.54 314.23,-95.17 306.06,-101.93 312.06,-105.54"/>
</g>
<!-- 22.0 -->
<g id="node12" class="node">
<title>22.0</title>
<polygon fill="none" stroke="black" points="316.01,-19.25 316.01,-42.5 388.01,-42.5 388.01,-19.25 316.01,-19.25"/>
<text text-anchor="start" x="319.01" y="-26.2" font-family="Monospace" font-size="14.00">IAV..NSY</text>
<text text-anchor="start" x="335.88" y="-5.75" font-family="serif,serif" font-size="10.00">22:0&#45;43</text>
</g>
<!-- 5.0&#45;&gt;22.0 -->
<g id="edge17" class="edge">
<title>5.0:e&#45;&gt;22.0:w</title>
<path fill="none" stroke="black" d="M277,-156.88C277,-156.88 302.58,-72.09 311.77,-41.62"/>
<polygon fill="black" stroke="black" points="315.03,-42.91 314.57,-32.32 308.33,-40.89 315.03,-42.91"/>
</g>
<!-- 13.0&#45;&gt;6.0 -->
<g id="edge18" class="edge">
<title>13.0:e&#45;&gt;6.0:w</title>
<path fill="none" stroke="black" d="M277,-93.88C277,-93.88 298.38,-129.31 309.07,-147.03"/>
<polygon fill="black" stroke="black" points="306.06,-148.82 314.23,-155.58 312.06,-145.21 306.06,-148.82"/>
</g>
<!-- 13.0&#45;&gt;14.0 -->
<g id="edge19" class="edge">
<title>13.0:e&#45;&gt;14.0:w</title>
<path fill="none" stroke="black" d="M277,-93.88C277,-93.88 292.6,-93.88 303.81,-93.88"/>
<polygon fill="black" stroke="black" points="303.49,-97.38 313.49,-93.88 303.49,-90.38 303.49,-97.38"/>
</g>
<!-- 13.0&#45;&gt;22.0 -->
<g id="edge20" class="edge">
<title>13.0:e&#45;&gt;22.0:w</title>
<path fill="none" stroke="black" d="M277,-93.88C277,-93.88 298.38,-58.44 309.07,-40.72"/>
<polygon fill="black" stroke="black" points="312.06,-42.54 314.23,-32.17 306.06,-38.93 312.06,-42.54"/>
</g>
<!-- 21.0&#45;&gt;6.0 -->
<g id="edge21" class="edge">
<title>21.0:e&#45;&gt;6.0:w</title>
<path fill="none" stroke="black" d="M277,-30.88C277,-30.88 302.58,-115.66 311.77,-146.13"/>
<polygon fill="black" stroke="black" points="308.33,-146.86 314.57,-155.43 315.03,-144.84 308.33,-146.86"/>
</g>
<!-- 21.0&#45;&gt;14.0 -->
<g id="edge22" class="edge">
<title>21.0:e&#45;&gt;14.0:w</title>
<path fill="none" stroke="black" d="M277,-30.88C277,-30.88 298.38,-66.31 309.07,-84.03"/>
<polygon fill="black" stroke="black" points="306.06,-85.82 314.23,-92.58 312.06,-82.21 306.06,-85.82"/>
</g>
<!-- 21.0&#45;&gt;22.0 -->
<g id="edge23" class="edge">
<title>21.0:e&#45;&gt;22.0:w</title>
<path fill="none" stroke="black" d="M277,-30.88C277,-30.88 292.6,-30.88 303.81,-30.88"/>
<polygon fill="black" stroke="black" points="303.49,-34.38 313.49,-30.88 303.49,-27.38 303.49,-34.38"/>
</g>
<!-- 7.0 -->
<g id="node13" class="node">
<title>7.0</title>
<polygon fill="none" stroke="black" points="428.01,-145.25 428.01,-168.5 500.01,-168.5 500.01,-145.25 428.01,-145.25"/>
<text text-anchor="start" x="431.01" y="-152.2" font-family="Monospace" font-size="14.00">YRD..NDL</text>
<text text-anchor="start" x="450.51" y="-131.75" font-family="serif,serif" font-size="10.00">7:0&#45;49</text>
</g>
<!-- 6.0&#45;&gt;7.0 -->
<g id="edge24" class="edge">
<title>6.0:e&#45;&gt;7.0:w</title>
<path fill="none" stroke="black" d="M389.01,-156.88C389.01,-156.88 404.6,-156.88 415.81,-156.88"/>
<polygon fill="black" stroke="black" points="415.5,-160.38 425.5,-156.88 415.5,-153.38 415.5,-160.38"/>
</g>
<!-- 15.0 -->
<g id="node14" class="node">
<title>15.0</title>
<polygon fill="none" stroke="black" points="428.01,-82.25 428.01,-105.5 500.01,-105.5 500.01,-82.25 428.01,-82.25"/>
<text text-anchor="start" x="431.01" y="-89.2" font-family="Monospace" font-size="14.00">YRD..NSL</text>
<text text-anchor="start" x="447.89" y="-68.75" font-family="serif,serif" font-size="10.00">15:0&#45;49</text>
</g>
<!-- 6.0&#45;&gt;15.0 -->
<g id="edge25" class="edge">
<title>6.0:e&#45;&gt;15.0:w</title>
<path fill="none" stroke="black" d="M389.01,-156.88C389.01,-156.88 410.38,-121.44 421.07,-103.72"/>
<polygon fill="black" stroke="black" points="424.06,-105.54 426.23,-95.17 418.07,-101.93 424.06,-105.54"/>
</g>
<!-- 23.0 -->
<g id="node15" class="node">
<title>23.0</title>
<polygon fill="none" stroke="black" points="428.01,-19.25 428.01,-42.5 500.01,-42.5 500.01,-19.25 428.01,-19.25"/>
<text text-anchor="start" x="431.01" y="-26.2" font-family="Monospace" font-size="14.00">YRE..FSL</text>
<text text-anchor="start" x="447.89" y="-5.75" font-family="serif,serif" font-size="10.00">23:0&#45;49</text>
</g>
<!-- 6.0&#45;&gt;23.0 -->
<g id="edge26" class="edge">
<title>6.0:e&#45;&gt;23.0:w</title>
<path fill="none" stroke="black" d="M389.01,-156.88C389.01,-156.88 414.58,-72.09 423.77,-41.62"/>
<polygon fill="black" stroke="black" points="427.04,-42.91 426.57,-32.32 420.34,-40.89 427.04,-42.91"/>
</g>
<!-- 14.0&#45;&gt;7.0 -->
<g id="edge27" class="edge">
<title>14.0:e&#45;&gt;7.0:w</title>
<path fill="none" stroke="black" d="M389.01,-93.88C389.01,-93.88 410.38,-129.31 421.07,-147.03"/>
<polygon fill="black" stroke="black" points="418.07,-148.82 426.23,-155.58 424.06,-145.21 418.07,-148.82"/>
</g>
<!-- 14.0&#45;&gt;15.0 -->
<g id="edge28" class="edge">
<title>14.0:e&#45;&gt;15.0:w</title>
<path fill="none" stroke="black" d="M389.01,-93.88C389.01,-93.88 404.6,-93.88 415.81,-93.88"/>
<polygon fill="black" stroke="black" points="415.5,-97.38 425.5,-93.88 415.5,-90.38 415.5,-97.38"/>
</g>
<!-- 14.0&#45;&gt;23.0 -->
<g id="edge29" class="edge">
<title>14.0:e&#45;&gt;23.0:w</title>
<path fill="none" stroke="black" d="M389.01,-93.88C389.01,-93.88 410.38,-58.44 421.07,-40.72"/>
<polygon fill="black" stroke="black" points="424.06,-42.54 426.23,-32.17 418.07,-38.93 424.06,-42.54"/>
</g>
<!-- 22.0&#45;&gt;7.0 -->
<g id="edge30" class="edge">
<title>22.0:e&#45;&gt;7.0:w</title>
<path fill="none" stroke="black" d="M389.01,-30.88C389.01,-30.88 414.58,-115.66 423.77,-146.13"/>
<polygon fill="black" stroke="black" points="420.34,-146.86 426.57,-155.43 427.04,-144.84 420.34,-146.86"/>
</g>
<!-- 22.0&#45;&gt;15.0 -->
<g id="edge31" class="edge">
<title>22.0:e&#45;&gt;15.0:w</title>
<path fill="none" stroke="black" d="M389.01,-30.88C389.01,-30.88 410.38,-66.31 421.07,-84.03"/>
<polygon fill="black" stroke="black" points="418.07,-85.82 426.23,-92.58 424.06,-82.21 418.07,-85.82"/>
</g>
<!-- 22.0&#45;&gt;23.0 -->
<g id="edge32" class="edge">
<title>22.0:e&#45;&gt;23.0:w</title>
<path fill="none" stroke="black" d="M389.01,-30.88C389.01,-30.88 404.6,-30.88 415.81,-30.88"/>
<polygon fill="black" stroke="black" points="415.5,-34.38 425.5,-30.88 415.5,-27.38 415.5,-34.38"/>
</g>
<!-- 8.0 -->
<g id="node16" class="node">
<title>8.0</title>
<polygon fill="none" stroke="black" points="540.01,-145.25 540.01,-168.5 612.01,-168.5 612.01,-145.25 540.01,-145.25"/>
<text text-anchor="start" x="543.01" y="-152.2" font-family="Monospace" font-size="14.00">VDK..GHE</text>
<text text-anchor="start" x="562.51" y="-131.75" font-family="serif,serif" font-size="10.00">8:0&#45;51</text>
</g>
<!-- 7.0&#45;&gt;8.0 -->
<g id="edge33" class="edge">
<title>7.0:e&#45;&gt;8.0:w</title>
<path fill="none" stroke="black" d="M501.01,-156.88C501.01,-156.88 516.61,-156.88 527.82,-156.88"/>
<polygon fill="black" stroke="black" points="527.5,-160.38 537.5,-156.88 527.5,-153.38 527.5,-160.38"/>
</g>
<!-- 16.0 -->
<g id="node17" class="node">
<title>16.0</title>
<polygon fill="none" stroke="black" points="540.01,-82.25 540.01,-105.5 612.01,-105.5 612.01,-82.25 540.01,-82.25"/>
<text text-anchor="start" x="543.01" y="-89.2" font-family="Monospace" font-size="14.00">VDR..GHE</text>
<text text-anchor="start" x="559.89" y="-68.75" font-family="serif,serif" font-size="10.00">16:0&#45;52</text>
</g>
<!-- 7.0&#45;&gt;16.0 -->
<g id="edge34" class="edge">
<title>7.0:e&#45;&gt;16.0:w</title>
<path fill="none" stroke="black" d="M501.01,-156.88C501.01,-156.88 522.39,-121.44 533.08,-103.72"/>
<polygon fill="black" stroke="black" points="536.06,-105.54 538.23,-95.17 530.07,-101.93 536.06,-105.54"/>
</g>
<!-- 24.0 -->
<g id="node18" class="node">
<title>24.0</title>
<polygon fill="none" stroke="black" points="540.01,-19.25 540.01,-42.5 612.01,-42.5 612.01,-19.25 540.01,-19.25"/>
<text text-anchor="start" x="543.01" y="-26.2" font-family="Monospace" font-size="14.00">VDS..GHE</text>
<text text-anchor="start" x="559.89" y="-5.75" font-family="serif,serif" font-size="10.00">24:0&#45;52</text>
</g>
<!-- 7.0&#45;&gt;24.0 -->
<g id="edge35" class="edge">
<title>7.0:e&#45;&gt;24.0:w</title>
<path fill="none" stroke="black" d="M501.01,-156.88C501.01,-156.88 526.58,-72.09 535.77,-41.62"/>
<polygon fill="black" stroke="black" points="539.04,-42.91 538.58,-32.32 532.34,-40.89 539.04,-42.91"/>
</g>
<!-- 15.0&#45;&gt;8.0 -->
<g id="edge36" class="edge">
<title>15.0:e&#45;&gt;8.0:w</title>
<path fill="none" stroke="black" d="M501.01,-93.88C501.01,-93.88 522.39,-129.31 533.08,-147.03"/>
<polygon fill="black" stroke="black" points="530.07,-148.82 538.23,-155.58 536.06,-145.21 530.07,-148.82"/>
</g>
<!-- 15.0&#45;&gt;16.0 -->
<g id="edge37" class="edge">
<title>15.0:e&#45;&gt;16.0:w</title>
<path fill="none" stroke="black" d="M501.01,-93.88C501.01,-93.88 516.61,-93.88 527.82,-93.88"/>
<polygon fill="black" stroke="black" points="527.5,-97.38 537.5,-93.88 527.5,-90.38 527.5,-97.38"/>
</g>
<!-- 15.0&#45;&gt;24.0 -->
<g id="edge38" class="edge">
<title>15.0:e&#45;&gt;24.0:w</title>
<path fill="none" stroke="black" d="M501.01,-93.88C501.01,-93.88 522.39,-58.44 533.08,-40.72"/>
<polygon fill="black" stroke="black" points="536.06,-42.54 538.23,-32.17 530.07,-38.93 536.06,-42.54"/>
</g>
<!-- 23.0&#45;&gt;8.0 -->
<g id="edge39" class="edge">
<title>23.0:e&#45;&gt;8.0:w</title>
<path fill="none" stroke="black" d="M501.01,-30.88C501.01,-30.88 526.58,-115.66 535.77,-146.13"/>
<polygon fill="black" stroke="black" points="532.34,-146.86 538.58,-155.43 539.04,-144.84 532.34,-146.86"/>
</g>
<!-- 23.0&#45;&gt;16.0 -->
<g id="edge40" class="edge">
<title>23.0:e&#45;&gt;16.0:w</title>
<path fill="none" stroke="black" d="M501.01,-30.88C501.01,-30.88 522.39,-66.31 533.08,-84.03"/>
<polygon fill="black" stroke="black" points="530.07,-85.82 538.23,-92.58 536.06,-82.21 530.07,-85.82"/>
</g>
<!-- 23.0&#45;&gt;24.0 -->
<g id="edge41" class="edge">
<title>23.0:e&#45;&gt;24.0:w</title>
<path fill="none" stroke="black" d="M501.01,-30.88C501.01,-30.88 516.61,-30.88 527.82,-30.88"/>
<polygon fill="black" stroke="black" points="527.5,-34.38 537.5,-30.88 527.5,-27.38 527.5,-34.38"/>
</g>
<!-- 9.0 -->
<g id="node19" class="node">
<title>9.0</title>
<polygon fill="none" stroke="black" points="652.02,-145.25 652.02,-168.5 724.02,-168.5 724.02,-145.25 652.02,-145.25"/>
<text text-anchor="start" x="655.02" y="-152.2" font-family="Monospace" font-size="14.00">TTS..WPT</text>
<text text-anchor="start" x="674.52" y="-131.75" font-family="serif,serif" font-size="10.00">9:0&#45;59</text>
</g>
<!-- 8.0&#45;&gt;9.0 -->
<g id="edge42" class="edge">
<title>8.0:e&#45;&gt;9.0:w</title>
<path fill="none" stroke="black" d="M613.01,-156.88C613.01,-156.88 628.61,-156.88 639.82,-156.88"/>
<polygon fill="black" stroke="black" points="639.5,-160.38 649.5,-156.88 639.5,-153.38 639.5,-160.38"/>
</g>
<!-- 17.0 -->
<g id="node20" class="node">
<title>17.0</title>
<polygon fill="none" stroke="black" points="652.02,-82.25 652.02,-105.5 724.02,-105.5 724.02,-82.25 652.02,-82.25"/>
<text text-anchor="start" x="655.02" y="-89.2" font-family="Monospace" font-size="14.00">TTS..YPT</text>
<text text-anchor="start" x="671.89" y="-68.75" font-family="serif,serif" font-size="10.00">17:0&#45;59</text>
</g>
<!-- 8.0&#45;&gt;17.0 -->
<g id="edge43" class="edge">
<title>8.0:e&#45;&gt;17.0:w</title>
<path fill="none" stroke="black" d="M613.01,-156.88C613.01,-156.88 634.39,-121.44 645.08,-103.72"/>
<polygon fill="black" stroke="black" points="648.07,-105.54 650.24,-95.17 642.07,-101.93 648.07,-105.54"/>
</g>
<!-- 25.0 -->
<g id="node21" class="node">
<title>25.0</title>
<polygon fill="none" stroke="black" points="652.02,-19.25 652.02,-42.5 724.02,-42.5 724.02,-19.25 652.02,-19.25"/>
<text text-anchor="start" x="655.02" y="-26.2" font-family="Monospace" font-size="14.00">TTS..WPT</text>
<text text-anchor="start" x="671.89" y="-5.75" font-family="serif,serif" font-size="10.00">25:0&#45;59</text>
</g>
<!-- 8.0&#45;&gt;25.0 -->
<g id="edge44" class="edge">
<title>8.0:e&#45;&gt;25.0:w</title>
<path fill="none" stroke="black" d="M613.01,-156.88C613.01,-156.88 638.59,-72.09 647.78,-41.62"/>
<polygon fill="black" stroke="black" points="651.04,-42.91 650.58,-32.32 644.34,-40.89 651.04,-42.91"/>
</g>
<!-- 16.0&#45;&gt;9.0 -->
<g id="edge45" class="edge">
<title>16.0:e&#45;&gt;9.0:w</title>
<path fill="none" stroke="black" d="M613.01,-93.88C613.01,-93.88 634.39,-129.31 645.08,-147.03"/>
<polygon fill="black" stroke="black" points="642.07,-148.82 650.24,-155.58 648.07,-145.21 642.07,-148.82"/>
</g>
<!-- 16.0&#45;&gt;17.0 -->
<g id="edge46" class="edge">
<title>16.0:e&#45;&gt;17.0:w</title>
<path fill="none" stroke="black" d="M613.01,-93.88C613.01,-93.88 628.61,-93.88 639.82,-93.88"/>
<polygon fill="black" stroke="black" points="639.5,-97.38 649.5,-93.88 639.5,-90.38 639.5,-97.38"/>
</g>
<!-- 16.0&#45;&gt;25.0 -->
<g id="edge47" class="edge">
<title>16.0:e&#45;&gt;25.0:w</title>
<path fill="none" stroke="black" d="M613.01,-93.88C613.01,-93.88 634.39,-58.44 645.08,-40.72"/>
<polygon fill="black" stroke="black" points="648.07,-42.54 650.24,-32.17 642.07,-38.93 648.07,-42.54"/>
</g>
<!-- 24.0&#45;&gt;9.0 -->
<g id="edge48" class="edge">
<title>24.0:e&#45;&gt;9.0:w</title>
<path fill="none" stroke="black" d="M613.01,-30.88C613.01,-30.88 638.59,-115.66 647.78,-146.13"/>
<polygon fill="black" stroke="black" points="644.34,-146.86 650.58,-155.43 651.04,-144.84 644.34,-146.86"/>
</g>
<!-- 24.0&#45;&gt;17.0 -->
<g id="edge49" class="edge">
<title>24.0:e&#45;&gt;17.0:w</title>
<path fill="none" stroke="black" d="M613.01,-30.88C613.01,-30.88 634.39,-66.31 645.08,-84.03"/>
<polygon fill="black" stroke="black" points="642.07,-85.82 650.24,-92.58 648.07,-82.21 642.07,-85.82"/>
</g>
<!-- 24.0&#45;&gt;25.0 -->
<g id="edge50" class="edge">
<title>24.0:e&#45;&gt;25.0:w</title>
<path fill="none" stroke="black" d="M613.01,-30.88C613.01,-30.88 628.61,-30.88 639.82,-30.88"/>
<polygon fill="black" stroke="black" points="639.5,-34.38 649.5,-30.88 639.5,-27.38 639.5,-34.38"/>
</g>
<!-- 10.0 -->
<g id="node22" class="node">
<title>10.0</title>
<polygon fill="none" stroke="black" points="764.02,-145.25 764.02,-168.5 836.02,-168.5 836.02,-145.25 764.02,-145.25"/>
<text text-anchor="start" x="767.02" y="-152.2" font-family="Monospace" font-size="14.00">APA..IGQ</text>
<text text-anchor="start" x="783.9" y="-131.75" font-family="serif,serif" font-size="10.00">10:0&#45;75</text>
</g>
<!-- 9.0&#45;&gt;10.0 -->
<g id="edge51" class="edge">
<title>9.0:e&#45;&gt;10.0:w</title>
<path fill="none" stroke="black" d="M725.02,-156.88C725.02,-156.88 740.61,-156.88 751.82,-156.88"/>
<polygon fill="black" stroke="black" points="751.51,-160.38 761.51,-156.88 751.51,-153.38 751.51,-160.38"/>
</g>
<!-- 18.0 -->
<g id="node23" class="node">
<title>18.0</title>
<polygon fill="none" stroke="black" points="764.02,-82.25 764.02,-105.5 836.02,-105.5 836.02,-82.25 764.02,-82.25"/>
<text text-anchor="start" x="767.02" y="-89.2" font-family="Monospace" font-size="14.00">APA..IGM</text>
<text text-anchor="start" x="783.9" y="-68.75" font-family="serif,serif" font-size="10.00">18:0&#45;75</text>
</g>
<!-- 9.0&#45;&gt;18.0 -->
<g id="edge52" class="edge">
<title>9.0:e&#45;&gt;18.0:w</title>
<path fill="none" stroke="black" d="M725.02,-156.88C725.02,-156.88 746.39,-121.44 757.08,-103.72"/>
<polygon fill="black" stroke="black" points="760.07,-105.54 762.24,-95.17 754.08,-101.93 760.07,-105.54"/>
</g>
<!-- 26.0 -->
<g id="node24" class="node">
<title>26.0</title>
<polygon fill="none" stroke="black" points="764.02,-19.25 764.02,-42.5 836.02,-42.5 836.02,-19.25 764.02,-19.25"/>
<text text-anchor="start" x="767.02" y="-26.2" font-family="Monospace" font-size="14.00">APA..IGM</text>
<text text-anchor="start" x="783.9" y="-5.75" font-family="serif,serif" font-size="10.00">26:0&#45;75</text>
</g>
<!-- 9.0&#45;&gt;26.0 -->
<g id="edge53" class="edge">
<title>9.0:e&#45;&gt;26.0:w</title>
<path fill="none" stroke="black" d="M725.02,-156.88C725.02,-156.88 750.59,-72.09 759.78,-41.62"/>
<polygon fill="black" stroke="black" points="763.05,-42.91 762.58,-32.32 756.35,-40.89 763.05,-42.91"/>
</g>
<!-- 17.0&#45;&gt;10.0 -->
<g id="edge54" class="edge">
<title>17.0:e&#45;&gt;10.0:w</title>
<path fill="none" stroke="black" d="M725.02,-93.88C725.02,-93.88 746.39,-129.31 757.08,-147.03"/>
<polygon fill="black" stroke="black" points="754.08,-148.82 762.24,-155.58 760.07,-145.21 754.08,-148.82"/>
</g>
<!-- 17.0&#45;&gt;18.0 -->
<g id="edge55" class="edge">
<title>17.0:e&#45;&gt;18.0:w</title>
<path fill="none" stroke="black" d="M725.02,-93.88C725.02,-93.88 740.61,-93.88 751.82,-93.88"/>
<polygon fill="black" stroke="black" points="751.51,-97.38 761.51,-93.88 751.51,-90.38 751.51,-97.38"/>
</g>
<!-- 17.0&#45;&gt;26.0 -->
<g id="edge56" class="edge">
<title>17.0:e&#45;&gt;26.0:w</title>
<path fill="none" stroke="black" d="M725.02,-93.88C725.02,-93.88 746.39,-58.44 757.08,-40.72"/>
<polygon fill="black" stroke="black" points="760.07,-42.54 762.24,-32.17 754.08,-38.93 760.07,-42.54"/>
</g>
<!-- 25.0&#45;&gt;10.0 -->
<g id="edge57" class="edge">
<title>25.0:e&#45;&gt;10.0:w</title>
<path fill="none" stroke="black" d="M725.02,-30.88C725.02,-30.88 750.59,-115.66 759.78,-146.13"/>
<polygon fill="black" stroke="black" points="756.35,-146.86 762.58,-155.43 763.05,-144.84 756.35,-146.86"/>
</g>
<!-- 25.0&#45;&gt;18.0 -->
<g id="edge58" class="edge">
<title>25.0:e&#45;&gt;18.0:w</title>
<path fill="none" stroke="black" d="M725.02,-30.88C725.02,-30.88 746.39,-66.31 757.08,-84.03"/>
<polygon fill="black" stroke="black" points="754.08,-85.82 762.24,-92.58 760.07,-82.21 754.08,-85.82"/>
</g>
<!-- 25.0&#45;&gt;26.0 -->
<g id="edge59" class="edge">
<title>25.0:e&#45;&gt;26.0:w</title>
<path fill="none" stroke="black" d="M725.02,-30.88C725.02,-30.88 740.61,-30.88 751.82,-30.88"/>
<polygon fill="black" stroke="black" points="751.51,-34.38 761.51,-30.88 751.51,-27.38 751.51,-34.38"/>
</g>
<!-- 11.0 -->
<g id="node25" class="node">
<title>11.0</title>
<polygon fill="none" stroke="black" points="876.02,-145.25 876.02,-168.5 948.02,-168.5 948.02,-145.25 876.02,-145.25"/>
<text text-anchor="start" x="879.02" y="-152.2" font-family="Monospace" font-size="14.00">QFA..WAG</text>
<text text-anchor="start" x="894.02" y="-131.75" font-family="serif,serif" font-size="10.00">11:0&#45;644</text>
</g>
<!-- 10.0&#45;&gt;11.0 -->
<g id="edge60" class="edge">
<title>10.0:e&#45;&gt;11.0:w</title>
<path fill="none" stroke="black" d="M837.02,-156.88C837.02,-156.88 852.62,-156.88 863.83,-156.88"/>
<polygon fill="black" stroke="black" points="863.51,-160.38 873.51,-156.88 863.51,-153.38 863.51,-160.38"/>
</g>
<!-- 19.0 -->
<g id="node26" class="node">
<title>19.0</title>
<polygon fill="none" stroke="black" points="876.02,-82.25 876.02,-105.5 948.02,-105.5 948.02,-82.25 876.02,-82.25"/>
<text text-anchor="start" x="879.02" y="-89.2" font-family="Monospace" font-size="14.00">QFA..TGM</text>
<text text-anchor="start" x="893.27" y="-68.75" font-family="serif,serif" font-size="10.00">19:0&#45;647</text>
</g>
<!-- 10.0&#45;&gt;19.0 -->
<g id="edge61" class="edge">
<title>10.0:e&#45;&gt;19.0:w</title>
<path fill="none" stroke="black" d="M837.02,-156.88C837.02,-156.88 858.4,-121.44 869.09,-103.72"/>
<polygon fill="black" stroke="black" points="872.07,-105.54 874.24,-95.17 866.08,-101.93 872.07,-105.54"/>
</g>
<!-- 27.0 -->
<g id="node27" class="node">
<title>27.0</title>
<polygon fill="none" stroke="black" points="876.02,-19.25 876.02,-42.5 948.02,-42.5 948.02,-19.25 876.02,-19.25"/>
<text text-anchor="start" x="879.02" y="-26.2" font-family="Monospace" font-size="14.00">QFA..AGI</text>
<text text-anchor="start" x="893.27" y="-5.75" font-family="serif,serif" font-size="10.00">27:0&#45;654</text>
</g>
<!-- 10.0&#45;&gt;27.0 -->
<g id="edge62" class="edge">
<title>10.0:e&#45;&gt;27.0:w</title>
<path fill="none" stroke="black" d="M837.02,-156.88C837.02,-156.88 862.59,-72.09 871.78,-41.62"/>
<polygon fill="black" stroke="black" points="875.05,-42.91 874.59,-32.32 868.35,-40.89 875.05,-42.91"/>
</g>
<!-- 18.0&#45;&gt;11.0 -->
<g id="edge63" class="edge">
<title>18.0:e&#45;&gt;11.0:w</title>
<path fill="none" stroke="black" d="M837.02,-93.88C837.02,-93.88 858.4,-129.31 869.09,-147.03"/>
<polygon fill="black" stroke="black" points="866.08,-148.82 874.24,-155.58 872.07,-145.21 866.08,-148.82"/>
</g>
<!-- 18.0&#45;&gt;19.0 -->
<g id="edge64" class="edge">
<title>18.0:e&#45;&gt;19.0:w</title>
<path fill="none" stroke="black" d="M837.02,-93.88C837.02,-93.88 852.62,-93.88 863.83,-93.88"/>
<polygon fill="black" stroke="black" points="863.51,-97.38 873.51,-93.88 863.51,-90.38 863.51,-97.38"/>
</g>
<!-- 18.0&#45;&gt;27.0 -->
<g id="edge65" class="edge">
<title>18.0:e&#45;&gt;27.0:w</title>
<path fill="none" stroke="black" d="M837.02,-93.88C837.02,-93.88 858.4,-58.44 869.09,-40.72"/>
<polygon fill="black" stroke="black" points="872.07,-42.54 874.24,-32.17 866.08,-38.93 872.07,-42.54"/>
</g>
<!-- 26.0&#45;&gt;11.0 -->
<g id="edge66" class="edge">
<title>26.0:e&#45;&gt;11.0:w</title>
<path fill="none" stroke="black" d="M837.02,-30.88C837.02,-30.88 862.59,-115.66 871.78,-146.13"/>
<polygon fill="black" stroke="black" points="868.35,-146.86 874.59,-155.43 875.05,-144.84 868.35,-146.86"/>
</g>
<!-- 26.0&#45;&gt;19.0 -->
<g id="edge67" class="edge">
<title>26.0:e&#45;&gt;19.0:w</title>
<path fill="none" stroke="black" d="M837.02,-30.88C837.02,-30.88 858.4,-66.31 869.09,-84.03"/>
<polygon fill="black" stroke="black" points="866.08,-85.82 874.24,-92.58 872.07,-82.21 866.08,-85.82"/>
</g>
<!-- 26.0&#45;&gt;27.0 -->
<g id="edge68" class="edge">
<title>26.0:e&#45;&gt;27.0:w</title>
<path fill="none" stroke="black" d="M837.02,-30.88C837.02,-30.88 852.62,-30.88 863.83,-30.88"/>
<polygon fill="black" stroke="black" points="863.51,-34.38 873.51,-30.88 863.51,-27.38 863.51,-34.38"/>
</g>
<!-- 11.0&#45;&gt;end -->
<g id="edge69" class="edge">
<title>11.0:e&#45;&gt;end:w</title>
<path fill="none" stroke="black" d="M949.02,-156.88C949.02,-156.88 966.51,-141.45 977.44,-131.82"/>
<polygon fill="black" stroke="black" points="979.7,-134.49 984.89,-125.25 975.07,-129.24 979.7,-134.49"/>
</g>
<!-- 19.0&#45;&gt;end -->
<g id="edge70" class="edge">
<title>19.0:e&#45;&gt;end:w</title>
<path fill="none" stroke="black" d="M949.02,-93.88C949.02,-93.88 966.51,-108.23 977.44,-117.21"/>
<polygon fill="black" stroke="black" points="974.91,-119.65 984.86,-123.29 979.35,-114.24 974.91,-119.65"/>
</g>
<!-- 27.0&#45;&gt;end -->
<g id="edge71" class="edge">
<title>27.0:e&#45;&gt;end:w</title>
<path fill="none" stroke="black" d="M949.02,-30.88C949.02,-30.88 972.29,-89.59 981.92,-113.9"/>
<polygon fill="black" stroke="black" points="978.53,-114.84 985.47,-122.84 985.04,-112.26 978.53,-114.84"/>
</g>
</g>
</svg>
