<?xml version="1.0" encoding="UTF-8" standalone="no"?>
<!DOCTYPE svg PUBLIC "-//W3C//DTD SVG 1.1//EN"
 "http://www.w3.org/Graphics/SVG/1.1/DTD/svg11.dtd">
<!-- Generated by graphviz version 12.2.1 (20241206.2353)
 -->
<!-- Pages: 1 -->
<svg width="957pt" height="230pt"
 viewBox="0.00 0.00 956.80 229.50" xmlns="http://www.w3.org/2000/svg" xmlns:xlink="http://www.w3.org/1999/xlink">
<g id="graph0" class="graph" transform="scale(1 1) rotate(0) translate(4 225.5)">
<polygon fill="white" stroke="none" points="-4,4 -4,-225.5 952.8,-225.5 952.8,4 -4,4"/>
<!-- start -->
<g id="node1" class="node">
<title>start</title>
<ellipse fill="none" stroke="black" cx="16.2" cy="-118.75" rx="16.2" ry="10.8"/>
<text text-anchor="middle" x="16.2" y="-114.48" font-family="serif,serif" font-size="12.00">Start</text>
</g>
<!-- 3.0 -->
<g id="node2" class="node">
<title>3.0</title>
<polygon fill="none" stroke="black" points="176.4,-199.25 176.4,-219.5 242.4,-219.5 242.4,-199.25 176.4,-199.25"/>
<text text-anchor="start" x="179.4" y="-205.1" font-family="Monospace" font-size="12.00">MTI..WAG</text>
<text text-anchor="start" x="190.65" y="-185.75" font-family="serif,serif" font-size="10.00">3:0&#45;1048</text>
</g>
<!-- start&#45;&gt;3.0 -->
<g id="edge1" class="edge">
<title>start:e&#45;&gt;3.0:w</title>
<path fill="none" stroke="black" d="M32.4,-118.75C32.4,-118.75 68.4,-170.75 68.4,-170.75 68.4,-170.75 137.68,-195.76 164.75,-205.53"/>
<polygon fill="black" stroke="black" points="163.38,-208.76 173.98,-208.86 165.76,-202.17 163.38,-208.76"/>
</g>
<!-- 4.0 -->
<g id="node3" class="node">
<title>4.0</title>
<polygon fill="none" stroke="black" points="70.4,-139.25 70.4,-159.5 136.4,-159.5 136.4,-139.25 70.4,-139.25"/>
<text text-anchor="start" x="73.4" y="-145.1" font-family="Monospace" font-size="12.00">MTI..ACD</text>
<text text-anchor="start" x="89.9" y="-125.75" font-family="serif,serif" font-size="10.00">4:0&#45;63</text>
</g>
<!-- start&#45;&gt;4.0 -->
<g id="edge2" class="edge">
<title>start:e&#45;&gt;4.0:w</title>
<path fill="none" stroke="black" d="M32.4,-118.75C32.4,-118.75 49.89,-133.23 60.82,-142.27"/>
<polygon fill="black" stroke="black" points="58.3,-144.73 68.23,-148.41 62.76,-139.34 58.3,-144.73"/>
</g>
<!-- 12.0 -->
<g id="node4" class="node">
<title>12.0</title>
<polygon fill="none" stroke="black" points="70.4,-79.25 70.4,-99.5 136.4,-99.5 136.4,-79.25 70.4,-79.25"/>
<text text-anchor="start" x="73.4" y="-85.1" font-family="Monospace" font-size="12.00">MKQ..VCD</text>
<text text-anchor="start" x="87.28" y="-65.75" font-family="serif,serif" font-size="10.00">12:0&#45;64</text>
</g>
<!-- start&#45;&gt;12.0 -->
<g id="edge3" class="edge">
<title>start:e&#45;&gt;12.0:w</title>
<path fill="none" stroke="black" d="M32.4,-118.75C32.4,-118.75 49.49,-105.18 60.44,-96.49"/>
<polygon fill="black" stroke="black" points="62.56,-99.28 68.21,-90.32 58.21,-93.79 62.56,-99.28"/>
</g>
<!-- 20.0 -->
<g id="node5" class="node">
<title>20.0</title>
<polygon fill="none" stroke="black" points="70.4,-19.25 70.4,-39.5 136.4,-39.5 136.4,-19.25 70.4,-19.25"/>
<text text-anchor="start" x="73.4" y="-25.1" font-family="Monospace" font-size="12.00">MKE..VCD</text>
<text text-anchor="start" x="87.28" y="-5.75" font-family="serif,serif" font-size="10.00">20:0&#45;64</text>
</g>
<!-- start&#45;&gt;20.0 -->
<g id="edge4" class="edge">
<title>start:e&#45;&gt;20.0:w</title>
<path fill="none" stroke="black" d="M32.4,-118.75C32.4,-118.75 55.21,-63.65 65.01,-39.98"/>
<polygon fill="black" stroke="black" points="68.23,-41.35 68.82,-30.77 61.76,-38.67 68.23,-41.35"/>
</g>
<!-- end -->
<g id="node6" class="node">
<title>end</title>
<ellipse fill="none" stroke="black" cx="932.6" cy="-118.75" rx="16.2" ry="10.8"/>
<text text-anchor="middle" x="932.6" y="-114.48" font-family="serif,serif" font-size="12.00">End</text>
</g>
<!-- 3.0&#45;&gt;end -->
<g id="edge5" class="edge">
<title>3.0:e&#45;&gt;end:w</title>
<path fill="none" stroke="black" d="M243.4,-209.38C243.4,-209.38 420.4,-198.75 420.4,-198.75 420.4,-198.75 420.4,-198.75 740.4,-198.75 740.4,-198.75 880.4,-170.75 880.4,-170.75 880.4,-170.75 899.82,-142.71 910.13,-127.81"/>
<polygon fill="black" stroke="black" points="912.72,-130.21 915.54,-119.99 906.97,-126.22 912.72,-130.21"/>
</g>
<!-- 5.0 -->
<g id="node7" class="node">
<title>5.0</title>
<polygon fill="none" stroke="black" points="176.4,-139.25 176.4,-159.5 242.4,-159.5 242.4,-139.25 176.4,-139.25"/>
<text text-anchor="start" x="179.4" y="-145.1" font-family="Monospace" font-size="12.00">ESR..MVD</text>
<text text-anchor="start" x="195.9" y="-125.75" font-family="serif,serif" font-size="10.00">5:0&#45;57</text>
</g>
<!-- 4.0&#45;&gt;5.0 -->
<g id="edge6" class="edge">
<title>4.0:e&#45;&gt;5.0:w</title>
<path fill="none" stroke="black" d="M137.4,-149.38C137.4,-149.38 153,-149.38 164.2,-149.38"/>
<polygon fill="black" stroke="black" points="163.89,-152.88 173.89,-149.38 163.89,-145.88 163.89,-152.88"/>
</g>
<!-- 13.0 -->
<g id="node8" class="node">
<title>13.0</title>
<polygon fill="none" stroke="black" points="176.4,-79.25 176.4,-99.5 242.4,-99.5 242.4,-79.25 176.4,-79.25"/>
<text text-anchor="start" x="179.4" y="-85.1" font-family="Monospace" font-size="12.00">EKR..MLD</text>
<text text-anchor="start" x="193.28" y="-65.75" font-family="serif,serif" font-size="10.00">13:0&#45;57</text>
</g>
<!-- 4.0&#45;&gt;13.0 -->
<g id="edge7" class="edge">
<title>4.0:e&#45;&gt;13.0:w</title>
<path fill="none" stroke="black" d="M137.4,-149.38C137.4,-149.38 158.55,-115.98 169.29,-99.02"/>
<polygon fill="black" stroke="black" points="172.2,-100.97 174.59,-90.65 166.28,-97.23 172.2,-100.97"/>
</g>
<!-- 21.0 -->
<g id="node9" class="node">
<title>21.0</title>
<polygon fill="none" stroke="black" points="176.4,-19.25 176.4,-39.5 242.4,-39.5 242.4,-19.25 176.4,-19.25"/>
<text text-anchor="start" x="179.4" y="-25.1" font-family="Monospace" font-size="12.00">EER..MVD</text>
<text text-anchor="start" x="193.28" y="-5.75" font-family="serif,serif" font-size="10.00">21:0&#45;57</text>
</g>
<!-- 4.0&#45;&gt;21.0 -->
<g id="edge8" class="edge">
<title>4.0:e&#45;&gt;21.0:w</title>
<path fill="none" stroke="black" d="M137.4,-149.38C137.4,-149.38 162.73,-69.39 172.03,-40.02"/>
<polygon fill="black" stroke="black" points="175.26,-41.41 174.94,-30.82 168.59,-39.29 175.26,-41.41"/>
</g>
<!-- 12.0&#45;&gt;5.0 -->
<g id="edge9" class="edge">
<title>12.0:e&#45;&gt;5.0:w</title>
<path fill="none" stroke="black" d="M137.4,-89.38C137.4,-89.38 158.55,-122.77 169.29,-139.74"/>
<polygon fill="black" stroke="black" points="166.28,-141.52 174.59,-148.1 172.2,-137.78 166.28,-141.52"/>
</g>
<!-- 12.0&#45;&gt;13.0 -->
<g id="edge10" class="edge">
<title>12.0:e&#45;&gt;13.0:w</title>
<path fill="none" stroke="black" d="M137.4,-89.38C137.4,-89.38 153,-89.38 164.2,-89.38"/>
<polygon fill="black" stroke="black" points="163.89,-92.88 173.89,-89.38 163.89,-85.88 163.89,-92.88"/>
</g>
<!-- 12.0&#45;&gt;21.0 -->
<g id="edge11" class="edge">
<title>12.0:e&#45;&gt;21.0:w</title>
<path fill="none" stroke="black" d="M137.4,-89.38C137.4,-89.38 158.55,-55.98 169.29,-39.02"/>
<polygon fill="black" stroke="black" points="172.2,-40.97 174.59,-30.65 166.28,-37.23 172.2,-40.97"/>
</g>
<!-- 20.0&#45;&gt;5.0 -->
<g id="edge12" class="edge">
<title>20.0:e&#45;&gt;5.0:w</title>
<path fill="none" stroke="black" d="M137.4,-29.38C137.4,-29.38 162.73,-109.36 172.03,-138.73"/>
<polygon fill="black" stroke="black" points="168.59,-139.46 174.94,-147.93 175.26,-137.34 168.59,-139.46"/>
</g>
<!-- 20.0&#45;&gt;13.0 -->
<g id="edge13" class="edge">
<title>20.0:e&#45;&gt;13.0:w</title>
<path fill="none" stroke="black" d="M137.4,-29.38C137.4,-29.38 158.55,-62.77 169.29,-79.74"/>
<polygon fill="black" stroke="black" points="166.28,-81.52 174.59,-88.1 172.2,-77.78 166.28,-81.52"/>
</g>
<!-- 20.0&#45;&gt;21.0 -->
<g id="edge14" class="edge">
<title>20.0:e&#45;&gt;21.0:w</title>
<path fill="none" stroke="black" d="M137.4,-29.38C137.4,-29.38 153,-29.38 164.2,-29.38"/>
<polygon fill="black" stroke="black" points="163.89,-32.88 173.89,-29.38 163.89,-25.88 163.89,-32.88"/>
</g>
<!-- 6.0 -->
<g id="node10" class="node">
<title>6.0</title>
<polygon fill="none" stroke="black" points="282.4,-139.25 282.4,-159.5 348.4,-159.5 348.4,-139.25 282.4,-139.25"/>
<text text-anchor="start" x="285.4" y="-145.1" font-family="Monospace" font-size="12.00">IAV..NSF</text>
<text text-anchor="start" x="301.9" y="-125.75" font-family="serif,serif" font-size="10.00">6:0&#45;43</text>
</g>
<!-- 5.0&#45;&gt;6.0 -->
<g id="edge15" class="edge">
<title>5.0:e&#45;&gt;6.0:w</title>
<path fill="none" stroke="black" d="M243.4,-149.38C243.4,-149.38 259,-149.38 270.2,-149.38"/>
<polygon fill="black" stroke="black" points="269.89,-152.88 279.89,-149.38 269.89,-145.88 269.89,-152.88"/>
</g>
<!-- 14.0 -->
<g id="node11" class="node">
<title>14.0</title>
<polygon fill="none" stroke="black" points="282.4,-79.25 282.4,-99.5 348.4,-99.5 348.4,-79.25 282.4,-79.25"/>
<text text-anchor="start" x="285.4" y="-85.1" font-family="Monospace" font-size="12.00">IAT..NSF</text>
<text text-anchor="start" x="299.28" y="-65.75" font-family="serif,serif" font-size="10.00">14:0&#45;43</text>
</g>
<!-- 5.0&#45;&gt;14.0 -->
<g id="edge16" class="edge">
<title>5.0:e&#45;&gt;14.0:w</title>
<path fill="none" stroke="black" d="M243.4,-149.38C243.4,-149.38 264.55,-115.98 275.29,-99.02"/>
<polygon fill="black" stroke="black" points="278.2,-100.97 280.59,-90.65 272.28,-97.23 278.2,-100.97"/>
</g>
<!-- 22.0 -->
<g id="node12" class="node">
<title>22.0</title>
<polygon fill="none" stroke="black" points="282.4,-19.25 282.4,-39.5 348.4,-39.5 348.4,-19.25 282.4,-19.25"/>
<text text-anchor="start" x="285.4" y="-25.1" font-family="Monospace" font-size="12.00">IAV..NSY</text>
<text text-anchor="start" x="299.28" y="-5.75" font-family="serif,serif" font-size="10.00">22:0&#45;43</text>
</g>
<!-- 5.0&#45;&gt;22.0 -->
<g id="edge17" class="edge">
<title>5.0:e&#45;&gt;22.0:w</title>
<path fill="none" stroke="black" d="M243.4,-149.38C243.4,-149.38 268.73,-69.39 278.03,-40.02"/>
<polygon fill="black" stroke="black" points="281.26,-41.41 280.94,-30.82 274.59,-39.29 281.26,-41.41"/>
</g>
<!-- 13.0&#45;&gt;6.0 -->
<g id="edge18" class="edge">
<title>13.0:e&#45;&gt;6.0:w</title>
<path fill="none" stroke="black" d="M243.4,-89.38C243.4,-89.38 264.55,-122.77 275.29,-139.74"/>
<polygon fill="black" stroke="black" points="272.28,-141.52 280.59,-148.1 278.2,-137.78 272.28,-141.52"/>
</g>
<!-- 13.0&#45;&gt;14.0 -->
<g id="edge19" class="edge">
<title>13.0:e&#45;&gt;14.0:w</title>
<path fill="none" stroke="black" d="M243.4,-89.38C243.4,-89.38 259,-89.38 270.2,-89.38"/>
<polygon fill="black" stroke="black" points="269.89,-92.88 279.89,-89.38 269.89,-85.88 269.89,-92.88"/>
</g>
<!-- 13.0&#45;&gt;22.0 -->
<g id="edge20" class="edge">
<title>13.0:e&#45;&gt;22.0:w</title>
<path fill="none" stroke="black" d="M243.4,-89.38C243.4,-89.38 264.55,-55.98 275.29,-39.02"/>
<polygon fill="black" stroke="black" points="278.2,-40.97 280.59,-30.65 272.28,-37.23 278.2,-40.97"/>
</g>
<!-- 21.0&#45;&gt;6.0 -->
<g id="edge21" class="edge">
<title>21.0:e&#45;&gt;6.0:w</title>
<path fill="none" stroke="black" d="M243.4,-29.38C243.4,-29.38 268.73,-109.36 278.03,-138.73"/>
<polygon fill="black" stroke="black" points="274.59,-139.46 280.94,-147.93 281.26,-137.34 274.59,-139.46"/>
</g>
<!-- 21.0&#45;&gt;14.0 -->
<g id="edge22" class="edge">
<title>21.0:e&#45;&gt;14.0:w</title>
<path fill="none" stroke="black" d="M243.4,-29.38C243.4,-29.38 264.55,-62.77 275.29,-79.74"/>
<polygon fill="black" stroke="black" points="272.28,-81.52 280.59,-88.1 278.2,-77.78 272.28,-81.52"/>
</g>
<!-- 21.0&#45;&gt;22.0 -->
<g id="edge23" class="edge">
<title>21.0:e&#45;&gt;22.0:w</title>
<path fill="none" stroke="black" d="M243.4,-29.38C243.4,-29.38 259,-29.38 270.2,-29.38"/>
<polygon fill="black" stroke="black" points="269.89,-32.88 279.89,-29.38 269.89,-25.88 269.89,-32.88"/>
</g>
<!-- 7.0 -->
<g id="node13" class="node">
<title>7.0</title>
<polygon fill="none" stroke="black" points="388.4,-139.25 388.4,-159.5 454.4,-159.5 454.4,-139.25 388.4,-139.25"/>
<text text-anchor="start" x="391.4" y="-145.1" font-family="Monospace" font-size="12.00">YRD..NDL</text>
<text text-anchor="start" x="407.9" y="-125.75" font-family="serif,serif" font-size="10.00">7:0&#45;49</text>
</g>
<!-- 6.0&#45;&gt;7.0 -->
<g id="edge24" class="edge">
<title>6.0:e&#45;&gt;7.0:w</title>
<path fill="none" stroke="black" d="M349.4,-149.38C349.4,-149.38 365,-149.38 376.2,-149.38"/>
<polygon fill="black" stroke="black" points="375.89,-152.88 385.89,-149.38 375.89,-145.88 375.89,-152.88"/>
</g>
<!-- 15.0 -->
<g id="node14" class="node">
<title>15.0</title>
<polygon fill="none" stroke="black" points="388.4,-79.25 388.4,-99.5 454.4,-99.5 454.4,-79.25 388.4,-79.25"/>
<text text-anchor="start" x="391.4" y="-85.1" font-family="Monospace" font-size="12.00">YRD..NSL</text>
<text text-anchor="start" x="405.28" y="-65.75" font-family="serif,serif" font-size="10.00">15:0&#45;49</text>
</g>
<!-- 6.0&#45;&gt;15.0 -->
<g id="edge25" class="edge">
<title>6.0:e&#45;&gt;15.0:w</title>
<path fill="none" stroke="black" d="M349.4,-149.38C349.4,-149.38 370.55,-115.98 381.29,-99.02"/>
<polygon fill="black" stroke="black" points="384.2,-100.97 386.59,-90.65 378.28,-97.23 384.2,-100.97"/>
</g>
<!-- 23.0 -->
<g id="node15" class="node">
<title>23.0</title>
<polygon fill="none" stroke="black" points="388.4,-19.25 388.4,-39.5 454.4,-39.5 454.4,-19.25 388.4,-19.25"/>
<text text-anchor="start" x="391.4" y="-25.1" font-family="Monospace" font-size="12.00">YRE..FSL</text>
<text text-anchor="start" x="405.28" y="-5.75" font-family="serif,serif" font-size="10.00">23:0&#45;49</text>
</g>
<!-- 6.0&#45;&gt;23.0 -->
<g id="edge26" class="edge">
<title>6.0:e&#45;&gt;23.0:w</title>
<path fill="none" stroke="black" d="M349.4,-149.38C349.4,-149.38 374.73,-69.39 384.03,-40.02"/>
<polygon fill="black" stroke="black" points="387.26,-41.41 386.94,-30.82 380.59,-39.29 387.26,-41.41"/>
</g>
<!-- 14.0&#45;&gt;7.0 -->
<g id="edge27" class="edge">
<title>14.0:e&#45;&gt;7.0:w</title>
<path fill="none" stroke="black" d="M349.4,-89.38C349.4,-89.38 370.55,-122.77 381.29,-139.74"/>
<polygon fill="black" stroke="black" points="378.28,-141.52 386.59,-148.1 384.2,-137.78 378.28,-141.52"/>
</g>
<!-- 14.0&#45;&gt;15.0 -->
<g id="edge28" class="edge">
<title>14.0:e&#45;&gt;15.0:w</title>
<path fill="none" stroke="black" d="M349.4,-89.38C349.4,-89.38 365,-89.38 376.2,-89.38"/>
<polygon fill="black" stroke="black" points="375.89,-92.88 385.89,-89.38 375.89,-85.88 375.89,-92.88"/>
</g>
<!-- 14.0&#45;&gt;23.0 -->
<g id="edge29" class="edge">
<title>14.0:e&#45;&gt;23.0:w</title>
<path fill="none" stroke="black" d="M349.4,-89.38C349.4,-89.38 370.55,-55.98 381.29,-39.02"/>
<polygon fill="black" stroke="black" points="384.2,-40.97 386.59,-30.65 378.28,-37.23 384.2,-40.97"/>
</g>
<!-- 22.0&#45;&gt;7.0 -->
<g id="edge30" class="edge">
<title>22.0:e&#45;&gt;7.0:w</title>
<path fill="none" stroke="black" d="M349.4,-29.38C349.4,-29.38 374.73,-109.36 384.03,-138.73"/>
<polygon fill="black" stroke="black" points="380.59,-139.46 386.94,-147.93 387.26,-137.34 380.59,-139.46"/>
</g>
<!-- 22.0&#45;&gt;15.0 -->
<g id="edge31" class="edge">
<title>22.0:e&#45;&gt;15.0:w</title>
<path fill="none" stroke="black" d="M349.4,-29.38C349.4,-29.38 370.55,-62.77 381.29,-79.74"/>
<polygon fill="black" stroke="black" points="378.28,-81.52 386.59,-88.1 384.2,-77.78 378.28,-81.52"/>
</g>
<!-- 22.0&#45;&gt;23.0 -->
<g id="edge32" class="edge">
<title>22.0:e&#45;&gt;23.0:w</title>
<path fill="none" stroke="black" d="M349.4,-29.38C349.4,-29.38 365,-29.38 376.2,-29.38"/>
<polygon fill="black" stroke="black" points="375.89,-32.88 385.89,-29.38 375.89,-25.88 375.89,-32.88"/>
</g>
<!-- 8.0 -->
<g id="node16" class="node">
<title>8.0</title>
<polygon fill="none" stroke="black" points="494.4,-139.25 494.4,-159.5 560.4,-159.5 560.4,-139.25 494.4,-139.25"/>
<text text-anchor="start" x="497.4" y="-145.1" font-family="Monospace" font-size="12.00">VDK..GHE</text>
<text text-anchor="start" x="513.9" y="-125.75" font-family="serif,serif" font-size="10.00">8:0&#45;51</text>
</g>
<!-- 7.0&#45;&gt;8.0 -->
<g id="edge33" class="edge">
<title>7.0:e&#45;&gt;8.0:w</title>
<path fill="none" stroke="black" d="M455.4,-149.38C455.4,-149.38 471,-149.38 482.2,-149.38"/>
<polygon fill="black" stroke="black" points="481.89,-152.88 491.89,-149.38 481.89,-145.88 481.89,-152.88"/>
</g>
<!-- 16.0 -->
<g id="node17" class="node">
<title>16.0</title>
<polygon fill="none" stroke="black" points="494.4,-79.25 494.4,-99.5 560.4,-99.5 560.4,-79.25 494.4,-79.25"/>
<text text-anchor="start" x="497.4" y="-85.1" font-family="Monospace" font-size="12.00">VDR..GHE</text>
<text text-anchor="start" x="511.28" y="-65.75" font-family="serif,serif" font-size="10.00">16:0&#45;52</text>
</g>
<!-- 7.0&#45;&gt;16.0 -->
<g id="edge34" class="edge">
<title>7.0:e&#45;&gt;16.0:w</title>
<path fill="none" stroke="black" d="M455.4,-149.38C455.4,-149.38 476.55,-115.98 487.29,-99.02"/>
<polygon fill="black" stroke="black" points="490.2,-100.97 492.59,-90.65 484.28,-97.23 490.2,-100.97"/>
</g>
<!-- 24.0 -->
<g id="node18" class="node">
<title>24.0</title>
<polygon fill="none" stroke="black" points="494.4,-19.25 494.4,-39.5 560.4,-39.5 560.4,-19.25 494.4,-19.25"/>
<text text-anchor="start" x="497.4" y="-25.1" font-family="Monospace" font-size="12.00">VDS..GHE</text>
<text text-anchor="start" x="511.28" y="-5.75" font-family="serif,serif" font-size="10.00">24:0&#45;52</text>
</g>
<!-- 7.0&#45;&gt;24.0 -->
<g id="edge35" class="edge">
<title>7.0:e&#45;&gt;24.0:w</title>
<path fill="none" stroke="black" d="M455.4,-149.38C455.4,-149.38 480.73,-69.39 490.03,-40.02"/>
<polygon fill="black" stroke="black" points="493.26,-41.41 492.94,-30.82 486.59,-39.29 493.26,-41.41"/>
</g>
<!-- 15.0&#45;&gt;8.0 -->
<g id="edge36" class="edge">
<title>15.0:e&#45;&gt;8.0:w</title>
<path fill="none" stroke="black" d="M455.4,-89.38C455.4,-89.38 476.55,-122.77 487.29,-139.74"/>
<polygon fill="black" stroke="black" points="484.28,-141.52 492.59,-148.1 490.2,-137.78 484.28,-141.52"/>
</g>
<!-- 15.0&#45;&gt;16.0 -->
<g id="edge37" class="edge">
<title>15.0:e&#45;&gt;16.0:w</title>
<path fill="none" stroke="black" d="M455.4,-89.38C455.4,-89.38 471,-89.38 482.2,-89.38"/>
<polygon fill="black" stroke="black" points="481.89,-92.88 491.89,-89.38 481.89,-85.88 481.89,-92.88"/>
</g>
<!-- 15.0&#45;&gt;24.0 -->
<g id="edge38" class="edge">
<title>15.0:e&#45;&gt;24.0:w</title>
<path fill="none" stroke="black" d="M455.4,-89.38C455.4,-89.38 476.55,-55.98 487.29,-39.02"/>
<polygon fill="black" stroke="black" points="490.2,-40.97 492.59,-30.65 484.28,-37.23 490.2,-40.97"/>
</g>
<!-- 23.0&#45;&gt;8.0 -->
<g id="edge39" class="edge">
<title>23.0:e&#45;&gt;8.0:w</title>
<path fill="none" stroke="black" d="M455.4,-29.38C455.4,-29.38 480.73,-109.36 490.03,-138.73"/>
<polygon fill="black" stroke="black" points="486.59,-139.46 492.94,-147.93 493.26,-137.34 486.59,-139.46"/>
</g>
<!-- 23.0&#45;&gt;16.0 -->
<g id="edge40" class="edge">
<title>23.0:e&#45;&gt;16.0:w</title>
<path fill="none" stroke="black" d="M455.4,-29.38C455.4,-29.38 476.55,-62.77 487.29,-79.74"/>
<polygon fill="black" stroke="black" points="484.28,-81.52 492.59,-88.1 490.2,-77.78 484.28,-81.52"/>
</g>
<!-- 23.0&#45;&gt;24.0 -->
<g id="edge41" class="edge">
<title>23.0:e&#45;&gt;24.0:w</title>
<path fill="none" stroke="black" d="M455.4,-29.38C455.4,-29.38 471,-29.38 482.2,-29.38"/>
<polygon fill="black" stroke="black" points="481.89,-32.88 491.89,-29.38 481.89,-25.88 481.89,-32.88"/>
</g>
<!-- 9.0 -->
<g id="node19" class="node">
<title>9.0</title>
<polygon fill="none" stroke="black" points="600.4,-139.25 600.4,-159.5 666.4,-159.5 666.4,-139.25 600.4,-139.25"/>
<text text-anchor="start" x="603.4" y="-145.1" font-family="Monospace" font-size="12.00">TTS..WPT</text>
<text text-anchor="start" x="619.9" y="-125.75" font-family="serif,serif" font-size="10.00">9:0&#45;59</text>
</g>
<!-- 8.0&#45;&gt;9.0 -->
<g id="edge42" class="edge">
<title>8.0:e&#45;&gt;9.0:w</title>
<path fill="none" stroke="black" d="M561.4,-149.38C561.4,-149.38 577,-149.38 588.2,-149.38"/>
<polygon fill="black" stroke="black" points="587.89,-152.88 597.89,-149.38 587.89,-145.88 587.89,-152.88"/>
</g>
<!-- 17.0 -->
<g id="node20" class="node">
<title>17.0</title>
<polygon fill="none" stroke="black" points="600.4,-79.25 600.4,-99.5 666.4,-99.5 666.4,-79.25 600.4,-79.25"/>
<text text-anchor="start" x="603.4" y="-85.1" font-family="Monospace" font-size="12.00">TTS..YPT</text>
<text text-anchor="start" x="617.28" y="-65.75" font-family="serif,serif" font-size="10.00">17:0&#45;59</text>
</g>
<!-- 8.0&#45;&gt;17.0 -->
<g id="edge43" class="edge">
<title>8.0:e&#45;&gt;17.0:w</title>
<path fill="none" stroke="black" d="M561.4,-149.38C561.4,-149.38 582.55,-115.98 593.29,-99.02"/>
<polygon fill="black" stroke="black" points="596.2,-100.97 598.59,-90.65 590.28,-97.23 596.2,-100.97"/>
</g>
<!-- 25.0 -->
<g id="node21" class="node">
<title>25.0</title>
<polygon fill="none" stroke="black" points="600.4,-19.25 600.4,-39.5 666.4,-39.5 666.4,-19.25 600.4,-19.25"/>
<text text-anchor="start" x="603.4" y="-25.1" font-family="Monospace" font-size="12.00">TTS..WPT</text>
<text text-anchor="start" x="617.28" y="-5.75" font-family="serif,serif" font-size="10.00">25:0&#45;59</text>
</g>
<!-- 8.0&#45;&gt;25.0 -->
<g id="edge44" class="edge">
<title>8.0:e&#45;&gt;25.0:w</title>
<path fill="none" stroke="black" d="M561.4,-149.38C561.4,-149.38 586.73,-69.39 596.03,-40.02"/>
<polygon fill="black" stroke="black" points="599.26,-41.41 598.94,-30.82 592.59,-39.29 599.26,-41.41"/>
</g>
<!-- 16.0&#45;&gt;9.0 -->
<g id="edge45" class="edge">
<title>16.0:e&#45;&gt;9.0:w</title>
<path fill="none" stroke="black" d="M561.4,-89.38C561.4,-89.38 582.55,-122.77 593.29,-139.74"/>
<polygon fill="black" stroke="black" points="590.28,-141.52 598.59,-148.1 596.2,-137.78 590.28,-141.52"/>
</g>
<!-- 16.0&#45;&gt;17.0 -->
<g id="edge46" class="edge">
<title>16.0:e&#45;&gt;17.0:w</title>
<path fill="none" stroke="black" d="M561.4,-89.38C561.4,-89.38 577,-89.38 588.2,-89.38"/>
<polygon fill="black" stroke="black" points="587.89,-92.88 597.89,-89.38 587.89,-85.88 587.89,-92.88"/>
</g>
<!-- 16.0&#45;&gt;25.0 -->
<g id="edge47" class="edge">
<title>16.0:e&#45;&gt;25.0:w</title>
<path fill="none" stroke="black" d="M561.4,-89.38C561.4,-89.38 582.55,-55.98 593.29,-39.02"/>
<polygon fill="black" stroke="black" points="596.2,-40.97 598.59,-30.65 590.28,-37.23 596.2,-40.97"/>
</g>
<!-- 24.0&#45;&gt;9.0 -->
<g id="edge48" class="edge">
<title>24.0:e&#45;&gt;9.0:w</title>
<path fill="none" stroke="black" d="M561.4,-29.38C561.4,-29.38 586.73,-109.36 596.03,-138.73"/>
<polygon fill="black" stroke="black" points="592.59,-139.46 598.94,-147.93 599.26,-137.34 592.59,-139.46"/>
</g>
<!-- 24.0&#45;&gt;17.0 -->
<g id="edge49" class="edge">
<title>24.0:e&#45;&gt;17.0:w</title>
<path fill="none" stroke="black" d="M561.4,-29.38C561.4,-29.38 582.55,-62.77 593.29,-79.74"/>
<polygon fill="black" stroke="black" points="590.28,-81.52 598.59,-88.1 596.2,-77.78 590.28,-81.52"/>
</g>
<!-- 24.0&#45;&gt;25.0 -->
<g id="edge50" class="edge">
<title>24.0:e&#45;&gt;25.0:w</title>
<path fill="none" stroke="black" d="M561.4,-29.38C561.4,-29.38 577,-29.38 588.2,-29.38"/>
<polygon fill="black" stroke="black" points="587.89,-32.88 597.89,-29.38 587.89,-25.88 587.89,-32.88"/>
</g>
<!-- 10.0 -->
<g id="node22" class="node">
<title>10.0</title>
<polygon fill="none" stroke="black" points="706.4,-139.25 706.4,-159.5 772.4,-159.5 772.4,-139.25 706.4,-139.25"/>
<text text-anchor="start" x="709.4" y="-145.1" font-family="Monospace" font-size="12.00">APA..IGQ</text>
<text text-anchor="start" x="723.28" y="-125.75" font-family="serif,serif" font-size="10.00">10:0&#45;75</text>
</g>
<!-- 9.0&#45;&gt;10.0 -->
<g id="edge51" class="edge">
<title>9.0:e&#45;&gt;10.0:w</title>
<path fill="none" stroke="black" d="M667.4,-149.38C667.4,-149.38 683,-149.38 694.2,-149.38"/>
<polygon fill="black" stroke="black" points="693.89,-152.88 703.89,-149.38 693.89,-145.88 693.89,-152.88"/>
</g>
<!-- 18.0 -->
<g id="node23" class="node">
<title>18.0</title>
<polygon fill="none" stroke="black" points="706.4,-79.25 706.4,-99.5 772.4,-99.5 772.4,-79.25 706.4,-79.25"/>
<text text-anchor="start" x="709.4" y="-85.1" font-family="Monospace" font-size="12.00">APA..IGM</text>
<text text-anchor="start" x="723.28" y="-65.75" font-family="serif,serif" font-size="10.00">18:0&#45;75</text>
</g>
<!-- 9.0&#45;&gt;18.0 -->
<g id="edge52" class="edge">
<title>9.0:e&#45;&gt;18.0:w</title>
<path fill="none" stroke="black" d="M667.4,-149.38C667.4,-149.38 688.55,-115.98 699.29,-99.02"/>
<polygon fill="black" stroke="black" points="702.2,-100.97 704.59,-90.65 696.28,-97.23 702.2,-100.97"/>
</g>
<!-- 26.0 -->
<g id="node24" class="node">
<title>26.0</title>
<polygon fill="none" stroke="black" points="706.4,-19.25 706.4,-39.5 772.4,-39.5 772.4,-19.25 706.4,-19.25"/>
<text text-anchor="start" x="709.4" y="-25.1" font-family="Monospace" font-size="12.00">APA..IGM</text>
<text text-anchor="start" x="723.28" y="-5.75" font-family="serif,serif" font-size="10.00">26:0&#45;75</text>
</g>
<!-- 9.0&#45;&gt;26.0 -->
<g id="edge53" class="edge">
<title>9.0:e&#45;&gt;26.0:w</title>
<path fill="none" stroke="black" d="M667.4,-149.38C667.4,-149.38 692.73,-69.39 702.03,-40.02"/>
<polygon fill="black" stroke="black" points="705.26,-41.41 704.94,-30.82 698.59,-39.29 705.26,-41.41"/>
</g>
<!-- 17.0&#45;&gt;10.0 -->
<g id="edge54" class="edge">
<title>17.0:e&#45;&gt;10.0:w</title>
<path fill="none" stroke="black" d="M667.4,-89.38C667.4,-89.38 688.55,-122.77 699.29,-139.74"/>
<polygon fill="black" stroke="black" points="696.28,-141.52 704.59,-148.1 702.2,-137.78 696.28,-141.52"/>
</g>
<!-- 17.0&#45;&gt;18.0 -->
<g id="edge55" class="edge">
<title>17.0:e&#45;&gt;18.0:w</title>
<path fill="none" stroke="black" d="M667.4,-89.38C667.4,-89.38 683,-89.38 694.2,-89.38"/>
<polygon fill="black" stroke="black" points="693.89,-92.88 703.89,-89.38 693.89,-85.88 693.89,-92.88"/>
</g>
<!-- 17.0&#45;&gt;26.0 -->
<g id="edge56" class="edge">
<title>17.0:e&#45;&gt;26.0:w</title>
<path fill="none" stroke="black" d="M667.4,-89.38C667.4,-89.38 688.55,-55.98 699.29,-39.02"/>
<polygon fill="black" stroke="black" points="702.2,-40.97 704.59,-30.65 696.28,-37.23 702.2,-40.97"/>
</g>
<!-- 25.0&#45;&gt;10.0 -->
<g id="edge57" class="edge">
<title>25.0:e&#45;&gt;10.0:w</title>
<path fill="none" stroke="black" d="M667.4,-29.38C667.4,-29.38 692.73,-109.36 702.03,-138.73"/>
<polygon fill="black" stroke="black" points="698.59,-139.46 704.94,-147.93 705.26,-137.34 698.59,-139.46"/>
</g>
<!-- 25.0&#45;&gt;18.0 -->
<g id="edge58" class="edge">
<title>25.0:e&#45;&gt;18.0:w</title>
<path fill="none" stroke="black" d="M667.4,-29.38C667.4,-29.38 688.55,-62.77 699.29,-79.74"/>
<polygon fill="black" stroke="black" points="696.28,-81.52 704.59,-88.1 702.2,-77.78 696.28,-81.52"/>
</g>
<!-- 25.0&#45;&gt;26.0 -->
<g id="edge59" class="edge">
<title>25.0:e&#45;&gt;26.0:w</title>
<path fill="none" stroke="black" d="M667.4,-29.38C667.4,-29.38 683,-29.38 694.2,-29.38"/>
<polygon fill="black" stroke="black" points="693.89,-32.88 703.89,-29.38 693.89,-25.88 693.89,-32.88"/>
</g>
<!-- 11.0 -->
<g id="node25" class="node">
<title>11.0</title>
<polygon fill="none" stroke="black" points="812.4,-139.25 812.4,-159.5 878.4,-159.5 878.4,-139.25 812.4,-139.25"/>
<text text-anchor="start" x="815.4" y="-145.1" font-family="Monospace" font-size="12.00">QFA..WAG</text>
<text text-anchor="start" x="827.4" y="-125.75" font-family="serif,serif" font-size="10.00">11:0&#45;644</text>
</g>
<!-- 10.0&#45;&gt;11.0 -->
<g id="edge60" class="edge">
<title>10.0:e&#45;&gt;11.0:w</title>
<path fill="none" stroke="black" d="M773.4,-149.38C773.4,-149.38 789,-149.38 800.2,-149.38"/>
<polygon fill="black" stroke="black" points="799.89,-152.88 809.89,-149.38 799.89,-145.88 799.89,-152.88"/>
</g>
<!-- 19.0 -->
<g id="node26" class="node">
<title>19.0</title>
<polygon fill="none" stroke="black" points="812.4,-79.25 812.4,-99.5 878.4,-99.5 878.4,-79.25 812.4,-79.25"/>
<text text-anchor="start" x="815.4" y="-85.1" font-family="Monospace" font-size="12.00">QFA..TGM</text>
<text text-anchor="start" x="826.65" y="-65.75" font-family="serif,serif" font-size="10.00">19:0&#45;647</text>
</g>
<!-- 10.0&#45;&gt;19.0 -->
<g id="edge61" class="edge">
<title>10.0:e&#45;&gt;19.0:w</title>
<path fill="none" stroke="black" d="M773.4,-149.38C773.4,-149.38 794.55,-115.98 805.29,-99.02"/>
<polygon fill="black" stroke="black" points="808.2,-100.97 810.59,-90.65 802.28,-97.23 808.2,-100.97"/>
</g>
<!-- 27.0 -->
<g id="node27" class="node">
<title>27.0</title>
<polygon fill="none" stroke="black" points="812.4,-19.25 812.4,-39.5 878.4,-39.5 878.4,-19.25 812.4,-19.25"/>
<text text-anchor="start" x="815.4" y="-25.1" font-family="Monospace" font-size="12.00">QFA..AGI</text>
<text text-anchor="start" x="826.65" y="-5.75" font-family="serif,serif" font-size="10.00">27:0&#45;654</text>
</g>
<!-- 10.0&#45;&gt;27.0 -->
<g id="edge62" class="edge">
<title>10.0:e&#45;&gt;27.0:w</title>
<path fill="none" stroke="black" d="M773.4,-149.38C773.4,-149.38 798.73,-69.39 808.03,-40.02"/>
<polygon fill="black" stroke="black" points="811.26,-41.41 810.94,-30.82 804.59,-39.29 811.26,-41.41"/>
</g>
<!-- 18.0&#45;&gt;11.0 -->
<g id="edge63" class="edge">
<title>18.0:e&#45;&gt;11.0:w</title>
<path fill="none" stroke="black" d="M773.4,-89.38C773.4,-89.38 794.55,-122.77 805.29,-139.74"/>
<polygon fill="black" stroke="black" points="802.28,-141.52 810.59,-148.1 808.2,-137.78 802.28,-141.52"/>
</g>
<!-- 18.0&#45;&gt;19.0 -->
<g id="edge64" class="edge">
<title>18.0:e&#45;&gt;19.0:w</title>
<path fill="none" stroke="black" d="M773.4,-89.38C773.4,-89.38 789,-89.38 800.2,-89.38"/>
<polygon fill="black" stroke="black" points="799.89,-92.88 809.89,-89.38 799.89,-85.88 799.89,-92.88"/>
</g>
<!-- 18.0&#45;&gt;27.0 -->
<g id="edge65" class="edge">
<title>18.0:e&#45;&gt;27.0:w</title>
<path fill="none" stroke="black" d="M773.4,-89.38C773.4,-89.38 794.55,-55.98 805.29,-39.02"/>
<polygon fill="black" stroke="black" points="808.2,-40.97 810.59,-30.65 802.28,-37.23 808.2,-40.97"/>
</g>
<!-- 26.0&#45;&gt;11.0 -->
<g id="edge66" class="edge">
<title>26.0:e&#45;&gt;11.0:w</title>
<path fill="none" stroke="black" d="M773.4,-29.38C773.4,-29.38 798.73,-109.36 808.03,-138.73"/>
<polygon fill="black" stroke="black" points="804.59,-139.46 810.94,-147.93 811.26,-137.34 804.59,-139.46"/>
</g>
<!-- 26.0&#45;&gt;19.0 -->
<g id="edge67" class="edge">
<title>26.0:e&#45;&gt;19.0:w</title>
<path fill="none" stroke="black" d="M773.4,-29.38C773.4,-29.38 794.55,-62.77 805.29,-79.74"/>
<polygon fill="black" stroke="black" points="802.28,-81.52 810.59,-88.1 808.2,-77.78 802.28,-81.52"/>
</g>
<!-- 26.0&#45;&gt;27.0 -->
<g id="edge68" class="edge">
<title>26.0:e&#45;&gt;27.0:w</title>
<path fill="none" stroke="black" d="M773.4,-29.38C773.4,-29.38 789,-29.38 800.2,-29.38"/>
<polygon fill="black" stroke="black" points="799.89,-32.88 809.89,-29.38 799.89,-25.88 799.89,-32.88"/>
</g>
<!-- 11.0&#45;&gt;end -->
<g id="edge69" class="edge">
<title>11.0:e&#45;&gt;end:w</title>
<path fill="none" stroke="black" d="M879.4,-149.38C879.4,-149.38 896.89,-134.9 907.82,-125.85"/>
<polygon fill="black" stroke="black" points="909.76,-128.79 915.23,-119.72 905.3,-123.4 909.76,-128.79"/>
</g>
<!-- 19.0&#45;&gt;end -->
<g id="edge70" class="edge">
<title>19.0:e&#45;&gt;end:w</title>
<path fill="none" stroke="black" d="M879.4,-89.38C879.4,-89.38 896.49,-102.95 907.44,-111.64"/>
<polygon fill="black" stroke="black" points="905.21,-114.33 915.21,-117.81 909.56,-108.85 905.21,-114.33"/>
</g>
<!-- 27.0&#45;&gt;end -->
<g id="edge71" class="edge">
<title>27.0:e&#45;&gt;end:w</title>
<path fill="none" stroke="black" d="M879.4,-29.38C879.4,-29.38 902.21,-84.47 912.01,-108.15"/>
<polygon fill="black" stroke="black" points="908.76,-109.45 915.82,-117.35 915.23,-106.77 908.76,-109.45"/>
</g>
</g>
</svg>
