<?xml version="1.0" encoding="UTF-8" standalone="no"?>
<!DOCTYPE svg PUBLIC "-//W3C//DTD SVG 1.1//EN"
 "http://www.w3.org/Graphics/SVG/1.1/DTD/svg11.dtd">
<!-- Generated by graphviz version 12.1.1 (20240910.0053)
 -->
<!-- Pages: 1 -->
<svg width="1261pt" height="222pt"
 viewBox="0.00 0.00 1261.00 222.00" xmlns="http://www.w3.org/2000/svg" xmlns:xlink="http://www.w3.org/1999/xlink">
<g id="graph0" class="graph" transform="scale(1 1) rotate(0) translate(4 218)">
<polygon fill="white" stroke="none" points="-4,4 -4,-218 1257,-218 1257,4 -4,4"/>
<g id="clust1" class="cluster">
<title>cluster_3</title>
</g>
<!-- 3.0 -->
<g id="node1" class="node">
<title>3.0</title>
<text text-anchor="start" x="981.5" y="-187.9" font-family="Times,serif" font-size="8.00">0</text>
<text text-anchor="start" x="1029.25" y="-187.9" font-family="Times,serif" font-size="8.00">656</text>
<text text-anchor="start" x="963.38" y="-168.45" font-family="Times,serif" font-size="14.00">3: </text>
<polygon fill="none" stroke="black" points="979.5,-162.5 979.5,-184.5 1042.5,-184.5 1042.5,-162.5 979.5,-162.5"/>
<text text-anchor="start" x="982.12" y="-168.2" font-family="Courier New" font-size="14.00">MTI…PLA</text>
</g>
<!-- 3.657 -->
<g id="node2" class="node">
<title>3.657</title>
<text text-anchor="start" x="1102" y="-187.9" font-family="Times,serif" font-size="8.00">657</text>
<text text-anchor="start" x="1146" y="-187.9" font-family="Times,serif" font-size="8.00">1048</text>
<text text-anchor="start" x="1083.88" y="-168.45" font-family="Times,serif" font-size="14.00">3: </text>
<polygon fill="none" stroke="black" points="1100,-162.5 1100,-184.5 1163,-184.5 1163,-162.5 1100,-162.5"/>
<text text-anchor="start" x="1102.62" y="-168.2" font-family="Courier New" font-size="14.00">KMH…WAG</text>
</g>
<!-- 3.0&#45;&gt;3.657 -->
<g id="edge1" class="edge">
<title>3.0:e&#45;&gt;3.657:w</title>
<path fill="none" stroke="black" stroke-dasharray="5,2" d="M1043.5,-173.5C1043.5,-173.5 1059.3,-173.5 1070.66,-173.5"/>
<polygon fill="black" stroke="black" points="1070.49,-177 1080.49,-173.5 1070.49,-170 1070.49,-177"/>
</g>
<!-- sink -->
<g id="node3" class="node">
<title>sink</title>
<ellipse fill="none" stroke="black" cx="1226" cy="-174" rx="27" ry="18"/>
<text text-anchor="middle" x="1226" y="-168.95" font-family="Times,serif" font-size="14.00">end</text>
</g>
<!-- 3.657&#45;&gt;sink -->
<g id="edge2" class="edge">
<title>3.657:e&#45;&gt;sink:w</title>
<path fill="none" stroke="black" d="M1164,-173.5C1164,-173.5 1177.33,-173.69 1187.54,-173.84"/>
<polygon fill="black" stroke="black" points="1187.44,-177.34 1197.49,-173.98 1187.54,-170.34 1187.44,-177.34"/>
</g>
<!-- source -->
<g id="node4" class="node">
<title>source</title>
<ellipse fill="none" stroke="black" cx="27" cy="-93" rx="27" ry="18"/>
<text text-anchor="middle" x="27" y="-87.95" font-family="Times,serif" font-size="14.00">start</text>
</g>
<!-- source&#45;&gt;3.0 -->
<g id="edge3" class="edge">
<title>source:e&#45;&gt;3.0:w</title>
<path fill="none" stroke="black" d="M54,-93C54,-93 90,-153 90,-153 90,-153 257,-173 257,-173 257,-173 257,-173 755,-173 755,-173 906.08,-173.37 949.16,-173.47"/>
<polygon fill="black" stroke="black" points="948.98,-176.97 958.99,-173.5 949,-169.97 948.98,-176.97"/>
</g>
<!-- 4.0 -->
<g id="node5" class="node">
<title>4.0</title>
<text text-anchor="start" x="113.5" y="-133.9" font-family="Times,serif" font-size="8.00">0</text>
<text text-anchor="start" x="165" y="-133.9" font-family="Times,serif" font-size="8.00">63</text>
<text text-anchor="start" x="95.38" y="-114.45" font-family="Times,serif" font-size="14.00">4: </text>
<polygon fill="none" stroke="black" points="111.5,-108.5 111.5,-130.5 174.5,-130.5 174.5,-108.5 111.5,-108.5"/>
<text text-anchor="start" x="114.12" y="-114.2" font-family="Courier New" font-size="14.00">MTI…ACD</text>
</g>
<!-- source&#45;&gt;4.0 -->
<g id="edge4" class="edge">
<title>source:e&#45;&gt;4.0:w</title>
<path fill="none" stroke="black" d="M54,-93C54,-93 71.79,-105.24 83.18,-113.09"/>
<polygon fill="black" stroke="black" points="81.03,-115.86 91.25,-118.64 85,-110.09 81.03,-115.86"/>
</g>
<!-- 12.0 -->
<g id="node6" class="node">
<title>12.0</title>
<text text-anchor="start" x="117" y="-79.9" font-family="Times,serif" font-size="8.00">0</text>
<text text-anchor="start" x="168.5" y="-79.9" font-family="Times,serif" font-size="8.00">64</text>
<text text-anchor="start" x="92" y="-60.45" font-family="Times,serif" font-size="14.00">12: </text>
<polygon fill="none" stroke="black" points="115,-54.5 115,-76.5 178,-76.5 178,-54.5 115,-54.5"/>
<text text-anchor="start" x="117.62" y="-60.2" font-family="Courier New" font-size="14.00">MKQ…VCD</text>
</g>
<!-- source&#45;&gt;12.0 -->
<g id="edge5" class="edge">
<title>source:e&#45;&gt;12.0:w</title>
<path fill="none" stroke="black" d="M54,-93C54,-93 70.25,-80.59 80.92,-72.44"/>
<polygon fill="black" stroke="black" points="82.98,-75.27 88.8,-66.42 78.73,-69.71 82.98,-75.27"/>
</g>
<!-- 20.0 -->
<g id="node7" class="node">
<title>20.0</title>
<text text-anchor="start" x="117" y="-25.9" font-family="Times,serif" font-size="8.00">0</text>
<text text-anchor="start" x="168.5" y="-25.9" font-family="Times,serif" font-size="8.00">64</text>
<text text-anchor="start" x="92" y="-6.45" font-family="Times,serif" font-size="14.00">20: </text>
<polygon fill="none" stroke="black" points="115,-0.5 115,-22.5 178,-22.5 178,-0.5 115,-0.5"/>
<text text-anchor="start" x="117.62" y="-6.2" font-family="Courier New" font-size="14.00">MKE…VCD</text>
</g>
<!-- source&#45;&gt;20.0 -->
<g id="edge6" class="edge">
<title>source:e&#45;&gt;20.0:w</title>
<path fill="none" stroke="black" d="M54,-93C54,-93 75.75,-43.75 85.44,-21.82"/>
<polygon fill="black" stroke="black" points="88.55,-23.45 89.39,-12.88 82.15,-20.62 88.55,-23.45"/>
</g>
<!-- 5.0 -->
<g id="node8" class="node">
<title>5.0</title>
<text text-anchor="start" x="237.5" y="-25.9" font-family="Times,serif" font-size="8.00">0</text>
<text text-anchor="start" x="289" y="-25.9" font-family="Times,serif" font-size="8.00">57</text>
<text text-anchor="start" x="219.38" y="-6.45" font-family="Times,serif" font-size="14.00">5: </text>
<polygon fill="none" stroke="black" points="235.5,-0.5 235.5,-22.5 298.5,-22.5 298.5,-0.5 235.5,-0.5"/>
<text text-anchor="start" x="238.12" y="-6.2" font-family="Courier New" font-size="14.00">ESR…MVD</text>
</g>
<!-- 4.0&#45;&gt;5.0 -->
<g id="edge7" class="edge">
<title>4.0:e&#45;&gt;5.0:w</title>
<path fill="none" stroke="black" d="M175.5,-119.5C175.5,-119.5 202.05,-49.57 212.42,-22.25"/>
<polygon fill="black" stroke="black" points="215.69,-23.51 215.96,-12.92 209.14,-21.02 215.69,-23.51"/>
</g>
<!-- 13.0 -->
<g id="node9" class="node">
<title>13.0</title>
<text text-anchor="start" x="241" y="-133.9" font-family="Times,serif" font-size="8.00">0</text>
<text text-anchor="start" x="292.5" y="-133.9" font-family="Times,serif" font-size="8.00">57</text>
<text text-anchor="start" x="216" y="-114.45" font-family="Times,serif" font-size="14.00">13: </text>
<polygon fill="none" stroke="black" points="239,-108.5 239,-130.5 302,-130.5 302,-108.5 239,-108.5"/>
<text text-anchor="start" x="241.62" y="-114.2" font-family="Courier New" font-size="14.00">EKR…MLD</text>
</g>
<!-- 4.0&#45;&gt;13.0 -->
<g id="edge8" class="edge">
<title>4.0:e&#45;&gt;13.0:w</title>
<path fill="none" stroke="black" d="M175.5,-119.5C175.5,-119.5 191.3,-119.5 202.66,-119.5"/>
<polygon fill="black" stroke="black" points="202.49,-123 212.49,-119.5 202.49,-116 202.49,-123"/>
</g>
<!-- 21.0 -->
<g id="node10" class="node">
<title>21.0</title>
<text text-anchor="start" x="241" y="-79.9" font-family="Times,serif" font-size="8.00">0</text>
<text text-anchor="start" x="292.5" y="-79.9" font-family="Times,serif" font-size="8.00">57</text>
<text text-anchor="start" x="216" y="-60.45" font-family="Times,serif" font-size="14.00">21: </text>
<polygon fill="none" stroke="black" points="239,-54.5 239,-76.5 302,-76.5 302,-54.5 239,-54.5"/>
<text text-anchor="start" x="241.62" y="-60.2" font-family="Courier New" font-size="14.00">EER…MVD</text>
</g>
<!-- 4.0&#45;&gt;21.0 -->
<g id="edge9" class="edge">
<title>4.0:e&#45;&gt;21.0:w</title>
<path fill="none" stroke="black" d="M175.5,-119.5C175.5,-119.5 196.71,-89.75 207.64,-74.42"/>
<polygon fill="black" stroke="black" points="210.17,-76.91 213.12,-66.73 204.47,-72.84 210.17,-76.91"/>
</g>
<!-- 12.0&#45;&gt;5.0 -->
<g id="edge10" class="edge">
<title>12.0:e&#45;&gt;5.0:w</title>
<path fill="none" stroke="black" d="M178,-65.5C178,-65.5 199.21,-35.75 210.14,-20.42"/>
<polygon fill="black" stroke="black" points="212.67,-22.91 215.62,-12.73 206.97,-18.84 212.67,-22.91"/>
</g>
<!-- 12.0&#45;&gt;13.0 -->
<g id="edge11" class="edge">
<title>12.0:e&#45;&gt;13.0:w</title>
<path fill="none" stroke="black" d="M178,-65.5C178,-65.5 197.42,-94.62 207.73,-110.09"/>
<polygon fill="black" stroke="black" points="204.7,-111.86 213.16,-118.24 210.53,-107.98 204.7,-111.86"/>
</g>
<!-- 12.0&#45;&gt;21.0 -->
<g id="edge12" class="edge">
<title>12.0:e&#45;&gt;21.0:w</title>
<path fill="none" stroke="black" d="M178,-65.5C178,-65.5 192.06,-65.5 202.61,-65.5"/>
<polygon fill="black" stroke="black" points="202.49,-69 212.49,-65.5 202.49,-62 202.49,-69"/>
</g>
<!-- 20.0&#45;&gt;5.0 -->
<g id="edge13" class="edge">
<title>20.0:e&#45;&gt;5.0:w</title>
<path fill="none" stroke="black" d="M178,-11.5C178,-11.5 193.8,-11.5 205.16,-11.5"/>
<polygon fill="black" stroke="black" points="204.99,-15 214.99,-11.5 204.99,-8 204.99,-15"/>
</g>
<!-- 20.0&#45;&gt;13.0 -->
<g id="edge14" class="edge">
<title>20.0:e&#45;&gt;13.0:w</title>
<path fill="none" stroke="black" d="M178,-11.5C178,-11.5 201.31,-81.43 210.42,-108.75"/>
<polygon fill="black" stroke="black" points="207.04,-109.68 213.52,-118.06 213.68,-107.47 207.04,-109.68"/>
</g>
<!-- 20.0&#45;&gt;21.0 -->
<g id="edge15" class="edge">
<title>20.0:e&#45;&gt;21.0:w</title>
<path fill="none" stroke="black" d="M178,-11.5C178,-11.5 197.42,-40.62 207.73,-56.09"/>
<polygon fill="black" stroke="black" points="204.7,-57.86 213.16,-64.24 210.53,-53.98 204.7,-57.86"/>
</g>
<!-- 6.0 -->
<g id="node11" class="node">
<title>6.0</title>
<text text-anchor="start" x="361.5" y="-25.9" font-family="Times,serif" font-size="8.00">0</text>
<text text-anchor="start" x="413" y="-25.9" font-family="Times,serif" font-size="8.00">43</text>
<text text-anchor="start" x="343.38" y="-6.45" font-family="Times,serif" font-size="14.00">6: </text>
<polygon fill="none" stroke="black" points="359.5,-0.5 359.5,-22.5 422.5,-22.5 422.5,-0.5 359.5,-0.5"/>
<text text-anchor="start" x="362.12" y="-6.2" font-family="Courier New" font-size="14.00">IAV…NSF</text>
</g>
<!-- 5.0&#45;&gt;6.0 -->
<g id="edge16" class="edge">
<title>5.0:e&#45;&gt;6.0:w</title>
<path fill="none" stroke="black" d="M299.5,-11.5C299.5,-11.5 317.16,-11.5 329.3,-11.5"/>
<polygon fill="black" stroke="black" points="328.99,-15 338.99,-11.5 328.99,-8 328.99,-15"/>
</g>
<!-- 14.0 -->
<g id="node12" class="node">
<title>14.0</title>
<text text-anchor="start" x="365" y="-133.9" font-family="Times,serif" font-size="8.00">0</text>
<text text-anchor="start" x="416.5" y="-133.9" font-family="Times,serif" font-size="8.00">43</text>
<text text-anchor="start" x="340" y="-114.45" font-family="Times,serif" font-size="14.00">14: </text>
<polygon fill="none" stroke="black" points="363,-108.5 363,-130.5 426,-130.5 426,-108.5 363,-108.5"/>
<text text-anchor="start" x="365.62" y="-114.2" font-family="Courier New" font-size="14.00">IAT…NSF</text>
</g>
<!-- 5.0&#45;&gt;14.0 -->
<g id="edge17" class="edge">
<title>5.0:e&#45;&gt;14.0:w</title>
<path fill="none" stroke="black" d="M299.5,-11.5C299.5,-11.5 324.43,-81.43 334.17,-108.75"/>
<polygon fill="black" stroke="black" points="330.84,-109.83 337.49,-118.07 337.43,-107.48 330.84,-109.83"/>
</g>
<!-- 22.0 -->
<g id="node13" class="node">
<title>22.0</title>
<text text-anchor="start" x="365" y="-79.9" font-family="Times,serif" font-size="8.00">0</text>
<text text-anchor="start" x="416.5" y="-79.9" font-family="Times,serif" font-size="8.00">43</text>
<text text-anchor="start" x="340" y="-60.45" font-family="Times,serif" font-size="14.00">22: </text>
<polygon fill="none" stroke="black" points="363,-54.5 363,-76.5 426,-76.5 426,-54.5 363,-54.5"/>
<text text-anchor="start" x="365.62" y="-60.2" font-family="Courier New" font-size="14.00">IAV…NSY</text>
</g>
<!-- 5.0&#45;&gt;22.0 -->
<g id="edge18" class="edge">
<title>5.0:e&#45;&gt;22.0:w</title>
<path fill="none" stroke="black" d="M299.5,-11.5C299.5,-11.5 320.71,-41.25 331.64,-56.58"/>
<polygon fill="black" stroke="black" points="328.47,-58.16 337.12,-64.27 334.17,-54.09 328.47,-58.16"/>
</g>
<!-- 13.0&#45;&gt;6.0 -->
<g id="edge19" class="edge">
<title>13.0:e&#45;&gt;6.0:w</title>
<path fill="none" stroke="black" d="M302,-119.5C302,-119.5 326.93,-49.57 336.67,-22.25"/>
<polygon fill="black" stroke="black" points="339.93,-23.52 339.99,-12.93 333.34,-21.17 339.93,-23.52"/>
</g>
<!-- 13.0&#45;&gt;14.0 -->
<g id="edge20" class="edge">
<title>13.0:e&#45;&gt;14.0:w</title>
<path fill="none" stroke="black" d="M302,-119.5C302,-119.5 316.06,-119.5 326.61,-119.5"/>
<polygon fill="black" stroke="black" points="326.49,-123 336.49,-119.5 326.49,-116 326.49,-123"/>
</g>
<!-- 13.0&#45;&gt;22.0 -->
<g id="edge21" class="edge">
<title>13.0:e&#45;&gt;22.0:w</title>
<path fill="none" stroke="black" d="M302,-119.5C302,-119.5 321.42,-90.38 331.73,-74.91"/>
<polygon fill="black" stroke="black" points="334.53,-77.02 337.16,-66.76 328.7,-73.14 334.53,-77.02"/>
</g>
<!-- 21.0&#45;&gt;6.0 -->
<g id="edge22" class="edge">
<title>21.0:e&#45;&gt;6.0:w</title>
<path fill="none" stroke="black" d="M302,-65.5C302,-65.5 323.21,-35.75 334.14,-20.42"/>
<polygon fill="black" stroke="black" points="336.67,-22.91 339.62,-12.73 330.97,-18.84 336.67,-22.91"/>
</g>
<!-- 21.0&#45;&gt;14.0 -->
<g id="edge23" class="edge">
<title>21.0:e&#45;&gt;14.0:w</title>
<path fill="none" stroke="black" d="M302,-65.5C302,-65.5 321.42,-94.62 331.73,-110.09"/>
<polygon fill="black" stroke="black" points="328.7,-111.86 337.16,-118.24 334.53,-107.98 328.7,-111.86"/>
</g>
<!-- 21.0&#45;&gt;22.0 -->
<g id="edge24" class="edge">
<title>21.0:e&#45;&gt;22.0:w</title>
<path fill="none" stroke="black" d="M302,-65.5C302,-65.5 316.06,-65.5 326.61,-65.5"/>
<polygon fill="black" stroke="black" points="326.49,-69 336.49,-65.5 326.49,-62 326.49,-69"/>
</g>
<!-- 7.0 -->
<g id="node14" class="node">
<title>7.0</title>
<text text-anchor="start" x="485.5" y="-25.9" font-family="Times,serif" font-size="8.00">0</text>
<text text-anchor="start" x="537" y="-25.9" font-family="Times,serif" font-size="8.00">49</text>
<text text-anchor="start" x="467.38" y="-6.45" font-family="Times,serif" font-size="14.00">7: </text>
<polygon fill="none" stroke="black" points="483.5,-0.5 483.5,-22.5 546.5,-22.5 546.5,-0.5 483.5,-0.5"/>
<text text-anchor="start" x="486.12" y="-6.2" font-family="Courier New" font-size="14.00">YRD…NDL</text>
</g>
<!-- 6.0&#45;&gt;7.0 -->
<g id="edge25" class="edge">
<title>6.0:e&#45;&gt;7.0:w</title>
<path fill="none" stroke="black" d="M423.5,-11.5C423.5,-11.5 441.16,-11.5 453.3,-11.5"/>
<polygon fill="black" stroke="black" points="452.99,-15 462.99,-11.5 452.99,-8 452.99,-15"/>
</g>
<!-- 15.0 -->
<g id="node15" class="node">
<title>15.0</title>
<text text-anchor="start" x="489" y="-133.9" font-family="Times,serif" font-size="8.00">0</text>
<text text-anchor="start" x="540.5" y="-133.9" font-family="Times,serif" font-size="8.00">49</text>
<text text-anchor="start" x="464" y="-114.45" font-family="Times,serif" font-size="14.00">15: </text>
<polygon fill="none" stroke="black" points="487,-108.5 487,-130.5 550,-130.5 550,-108.5 487,-108.5"/>
<text text-anchor="start" x="489.62" y="-114.2" font-family="Courier New" font-size="14.00">YRD…NSL</text>
</g>
<!-- 6.0&#45;&gt;15.0 -->
<g id="edge26" class="edge">
<title>6.0:e&#45;&gt;15.0:w</title>
<path fill="none" stroke="black" d="M423.5,-11.5C423.5,-11.5 448.43,-81.43 458.17,-108.75"/>
<polygon fill="black" stroke="black" points="454.84,-109.83 461.49,-118.07 461.43,-107.48 454.84,-109.83"/>
</g>
<!-- 23.0 -->
<g id="node16" class="node">
<title>23.0</title>
<text text-anchor="start" x="489" y="-79.9" font-family="Times,serif" font-size="8.00">0</text>
<text text-anchor="start" x="540.5" y="-79.9" font-family="Times,serif" font-size="8.00">49</text>
<text text-anchor="start" x="464" y="-60.45" font-family="Times,serif" font-size="14.00">23: </text>
<polygon fill="none" stroke="black" points="487,-54.5 487,-76.5 550,-76.5 550,-54.5 487,-54.5"/>
<text text-anchor="start" x="489.62" y="-60.2" font-family="Courier New" font-size="14.00">YRE…FSL</text>
</g>
<!-- 6.0&#45;&gt;23.0 -->
<g id="edge27" class="edge">
<title>6.0:e&#45;&gt;23.0:w</title>
<path fill="none" stroke="black" d="M423.5,-11.5C423.5,-11.5 444.71,-41.25 455.64,-56.58"/>
<polygon fill="black" stroke="black" points="452.47,-58.16 461.12,-64.27 458.17,-54.09 452.47,-58.16"/>
</g>
<!-- 14.0&#45;&gt;7.0 -->
<g id="edge28" class="edge">
<title>14.0:e&#45;&gt;7.0:w</title>
<path fill="none" stroke="black" d="M426,-119.5C426,-119.5 450.93,-49.57 460.67,-22.25"/>
<polygon fill="black" stroke="black" points="463.93,-23.52 463.99,-12.93 457.34,-21.17 463.93,-23.52"/>
</g>
<!-- 14.0&#45;&gt;15.0 -->
<g id="edge29" class="edge">
<title>14.0:e&#45;&gt;15.0:w</title>
<path fill="none" stroke="black" d="M426,-119.5C426,-119.5 440.06,-119.5 450.61,-119.5"/>
<polygon fill="black" stroke="black" points="450.49,-123 460.49,-119.5 450.49,-116 450.49,-123"/>
</g>
<!-- 14.0&#45;&gt;23.0 -->
<g id="edge30" class="edge">
<title>14.0:e&#45;&gt;23.0:w</title>
<path fill="none" stroke="black" d="M426,-119.5C426,-119.5 445.42,-90.38 455.73,-74.91"/>
<polygon fill="black" stroke="black" points="458.53,-77.02 461.16,-66.76 452.7,-73.14 458.53,-77.02"/>
</g>
<!-- 22.0&#45;&gt;7.0 -->
<g id="edge31" class="edge">
<title>22.0:e&#45;&gt;7.0:w</title>
<path fill="none" stroke="black" d="M426,-65.5C426,-65.5 447.21,-35.75 458.14,-20.42"/>
<polygon fill="black" stroke="black" points="460.67,-22.91 463.62,-12.73 454.97,-18.84 460.67,-22.91"/>
</g>
<!-- 22.0&#45;&gt;15.0 -->
<g id="edge32" class="edge">
<title>22.0:e&#45;&gt;15.0:w</title>
<path fill="none" stroke="black" d="M426,-65.5C426,-65.5 445.42,-94.62 455.73,-110.09"/>
<polygon fill="black" stroke="black" points="452.7,-111.86 461.16,-118.24 458.53,-107.98 452.7,-111.86"/>
</g>
<!-- 22.0&#45;&gt;23.0 -->
<g id="edge33" class="edge">
<title>22.0:e&#45;&gt;23.0:w</title>
<path fill="none" stroke="black" d="M426,-65.5C426,-65.5 440.06,-65.5 450.61,-65.5"/>
<polygon fill="black" stroke="black" points="450.49,-69 460.49,-65.5 450.49,-62 450.49,-69"/>
</g>
<!-- 8.0 -->
<g id="node17" class="node">
<title>8.0</title>
<text text-anchor="start" x="609.5" y="-25.9" font-family="Times,serif" font-size="8.00">0</text>
<text text-anchor="start" x="661" y="-25.9" font-family="Times,serif" font-size="8.00">51</text>
<text text-anchor="start" x="591.38" y="-6.45" font-family="Times,serif" font-size="14.00">8: </text>
<polygon fill="none" stroke="black" points="607.5,-0.5 607.5,-22.5 670.5,-22.5 670.5,-0.5 607.5,-0.5"/>
<text text-anchor="start" x="610.12" y="-6.2" font-family="Courier New" font-size="14.00">VDK…GHE</text>
</g>
<!-- 7.0&#45;&gt;8.0 -->
<g id="edge34" class="edge">
<title>7.0:e&#45;&gt;8.0:w</title>
<path fill="none" stroke="black" d="M547.5,-11.5C547.5,-11.5 565.16,-11.5 577.3,-11.5"/>
<polygon fill="black" stroke="black" points="576.99,-15 586.99,-11.5 576.99,-8 576.99,-15"/>
</g>
<!-- 16.0 -->
<g id="node18" class="node">
<title>16.0</title>
<text text-anchor="start" x="613" y="-133.9" font-family="Times,serif" font-size="8.00">0</text>
<text text-anchor="start" x="664.5" y="-133.9" font-family="Times,serif" font-size="8.00">52</text>
<text text-anchor="start" x="588" y="-114.45" font-family="Times,serif" font-size="14.00">16: </text>
<polygon fill="none" stroke="black" points="611,-108.5 611,-130.5 674,-130.5 674,-108.5 611,-108.5"/>
<text text-anchor="start" x="613.62" y="-114.2" font-family="Courier New" font-size="14.00">VDR…GHE</text>
</g>
<!-- 7.0&#45;&gt;16.0 -->
<g id="edge35" class="edge">
<title>7.0:e&#45;&gt;16.0:w</title>
<path fill="none" stroke="black" d="M547.5,-11.5C547.5,-11.5 572.43,-81.43 582.17,-108.75"/>
<polygon fill="black" stroke="black" points="578.84,-109.83 585.49,-118.07 585.43,-107.48 578.84,-109.83"/>
</g>
<!-- 24.0 -->
<g id="node19" class="node">
<title>24.0</title>
<text text-anchor="start" x="613" y="-79.9" font-family="Times,serif" font-size="8.00">0</text>
<text text-anchor="start" x="664.5" y="-79.9" font-family="Times,serif" font-size="8.00">52</text>
<text text-anchor="start" x="588" y="-60.45" font-family="Times,serif" font-size="14.00">24: </text>
<polygon fill="none" stroke="black" points="611,-54.5 611,-76.5 674,-76.5 674,-54.5 611,-54.5"/>
<text text-anchor="start" x="613.62" y="-60.2" font-family="Courier New" font-size="14.00">VDS…GHE</text>
</g>
<!-- 7.0&#45;&gt;24.0 -->
<g id="edge36" class="edge">
<title>7.0:e&#45;&gt;24.0:w</title>
<path fill="none" stroke="black" d="M547.5,-11.5C547.5,-11.5 568.71,-41.25 579.64,-56.58"/>
<polygon fill="black" stroke="black" points="576.47,-58.16 585.12,-64.27 582.17,-54.09 576.47,-58.16"/>
</g>
<!-- 15.0&#45;&gt;8.0 -->
<g id="edge37" class="edge">
<title>15.0:e&#45;&gt;8.0:w</title>
<path fill="none" stroke="black" d="M550,-119.5C550,-119.5 574.93,-49.57 584.67,-22.25"/>
<polygon fill="black" stroke="black" points="587.93,-23.52 587.99,-12.93 581.34,-21.17 587.93,-23.52"/>
</g>
<!-- 15.0&#45;&gt;16.0 -->
<g id="edge38" class="edge">
<title>15.0:e&#45;&gt;16.0:w</title>
<path fill="none" stroke="black" d="M550,-119.5C550,-119.5 564.06,-119.5 574.61,-119.5"/>
<polygon fill="black" stroke="black" points="574.49,-123 584.49,-119.5 574.49,-116 574.49,-123"/>
</g>
<!-- 15.0&#45;&gt;24.0 -->
<g id="edge39" class="edge">
<title>15.0:e&#45;&gt;24.0:w</title>
<path fill="none" stroke="black" d="M550,-119.5C550,-119.5 569.42,-90.38 579.73,-74.91"/>
<polygon fill="black" stroke="black" points="582.53,-77.02 585.16,-66.76 576.7,-73.14 582.53,-77.02"/>
</g>
<!-- 23.0&#45;&gt;8.0 -->
<g id="edge40" class="edge">
<title>23.0:e&#45;&gt;8.0:w</title>
<path fill="none" stroke="black" d="M550,-65.5C550,-65.5 571.21,-35.75 582.14,-20.42"/>
<polygon fill="black" stroke="black" points="584.67,-22.91 587.62,-12.73 578.97,-18.84 584.67,-22.91"/>
</g>
<!-- 23.0&#45;&gt;16.0 -->
<g id="edge41" class="edge">
<title>23.0:e&#45;&gt;16.0:w</title>
<path fill="none" stroke="black" d="M550,-65.5C550,-65.5 569.42,-94.62 579.73,-110.09"/>
<polygon fill="black" stroke="black" points="576.7,-111.86 585.16,-118.24 582.53,-107.98 576.7,-111.86"/>
</g>
<!-- 23.0&#45;&gt;24.0 -->
<g id="edge42" class="edge">
<title>23.0:e&#45;&gt;24.0:w</title>
<path fill="none" stroke="black" d="M550,-65.5C550,-65.5 564.06,-65.5 574.61,-65.5"/>
<polygon fill="black" stroke="black" points="574.49,-69 584.49,-65.5 574.49,-62 574.49,-69"/>
</g>
<!-- 9.0 -->
<g id="node20" class="node">
<title>9.0</title>
<text text-anchor="start" x="733.5" y="-25.9" font-family="Times,serif" font-size="8.00">0</text>
<text text-anchor="start" x="785" y="-25.9" font-family="Times,serif" font-size="8.00">59</text>
<text text-anchor="start" x="715.38" y="-6.45" font-family="Times,serif" font-size="14.00">9: </text>
<polygon fill="none" stroke="black" points="731.5,-0.5 731.5,-22.5 794.5,-22.5 794.5,-0.5 731.5,-0.5"/>
<text text-anchor="start" x="734.12" y="-6.2" font-family="Courier New" font-size="14.00">TTS…WPT</text>
</g>
<!-- 8.0&#45;&gt;9.0 -->
<g id="edge43" class="edge">
<title>8.0:e&#45;&gt;9.0:w</title>
<path fill="none" stroke="black" d="M671.5,-11.5C671.5,-11.5 689.16,-11.5 701.3,-11.5"/>
<polygon fill="black" stroke="black" points="700.99,-15 710.99,-11.5 700.99,-8 700.99,-15"/>
</g>
<!-- 17.0 -->
<g id="node21" class="node">
<title>17.0</title>
<text text-anchor="start" x="737" y="-133.9" font-family="Times,serif" font-size="8.00">0</text>
<text text-anchor="start" x="788.5" y="-133.9" font-family="Times,serif" font-size="8.00">59</text>
<text text-anchor="start" x="712" y="-114.45" font-family="Times,serif" font-size="14.00">17: </text>
<polygon fill="none" stroke="black" points="735,-108.5 735,-130.5 798,-130.5 798,-108.5 735,-108.5"/>
<text text-anchor="start" x="737.62" y="-114.2" font-family="Courier New" font-size="14.00">TTS…YPT</text>
</g>
<!-- 8.0&#45;&gt;17.0 -->
<g id="edge44" class="edge">
<title>8.0:e&#45;&gt;17.0:w</title>
<path fill="none" stroke="black" d="M671.5,-11.5C671.5,-11.5 696.43,-81.43 706.17,-108.75"/>
<polygon fill="black" stroke="black" points="702.84,-109.83 709.49,-118.07 709.43,-107.48 702.84,-109.83"/>
</g>
<!-- 25.0 -->
<g id="node22" class="node">
<title>25.0</title>
<text text-anchor="start" x="737" y="-79.9" font-family="Times,serif" font-size="8.00">0</text>
<text text-anchor="start" x="788.5" y="-79.9" font-family="Times,serif" font-size="8.00">59</text>
<text text-anchor="start" x="712" y="-60.45" font-family="Times,serif" font-size="14.00">25: </text>
<polygon fill="none" stroke="black" points="735,-54.5 735,-76.5 798,-76.5 798,-54.5 735,-54.5"/>
<text text-anchor="start" x="737.62" y="-60.2" font-family="Courier New" font-size="14.00">TTS…WPT</text>
</g>
<!-- 8.0&#45;&gt;25.0 -->
<g id="edge45" class="edge">
<title>8.0:e&#45;&gt;25.0:w</title>
<path fill="none" stroke="black" d="M671.5,-11.5C671.5,-11.5 692.71,-41.25 703.64,-56.58"/>
<polygon fill="black" stroke="black" points="700.47,-58.16 709.12,-64.27 706.17,-54.09 700.47,-58.16"/>
</g>
<!-- 16.0&#45;&gt;9.0 -->
<g id="edge46" class="edge">
<title>16.0:e&#45;&gt;9.0:w</title>
<path fill="none" stroke="black" d="M674,-119.5C674,-119.5 698.93,-49.57 708.67,-22.25"/>
<polygon fill="black" stroke="black" points="711.93,-23.52 711.99,-12.93 705.34,-21.17 711.93,-23.52"/>
</g>
<!-- 16.0&#45;&gt;17.0 -->
<g id="edge47" class="edge">
<title>16.0:e&#45;&gt;17.0:w</title>
<path fill="none" stroke="black" d="M674,-119.5C674,-119.5 688.06,-119.5 698.61,-119.5"/>
<polygon fill="black" stroke="black" points="698.49,-123 708.49,-119.5 698.49,-116 698.49,-123"/>
</g>
<!-- 16.0&#45;&gt;25.0 -->
<g id="edge48" class="edge">
<title>16.0:e&#45;&gt;25.0:w</title>
<path fill="none" stroke="black" d="M674,-119.5C674,-119.5 693.42,-90.38 703.73,-74.91"/>
<polygon fill="black" stroke="black" points="706.53,-77.02 709.16,-66.76 700.7,-73.14 706.53,-77.02"/>
</g>
<!-- 24.0&#45;&gt;9.0 -->
<g id="edge49" class="edge">
<title>24.0:e&#45;&gt;9.0:w</title>
<path fill="none" stroke="black" d="M674,-65.5C674,-65.5 695.21,-35.75 706.14,-20.42"/>
<polygon fill="black" stroke="black" points="708.67,-22.91 711.62,-12.73 702.97,-18.84 708.67,-22.91"/>
</g>
<!-- 24.0&#45;&gt;17.0 -->
<g id="edge50" class="edge">
<title>24.0:e&#45;&gt;17.0:w</title>
<path fill="none" stroke="black" d="M674,-65.5C674,-65.5 693.42,-94.62 703.73,-110.09"/>
<polygon fill="black" stroke="black" points="700.7,-111.86 709.16,-118.24 706.53,-107.98 700.7,-111.86"/>
</g>
<!-- 24.0&#45;&gt;25.0 -->
<g id="edge51" class="edge">
<title>24.0:e&#45;&gt;25.0:w</title>
<path fill="none" stroke="black" d="M674,-65.5C674,-65.5 688.06,-65.5 698.61,-65.5"/>
<polygon fill="black" stroke="black" points="698.49,-69 708.49,-65.5 698.49,-62 698.49,-69"/>
</g>
<!-- 10.0 -->
<g id="node23" class="node">
<title>10.0</title>
<text text-anchor="start" x="861" y="-25.9" font-family="Times,serif" font-size="8.00">0</text>
<text text-anchor="start" x="912.5" y="-25.9" font-family="Times,serif" font-size="8.00">75</text>
<text text-anchor="start" x="836" y="-6.45" font-family="Times,serif" font-size="14.00">10: </text>
<polygon fill="none" stroke="black" points="859,-0.5 859,-22.5 922,-22.5 922,-0.5 859,-0.5"/>
<text text-anchor="start" x="861.62" y="-6.2" font-family="Courier New" font-size="14.00">APA…IGQ</text>
</g>
<!-- 9.0&#45;&gt;10.0 -->
<g id="edge52" class="edge">
<title>9.0:e&#45;&gt;10.0:w</title>
<path fill="none" stroke="black" d="M795.5,-11.5C795.5,-11.5 811.3,-11.5 822.66,-11.5"/>
<polygon fill="black" stroke="black" points="822.49,-15 832.49,-11.5 822.49,-8 822.49,-15"/>
</g>
<!-- 18.0 -->
<g id="node24" class="node">
<title>18.0</title>
<text text-anchor="start" x="861" y="-133.9" font-family="Times,serif" font-size="8.00">0</text>
<text text-anchor="start" x="912.5" y="-133.9" font-family="Times,serif" font-size="8.00">75</text>
<text text-anchor="start" x="836" y="-114.45" font-family="Times,serif" font-size="14.00">18: </text>
<polygon fill="none" stroke="black" points="859,-108.5 859,-130.5 922,-130.5 922,-108.5 859,-108.5"/>
<text text-anchor="start" x="861.62" y="-114.2" font-family="Courier New" font-size="14.00">APA…IGM</text>
</g>
<!-- 9.0&#45;&gt;18.0 -->
<g id="edge53" class="edge">
<title>9.0:e&#45;&gt;18.0:w</title>
<path fill="none" stroke="black" d="M795.5,-11.5C795.5,-11.5 820.43,-81.43 830.17,-108.75"/>
<polygon fill="black" stroke="black" points="826.84,-109.83 833.49,-118.07 833.43,-107.48 826.84,-109.83"/>
</g>
<!-- 26.0 -->
<g id="node25" class="node">
<title>26.0</title>
<text text-anchor="start" x="861" y="-79.9" font-family="Times,serif" font-size="8.00">0</text>
<text text-anchor="start" x="912.5" y="-79.9" font-family="Times,serif" font-size="8.00">75</text>
<text text-anchor="start" x="836" y="-60.45" font-family="Times,serif" font-size="14.00">26: </text>
<polygon fill="none" stroke="black" points="859,-54.5 859,-76.5 922,-76.5 922,-54.5 859,-54.5"/>
<text text-anchor="start" x="861.62" y="-60.2" font-family="Courier New" font-size="14.00">APA…IGM</text>
</g>
<!-- 9.0&#45;&gt;26.0 -->
<g id="edge54" class="edge">
<title>9.0:e&#45;&gt;26.0:w</title>
<path fill="none" stroke="black" d="M795.5,-11.5C795.5,-11.5 816.71,-41.25 827.64,-56.58"/>
<polygon fill="black" stroke="black" points="824.47,-58.16 833.12,-64.27 830.17,-54.09 824.47,-58.16"/>
</g>
<!-- 17.0&#45;&gt;10.0 -->
<g id="edge55" class="edge">
<title>17.0:e&#45;&gt;10.0:w</title>
<path fill="none" stroke="black" d="M798,-119.5C798,-119.5 821.31,-49.57 830.42,-22.25"/>
<polygon fill="black" stroke="black" points="833.68,-23.53 833.52,-12.94 827.04,-21.32 833.68,-23.53"/>
</g>
<!-- 17.0&#45;&gt;18.0 -->
<g id="edge56" class="edge">
<title>17.0:e&#45;&gt;18.0:w</title>
<path fill="none" stroke="black" d="M798,-119.5C798,-119.5 812.06,-119.5 822.61,-119.5"/>
<polygon fill="black" stroke="black" points="822.49,-123 832.49,-119.5 822.49,-116 822.49,-123"/>
</g>
<!-- 17.0&#45;&gt;26.0 -->
<g id="edge57" class="edge">
<title>17.0:e&#45;&gt;26.0:w</title>
<path fill="none" stroke="black" d="M798,-119.5C798,-119.5 817.42,-90.38 827.73,-74.91"/>
<polygon fill="black" stroke="black" points="830.53,-77.02 833.16,-66.76 824.7,-73.14 830.53,-77.02"/>
</g>
<!-- 25.0&#45;&gt;10.0 -->
<g id="edge58" class="edge">
<title>25.0:e&#45;&gt;10.0:w</title>
<path fill="none" stroke="black" d="M798,-65.5C798,-65.5 817.42,-36.38 827.73,-20.91"/>
<polygon fill="black" stroke="black" points="830.53,-23.02 833.16,-12.76 824.7,-19.14 830.53,-23.02"/>
</g>
<!-- 25.0&#45;&gt;18.0 -->
<g id="edge59" class="edge">
<title>25.0:e&#45;&gt;18.0:w</title>
<path fill="none" stroke="black" d="M798,-65.5C798,-65.5 817.42,-94.62 827.73,-110.09"/>
<polygon fill="black" stroke="black" points="824.7,-111.86 833.16,-118.24 830.53,-107.98 824.7,-111.86"/>
</g>
<!-- 25.0&#45;&gt;26.0 -->
<g id="edge60" class="edge">
<title>25.0:e&#45;&gt;26.0:w</title>
<path fill="none" stroke="black" d="M798,-65.5C798,-65.5 812.06,-65.5 822.61,-65.5"/>
<polygon fill="black" stroke="black" points="822.49,-69 832.49,-65.5 822.49,-62 822.49,-69"/>
</g>
<!-- 11.0 -->
<g id="node26" class="node">
<title>11.0</title>
<text text-anchor="start" x="985" y="-25.9" font-family="Times,serif" font-size="8.00">0</text>
<text text-anchor="start" x="1032.75" y="-25.9" font-family="Times,serif" font-size="8.00">644</text>
<text text-anchor="start" x="960" y="-6.45" font-family="Times,serif" font-size="14.00">11: </text>
<polygon fill="none" stroke="black" points="983,-0.5 983,-22.5 1046,-22.5 1046,-0.5 983,-0.5"/>
<text text-anchor="start" x="985.62" y="-6.2" font-family="Courier New" font-size="14.00">QFA…WAG</text>
</g>
<!-- 10.0&#45;&gt;11.0 -->
<g id="edge61" class="edge">
<title>10.0:e&#45;&gt;11.0:w</title>
<path fill="none" stroke="black" d="M922,-11.5C922,-11.5 935.33,-11.5 945.54,-11.5"/>
<polygon fill="black" stroke="black" points="945.49,-15 955.49,-11.5 945.49,-8 945.49,-15"/>
</g>
<!-- 19.0 -->
<g id="node27" class="node">
<title>19.0</title>
<text text-anchor="start" x="985" y="-133.9" font-family="Times,serif" font-size="8.00">0</text>
<text text-anchor="start" x="1032.75" y="-133.9" font-family="Times,serif" font-size="8.00">647</text>
<text text-anchor="start" x="960" y="-114.45" font-family="Times,serif" font-size="14.00">19: </text>
<polygon fill="none" stroke="black" points="983,-108.5 983,-130.5 1046,-130.5 1046,-108.5 983,-108.5"/>
<text text-anchor="start" x="985.62" y="-114.2" font-family="Courier New" font-size="14.00">QFA…TGM</text>
</g>
<!-- 10.0&#45;&gt;19.0 -->
<g id="edge62" class="edge">
<title>10.0:e&#45;&gt;19.0:w</title>
<path fill="none" stroke="black" d="M922,-11.5C922,-11.5 944.66,-81.43 953.52,-108.75"/>
<polygon fill="black" stroke="black" points="950.12,-109.63 956.53,-118.06 956.78,-107.47 950.12,-109.63"/>
</g>
<!-- 27.0 -->
<g id="node28" class="node">
<title>27.0</title>
<text text-anchor="start" x="985" y="-79.9" font-family="Times,serif" font-size="8.00">0</text>
<text text-anchor="start" x="1032.75" y="-79.9" font-family="Times,serif" font-size="8.00">654</text>
<text text-anchor="start" x="960" y="-60.45" font-family="Times,serif" font-size="14.00">27: </text>
<polygon fill="none" stroke="black" points="983,-54.5 983,-76.5 1046,-76.5 1046,-54.5 983,-54.5"/>
<text text-anchor="start" x="985.62" y="-60.2" font-family="Courier New" font-size="14.00">QFA…AGI</text>
</g>
<!-- 10.0&#45;&gt;27.0 -->
<g id="edge63" class="edge">
<title>10.0:e&#45;&gt;27.0:w</title>
<path fill="none" stroke="black" d="M922,-11.5C922,-11.5 940.88,-40.62 950.9,-56.09"/>
<polygon fill="black" stroke="black" points="947.8,-57.74 956.18,-64.23 953.67,-53.93 947.8,-57.74"/>
</g>
<!-- 18.0&#45;&gt;11.0 -->
<g id="edge64" class="edge">
<title>18.0:e&#45;&gt;11.0:w</title>
<path fill="none" stroke="black" d="M922,-119.5C922,-119.5 944.66,-49.57 953.52,-22.25"/>
<polygon fill="black" stroke="black" points="956.78,-23.53 956.53,-12.94 950.12,-21.37 956.78,-23.53"/>
</g>
<!-- 18.0&#45;&gt;19.0 -->
<g id="edge65" class="edge">
<title>18.0:e&#45;&gt;19.0:w</title>
<path fill="none" stroke="black" d="M922,-119.5C922,-119.5 935.33,-119.5 945.54,-119.5"/>
<polygon fill="black" stroke="black" points="945.49,-123 955.49,-119.5 945.49,-116 945.49,-123"/>
</g>
<!-- 18.0&#45;&gt;27.0 -->
<g id="edge66" class="edge">
<title>18.0:e&#45;&gt;27.0:w</title>
<path fill="none" stroke="black" d="M922,-119.5C922,-119.5 940.88,-90.38 950.9,-74.91"/>
<polygon fill="black" stroke="black" points="953.67,-77.07 956.18,-66.77 947.8,-73.26 953.67,-77.07"/>
</g>
<!-- 26.0&#45;&gt;11.0 -->
<g id="edge67" class="edge">
<title>26.0:e&#45;&gt;11.0:w</title>
<path fill="none" stroke="black" d="M922,-65.5C922,-65.5 940.88,-36.38 950.9,-20.91"/>
<polygon fill="black" stroke="black" points="953.67,-23.07 956.18,-12.77 947.8,-19.26 953.67,-23.07"/>
</g>
<!-- 26.0&#45;&gt;19.0 -->
<g id="edge68" class="edge">
<title>26.0:e&#45;&gt;19.0:w</title>
<path fill="none" stroke="black" d="M922,-65.5C922,-65.5 940.88,-94.62 950.9,-110.09"/>
<polygon fill="black" stroke="black" points="947.8,-111.74 956.18,-118.23 953.67,-107.93 947.8,-111.74"/>
</g>
<!-- 26.0&#45;&gt;27.0 -->
<g id="edge69" class="edge">
<title>26.0:e&#45;&gt;27.0:w</title>
<path fill="none" stroke="black" d="M922,-65.5C922,-65.5 935.33,-65.5 945.54,-65.5"/>
<polygon fill="black" stroke="black" points="945.49,-69 955.49,-65.5 945.49,-62 945.49,-69"/>
</g>
<!-- 11.0&#45;&gt;3.657 -->
<g id="edge70" class="edge">
<title>11.0:e&#45;&gt;3.657:w</title>
<path fill="none" stroke="black" d="M1046,-11.5C1046,-11.5 1071.39,-125.76 1079.53,-162.37"/>
<polygon fill="black" stroke="black" points="1076.09,-163.02 1081.67,-172.02 1082.92,-161.5 1076.09,-163.02"/>
</g>
<!-- 19.0&#45;&gt;3.657 -->
<g id="edge71" class="edge">
<title>19.0:e&#45;&gt;3.657:w</title>
<path fill="none" stroke="black" d="M1046,-119.5C1046,-119.5 1065.42,-148.62 1075.73,-164.09"/>
<polygon fill="black" stroke="black" points="1072.7,-165.86 1081.16,-172.24 1078.53,-161.98 1072.7,-165.86"/>
</g>
<!-- 27.0&#45;&gt;3.657 -->
<g id="edge72" class="edge">
<title>27.0:e&#45;&gt;3.657:w</title>
<path fill="none" stroke="black" d="M1046,-65.5C1046,-65.5 1069.31,-135.43 1078.42,-162.75"/>
<polygon fill="black" stroke="black" points="1075.04,-163.68 1081.52,-172.06 1081.68,-161.47 1075.04,-163.68"/>
</g>
</g>
</svg>
