<?xml version="1.0" encoding="UTF-8" standalone="no"?>
<!DOCTYPE svg PUBLIC "-//W3C//DTD SVG 1.1//EN"
 "http://www.w3.org/Graphics/SVG/1.1/DTD/svg11.dtd">
<!-- Generated by graphviz version 12.1.1 (20240910.0053)
 -->
<!-- Pages: 1 -->
<svg width="1228pt" height="152pt"
 viewBox="0.00 0.00 1227.50 152.00" xmlns="http://www.w3.org/2000/svg" xmlns:xlink="http://www.w3.org/1999/xlink">
<g id="graph0" class="graph" transform="scale(1 1) rotate(0) translate(4 148)">
<polygon fill="white" stroke="none" points="-4,4 -4,-148 1223.5,-148 1223.5,4 -4,4"/>
<!-- source -->
<g id="node1" class="node">
<title>source</title>
<ellipse fill="none" stroke="black" cx="27" cy="-72" rx="27" ry="18"/>
<text text-anchor="middle" x="27" y="-66.95" font-family="Times,serif" font-size="14.00">start</text>
</g>
<!-- 4.0 -->
<g id="node2" class="node">
<title>4.0</title>
<text text-anchor="start" x="95.38" y="-120.95" font-family="Times,serif" font-size="14.00">4.0: </text>
<polygon fill="none" stroke="black" points="122.12,-114.75 122.12,-137.25 169.38,-137.25 169.38,-114.75 122.12,-114.75"/>
<text text-anchor="start" x="125.12" y="-120.95" font-family="Courier New" font-size="14.00">M … D</text>
</g>
<!-- source&#45;&gt;4.0 -->
<g id="edge1" class="edge">
<title>source:e&#45;&gt;4.0:caption</title>
<path fill="none" stroke="black" d="M54,-72C54,-72 75.14,-101.75 86.04,-117.08"/>
<polygon fill="black" stroke="black" points="82.85,-118.64 91.5,-124.77 88.56,-114.59 82.85,-118.64"/>
</g>
<!-- 12.0 -->
<g id="node3" class="node">
<title>12.0</title>
<text text-anchor="start" x="92" y="-66.95" font-family="Times,serif" font-size="14.00">12.0: </text>
<polygon fill="none" stroke="black" points="125.5,-60.75 125.5,-83.25 172.75,-83.25 172.75,-60.75 125.5,-60.75"/>
<text text-anchor="start" x="128.5" y="-66.95" font-family="Courier New" font-size="14.00">M … D</text>
</g>
<!-- source&#45;&gt;12.0 -->
<g id="edge2" class="edge">
<title>source:e&#45;&gt;12.0:caption</title>
<path fill="none" stroke="black" d="M54,-72C54,-72 68.06,-72 78.61,-72"/>
<polygon fill="black" stroke="black" points="78.49,-75.5 88.49,-72 78.49,-68.5 78.49,-75.5"/>
</g>
<!-- 20.0 -->
<g id="node4" class="node">
<title>20.0</title>
<text text-anchor="start" x="92" y="-12.95" font-family="Times,serif" font-size="14.00">20.0: </text>
<polygon fill="none" stroke="black" points="125.5,-6.75 125.5,-29.25 172.75,-29.25 172.75,-6.75 125.5,-6.75"/>
<text text-anchor="start" x="128.5" y="-12.95" font-family="Courier New" font-size="14.00">M … D</text>
</g>
<!-- source&#45;&gt;20.0 -->
<g id="edge3" class="edge">
<title>source:e&#45;&gt;20.0:caption</title>
<path fill="none" stroke="black" d="M54,-72C54,-72 73.42,-42.88 83.73,-27.41"/>
<polygon fill="black" stroke="black" points="86.53,-29.52 89.16,-19.26 80.7,-25.64 86.53,-29.52"/>
</g>
<!-- 5.0 -->
<g id="node5" class="node">
<title>5.0</title>
<text text-anchor="start" x="214.13" y="-120.95" font-family="Times,serif" font-size="14.00">5.0: </text>
<polygon fill="none" stroke="black" points="240.88,-114.75 240.88,-137.25 288.13,-137.25 288.13,-114.75 240.88,-114.75"/>
<text text-anchor="start" x="243.88" y="-120.95" font-family="Courier New" font-size="14.00">E … D</text>
</g>
<!-- 4.0&#45;&gt;5.0 -->
<g id="edge4" class="edge">
<title>4.0:e&#45;&gt;5.0:caption</title>
<path fill="none" stroke="black" d="M170.34,-126C170.34,-126 187.9,-126 199.98,-126"/>
<polygon fill="black" stroke="black" points="199.61,-129.5 209.61,-126 199.61,-122.5 199.61,-129.5"/>
</g>
<!-- 13.0 -->
<g id="node6" class="node">
<title>13.0</title>
<text text-anchor="start" x="210.75" y="-66.95" font-family="Times,serif" font-size="14.00">13.0: </text>
<polygon fill="none" stroke="black" points="244.25,-60.75 244.25,-83.25 291.5,-83.25 291.5,-60.75 244.25,-60.75"/>
<text text-anchor="start" x="247.25" y="-66.95" font-family="Courier New" font-size="14.00">E … D</text>
</g>
<!-- 4.0&#45;&gt;13.0 -->
<g id="edge5" class="edge">
<title>4.0:e&#45;&gt;13.0:caption</title>
<path fill="none" stroke="black" d="M170.34,-126C170.34,-126 191.5,-96.25 202.41,-80.92"/>
<polygon fill="black" stroke="black" points="204.93,-83.41 207.87,-73.23 199.22,-79.35 204.93,-83.41"/>
</g>
<!-- 21.0 -->
<g id="node7" class="node">
<title>21.0</title>
<text text-anchor="start" x="210.75" y="-12.95" font-family="Times,serif" font-size="14.00">21.0: </text>
<polygon fill="none" stroke="black" points="244.25,-6.75 244.25,-29.25 291.5,-29.25 291.5,-6.75 244.25,-6.75"/>
<text text-anchor="start" x="247.25" y="-12.95" font-family="Courier New" font-size="14.00">E … D</text>
</g>
<!-- 4.0&#45;&gt;21.0 -->
<g id="edge6" class="edge">
<title>4.0:e&#45;&gt;21.0:caption</title>
<path fill="none" stroke="black" d="M170.34,-126C170.34,-126 195.21,-56.07 204.93,-28.75"/>
<polygon fill="black" stroke="black" points="208.19,-30.02 208.24,-19.43 201.59,-27.68 208.19,-30.02"/>
</g>
<!-- 12.0&#45;&gt;5.0 -->
<g id="edge7" class="edge">
<title>12.0:e&#45;&gt;5.0:caption</title>
<path fill="none" stroke="black" d="M172.75,-72C172.75,-72 193.89,-101.75 204.79,-117.08"/>
<polygon fill="black" stroke="black" points="201.6,-118.64 210.25,-124.77 207.31,-114.59 201.6,-118.64"/>
</g>
<!-- 12.0&#45;&gt;13.0 -->
<g id="edge8" class="edge">
<title>12.0:e&#45;&gt;13.0:caption</title>
<path fill="none" stroke="black" d="M172.75,-72C172.75,-72 186.81,-72 197.36,-72"/>
<polygon fill="black" stroke="black" points="197.24,-75.5 207.24,-72 197.24,-68.5 197.24,-75.5"/>
</g>
<!-- 12.0&#45;&gt;21.0 -->
<g id="edge9" class="edge">
<title>12.0:e&#45;&gt;21.0:caption</title>
<path fill="none" stroke="black" d="M172.75,-72C172.75,-72 192.17,-42.88 202.48,-27.41"/>
<polygon fill="black" stroke="black" points="205.28,-29.52 207.91,-19.26 199.45,-25.64 205.28,-29.52"/>
</g>
<!-- 20.0&#45;&gt;5.0 -->
<g id="edge10" class="edge">
<title>20.0:e&#45;&gt;5.0:caption</title>
<path fill="none" stroke="black" d="M172.75,-18C172.75,-18 197.6,-87.93 207.31,-115.25"/>
<polygon fill="black" stroke="black" points="203.97,-116.32 210.62,-124.57 210.57,-113.98 203.97,-116.32"/>
</g>
<!-- 20.0&#45;&gt;13.0 -->
<g id="edge11" class="edge">
<title>20.0:e&#45;&gt;13.0:caption</title>
<path fill="none" stroke="black" d="M172.75,-18C172.75,-18 192.17,-47.12 202.48,-62.59"/>
<polygon fill="black" stroke="black" points="199.45,-64.36 207.91,-70.74 205.28,-60.48 199.45,-64.36"/>
</g>
<!-- 20.0&#45;&gt;21.0 -->
<g id="edge12" class="edge">
<title>20.0:e&#45;&gt;21.0:caption</title>
<path fill="none" stroke="black" d="M172.75,-18C172.75,-18 186.81,-18 197.36,-18"/>
<polygon fill="black" stroke="black" points="197.24,-21.5 207.24,-18 197.24,-14.5 197.24,-21.5"/>
</g>
<!-- 6.0 -->
<g id="node8" class="node">
<title>6.0</title>
<text text-anchor="start" x="332.88" y="-120.95" font-family="Times,serif" font-size="14.00">6.0: </text>
<polygon fill="none" stroke="black" points="359.63,-114.75 359.63,-137.25 406.88,-137.25 406.88,-114.75 359.63,-114.75"/>
<text text-anchor="start" x="362.63" y="-120.95" font-family="Courier New" font-size="14.00">I … F</text>
</g>
<!-- 5.0&#45;&gt;6.0 -->
<g id="edge13" class="edge">
<title>5.0:e&#45;&gt;6.0:caption</title>
<path fill="none" stroke="black" d="M289.09,-126C289.09,-126 306.65,-126 318.73,-126"/>
<polygon fill="black" stroke="black" points="318.36,-129.5 328.36,-126 318.36,-122.5 318.36,-129.5"/>
</g>
<!-- 14.0 -->
<g id="node9" class="node">
<title>14.0</title>
<text text-anchor="start" x="329.5" y="-66.95" font-family="Times,serif" font-size="14.00">14.0: </text>
<polygon fill="none" stroke="black" points="363,-60.75 363,-83.25 410.25,-83.25 410.25,-60.75 363,-60.75"/>
<text text-anchor="start" x="366" y="-66.95" font-family="Courier New" font-size="14.00">I … F</text>
</g>
<!-- 5.0&#45;&gt;14.0 -->
<g id="edge14" class="edge">
<title>5.0:e&#45;&gt;14.0:caption</title>
<path fill="none" stroke="black" d="M289.09,-126C289.09,-126 310.25,-96.25 321.16,-80.92"/>
<polygon fill="black" stroke="black" points="323.68,-83.41 326.62,-73.23 317.97,-79.35 323.68,-83.41"/>
</g>
<!-- 22.0 -->
<g id="node10" class="node">
<title>22.0</title>
<text text-anchor="start" x="329.5" y="-12.95" font-family="Times,serif" font-size="14.00">22.0: </text>
<polygon fill="none" stroke="black" points="363,-6.75 363,-29.25 410.25,-29.25 410.25,-6.75 363,-6.75"/>
<text text-anchor="start" x="366" y="-12.95" font-family="Courier New" font-size="14.00">I … Y</text>
</g>
<!-- 5.0&#45;&gt;22.0 -->
<g id="edge15" class="edge">
<title>5.0:e&#45;&gt;22.0:caption</title>
<path fill="none" stroke="black" d="M289.09,-126C289.09,-126 313.96,-56.07 323.68,-28.75"/>
<polygon fill="black" stroke="black" points="326.94,-30.02 326.99,-19.43 320.34,-27.68 326.94,-30.02"/>
</g>
<!-- 13.0&#45;&gt;6.0 -->
<g id="edge16" class="edge">
<title>13.0:e&#45;&gt;6.0:caption</title>
<path fill="none" stroke="black" d="M291.5,-72C291.5,-72 312.64,-101.75 323.54,-117.08"/>
<polygon fill="black" stroke="black" points="320.35,-118.64 329,-124.77 326.06,-114.59 320.35,-118.64"/>
</g>
<!-- 13.0&#45;&gt;14.0 -->
<g id="edge17" class="edge">
<title>13.0:e&#45;&gt;14.0:caption</title>
<path fill="none" stroke="black" d="M291.5,-72C291.5,-72 305.56,-72 316.11,-72"/>
<polygon fill="black" stroke="black" points="315.99,-75.5 325.99,-72 315.99,-68.5 315.99,-75.5"/>
</g>
<!-- 13.0&#45;&gt;22.0 -->
<g id="edge18" class="edge">
<title>13.0:e&#45;&gt;22.0:caption</title>
<path fill="none" stroke="black" d="M291.5,-72C291.5,-72 310.92,-42.88 321.23,-27.41"/>
<polygon fill="black" stroke="black" points="324.03,-29.52 326.66,-19.26 318.2,-25.64 324.03,-29.52"/>
</g>
<!-- 21.0&#45;&gt;6.0 -->
<g id="edge19" class="edge">
<title>21.0:e&#45;&gt;6.0:caption</title>
<path fill="none" stroke="black" d="M291.5,-18C291.5,-18 316.35,-87.93 326.06,-115.25"/>
<polygon fill="black" stroke="black" points="322.72,-116.32 329.37,-124.57 329.32,-113.98 322.72,-116.32"/>
</g>
<!-- 21.0&#45;&gt;14.0 -->
<g id="edge20" class="edge">
<title>21.0:e&#45;&gt;14.0:caption</title>
<path fill="none" stroke="black" d="M291.5,-18C291.5,-18 310.92,-47.12 321.23,-62.59"/>
<polygon fill="black" stroke="black" points="318.2,-64.36 326.66,-70.74 324.03,-60.48 318.2,-64.36"/>
</g>
<!-- 21.0&#45;&gt;22.0 -->
<g id="edge21" class="edge">
<title>21.0:e&#45;&gt;22.0:caption</title>
<path fill="none" stroke="black" d="M291.5,-18C291.5,-18 305.56,-18 316.11,-18"/>
<polygon fill="black" stroke="black" points="315.99,-21.5 325.99,-18 315.99,-14.5 315.99,-21.5"/>
</g>
<!-- 7.0 -->
<g id="node13" class="node">
<title>7.0</title>
<text text-anchor="start" x="451.63" y="-120.95" font-family="Times,serif" font-size="14.00">7.0: </text>
<polygon fill="none" stroke="black" points="478.38,-114.75 478.38,-137.25 525.63,-137.25 525.63,-114.75 478.38,-114.75"/>
<text text-anchor="start" x="481.38" y="-120.95" font-family="Courier New" font-size="14.00">Y … L</text>
</g>
<!-- 6.0&#45;&gt;7.0 -->
<g id="edge23" class="edge">
<title>6.0:e&#45;&gt;7.0:caption</title>
<path fill="none" stroke="black" d="M407.84,-126C407.84,-126 425.4,-126 437.48,-126"/>
<polygon fill="black" stroke="black" points="437.11,-129.5 447.11,-126 437.11,-122.5 437.11,-129.5"/>
</g>
<!-- 15.0 -->
<g id="node14" class="node">
<title>15.0</title>
<text text-anchor="start" x="448.25" y="-66.95" font-family="Times,serif" font-size="14.00">15.0: </text>
<polygon fill="none" stroke="black" points="481.75,-60.75 481.75,-83.25 529,-83.25 529,-60.75 481.75,-60.75"/>
<text text-anchor="start" x="484.75" y="-66.95" font-family="Courier New" font-size="14.00">Y … L</text>
</g>
<!-- 6.0&#45;&gt;15.0 -->
<g id="edge24" class="edge">
<title>6.0:e&#45;&gt;15.0:caption</title>
<path fill="none" stroke="black" d="M407.84,-126C407.84,-126 429,-96.25 439.91,-80.92"/>
<polygon fill="black" stroke="black" points="442.43,-83.41 445.37,-73.23 436.72,-79.35 442.43,-83.41"/>
</g>
<!-- 23.0 -->
<g id="node15" class="node">
<title>23.0</title>
<text text-anchor="start" x="448.25" y="-12.95" font-family="Times,serif" font-size="14.00">23.0: </text>
<polygon fill="none" stroke="black" points="481.75,-6.75 481.75,-29.25 529,-29.25 529,-6.75 481.75,-6.75"/>
<text text-anchor="start" x="484.75" y="-12.95" font-family="Courier New" font-size="14.00">Y … L</text>
</g>
<!-- 6.0&#45;&gt;23.0 -->
<g id="edge25" class="edge">
<title>6.0:e&#45;&gt;23.0:caption</title>
<path fill="none" stroke="black" d="M407.84,-126C407.84,-126 432.71,-56.07 442.43,-28.75"/>
<polygon fill="black" stroke="black" points="445.69,-30.02 445.74,-19.43 439.09,-27.68 445.69,-30.02"/>
</g>
<!-- 14.0&#45;&gt;7.0 -->
<g id="edge26" class="edge">
<title>14.0:e&#45;&gt;7.0:caption</title>
<path fill="none" stroke="black" d="M410.25,-72C410.25,-72 431.39,-101.75 442.29,-117.08"/>
<polygon fill="black" stroke="black" points="439.1,-118.64 447.75,-124.77 444.81,-114.59 439.1,-118.64"/>
</g>
<!-- 14.0&#45;&gt;15.0 -->
<g id="edge27" class="edge">
<title>14.0:e&#45;&gt;15.0:caption</title>
<path fill="none" stroke="black" d="M410.25,-72C410.25,-72 424.31,-72 434.86,-72"/>
<polygon fill="black" stroke="black" points="434.74,-75.5 444.74,-72 434.74,-68.5 434.74,-75.5"/>
</g>
<!-- 14.0&#45;&gt;23.0 -->
<g id="edge28" class="edge">
<title>14.0:e&#45;&gt;23.0:caption</title>
<path fill="none" stroke="black" d="M410.25,-72C410.25,-72 429.67,-42.88 439.98,-27.41"/>
<polygon fill="black" stroke="black" points="442.78,-29.52 445.41,-19.26 436.95,-25.64 442.78,-29.52"/>
</g>
<!-- 22.0&#45;&gt;7.0 -->
<g id="edge29" class="edge">
<title>22.0:e&#45;&gt;7.0:caption</title>
<path fill="none" stroke="black" d="M410.25,-18C410.25,-18 435.1,-87.93 444.81,-115.25"/>
<polygon fill="black" stroke="black" points="441.47,-116.32 448.12,-124.57 448.07,-113.98 441.47,-116.32"/>
</g>
<!-- 22.0&#45;&gt;15.0 -->
<g id="edge30" class="edge">
<title>22.0:e&#45;&gt;15.0:caption</title>
<path fill="none" stroke="black" d="M410.25,-18C410.25,-18 429.67,-47.12 439.98,-62.59"/>
<polygon fill="black" stroke="black" points="436.95,-64.36 445.41,-70.74 442.78,-60.48 436.95,-64.36"/>
</g>
<!-- 22.0&#45;&gt;23.0 -->
<g id="edge31" class="edge">
<title>22.0:e&#45;&gt;23.0:caption</title>
<path fill="none" stroke="black" d="M410.25,-18C410.25,-18 424.31,-18 434.86,-18"/>
<polygon fill="black" stroke="black" points="434.74,-21.5 444.74,-18 434.74,-14.5 434.74,-21.5"/>
</g>
<!-- sink -->
<g id="node11" class="node">
<title>sink</title>
<ellipse fill="none" stroke="black" cx="1192.5" cy="-72" rx="27" ry="18"/>
<text text-anchor="middle" x="1192.5" y="-66.95" font-family="Times,serif" font-size="14.00">end</text>
</g>
<!-- 3.657 -->
<g id="node12" class="node">
<title>3.657</title>
<text text-anchor="start" x="1042" y="-66.95" font-family="Times,serif" font-size="14.00">3.657: </text>
<polygon fill="none" stroke="black" points="1082.25,-60.75 1082.25,-83.25 1129.5,-83.25 1129.5,-60.75 1082.25,-60.75"/>
<text text-anchor="start" x="1085.25" y="-66.95" font-family="Courier New" font-size="14.00">K … G</text>
</g>
<!-- 3.657&#45;&gt;sink -->
<g id="edge22" class="edge">
<title>3.657:e&#45;&gt;sink:caption</title>
<path fill="none" stroke="black" d="M1129.5,-72C1129.5,-72 1140.98,-72 1154.06,-72"/>
<polygon fill="black" stroke="black" points="1153.7,-75.5 1163.7,-72 1153.7,-68.5 1153.7,-75.5"/>
</g>
<!-- 8.0 -->
<g id="node16" class="node">
<title>8.0</title>
<text text-anchor="start" x="570.38" y="-120.95" font-family="Times,serif" font-size="14.00">8.0: </text>
<polygon fill="none" stroke="black" points="597.13,-114.75 597.13,-137.25 644.38,-137.25 644.38,-114.75 597.13,-114.75"/>
<text text-anchor="start" x="600.13" y="-120.95" font-family="Courier New" font-size="14.00">V … E</text>
</g>
<!-- 7.0&#45;&gt;8.0 -->
<g id="edge32" class="edge">
<title>7.0:e&#45;&gt;8.0:caption</title>
<path fill="none" stroke="black" d="M526.59,-126C526.59,-126 544.15,-126 556.23,-126"/>
<polygon fill="black" stroke="black" points="555.86,-129.5 565.86,-126 555.86,-122.5 555.86,-129.5"/>
</g>
<!-- 16.0 -->
<g id="node17" class="node">
<title>16.0</title>
<text text-anchor="start" x="567" y="-66.95" font-family="Times,serif" font-size="14.00">16.0: </text>
<polygon fill="none" stroke="black" points="600.5,-60.75 600.5,-83.25 647.75,-83.25 647.75,-60.75 600.5,-60.75"/>
<text text-anchor="start" x="603.5" y="-66.95" font-family="Courier New" font-size="14.00">V … E</text>
</g>
<!-- 7.0&#45;&gt;16.0 -->
<g id="edge33" class="edge">
<title>7.0:e&#45;&gt;16.0:caption</title>
<path fill="none" stroke="black" d="M526.59,-126C526.59,-126 547.75,-96.25 558.66,-80.92"/>
<polygon fill="black" stroke="black" points="561.18,-83.41 564.12,-73.23 555.47,-79.35 561.18,-83.41"/>
</g>
<!-- 24.0 -->
<g id="node18" class="node">
<title>24.0</title>
<text text-anchor="start" x="567" y="-12.95" font-family="Times,serif" font-size="14.00">24.0: </text>
<polygon fill="none" stroke="black" points="600.5,-6.75 600.5,-29.25 647.75,-29.25 647.75,-6.75 600.5,-6.75"/>
<text text-anchor="start" x="603.5" y="-12.95" font-family="Courier New" font-size="14.00">V … E</text>
</g>
<!-- 7.0&#45;&gt;24.0 -->
<g id="edge34" class="edge">
<title>7.0:e&#45;&gt;24.0:caption</title>
<path fill="none" stroke="black" d="M526.59,-126C526.59,-126 551.46,-56.07 561.18,-28.75"/>
<polygon fill="black" stroke="black" points="564.44,-30.02 564.49,-19.43 557.84,-27.68 564.44,-30.02"/>
</g>
<!-- 15.0&#45;&gt;8.0 -->
<g id="edge35" class="edge">
<title>15.0:e&#45;&gt;8.0:caption</title>
<path fill="none" stroke="black" d="M529,-72C529,-72 550.14,-101.75 561.04,-117.08"/>
<polygon fill="black" stroke="black" points="557.85,-118.64 566.5,-124.77 563.56,-114.59 557.85,-118.64"/>
</g>
<!-- 15.0&#45;&gt;16.0 -->
<g id="edge36" class="edge">
<title>15.0:e&#45;&gt;16.0:caption</title>
<path fill="none" stroke="black" d="M529,-72C529,-72 543.06,-72 553.61,-72"/>
<polygon fill="black" stroke="black" points="553.49,-75.5 563.49,-72 553.49,-68.5 553.49,-75.5"/>
</g>
<!-- 15.0&#45;&gt;24.0 -->
<g id="edge37" class="edge">
<title>15.0:e&#45;&gt;24.0:caption</title>
<path fill="none" stroke="black" d="M529,-72C529,-72 548.42,-42.88 558.73,-27.41"/>
<polygon fill="black" stroke="black" points="561.53,-29.52 564.16,-19.26 555.7,-25.64 561.53,-29.52"/>
</g>
<!-- 23.0&#45;&gt;8.0 -->
<g id="edge38" class="edge">
<title>23.0:e&#45;&gt;8.0:caption</title>
<path fill="none" stroke="black" d="M529,-18C529,-18 553.85,-87.93 563.56,-115.25"/>
<polygon fill="black" stroke="black" points="560.22,-116.32 566.87,-124.57 566.82,-113.98 560.22,-116.32"/>
</g>
<!-- 23.0&#45;&gt;16.0 -->
<g id="edge39" class="edge">
<title>23.0:e&#45;&gt;16.0:caption</title>
<path fill="none" stroke="black" d="M529,-18C529,-18 548.42,-47.12 558.73,-62.59"/>
<polygon fill="black" stroke="black" points="555.7,-64.36 564.16,-70.74 561.53,-60.48 555.7,-64.36"/>
</g>
<!-- 23.0&#45;&gt;24.0 -->
<g id="edge40" class="edge">
<title>23.0:e&#45;&gt;24.0:caption</title>
<path fill="none" stroke="black" d="M529,-18C529,-18 543.06,-18 553.61,-18"/>
<polygon fill="black" stroke="black" points="553.49,-21.5 563.49,-18 553.49,-14.5 553.49,-21.5"/>
</g>
<!-- 9.0 -->
<g id="node19" class="node">
<title>9.0</title>
<text text-anchor="start" x="689.13" y="-120.95" font-family="Times,serif" font-size="14.00">9.0: </text>
<polygon fill="none" stroke="black" points="715.88,-114.75 715.88,-137.25 763.13,-137.25 763.13,-114.75 715.88,-114.75"/>
<text text-anchor="start" x="718.88" y="-120.95" font-family="Courier New" font-size="14.00">T … T</text>
</g>
<!-- 8.0&#45;&gt;9.0 -->
<g id="edge41" class="edge">
<title>8.0:e&#45;&gt;9.0:caption</title>
<path fill="none" stroke="black" d="M645.34,-126C645.34,-126 662.9,-126 674.98,-126"/>
<polygon fill="black" stroke="black" points="674.61,-129.5 684.61,-126 674.61,-122.5 674.61,-129.5"/>
</g>
<!-- 17.0 -->
<g id="node20" class="node">
<title>17.0</title>
<text text-anchor="start" x="685.75" y="-66.95" font-family="Times,serif" font-size="14.00">17.0: </text>
<polygon fill="none" stroke="black" points="719.25,-60.75 719.25,-83.25 766.5,-83.25 766.5,-60.75 719.25,-60.75"/>
<text text-anchor="start" x="722.25" y="-66.95" font-family="Courier New" font-size="14.00">T … T</text>
</g>
<!-- 8.0&#45;&gt;17.0 -->
<g id="edge42" class="edge">
<title>8.0:e&#45;&gt;17.0:caption</title>
<path fill="none" stroke="black" d="M645.34,-126C645.34,-126 666.5,-96.25 677.41,-80.92"/>
<polygon fill="black" stroke="black" points="679.93,-83.41 682.87,-73.23 674.22,-79.35 679.93,-83.41"/>
</g>
<!-- 25.0 -->
<g id="node21" class="node">
<title>25.0</title>
<text text-anchor="start" x="685.75" y="-12.95" font-family="Times,serif" font-size="14.00">25.0: </text>
<polygon fill="none" stroke="black" points="719.25,-6.75 719.25,-29.25 766.5,-29.25 766.5,-6.75 719.25,-6.75"/>
<text text-anchor="start" x="722.25" y="-12.95" font-family="Courier New" font-size="14.00">T … T</text>
</g>
<!-- 8.0&#45;&gt;25.0 -->
<g id="edge43" class="edge">
<title>8.0:e&#45;&gt;25.0:caption</title>
<path fill="none" stroke="black" d="M645.34,-126C645.34,-126 670.21,-56.07 679.93,-28.75"/>
<polygon fill="black" stroke="black" points="683.19,-30.02 683.24,-19.43 676.59,-27.68 683.19,-30.02"/>
</g>
<!-- 16.0&#45;&gt;9.0 -->
<g id="edge44" class="edge">
<title>16.0:e&#45;&gt;9.0:caption</title>
<path fill="none" stroke="black" d="M647.75,-72C647.75,-72 668.89,-101.75 679.79,-117.08"/>
<polygon fill="black" stroke="black" points="676.6,-118.64 685.25,-124.77 682.31,-114.59 676.6,-118.64"/>
</g>
<!-- 16.0&#45;&gt;17.0 -->
<g id="edge45" class="edge">
<title>16.0:e&#45;&gt;17.0:caption</title>
<path fill="none" stroke="black" d="M647.75,-72C647.75,-72 661.81,-72 672.36,-72"/>
<polygon fill="black" stroke="black" points="672.24,-75.5 682.24,-72 672.24,-68.5 672.24,-75.5"/>
</g>
<!-- 16.0&#45;&gt;25.0 -->
<g id="edge46" class="edge">
<title>16.0:e&#45;&gt;25.0:caption</title>
<path fill="none" stroke="black" d="M647.75,-72C647.75,-72 667.17,-42.88 677.48,-27.41"/>
<polygon fill="black" stroke="black" points="680.28,-29.52 682.91,-19.26 674.45,-25.64 680.28,-29.52"/>
</g>
<!-- 24.0&#45;&gt;9.0 -->
<g id="edge47" class="edge">
<title>24.0:e&#45;&gt;9.0:caption</title>
<path fill="none" stroke="black" d="M647.75,-18C647.75,-18 672.6,-87.93 682.31,-115.25"/>
<polygon fill="black" stroke="black" points="678.97,-116.32 685.62,-124.57 685.57,-113.98 678.97,-116.32"/>
</g>
<!-- 24.0&#45;&gt;17.0 -->
<g id="edge48" class="edge">
<title>24.0:e&#45;&gt;17.0:caption</title>
<path fill="none" stroke="black" d="M647.75,-18C647.75,-18 667.17,-47.12 677.48,-62.59"/>
<polygon fill="black" stroke="black" points="674.45,-64.36 682.91,-70.74 680.28,-60.48 674.45,-64.36"/>
</g>
<!-- 24.0&#45;&gt;25.0 -->
<g id="edge49" class="edge">
<title>24.0:e&#45;&gt;25.0:caption</title>
<path fill="none" stroke="black" d="M647.75,-18C647.75,-18 661.81,-18 672.36,-18"/>
<polygon fill="black" stroke="black" points="672.24,-21.5 682.24,-18 672.24,-14.5 672.24,-21.5"/>
</g>
<!-- 10.0 -->
<g id="node22" class="node">
<title>10.0</title>
<text text-anchor="start" x="804.5" y="-120.95" font-family="Times,serif" font-size="14.00">10.0: </text>
<polygon fill="none" stroke="black" points="838,-114.75 838,-137.25 885.25,-137.25 885.25,-114.75 838,-114.75"/>
<text text-anchor="start" x="841" y="-120.95" font-family="Courier New" font-size="14.00">A … Q</text>
</g>
<!-- 9.0&#45;&gt;10.0 -->
<g id="edge50" class="edge">
<title>9.0:e&#45;&gt;10.0:caption</title>
<path fill="none" stroke="black" d="M764.09,-126C764.09,-126 779.85,-126 791.18,-126"/>
<polygon fill="black" stroke="black" points="790.99,-129.5 800.99,-126 790.99,-122.5 790.99,-129.5"/>
</g>
<!-- 18.0 -->
<g id="node23" class="node">
<title>18.0</title>
<text text-anchor="start" x="804.5" y="-66.95" font-family="Times,serif" font-size="14.00">18.0: </text>
<polygon fill="none" stroke="black" points="838,-60.75 838,-83.25 885.25,-83.25 885.25,-60.75 838,-60.75"/>
<text text-anchor="start" x="841" y="-66.95" font-family="Courier New" font-size="14.00">A … M</text>
</g>
<!-- 9.0&#45;&gt;18.0 -->
<g id="edge51" class="edge">
<title>9.0:e&#45;&gt;18.0:caption</title>
<path fill="none" stroke="black" d="M764.09,-126C764.09,-126 785.25,-96.25 796.16,-80.92"/>
<polygon fill="black" stroke="black" points="798.68,-83.41 801.62,-73.23 792.97,-79.35 798.68,-83.41"/>
</g>
<!-- 26.0 -->
<g id="node24" class="node">
<title>26.0</title>
<text text-anchor="start" x="804.5" y="-12.95" font-family="Times,serif" font-size="14.00">26.0: </text>
<polygon fill="none" stroke="black" points="838,-6.75 838,-29.25 885.25,-29.25 885.25,-6.75 838,-6.75"/>
<text text-anchor="start" x="841" y="-12.95" font-family="Courier New" font-size="14.00">A … M</text>
</g>
<!-- 9.0&#45;&gt;26.0 -->
<g id="edge52" class="edge">
<title>9.0:e&#45;&gt;26.0:caption</title>
<path fill="none" stroke="black" d="M764.09,-126C764.09,-126 788.96,-56.07 798.68,-28.75"/>
<polygon fill="black" stroke="black" points="801.94,-30.02 801.99,-19.43 795.34,-27.68 801.94,-30.02"/>
</g>
<!-- 17.0&#45;&gt;10.0 -->
<g id="edge53" class="edge">
<title>17.0:e&#45;&gt;10.0:caption</title>
<path fill="none" stroke="black" d="M766.5,-72C766.5,-72 785.92,-101.12 796.23,-116.59"/>
<polygon fill="black" stroke="black" points="793.2,-118.36 801.66,-124.74 799.03,-114.48 793.2,-118.36"/>
</g>
<!-- 17.0&#45;&gt;18.0 -->
<g id="edge54" class="edge">
<title>17.0:e&#45;&gt;18.0:caption</title>
<path fill="none" stroke="black" d="M766.5,-72C766.5,-72 780.56,-72 791.11,-72"/>
<polygon fill="black" stroke="black" points="790.99,-75.5 800.99,-72 790.99,-68.5 790.99,-75.5"/>
</g>
<!-- 17.0&#45;&gt;26.0 -->
<g id="edge55" class="edge">
<title>17.0:e&#45;&gt;26.0:caption</title>
<path fill="none" stroke="black" d="M766.5,-72C766.5,-72 785.92,-42.88 796.23,-27.41"/>
<polygon fill="black" stroke="black" points="799.03,-29.52 801.66,-19.26 793.2,-25.64 799.03,-29.52"/>
</g>
<!-- 25.0&#45;&gt;10.0 -->
<g id="edge56" class="edge">
<title>25.0:e&#45;&gt;10.0:caption</title>
<path fill="none" stroke="black" d="M766.5,-18C766.5,-18 789.81,-87.93 798.92,-115.25"/>
<polygon fill="black" stroke="black" points="795.54,-116.18 802.02,-124.56 802.18,-113.97 795.54,-116.18"/>
</g>
<!-- 25.0&#45;&gt;18.0 -->
<g id="edge57" class="edge">
<title>25.0:e&#45;&gt;18.0:caption</title>
<path fill="none" stroke="black" d="M766.5,-18C766.5,-18 785.92,-47.12 796.23,-62.59"/>
<polygon fill="black" stroke="black" points="793.2,-64.36 801.66,-70.74 799.03,-60.48 793.2,-64.36"/>
</g>
<!-- 25.0&#45;&gt;26.0 -->
<g id="edge58" class="edge">
<title>25.0:e&#45;&gt;26.0:caption</title>
<path fill="none" stroke="black" d="M766.5,-18C766.5,-18 780.56,-18 791.11,-18"/>
<polygon fill="black" stroke="black" points="790.99,-21.5 800.99,-18 790.99,-14.5 790.99,-21.5"/>
</g>
<!-- 11.0 -->
<g id="node25" class="node">
<title>11.0</title>
<text text-anchor="start" x="923.25" y="-120.95" font-family="Times,serif" font-size="14.00">11.0: </text>
<polygon fill="none" stroke="black" points="956.75,-114.75 956.75,-137.25 1004,-137.25 1004,-114.75 956.75,-114.75"/>
<text text-anchor="start" x="959.75" y="-120.95" font-family="Courier New" font-size="14.00">Q … G</text>
</g>
<!-- 10.0&#45;&gt;11.0 -->
<g id="edge59" class="edge">
<title>10.0:e&#45;&gt;11.0:caption</title>
<path fill="none" stroke="black" d="M885.25,-126C885.25,-126 899.31,-126 909.86,-126"/>
<polygon fill="black" stroke="black" points="909.74,-129.5 919.74,-126 909.74,-122.5 909.74,-129.5"/>
</g>
<!-- 19.0 -->
<g id="node26" class="node">
<title>19.0</title>
<text text-anchor="start" x="923.25" y="-66.95" font-family="Times,serif" font-size="14.00">19.0: </text>
<polygon fill="none" stroke="black" points="956.75,-60.75 956.75,-83.25 1004,-83.25 1004,-60.75 956.75,-60.75"/>
<text text-anchor="start" x="959.75" y="-66.95" font-family="Courier New" font-size="14.00">Q … M</text>
</g>
<!-- 10.0&#45;&gt;19.0 -->
<g id="edge60" class="edge">
<title>10.0:e&#45;&gt;19.0:caption</title>
<path fill="none" stroke="black" d="M885.25,-126C885.25,-126 904.67,-96.88 914.98,-81.41"/>
<polygon fill="black" stroke="black" points="917.78,-83.52 920.41,-73.26 911.95,-79.64 917.78,-83.52"/>
</g>
<!-- 27.0 -->
<g id="node27" class="node">
<title>27.0</title>
<text text-anchor="start" x="923.25" y="-12.95" font-family="Times,serif" font-size="14.00">27.0: </text>
<polygon fill="none" stroke="black" points="956.75,-6.75 956.75,-29.25 1004,-29.25 1004,-6.75 956.75,-6.75"/>
<text text-anchor="start" x="959.75" y="-12.95" font-family="Courier New" font-size="14.00">Q … I</text>
</g>
<!-- 10.0&#45;&gt;27.0 -->
<g id="edge61" class="edge">
<title>10.0:e&#45;&gt;27.0:caption</title>
<path fill="none" stroke="black" d="M885.25,-126C885.25,-126 908.56,-56.07 917.67,-28.75"/>
<polygon fill="black" stroke="black" points="920.93,-30.03 920.77,-19.44 914.29,-27.82 920.93,-30.03"/>
</g>
<!-- 18.0&#45;&gt;11.0 -->
<g id="edge62" class="edge">
<title>18.0:e&#45;&gt;11.0:caption</title>
<path fill="none" stroke="black" d="M885.25,-72C885.25,-72 904.67,-101.12 914.98,-116.59"/>
<polygon fill="black" stroke="black" points="911.95,-118.36 920.41,-124.74 917.78,-114.48 911.95,-118.36"/>
</g>
<!-- 18.0&#45;&gt;19.0 -->
<g id="edge63" class="edge">
<title>18.0:e&#45;&gt;19.0:caption</title>
<path fill="none" stroke="black" d="M885.25,-72C885.25,-72 899.31,-72 909.86,-72"/>
<polygon fill="black" stroke="black" points="909.74,-75.5 919.74,-72 909.74,-68.5 909.74,-75.5"/>
</g>
<!-- 18.0&#45;&gt;27.0 -->
<g id="edge64" class="edge">
<title>18.0:e&#45;&gt;27.0:caption</title>
<path fill="none" stroke="black" d="M885.25,-72C885.25,-72 904.67,-42.88 914.98,-27.41"/>
<polygon fill="black" stroke="black" points="917.78,-29.52 920.41,-19.26 911.95,-25.64 917.78,-29.52"/>
</g>
<!-- 26.0&#45;&gt;11.0 -->
<g id="edge65" class="edge">
<title>26.0:e&#45;&gt;11.0:caption</title>
<path fill="none" stroke="black" d="M885.25,-18C885.25,-18 908.56,-87.93 917.67,-115.25"/>
<polygon fill="black" stroke="black" points="914.29,-116.18 920.77,-124.56 920.93,-113.97 914.29,-116.18"/>
</g>
<!-- 26.0&#45;&gt;19.0 -->
<g id="edge66" class="edge">
<title>26.0:e&#45;&gt;19.0:caption</title>
<path fill="none" stroke="black" d="M885.25,-18C885.25,-18 904.67,-47.12 914.98,-62.59"/>
<polygon fill="black" stroke="black" points="911.95,-64.36 920.41,-70.74 917.78,-60.48 911.95,-64.36"/>
</g>
<!-- 26.0&#45;&gt;27.0 -->
<g id="edge67" class="edge">
<title>26.0:e&#45;&gt;27.0:caption</title>
<path fill="none" stroke="black" d="M885.25,-18C885.25,-18 899.31,-18 909.86,-18"/>
<polygon fill="black" stroke="black" points="909.74,-21.5 919.74,-18 909.74,-14.5 909.74,-21.5"/>
</g>
<!-- 11.0&#45;&gt;3.657 -->
<g id="edge68" class="edge">
<title>11.0:e&#45;&gt;3.657:caption</title>
<path fill="none" stroke="black" d="M1004,-126C1004,-126 1023.42,-96.88 1033.73,-81.41"/>
<polygon fill="black" stroke="black" points="1036.53,-83.52 1039.16,-73.26 1030.7,-79.64 1036.53,-83.52"/>
</g>
<!-- 19.0&#45;&gt;3.657 -->
<g id="edge69" class="edge">
<title>19.0:e&#45;&gt;3.657:caption</title>
<path fill="none" stroke="black" d="M1004,-72C1004,-72 1018.06,-72 1028.61,-72"/>
<polygon fill="black" stroke="black" points="1028.49,-75.5 1038.49,-72 1028.49,-68.5 1028.49,-75.5"/>
</g>
<!-- 27.0&#45;&gt;3.657 -->
<g id="edge70" class="edge">
<title>27.0:e&#45;&gt;3.657:caption</title>
<path fill="none" stroke="black" d="M1004,-18C1004,-18 1023.42,-47.12 1033.73,-62.59"/>
<polygon fill="black" stroke="black" points="1030.7,-64.36 1039.16,-70.74 1036.53,-60.48 1030.7,-64.36"/>
</g>
</g>
</svg>
