<?xml version="1.0" encoding="UTF-8" standalone="no"?>
<!DOCTYPE svg PUBLIC "-//W3C//DTD SVG 1.1//EN"
 "http://www.w3.org/Graphics/SVG/1.1/DTD/svg11.dtd">
<!-- Generated by graphviz version 12.1.1 (20240910.0053)
 -->
<!-- Pages: 1 -->
<svg width="1376pt" height="152pt"
 viewBox="0.00 0.00 1376.02 152.00" xmlns="http://www.w3.org/2000/svg" xmlns:xlink="http://www.w3.org/1999/xlink">
<g id="graph0" class="graph" transform="scale(1 1) rotate(0) translate(4 148)">
<polygon fill="white" stroke="none" points="-4,4 -4,-148 1372.02,-148 1372.02,4 -4,4"/>
<!-- source -->
<g id="node1" class="node">
<title>source</title>
<ellipse fill="none" stroke="black" cx="27" cy="-72" rx="27" ry="18"/>
<text text-anchor="middle" x="27" y="-66.95" font-family="Times,serif" font-size="14.00">start</text>
</g>
<!-- 4.0 -->
<g id="node2" class="node">
<title>4.0</title>
<text text-anchor="start" x="95.38" y="-120.95" font-family="Times,serif" font-size="14.00">4.0: </text>
<polygon fill="none" stroke="black" points="122.13,-114.75 122.13,-137.25 185.88,-137.25 185.88,-114.75 122.13,-114.75"/>
<text text-anchor="start" x="125.13" y="-120.95" font-family="Courier New" font-size="14.00">MTI…ACD</text>
</g>
<!-- source&#45;&gt;4.0 -->
<g id="edge1" class="edge">
<title>source:e&#45;&gt;4.0:caption</title>
<path fill="none" stroke="black" d="M54,-72C54,-72 75.14,-101.75 86.04,-117.08"/>
<polygon fill="black" stroke="black" points="82.85,-118.64 91.5,-124.77 88.56,-114.59 82.85,-118.64"/>
</g>
<!-- 12.0 -->
<g id="node3" class="node">
<title>12.0</title>
<text text-anchor="start" x="92" y="-66.95" font-family="Times,serif" font-size="14.00">12.0: </text>
<polygon fill="none" stroke="black" points="125.5,-60.75 125.5,-83.25 189.25,-83.25 189.25,-60.75 125.5,-60.75"/>
<text text-anchor="start" x="128.5" y="-66.95" font-family="Courier New" font-size="14.00">MKQ…VCD</text>
</g>
<!-- source&#45;&gt;12.0 -->
<g id="edge2" class="edge">
<title>source:e&#45;&gt;12.0:caption</title>
<path fill="none" stroke="black" d="M54,-72C54,-72 68.06,-72 78.61,-72"/>
<polygon fill="black" stroke="black" points="78.49,-75.5 88.49,-72 78.49,-68.5 78.49,-75.5"/>
</g>
<!-- 20.0 -->
<g id="node4" class="node">
<title>20.0</title>
<text text-anchor="start" x="92" y="-12.95" font-family="Times,serif" font-size="14.00">20.0: </text>
<polygon fill="none" stroke="black" points="125.5,-6.75 125.5,-29.25 189.25,-29.25 189.25,-6.75 125.5,-6.75"/>
<text text-anchor="start" x="128.5" y="-12.95" font-family="Courier New" font-size="14.00">MKE…VCD</text>
</g>
<!-- source&#45;&gt;20.0 -->
<g id="edge3" class="edge">
<title>source:e&#45;&gt;20.0:caption</title>
<path fill="none" stroke="black" d="M54,-72C54,-72 73.42,-42.88 83.73,-27.41"/>
<polygon fill="black" stroke="black" points="86.53,-29.52 89.16,-19.26 80.7,-25.64 86.53,-29.52"/>
</g>
<!-- 5.0 -->
<g id="node5" class="node">
<title>5.0</title>
<text text-anchor="start" x="230.63" y="-120.95" font-family="Times,serif" font-size="14.00">5.0: </text>
<polygon fill="none" stroke="black" points="257.38,-114.75 257.38,-137.25 321.13,-137.25 321.13,-114.75 257.38,-114.75"/>
<text text-anchor="start" x="260.38" y="-120.95" font-family="Courier New" font-size="14.00">ESR…MVD</text>
</g>
<!-- 4.0&#45;&gt;5.0 -->
<g id="edge4" class="edge">
<title>4.0:e&#45;&gt;5.0:caption</title>
<path fill="none" stroke="black" d="M186.83,-126C186.83,-126 204.4,-126 216.48,-126"/>
<polygon fill="black" stroke="black" points="216.11,-129.5 226.11,-126 216.11,-122.5 216.11,-129.5"/>
</g>
<!-- 13.0 -->
<g id="node6" class="node">
<title>13.0</title>
<text text-anchor="start" x="227.25" y="-66.95" font-family="Times,serif" font-size="14.00">13.0: </text>
<polygon fill="none" stroke="black" points="260.75,-60.75 260.75,-83.25 324.5,-83.25 324.5,-60.75 260.75,-60.75"/>
<text text-anchor="start" x="263.75" y="-66.95" font-family="Courier New" font-size="14.00">EKR…MLD</text>
</g>
<!-- 4.0&#45;&gt;13.0 -->
<g id="edge5" class="edge">
<title>4.0:e&#45;&gt;13.0:caption</title>
<path fill="none" stroke="black" d="M186.83,-126C186.83,-126 208,-96.25 218.91,-80.92"/>
<polygon fill="black" stroke="black" points="221.43,-83.41 224.37,-73.23 215.73,-79.35 221.43,-83.41"/>
</g>
<!-- 21.0 -->
<g id="node7" class="node">
<title>21.0</title>
<text text-anchor="start" x="227.25" y="-12.95" font-family="Times,serif" font-size="14.00">21.0: </text>
<polygon fill="none" stroke="black" points="260.75,-6.75 260.75,-29.25 324.5,-29.25 324.5,-6.75 260.75,-6.75"/>
<text text-anchor="start" x="263.75" y="-12.95" font-family="Courier New" font-size="14.00">EER…MVD</text>
</g>
<!-- 4.0&#45;&gt;21.0 -->
<g id="edge6" class="edge">
<title>4.0:e&#45;&gt;21.0:caption</title>
<path fill="none" stroke="black" d="M186.83,-126C186.83,-126 211.71,-56.07 221.43,-28.75"/>
<polygon fill="black" stroke="black" points="224.69,-30.02 224.74,-19.43 218.1,-27.67 224.69,-30.02"/>
</g>
<!-- 12.0&#45;&gt;5.0 -->
<g id="edge7" class="edge">
<title>12.0:e&#45;&gt;5.0:caption</title>
<path fill="none" stroke="black" d="M189.25,-72C189.25,-72 210.39,-101.75 221.29,-117.08"/>
<polygon fill="black" stroke="black" points="218.11,-118.64 226.75,-124.77 223.81,-114.59 218.11,-118.64"/>
</g>
<!-- 12.0&#45;&gt;13.0 -->
<g id="edge8" class="edge">
<title>12.0:e&#45;&gt;13.0:caption</title>
<path fill="none" stroke="black" d="M189.25,-72C189.25,-72 203.31,-72 213.86,-72"/>
<polygon fill="black" stroke="black" points="213.74,-75.5 223.74,-72 213.74,-68.5 213.74,-75.5"/>
</g>
<!-- 12.0&#45;&gt;21.0 -->
<g id="edge9" class="edge">
<title>12.0:e&#45;&gt;21.0:caption</title>
<path fill="none" stroke="black" d="M189.25,-72C189.25,-72 208.67,-42.88 218.98,-27.41"/>
<polygon fill="black" stroke="black" points="221.78,-29.52 224.41,-19.26 215.95,-25.64 221.78,-29.52"/>
</g>
<!-- 20.0&#45;&gt;5.0 -->
<g id="edge10" class="edge">
<title>20.0:e&#45;&gt;5.0:caption</title>
<path fill="none" stroke="black" d="M189.25,-18C189.25,-18 214.1,-87.93 223.81,-115.25"/>
<polygon fill="black" stroke="black" points="220.47,-116.32 227.12,-124.57 227.07,-113.98 220.47,-116.32"/>
</g>
<!-- 20.0&#45;&gt;13.0 -->
<g id="edge11" class="edge">
<title>20.0:e&#45;&gt;13.0:caption</title>
<path fill="none" stroke="black" d="M189.25,-18C189.25,-18 208.67,-47.12 218.98,-62.59"/>
<polygon fill="black" stroke="black" points="215.95,-64.36 224.41,-70.74 221.78,-60.48 215.95,-64.36"/>
</g>
<!-- 20.0&#45;&gt;21.0 -->
<g id="edge12" class="edge">
<title>20.0:e&#45;&gt;21.0:caption</title>
<path fill="none" stroke="black" d="M189.25,-18C189.25,-18 203.31,-18 213.86,-18"/>
<polygon fill="black" stroke="black" points="213.74,-21.5 223.74,-18 213.74,-14.5 213.74,-21.5"/>
</g>
<!-- 6.0 -->
<g id="node8" class="node">
<title>6.0</title>
<text text-anchor="start" x="365.88" y="-120.95" font-family="Times,serif" font-size="14.00">6.0: </text>
<polygon fill="none" stroke="black" points="392.63,-114.75 392.63,-137.25 456.38,-137.25 456.38,-114.75 392.63,-114.75"/>
<text text-anchor="start" x="395.63" y="-120.95" font-family="Courier New" font-size="14.00">IAV…NSF</text>
</g>
<!-- 5.0&#45;&gt;6.0 -->
<g id="edge13" class="edge">
<title>5.0:e&#45;&gt;6.0:caption</title>
<path fill="none" stroke="black" d="M322.08,-126C322.08,-126 339.65,-126 351.73,-126"/>
<polygon fill="black" stroke="black" points="351.37,-129.5 361.37,-126 351.37,-122.5 351.37,-129.5"/>
</g>
<!-- 14.0 -->
<g id="node9" class="node">
<title>14.0</title>
<text text-anchor="start" x="362.5" y="-66.95" font-family="Times,serif" font-size="14.00">14.0: </text>
<polygon fill="none" stroke="black" points="396,-60.75 396,-83.25 459.75,-83.25 459.75,-60.75 396,-60.75"/>
<text text-anchor="start" x="399" y="-66.95" font-family="Courier New" font-size="14.00">IAT…NSF</text>
</g>
<!-- 5.0&#45;&gt;14.0 -->
<g id="edge14" class="edge">
<title>5.0:e&#45;&gt;14.0:caption</title>
<path fill="none" stroke="black" d="M322.08,-126C322.08,-126 343.25,-96.25 354.16,-80.92"/>
<polygon fill="black" stroke="black" points="356.68,-83.41 359.63,-73.23 350.98,-79.35 356.68,-83.41"/>
</g>
<!-- 22.0 -->
<g id="node10" class="node">
<title>22.0</title>
<text text-anchor="start" x="362.5" y="-12.95" font-family="Times,serif" font-size="14.00">22.0: </text>
<polygon fill="none" stroke="black" points="396,-6.75 396,-29.25 459.75,-29.25 459.75,-6.75 396,-6.75"/>
<text text-anchor="start" x="399" y="-12.95" font-family="Courier New" font-size="14.00">IAV…NSY</text>
</g>
<!-- 5.0&#45;&gt;22.0 -->
<g id="edge15" class="edge">
<title>5.0:e&#45;&gt;22.0:caption</title>
<path fill="none" stroke="black" d="M322.08,-126C322.08,-126 346.96,-56.07 356.68,-28.75"/>
<polygon fill="black" stroke="black" points="359.94,-30.02 360,-19.43 353.35,-27.67 359.94,-30.02"/>
</g>
<!-- 13.0&#45;&gt;6.0 -->
<g id="edge16" class="edge">
<title>13.0:e&#45;&gt;6.0:caption</title>
<path fill="none" stroke="black" d="M324.5,-72C324.5,-72 345.64,-101.75 356.54,-117.08"/>
<polygon fill="black" stroke="black" points="353.36,-118.64 362,-124.77 359.06,-114.59 353.36,-118.64"/>
</g>
<!-- 13.0&#45;&gt;14.0 -->
<g id="edge17" class="edge">
<title>13.0:e&#45;&gt;14.0:caption</title>
<path fill="none" stroke="black" d="M324.5,-72C324.5,-72 338.57,-72 349.11,-72"/>
<polygon fill="black" stroke="black" points="348.99,-75.5 358.99,-72 348.99,-68.5 348.99,-75.5"/>
</g>
<!-- 13.0&#45;&gt;22.0 -->
<g id="edge18" class="edge">
<title>13.0:e&#45;&gt;22.0:caption</title>
<path fill="none" stroke="black" d="M324.5,-72C324.5,-72 343.92,-42.88 354.23,-27.41"/>
<polygon fill="black" stroke="black" points="357.03,-29.52 359.66,-19.26 351.21,-25.64 357.03,-29.52"/>
</g>
<!-- 21.0&#45;&gt;6.0 -->
<g id="edge19" class="edge">
<title>21.0:e&#45;&gt;6.0:caption</title>
<path fill="none" stroke="black" d="M324.5,-18C324.5,-18 349.35,-87.93 359.06,-115.25"/>
<polygon fill="black" stroke="black" points="355.73,-116.32 362.37,-124.57 362.32,-113.98 355.73,-116.32"/>
</g>
<!-- 21.0&#45;&gt;14.0 -->
<g id="edge20" class="edge">
<title>21.0:e&#45;&gt;14.0:caption</title>
<path fill="none" stroke="black" d="M324.5,-18C324.5,-18 343.92,-47.12 354.23,-62.59"/>
<polygon fill="black" stroke="black" points="351.21,-64.36 359.66,-70.74 357.03,-60.48 351.21,-64.36"/>
</g>
<!-- 21.0&#45;&gt;22.0 -->
<g id="edge21" class="edge">
<title>21.0:e&#45;&gt;22.0:caption</title>
<path fill="none" stroke="black" d="M324.5,-18C324.5,-18 338.57,-18 349.11,-18"/>
<polygon fill="black" stroke="black" points="348.99,-21.5 358.99,-18 348.99,-14.5 348.99,-21.5"/>
</g>
<!-- 7.0 -->
<g id="node13" class="node">
<title>7.0</title>
<text text-anchor="start" x="501.13" y="-120.95" font-family="Times,serif" font-size="14.00">7.0: </text>
<polygon fill="none" stroke="black" points="527.88,-114.75 527.88,-137.25 591.63,-137.25 591.63,-114.75 527.88,-114.75"/>
<text text-anchor="start" x="530.88" y="-120.95" font-family="Courier New" font-size="14.00">YRD…NDL</text>
</g>
<!-- 6.0&#45;&gt;7.0 -->
<g id="edge23" class="edge">
<title>6.0:e&#45;&gt;7.0:caption</title>
<path fill="none" stroke="black" d="M457.34,-126C457.34,-126 474.91,-126 486.98,-126"/>
<polygon fill="black" stroke="black" points="486.62,-129.5 496.62,-126 486.62,-122.5 486.62,-129.5"/>
</g>
<!-- 15.0 -->
<g id="node14" class="node">
<title>15.0</title>
<text text-anchor="start" x="497.76" y="-66.95" font-family="Times,serif" font-size="14.00">15.0: </text>
<polygon fill="none" stroke="black" points="531.26,-60.75 531.26,-83.25 595.01,-83.25 595.01,-60.75 531.26,-60.75"/>
<text text-anchor="start" x="534.26" y="-66.95" font-family="Courier New" font-size="14.00">YRD…NSL</text>
</g>
<!-- 6.0&#45;&gt;15.0 -->
<g id="edge24" class="edge">
<title>6.0:e&#45;&gt;15.0:caption</title>
<path fill="none" stroke="black" d="M457.34,-126C457.34,-126 478.5,-96.25 489.41,-80.92"/>
<polygon fill="black" stroke="black" points="491.93,-83.41 494.88,-73.23 486.23,-79.35 491.93,-83.41"/>
</g>
<!-- 23.0 -->
<g id="node15" class="node">
<title>23.0</title>
<text text-anchor="start" x="497.76" y="-12.95" font-family="Times,serif" font-size="14.00">23.0: </text>
<polygon fill="none" stroke="black" points="531.26,-6.75 531.26,-29.25 595.01,-29.25 595.01,-6.75 531.26,-6.75"/>
<text text-anchor="start" x="534.26" y="-12.95" font-family="Courier New" font-size="14.00">YRE…FSL</text>
</g>
<!-- 6.0&#45;&gt;23.0 -->
<g id="edge25" class="edge">
<title>6.0:e&#45;&gt;23.0:caption</title>
<path fill="none" stroke="black" d="M457.34,-126C457.34,-126 482.21,-56.07 491.93,-28.75"/>
<polygon fill="black" stroke="black" points="495.19,-30.02 495.25,-19.43 488.6,-27.67 495.19,-30.02"/>
</g>
<!-- 14.0&#45;&gt;7.0 -->
<g id="edge26" class="edge">
<title>14.0:e&#45;&gt;7.0:caption</title>
<path fill="none" stroke="black" d="M459.76,-72C459.76,-72 480.9,-101.75 491.79,-117.08"/>
<polygon fill="black" stroke="black" points="488.61,-118.64 497.26,-124.77 494.32,-114.59 488.61,-118.64"/>
</g>
<!-- 14.0&#45;&gt;15.0 -->
<g id="edge27" class="edge">
<title>14.0:e&#45;&gt;15.0:caption</title>
<path fill="none" stroke="black" d="M459.76,-72C459.76,-72 473.82,-72 484.37,-72"/>
<polygon fill="black" stroke="black" points="484.24,-75.5 494.24,-72 484.24,-68.5 484.24,-75.5"/>
</g>
<!-- 14.0&#45;&gt;23.0 -->
<g id="edge28" class="edge">
<title>14.0:e&#45;&gt;23.0:caption</title>
<path fill="none" stroke="black" d="M459.76,-72C459.76,-72 479.17,-42.88 489.49,-27.41"/>
<polygon fill="black" stroke="black" points="492.28,-29.52 494.92,-19.26 486.46,-25.64 492.28,-29.52"/>
</g>
<!-- 22.0&#45;&gt;7.0 -->
<g id="edge29" class="edge">
<title>22.0:e&#45;&gt;7.0:caption</title>
<path fill="none" stroke="black" d="M459.76,-18C459.76,-18 484.61,-87.93 494.31,-115.25"/>
<polygon fill="black" stroke="black" points="490.98,-116.32 497.63,-124.57 497.57,-113.98 490.98,-116.32"/>
</g>
<!-- 22.0&#45;&gt;15.0 -->
<g id="edge30" class="edge">
<title>22.0:e&#45;&gt;15.0:caption</title>
<path fill="none" stroke="black" d="M459.76,-18C459.76,-18 479.17,-47.12 489.49,-62.59"/>
<polygon fill="black" stroke="black" points="486.46,-64.36 494.92,-70.74 492.28,-60.48 486.46,-64.36"/>
</g>
<!-- 22.0&#45;&gt;23.0 -->
<g id="edge31" class="edge">
<title>22.0:e&#45;&gt;23.0:caption</title>
<path fill="none" stroke="black" d="M459.76,-18C459.76,-18 473.82,-18 484.37,-18"/>
<polygon fill="black" stroke="black" points="484.24,-21.5 494.24,-18 484.24,-14.5 484.24,-21.5"/>
</g>
<!-- sink -->
<g id="node11" class="node">
<title>sink</title>
<ellipse fill="none" stroke="black" cx="1341.02" cy="-72" rx="27" ry="18"/>
<text text-anchor="middle" x="1341.02" y="-66.95" font-family="Times,serif" font-size="14.00">end</text>
</g>
<!-- 3.657 -->
<g id="node12" class="node">
<title>3.657</title>
<text text-anchor="start" x="1174.02" y="-66.95" font-family="Times,serif" font-size="14.00">3.657: </text>
<polygon fill="none" stroke="black" points="1214.27,-60.75 1214.27,-83.25 1278.02,-83.25 1278.02,-60.75 1214.27,-60.75"/>
<text text-anchor="start" x="1217.27" y="-66.95" font-family="Courier New" font-size="14.00">KMH…WAG</text>
</g>
<!-- 3.657&#45;&gt;sink -->
<g id="edge22" class="edge">
<title>3.657:e&#45;&gt;sink:caption</title>
<path fill="none" stroke="black" d="M1278.02,-72C1278.02,-72 1289.5,-72 1302.58,-72"/>
<polygon fill="black" stroke="black" points="1302.21,-75.5 1312.21,-72 1302.21,-68.5 1302.21,-75.5"/>
</g>
<!-- 8.0 -->
<g id="node16" class="node">
<title>8.0</title>
<text text-anchor="start" x="636.38" y="-120.95" font-family="Times,serif" font-size="14.00">8.0: </text>
<polygon fill="none" stroke="black" points="663.13,-114.75 663.13,-137.25 726.88,-137.25 726.88,-114.75 663.13,-114.75"/>
<text text-anchor="start" x="666.13" y="-120.95" font-family="Courier New" font-size="14.00">VDK…GHE</text>
</g>
<!-- 7.0&#45;&gt;8.0 -->
<g id="edge32" class="edge">
<title>7.0:e&#45;&gt;8.0:caption</title>
<path fill="none" stroke="black" d="M592.59,-126C592.59,-126 610.16,-126 622.24,-126"/>
<polygon fill="black" stroke="black" points="621.87,-129.5 631.87,-126 621.87,-122.5 621.87,-129.5"/>
</g>
<!-- 16.0 -->
<g id="node17" class="node">
<title>16.0</title>
<text text-anchor="start" x="633.01" y="-66.95" font-family="Times,serif" font-size="14.00">16.0: </text>
<polygon fill="none" stroke="black" points="666.51,-60.75 666.51,-83.25 730.26,-83.25 730.26,-60.75 666.51,-60.75"/>
<text text-anchor="start" x="669.51" y="-66.95" font-family="Courier New" font-size="14.00">VDR…GHE</text>
</g>
<!-- 7.0&#45;&gt;16.0 -->
<g id="edge33" class="edge">
<title>7.0:e&#45;&gt;16.0:caption</title>
<path fill="none" stroke="black" d="M592.59,-126C592.59,-126 613.75,-96.25 624.66,-80.92"/>
<polygon fill="black" stroke="black" points="627.19,-83.41 630.13,-73.23 621.48,-79.35 627.19,-83.41"/>
</g>
<!-- 24.0 -->
<g id="node18" class="node">
<title>24.0</title>
<text text-anchor="start" x="633.01" y="-12.95" font-family="Times,serif" font-size="14.00">24.0: </text>
<polygon fill="none" stroke="black" points="666.51,-6.75 666.51,-29.25 730.26,-29.25 730.26,-6.75 666.51,-6.75"/>
<text text-anchor="start" x="669.51" y="-12.95" font-family="Courier New" font-size="14.00">VDS…GHE</text>
</g>
<!-- 7.0&#45;&gt;24.0 -->
<g id="edge34" class="edge">
<title>7.0:e&#45;&gt;24.0:caption</title>
<path fill="none" stroke="black" d="M592.59,-126C592.59,-126 617.47,-56.07 627.18,-28.75"/>
<polygon fill="black" stroke="black" points="630.45,-30.02 630.5,-19.43 623.85,-27.67 630.45,-30.02"/>
</g>
<!-- 15.0&#45;&gt;8.0 -->
<g id="edge35" class="edge">
<title>15.0:e&#45;&gt;8.0:caption</title>
<path fill="none" stroke="black" d="M595.01,-72C595.01,-72 616.15,-101.75 627.05,-117.08"/>
<polygon fill="black" stroke="black" points="623.86,-118.64 632.51,-124.77 629.57,-114.59 623.86,-118.64"/>
</g>
<!-- 15.0&#45;&gt;16.0 -->
<g id="edge36" class="edge">
<title>15.0:e&#45;&gt;16.0:caption</title>
<path fill="none" stroke="black" d="M595.01,-72C595.01,-72 609.07,-72 619.62,-72"/>
<polygon fill="black" stroke="black" points="619.49,-75.5 629.49,-72 619.49,-68.5 619.49,-75.5"/>
</g>
<!-- 15.0&#45;&gt;24.0 -->
<g id="edge37" class="edge">
<title>15.0:e&#45;&gt;24.0:caption</title>
<path fill="none" stroke="black" d="M595.01,-72C595.01,-72 614.42,-42.88 624.74,-27.41"/>
<polygon fill="black" stroke="black" points="627.53,-29.52 630.17,-19.26 621.71,-25.64 627.53,-29.52"/>
</g>
<!-- 23.0&#45;&gt;8.0 -->
<g id="edge38" class="edge">
<title>23.0:e&#45;&gt;8.0:caption</title>
<path fill="none" stroke="black" d="M595.01,-18C595.01,-18 619.86,-87.93 629.56,-115.25"/>
<polygon fill="black" stroke="black" points="626.23,-116.32 632.88,-124.57 632.83,-113.98 626.23,-116.32"/>
</g>
<!-- 23.0&#45;&gt;16.0 -->
<g id="edge39" class="edge">
<title>23.0:e&#45;&gt;16.0:caption</title>
<path fill="none" stroke="black" d="M595.01,-18C595.01,-18 614.42,-47.12 624.74,-62.59"/>
<polygon fill="black" stroke="black" points="621.71,-64.36 630.17,-70.74 627.53,-60.48 621.71,-64.36"/>
</g>
<!-- 23.0&#45;&gt;24.0 -->
<g id="edge40" class="edge">
<title>23.0:e&#45;&gt;24.0:caption</title>
<path fill="none" stroke="black" d="M595.01,-18C595.01,-18 609.07,-18 619.62,-18"/>
<polygon fill="black" stroke="black" points="619.49,-21.5 629.49,-18 619.49,-14.5 619.49,-21.5"/>
</g>
<!-- 9.0 -->
<g id="node19" class="node">
<title>9.0</title>
<text text-anchor="start" x="771.64" y="-120.95" font-family="Times,serif" font-size="14.00">9.0: </text>
<polygon fill="none" stroke="black" points="798.39,-114.75 798.39,-137.25 862.14,-137.25 862.14,-114.75 798.39,-114.75"/>
<text text-anchor="start" x="801.39" y="-120.95" font-family="Courier New" font-size="14.00">TTS…WPT</text>
</g>
<!-- 8.0&#45;&gt;9.0 -->
<g id="edge41" class="edge">
<title>8.0:e&#45;&gt;9.0:caption</title>
<path fill="none" stroke="black" d="M727.84,-126C727.84,-126 745.41,-126 757.49,-126"/>
<polygon fill="black" stroke="black" points="757.12,-129.5 767.12,-126 757.12,-122.5 757.12,-129.5"/>
</g>
<!-- 17.0 -->
<g id="node20" class="node">
<title>17.0</title>
<text text-anchor="start" x="768.26" y="-66.95" font-family="Times,serif" font-size="14.00">17.0: </text>
<polygon fill="none" stroke="black" points="801.76,-60.75 801.76,-83.25 865.51,-83.25 865.51,-60.75 801.76,-60.75"/>
<text text-anchor="start" x="804.76" y="-66.95" font-family="Courier New" font-size="14.00">TTS…YPT</text>
</g>
<!-- 8.0&#45;&gt;17.0 -->
<g id="edge42" class="edge">
<title>8.0:e&#45;&gt;17.0:caption</title>
<path fill="none" stroke="black" d="M727.84,-126C727.84,-126 749,-96.25 759.92,-80.92"/>
<polygon fill="black" stroke="black" points="762.44,-83.41 765.38,-73.23 756.73,-79.35 762.44,-83.41"/>
</g>
<!-- 25.0 -->
<g id="node21" class="node">
<title>25.0</title>
<text text-anchor="start" x="768.26" y="-12.95" font-family="Times,serif" font-size="14.00">25.0: </text>
<polygon fill="none" stroke="black" points="801.76,-6.75 801.76,-29.25 865.51,-29.25 865.51,-6.75 801.76,-6.75"/>
<text text-anchor="start" x="804.76" y="-12.95" font-family="Courier New" font-size="14.00">TTS…WPT</text>
</g>
<!-- 8.0&#45;&gt;25.0 -->
<g id="edge43" class="edge">
<title>8.0:e&#45;&gt;25.0:caption</title>
<path fill="none" stroke="black" d="M727.84,-126C727.84,-126 752.72,-56.07 762.44,-28.75"/>
<polygon fill="black" stroke="black" points="765.7,-30.02 765.75,-19.43 759.1,-27.67 765.7,-30.02"/>
</g>
<!-- 16.0&#45;&gt;9.0 -->
<g id="edge44" class="edge">
<title>16.0:e&#45;&gt;9.0:caption</title>
<path fill="none" stroke="black" d="M730.26,-72C730.26,-72 751.4,-101.75 762.3,-117.08"/>
<polygon fill="black" stroke="black" points="759.11,-118.64 767.76,-124.77 764.82,-114.59 759.11,-118.64"/>
</g>
<!-- 16.0&#45;&gt;17.0 -->
<g id="edge45" class="edge">
<title>16.0:e&#45;&gt;17.0:caption</title>
<path fill="none" stroke="black" d="M730.26,-72C730.26,-72 744.32,-72 754.87,-72"/>
<polygon fill="black" stroke="black" points="754.75,-75.5 764.75,-72 754.75,-68.5 754.75,-75.5"/>
</g>
<!-- 16.0&#45;&gt;25.0 -->
<g id="edge46" class="edge">
<title>16.0:e&#45;&gt;25.0:caption</title>
<path fill="none" stroke="black" d="M730.26,-72C730.26,-72 749.68,-42.88 759.99,-27.41"/>
<polygon fill="black" stroke="black" points="762.79,-29.52 765.42,-19.26 756.96,-25.64 762.79,-29.52"/>
</g>
<!-- 24.0&#45;&gt;9.0 -->
<g id="edge47" class="edge">
<title>24.0:e&#45;&gt;9.0:caption</title>
<path fill="none" stroke="black" d="M730.26,-18C730.26,-18 755.11,-87.93 764.82,-115.25"/>
<polygon fill="black" stroke="black" points="761.48,-116.32 768.13,-124.57 768.08,-113.98 761.48,-116.32"/>
</g>
<!-- 24.0&#45;&gt;17.0 -->
<g id="edge48" class="edge">
<title>24.0:e&#45;&gt;17.0:caption</title>
<path fill="none" stroke="black" d="M730.26,-18C730.26,-18 749.68,-47.12 759.99,-62.59"/>
<polygon fill="black" stroke="black" points="756.96,-64.36 765.42,-70.74 762.79,-60.48 756.96,-64.36"/>
</g>
<!-- 24.0&#45;&gt;25.0 -->
<g id="edge49" class="edge">
<title>24.0:e&#45;&gt;25.0:caption</title>
<path fill="none" stroke="black" d="M730.26,-18C730.26,-18 744.32,-18 754.87,-18"/>
<polygon fill="black" stroke="black" points="754.75,-21.5 764.75,-18 754.75,-14.5 754.75,-21.5"/>
</g>
<!-- 10.0 -->
<g id="node22" class="node">
<title>10.0</title>
<text text-anchor="start" x="903.51" y="-120.95" font-family="Times,serif" font-size="14.00">10.0: </text>
<polygon fill="none" stroke="black" points="937.01,-114.75 937.01,-137.25 1000.76,-137.25 1000.76,-114.75 937.01,-114.75"/>
<text text-anchor="start" x="940.01" y="-120.95" font-family="Courier New" font-size="14.00">APA…IGQ</text>
</g>
<!-- 9.0&#45;&gt;10.0 -->
<g id="edge50" class="edge">
<title>9.0:e&#45;&gt;10.0:caption</title>
<path fill="none" stroke="black" d="M863.09,-126C863.09,-126 878.86,-126 890.19,-126"/>
<polygon fill="black" stroke="black" points="890,-129.5 900,-126 890,-122.5 890,-129.5"/>
</g>
<!-- 18.0 -->
<g id="node23" class="node">
<title>18.0</title>
<text text-anchor="start" x="903.51" y="-66.95" font-family="Times,serif" font-size="14.00">18.0: </text>
<polygon fill="none" stroke="black" points="937.01,-60.75 937.01,-83.25 1000.76,-83.25 1000.76,-60.75 937.01,-60.75"/>
<text text-anchor="start" x="940.01" y="-66.95" font-family="Courier New" font-size="14.00">APA…IGM</text>
</g>
<!-- 9.0&#45;&gt;18.0 -->
<g id="edge51" class="edge">
<title>9.0:e&#45;&gt;18.0:caption</title>
<path fill="none" stroke="black" d="M863.09,-126C863.09,-126 884.26,-96.25 895.17,-80.92"/>
<polygon fill="black" stroke="black" points="897.69,-83.41 900.63,-73.23 891.99,-79.35 897.69,-83.41"/>
</g>
<!-- 26.0 -->
<g id="node24" class="node">
<title>26.0</title>
<text text-anchor="start" x="903.51" y="-12.95" font-family="Times,serif" font-size="14.00">26.0: </text>
<polygon fill="none" stroke="black" points="937.01,-6.75 937.01,-29.25 1000.76,-29.25 1000.76,-6.75 937.01,-6.75"/>
<text text-anchor="start" x="940.01" y="-12.95" font-family="Courier New" font-size="14.00">APA…IGM</text>
</g>
<!-- 9.0&#45;&gt;26.0 -->
<g id="edge52" class="edge">
<title>9.0:e&#45;&gt;26.0:caption</title>
<path fill="none" stroke="black" d="M863.09,-126C863.09,-126 887.97,-56.07 897.69,-28.75"/>
<polygon fill="black" stroke="black" points="900.95,-30.02 901,-19.43 894.36,-27.67 900.95,-30.02"/>
</g>
<!-- 17.0&#45;&gt;10.0 -->
<g id="edge53" class="edge">
<title>17.0:e&#45;&gt;10.0:caption</title>
<path fill="none" stroke="black" d="M865.51,-72C865.51,-72 884.93,-101.12 895.24,-116.59"/>
<polygon fill="black" stroke="black" points="892.21,-118.36 900.67,-124.74 898.04,-114.48 892.21,-118.36"/>
</g>
<!-- 17.0&#45;&gt;18.0 -->
<g id="edge54" class="edge">
<title>17.0:e&#45;&gt;18.0:caption</title>
<path fill="none" stroke="black" d="M865.51,-72C865.51,-72 879.57,-72 890.12,-72"/>
<polygon fill="black" stroke="black" points="890,-75.5 900,-72 890,-68.5 890,-75.5"/>
</g>
<!-- 17.0&#45;&gt;26.0 -->
<g id="edge55" class="edge">
<title>17.0:e&#45;&gt;26.0:caption</title>
<path fill="none" stroke="black" d="M865.51,-72C865.51,-72 884.93,-42.88 895.24,-27.41"/>
<polygon fill="black" stroke="black" points="898.04,-29.52 900.67,-19.26 892.21,-25.64 898.04,-29.52"/>
</g>
<!-- 25.0&#45;&gt;10.0 -->
<g id="edge56" class="edge">
<title>25.0:e&#45;&gt;10.0:caption</title>
<path fill="none" stroke="black" d="M865.51,-18C865.51,-18 888.82,-87.93 897.93,-115.25"/>
<polygon fill="black" stroke="black" points="894.55,-116.18 901.03,-124.56 901.19,-113.97 894.55,-116.18"/>
</g>
<!-- 25.0&#45;&gt;18.0 -->
<g id="edge57" class="edge">
<title>25.0:e&#45;&gt;18.0:caption</title>
<path fill="none" stroke="black" d="M865.51,-18C865.51,-18 884.93,-47.12 895.24,-62.59"/>
<polygon fill="black" stroke="black" points="892.21,-64.36 900.67,-70.74 898.04,-60.48 892.21,-64.36"/>
</g>
<!-- 25.0&#45;&gt;26.0 -->
<g id="edge58" class="edge">
<title>25.0:e&#45;&gt;26.0:caption</title>
<path fill="none" stroke="black" d="M865.51,-18C865.51,-18 879.57,-18 890.12,-18"/>
<polygon fill="black" stroke="black" points="890,-21.5 900,-18 890,-14.5 890,-21.5"/>
</g>
<!-- 11.0 -->
<g id="node25" class="node">
<title>11.0</title>
<text text-anchor="start" x="1038.76" y="-120.95" font-family="Times,serif" font-size="14.00">11.0: </text>
<polygon fill="none" stroke="black" points="1072.26,-114.75 1072.26,-137.25 1136.01,-137.25 1136.01,-114.75 1072.26,-114.75"/>
<text text-anchor="start" x="1075.26" y="-120.95" font-family="Courier New" font-size="14.00">QFA…WAG</text>
</g>
<!-- 10.0&#45;&gt;11.0 -->
<g id="edge59" class="edge">
<title>10.0:e&#45;&gt;11.0:caption</title>
<path fill="none" stroke="black" d="M1000.76,-126C1000.76,-126 1014.83,-126 1025.37,-126"/>
<polygon fill="black" stroke="black" points="1025.25,-129.5 1035.25,-126 1025.25,-122.5 1025.25,-129.5"/>
</g>
<!-- 19.0 -->
<g id="node26" class="node">
<title>19.0</title>
<text text-anchor="start" x="1038.76" y="-66.95" font-family="Times,serif" font-size="14.00">19.0: </text>
<polygon fill="none" stroke="black" points="1072.26,-60.75 1072.26,-83.25 1136.01,-83.25 1136.01,-60.75 1072.26,-60.75"/>
<text text-anchor="start" x="1075.26" y="-66.95" font-family="Courier New" font-size="14.00">QFA…TGM</text>
</g>
<!-- 10.0&#45;&gt;19.0 -->
<g id="edge60" class="edge">
<title>10.0:e&#45;&gt;19.0:caption</title>
<path fill="none" stroke="black" d="M1000.76,-126C1000.76,-126 1020.18,-96.88 1030.49,-81.41"/>
<polygon fill="black" stroke="black" points="1033.29,-83.52 1035.92,-73.26 1027.47,-79.64 1033.29,-83.52"/>
</g>
<!-- 27.0 -->
<g id="node27" class="node">
<title>27.0</title>
<text text-anchor="start" x="1038.76" y="-12.95" font-family="Times,serif" font-size="14.00">27.0: </text>
<polygon fill="none" stroke="black" points="1072.26,-6.75 1072.26,-29.25 1136.01,-29.25 1136.01,-6.75 1072.26,-6.75"/>
<text text-anchor="start" x="1075.26" y="-12.95" font-family="Courier New" font-size="14.00">QFA…AGI</text>
</g>
<!-- 10.0&#45;&gt;27.0 -->
<g id="edge61" class="edge">
<title>10.0:e&#45;&gt;27.0:caption</title>
<path fill="none" stroke="black" d="M1000.76,-126C1000.76,-126 1024.07,-56.07 1033.18,-28.75"/>
<polygon fill="black" stroke="black" points="1036.44,-30.03 1036.29,-19.44 1029.8,-27.82 1036.44,-30.03"/>
</g>
<!-- 18.0&#45;&gt;11.0 -->
<g id="edge62" class="edge">
<title>18.0:e&#45;&gt;11.0:caption</title>
<path fill="none" stroke="black" d="M1000.76,-72C1000.76,-72 1020.18,-101.12 1030.49,-116.59"/>
<polygon fill="black" stroke="black" points="1027.47,-118.36 1035.92,-124.74 1033.29,-114.48 1027.47,-118.36"/>
</g>
<!-- 18.0&#45;&gt;19.0 -->
<g id="edge63" class="edge">
<title>18.0:e&#45;&gt;19.0:caption</title>
<path fill="none" stroke="black" d="M1000.76,-72C1000.76,-72 1014.83,-72 1025.37,-72"/>
<polygon fill="black" stroke="black" points="1025.25,-75.5 1035.25,-72 1025.25,-68.5 1025.25,-75.5"/>
</g>
<!-- 18.0&#45;&gt;27.0 -->
<g id="edge64" class="edge">
<title>18.0:e&#45;&gt;27.0:caption</title>
<path fill="none" stroke="black" d="M1000.76,-72C1000.76,-72 1020.18,-42.88 1030.49,-27.41"/>
<polygon fill="black" stroke="black" points="1033.29,-29.52 1035.92,-19.26 1027.47,-25.64 1033.29,-29.52"/>
</g>
<!-- 26.0&#45;&gt;11.0 -->
<g id="edge65" class="edge">
<title>26.0:e&#45;&gt;11.0:caption</title>
<path fill="none" stroke="black" d="M1000.76,-18C1000.76,-18 1024.07,-87.93 1033.18,-115.25"/>
<polygon fill="black" stroke="black" points="1029.8,-116.18 1036.29,-124.56 1036.44,-113.97 1029.8,-116.18"/>
</g>
<!-- 26.0&#45;&gt;19.0 -->
<g id="edge66" class="edge">
<title>26.0:e&#45;&gt;19.0:caption</title>
<path fill="none" stroke="black" d="M1000.76,-18C1000.76,-18 1020.18,-47.12 1030.49,-62.59"/>
<polygon fill="black" stroke="black" points="1027.47,-64.36 1035.92,-70.74 1033.29,-60.48 1027.47,-64.36"/>
</g>
<!-- 26.0&#45;&gt;27.0 -->
<g id="edge67" class="edge">
<title>26.0:e&#45;&gt;27.0:caption</title>
<path fill="none" stroke="black" d="M1000.76,-18C1000.76,-18 1014.83,-18 1025.37,-18"/>
<polygon fill="black" stroke="black" points="1025.25,-21.5 1035.25,-18 1025.25,-14.5 1025.25,-21.5"/>
</g>
<!-- 11.0&#45;&gt;3.657 -->
<g id="edge68" class="edge">
<title>11.0:e&#45;&gt;3.657:caption</title>
<path fill="none" stroke="black" d="M1136.02,-126C1136.02,-126 1155.43,-96.88 1165.75,-81.41"/>
<polygon fill="black" stroke="black" points="1168.54,-83.52 1171.18,-73.26 1162.72,-79.64 1168.54,-83.52"/>
</g>
<!-- 19.0&#45;&gt;3.657 -->
<g id="edge69" class="edge">
<title>19.0:e&#45;&gt;3.657:caption</title>
<path fill="none" stroke="black" d="M1136.02,-72C1136.02,-72 1150.08,-72 1160.63,-72"/>
<polygon fill="black" stroke="black" points="1160.5,-75.5 1170.5,-72 1160.5,-68.5 1160.5,-75.5"/>
</g>
<!-- 27.0&#45;&gt;3.657 -->
<g id="edge70" class="edge">
<title>27.0:e&#45;&gt;3.657:caption</title>
<path fill="none" stroke="black" d="M1136.02,-18C1136.02,-18 1155.43,-47.12 1165.75,-62.59"/>
<polygon fill="black" stroke="black" points="1162.72,-64.36 1171.18,-70.74 1168.54,-60.48 1162.72,-64.36"/>
</g>
</g>
</svg>
