<?xml version="1.0" encoding="UTF-8" standalone="no"?>
<!DOCTYPE svg PUBLIC "-//W3C//DTD SVG 1.1//EN"
 "http://www.w3.org/Graphics/SVG/1.1/DTD/svg11.dtd">
<!-- Generated by graphviz version 12.1.1 (20240910.0053)
 -->
<!-- Pages: 1 -->
<svg width="1248pt" height="206pt"
 viewBox="0.00 0.00 1248.01 206.00" xmlns="http://www.w3.org/2000/svg" xmlns:xlink="http://www.w3.org/1999/xlink">
<g id="graph0" class="graph" transform="scale(1 1) rotate(0) translate(4 202)">
<polygon fill="white" stroke="none" points="-4,4 -4,-202 1244.01,-202 1244.01,4 -4,4"/>
<!-- source -->
<g id="node1" class="node">
<title>source</title>
<ellipse fill="none" stroke="black" cx="27" cy="-93" rx="27" ry="18"/>
<text text-anchor="middle" x="27" y="-87.95" font-family="Times,serif" font-size="14.00">start</text>
</g>
<!-- 3.0 -->
<g id="node2" class="node">
<title>3.0</title>
<text text-anchor="start" x="246.5" y="-187.9" font-family="Times,serif" font-size="8.00">0</text>
<text text-anchor="start" x="307.5" y="-187.9" font-family="Times,serif" font-size="8.00">1048</text>
<text text-anchor="start" x="232.25" y="-168.45" font-family="Times,serif" font-size="14.00">3:</text>
<polygon fill="none" stroke="black" points="244.5,-162.5 244.5,-184.5 324.5,-184.5 324.5,-162.5 244.5,-162.5"/>
<text text-anchor="start" x="247.38" y="-168.2" font-family="Courier New" font-size="14.00">MTI...WAG</text>
</g>
<!-- source&#45;&gt;3.0 -->
<g id="edge1" class="edge">
<title>source:e&#45;&gt;3.0:w</title>
<path fill="none" stroke="black" d="M54,-93C54,-93 90,-153 90,-153 90,-153 185.67,-167.06 218.56,-171.89"/>
<polygon fill="black" stroke="black" points="217.6,-175.29 228,-173.28 218.62,-168.36 217.6,-175.29"/>
</g>
<!-- 4.0 -->
<g id="node3" class="node">
<title>4.0</title>
<text text-anchor="start" x="109.5" y="-133.9" font-family="Times,serif" font-size="8.00">0</text>
<text text-anchor="start" x="178" y="-133.9" font-family="Times,serif" font-size="8.00">63</text>
<text text-anchor="start" x="95.25" y="-114.45" font-family="Times,serif" font-size="14.00">4:</text>
<polygon fill="none" stroke="black" points="107.5,-108.5 107.5,-130.5 187.5,-130.5 187.5,-108.5 107.5,-108.5"/>
<text text-anchor="start" x="110.38" y="-114.2" font-family="Courier New" font-size="14.00">MTI...ACD</text>
</g>
<!-- source&#45;&gt;4.0 -->
<g id="edge2" class="edge">
<title>source:e&#45;&gt;4.0:w</title>
<path fill="none" stroke="black" d="M54,-93C54,-93 71.79,-105.24 83.18,-113.09"/>
<polygon fill="black" stroke="black" points="81.03,-115.86 91.25,-118.64 85,-110.09 81.03,-115.86"/>
</g>
<!-- 12.0 -->
<g id="node4" class="node">
<title>12.0</title>
<text text-anchor="start" x="113" y="-79.9" font-family="Times,serif" font-size="8.00">0</text>
<text text-anchor="start" x="181.5" y="-79.9" font-family="Times,serif" font-size="8.00">64</text>
<text text-anchor="start" x="91.88" y="-60.45" font-family="Times,serif" font-size="14.00">12:</text>
<polygon fill="none" stroke="black" points="111,-54.5 111,-76.5 191,-76.5 191,-54.5 111,-54.5"/>
<text text-anchor="start" x="113.88" y="-60.2" font-family="Courier New" font-size="14.00">MKQ...VCD</text>
</g>
<!-- source&#45;&gt;12.0 -->
<g id="edge3" class="edge">
<title>source:e&#45;&gt;12.0:w</title>
<path fill="none" stroke="black" d="M54,-93C54,-93 70.25,-80.59 80.92,-72.44"/>
<polygon fill="black" stroke="black" points="82.98,-75.27 88.8,-66.42 78.73,-69.71 82.98,-75.27"/>
</g>
<!-- 20.0 -->
<g id="node5" class="node">
<title>20.0</title>
<text text-anchor="start" x="113" y="-25.9" font-family="Times,serif" font-size="8.00">0</text>
<text text-anchor="start" x="181.5" y="-25.9" font-family="Times,serif" font-size="8.00">64</text>
<text text-anchor="start" x="91.88" y="-6.45" font-family="Times,serif" font-size="14.00">20:</text>
<polygon fill="none" stroke="black" points="111,-0.5 111,-22.5 191,-22.5 191,-0.5 111,-0.5"/>
<text text-anchor="start" x="113.88" y="-6.2" font-family="Courier New" font-size="14.00">MKE...VCD</text>
</g>
<!-- source&#45;&gt;20.0 -->
<g id="edge4" class="edge">
<title>source:e&#45;&gt;20.0:w</title>
<path fill="none" stroke="black" d="M54,-93C54,-93 75.75,-43.75 85.44,-21.82"/>
<polygon fill="black" stroke="black" points="88.55,-23.45 89.39,-12.88 82.15,-20.62 88.55,-23.45"/>
</g>
<!-- sink -->
<g id="node6" class="node">
<title>sink</title>
<ellipse fill="none" stroke="black" cx="1213.01" cy="-93" rx="27" ry="18"/>
<text text-anchor="middle" x="1213.01" y="-87.95" font-family="Times,serif" font-size="14.00">end</text>
</g>
<!-- 3.0&#45;&gt;sink -->
<g id="edge5" class="edge">
<title>3.0:e&#45;&gt;sink:w</title>
<path fill="none" stroke="black" d="M325.5,-173.5C325.5,-173.5 550.51,-173 550.51,-173 550.51,-173 550.51,-173 963.51,-173 963.51,-173 1150.01,-153 1150.01,-153 1150.01,-153 1170.05,-119.6 1180.23,-102.64"/>
<polygon fill="black" stroke="black" points="1183.09,-104.67 1185.23,-94.3 1177.09,-101.07 1183.09,-104.67"/>
</g>
<!-- 5.0 -->
<g id="node7" class="node">
<title>5.0</title>
<text text-anchor="start" x="246.5" y="-133.9" font-family="Times,serif" font-size="8.00">0</text>
<text text-anchor="start" x="315" y="-133.9" font-family="Times,serif" font-size="8.00">57</text>
<text text-anchor="start" x="232.25" y="-114.45" font-family="Times,serif" font-size="14.00">5:</text>
<polygon fill="none" stroke="black" points="244.5,-108.5 244.5,-130.5 324.5,-130.5 324.5,-108.5 244.5,-108.5"/>
<text text-anchor="start" x="247.38" y="-114.2" font-family="Courier New" font-size="14.00">ESR...MVD</text>
</g>
<!-- 4.0&#45;&gt;5.0 -->
<g id="edge6" class="edge">
<title>4.0:e&#45;&gt;5.0:w</title>
<path fill="none" stroke="black" d="M188.5,-119.5C188.5,-119.5 206.16,-119.5 218.3,-119.5"/>
<polygon fill="black" stroke="black" points="217.99,-123 227.99,-119.5 217.99,-116 217.99,-123"/>
</g>
<!-- 13.0 -->
<g id="node8" class="node">
<title>13.0</title>
<text text-anchor="start" x="250" y="-79.9" font-family="Times,serif" font-size="8.00">0</text>
<text text-anchor="start" x="318.5" y="-79.9" font-family="Times,serif" font-size="8.00">57</text>
<text text-anchor="start" x="228.88" y="-60.45" font-family="Times,serif" font-size="14.00">13:</text>
<polygon fill="none" stroke="black" points="248,-54.5 248,-76.5 328,-76.5 328,-54.5 248,-54.5"/>
<text text-anchor="start" x="250.88" y="-60.2" font-family="Courier New" font-size="14.00">EKR...MLD</text>
</g>
<!-- 4.0&#45;&gt;13.0 -->
<g id="edge7" class="edge">
<title>4.0:e&#45;&gt;13.0:w</title>
<path fill="none" stroke="black" d="M188.5,-119.5C188.5,-119.5 209.71,-89.75 220.64,-74.42"/>
<polygon fill="black" stroke="black" points="223.17,-76.91 226.12,-66.73 217.47,-72.84 223.17,-76.91"/>
</g>
<!-- 21.0 -->
<g id="node9" class="node">
<title>21.0</title>
<text text-anchor="start" x="250" y="-25.9" font-family="Times,serif" font-size="8.00">0</text>
<text text-anchor="start" x="318.5" y="-25.9" font-family="Times,serif" font-size="8.00">57</text>
<text text-anchor="start" x="228.88" y="-6.45" font-family="Times,serif" font-size="14.00">21:</text>
<polygon fill="none" stroke="black" points="248,-0.5 248,-22.5 328,-22.5 328,-0.5 248,-0.5"/>
<text text-anchor="start" x="250.88" y="-6.2" font-family="Courier New" font-size="14.00">EER...MVD</text>
</g>
<!-- 4.0&#45;&gt;21.0 -->
<g id="edge8" class="edge">
<title>4.0:e&#45;&gt;21.0:w</title>
<path fill="none" stroke="black" d="M188.5,-119.5C188.5,-119.5 213.43,-49.57 223.17,-22.25"/>
<polygon fill="black" stroke="black" points="226.43,-23.52 226.49,-12.93 219.84,-21.17 226.43,-23.52"/>
</g>
<!-- 12.0&#45;&gt;5.0 -->
<g id="edge9" class="edge">
<title>12.0:e&#45;&gt;5.0:w</title>
<path fill="none" stroke="black" d="M191,-65.5C191,-65.5 212.21,-95.25 223.14,-110.58"/>
<polygon fill="black" stroke="black" points="219.97,-112.16 228.62,-118.27 225.67,-108.09 219.97,-112.16"/>
</g>
<!-- 12.0&#45;&gt;13.0 -->
<g id="edge10" class="edge">
<title>12.0:e&#45;&gt;13.0:w</title>
<path fill="none" stroke="black" d="M191,-65.5C191,-65.5 205.06,-65.5 215.61,-65.5"/>
<polygon fill="black" stroke="black" points="215.49,-69 225.49,-65.5 215.49,-62 215.49,-69"/>
</g>
<!-- 12.0&#45;&gt;21.0 -->
<g id="edge11" class="edge">
<title>12.0:e&#45;&gt;21.0:w</title>
<path fill="none" stroke="black" d="M191,-65.5C191,-65.5 210.42,-36.38 220.73,-20.91"/>
<polygon fill="black" stroke="black" points="223.53,-23.02 226.16,-12.76 217.7,-19.14 223.53,-23.02"/>
</g>
<!-- 20.0&#45;&gt;5.0 -->
<g id="edge12" class="edge">
<title>20.0:e&#45;&gt;5.0:w</title>
<path fill="none" stroke="black" d="M191,-11.5C191,-11.5 215.93,-81.43 225.67,-108.75"/>
<polygon fill="black" stroke="black" points="222.34,-109.83 228.99,-118.07 228.93,-107.48 222.34,-109.83"/>
</g>
<!-- 20.0&#45;&gt;13.0 -->
<g id="edge13" class="edge">
<title>20.0:e&#45;&gt;13.0:w</title>
<path fill="none" stroke="black" d="M191,-11.5C191,-11.5 210.42,-40.62 220.73,-56.09"/>
<polygon fill="black" stroke="black" points="217.7,-57.86 226.16,-64.24 223.53,-53.98 217.7,-57.86"/>
</g>
<!-- 20.0&#45;&gt;21.0 -->
<g id="edge14" class="edge">
<title>20.0:e&#45;&gt;21.0:w</title>
<path fill="none" stroke="black" d="M191,-11.5C191,-11.5 205.06,-11.5 215.61,-11.5"/>
<polygon fill="black" stroke="black" points="215.49,-15 225.49,-11.5 215.49,-8 215.49,-15"/>
</g>
<!-- 6.0 -->
<g id="node10" class="node">
<title>6.0</title>
<text text-anchor="start" x="383.5" y="-133.9" font-family="Times,serif" font-size="8.00">0</text>
<text text-anchor="start" x="452" y="-133.9" font-family="Times,serif" font-size="8.00">43</text>
<text text-anchor="start" x="369.25" y="-114.45" font-family="Times,serif" font-size="14.00">6:</text>
<polygon fill="none" stroke="black" points="381.5,-108.5 381.5,-130.5 461.5,-130.5 461.5,-108.5 381.5,-108.5"/>
<text text-anchor="start" x="384.38" y="-114.2" font-family="Courier New" font-size="14.00">IAV...NSF</text>
</g>
<!-- 5.0&#45;&gt;6.0 -->
<g id="edge15" class="edge">
<title>5.0:e&#45;&gt;6.0:w</title>
<path fill="none" stroke="black" d="M325.5,-119.5C325.5,-119.5 343.16,-119.5 355.3,-119.5"/>
<polygon fill="black" stroke="black" points="354.99,-123 364.99,-119.5 354.99,-116 354.99,-123"/>
</g>
<!-- 14.0 -->
<g id="node11" class="node">
<title>14.0</title>
<text text-anchor="start" x="387" y="-79.9" font-family="Times,serif" font-size="8.00">0</text>
<text text-anchor="start" x="455.5" y="-79.9" font-family="Times,serif" font-size="8.00">43</text>
<text text-anchor="start" x="365.88" y="-60.45" font-family="Times,serif" font-size="14.00">14:</text>
<polygon fill="none" stroke="black" points="385,-54.5 385,-76.5 465,-76.5 465,-54.5 385,-54.5"/>
<text text-anchor="start" x="387.88" y="-60.2" font-family="Courier New" font-size="14.00">IAT...NSF</text>
</g>
<!-- 5.0&#45;&gt;14.0 -->
<g id="edge16" class="edge">
<title>5.0:e&#45;&gt;14.0:w</title>
<path fill="none" stroke="black" d="M325.5,-119.5C325.5,-119.5 346.71,-89.75 357.65,-74.42"/>
<polygon fill="black" stroke="black" points="360.17,-76.91 363.12,-66.73 354.47,-72.84 360.17,-76.91"/>
</g>
<!-- 22.0 -->
<g id="node12" class="node">
<title>22.0</title>
<text text-anchor="start" x="387" y="-25.9" font-family="Times,serif" font-size="8.00">0</text>
<text text-anchor="start" x="455.5" y="-25.9" font-family="Times,serif" font-size="8.00">43</text>
<text text-anchor="start" x="365.88" y="-6.45" font-family="Times,serif" font-size="14.00">22:</text>
<polygon fill="none" stroke="black" points="385,-0.5 385,-22.5 465,-22.5 465,-0.5 385,-0.5"/>
<text text-anchor="start" x="387.88" y="-6.2" font-family="Courier New" font-size="14.00">IAV...NSY</text>
</g>
<!-- 5.0&#45;&gt;22.0 -->
<g id="edge17" class="edge">
<title>5.0:e&#45;&gt;22.0:w</title>
<path fill="none" stroke="black" d="M325.5,-119.5C325.5,-119.5 350.43,-49.57 360.17,-22.25"/>
<polygon fill="black" stroke="black" points="363.43,-23.52 363.49,-12.93 356.84,-21.17 363.43,-23.52"/>
</g>
<!-- 13.0&#45;&gt;6.0 -->
<g id="edge18" class="edge">
<title>13.0:e&#45;&gt;6.0:w</title>
<path fill="none" stroke="black" d="M328,-65.5C328,-65.5 349.21,-95.25 360.15,-110.58"/>
<polygon fill="black" stroke="black" points="356.97,-112.16 365.63,-118.27 362.67,-108.09 356.97,-112.16"/>
</g>
<!-- 13.0&#45;&gt;14.0 -->
<g id="edge19" class="edge">
<title>13.0:e&#45;&gt;14.0:w</title>
<path fill="none" stroke="black" d="M328,-65.5C328,-65.5 342.07,-65.5 352.61,-65.5"/>
<polygon fill="black" stroke="black" points="352.49,-69 362.49,-65.5 352.49,-62 352.49,-69"/>
</g>
<!-- 13.0&#45;&gt;22.0 -->
<g id="edge20" class="edge">
<title>13.0:e&#45;&gt;22.0:w</title>
<path fill="none" stroke="black" d="M328,-65.5C328,-65.5 347.42,-36.38 357.73,-20.91"/>
<polygon fill="black" stroke="black" points="360.53,-23.02 363.16,-12.76 354.7,-19.14 360.53,-23.02"/>
</g>
<!-- 21.0&#45;&gt;6.0 -->
<g id="edge21" class="edge">
<title>21.0:e&#45;&gt;6.0:w</title>
<path fill="none" stroke="black" d="M328,-11.5C328,-11.5 352.93,-81.43 362.67,-108.75"/>
<polygon fill="black" stroke="black" points="359.34,-109.83 366,-118.07 365.93,-107.48 359.34,-109.83"/>
</g>
<!-- 21.0&#45;&gt;14.0 -->
<g id="edge22" class="edge">
<title>21.0:e&#45;&gt;14.0:w</title>
<path fill="none" stroke="black" d="M328,-11.5C328,-11.5 347.42,-40.62 357.73,-56.09"/>
<polygon fill="black" stroke="black" points="354.7,-57.86 363.16,-64.24 360.53,-53.98 354.7,-57.86"/>
</g>
<!-- 21.0&#45;&gt;22.0 -->
<g id="edge23" class="edge">
<title>21.0:e&#45;&gt;22.0:w</title>
<path fill="none" stroke="black" d="M328,-11.5C328,-11.5 342.07,-11.5 352.61,-11.5"/>
<polygon fill="black" stroke="black" points="352.49,-15 362.49,-11.5 352.49,-8 352.49,-15"/>
</g>
<!-- 7.0 -->
<g id="node13" class="node">
<title>7.0</title>
<text text-anchor="start" x="520.51" y="-133.9" font-family="Times,serif" font-size="8.00">0</text>
<text text-anchor="start" x="589.01" y="-133.9" font-family="Times,serif" font-size="8.00">49</text>
<text text-anchor="start" x="506.26" y="-114.45" font-family="Times,serif" font-size="14.00">7:</text>
<polygon fill="none" stroke="black" points="518.51,-108.5 518.51,-130.5 598.51,-130.5 598.51,-108.5 518.51,-108.5"/>
<text text-anchor="start" x="521.38" y="-114.2" font-family="Courier New" font-size="14.00">YRD...NDL</text>
</g>
<!-- 6.0&#45;&gt;7.0 -->
<g id="edge24" class="edge">
<title>6.0:e&#45;&gt;7.0:w</title>
<path fill="none" stroke="black" d="M462.5,-119.5C462.5,-119.5 480.16,-119.5 492.3,-119.5"/>
<polygon fill="black" stroke="black" points="491.99,-123 501.99,-119.5 491.99,-116 491.99,-123"/>
</g>
<!-- 15.0 -->
<g id="node14" class="node">
<title>15.0</title>
<text text-anchor="start" x="524.01" y="-79.9" font-family="Times,serif" font-size="8.00">0</text>
<text text-anchor="start" x="592.51" y="-79.9" font-family="Times,serif" font-size="8.00">49</text>
<text text-anchor="start" x="502.88" y="-60.45" font-family="Times,serif" font-size="14.00">15:</text>
<polygon fill="none" stroke="black" points="522.01,-54.5 522.01,-76.5 602.01,-76.5 602.01,-54.5 522.01,-54.5"/>
<text text-anchor="start" x="524.88" y="-60.2" font-family="Courier New" font-size="14.00">YRD...NSL</text>
</g>
<!-- 6.0&#45;&gt;15.0 -->
<g id="edge25" class="edge">
<title>6.0:e&#45;&gt;15.0:w</title>
<path fill="none" stroke="black" d="M462.5,-119.5C462.5,-119.5 483.71,-89.75 494.65,-74.42"/>
<polygon fill="black" stroke="black" points="497.17,-76.91 500.13,-66.73 491.47,-72.84 497.17,-76.91"/>
</g>
<!-- 23.0 -->
<g id="node15" class="node">
<title>23.0</title>
<text text-anchor="start" x="524.01" y="-25.9" font-family="Times,serif" font-size="8.00">0</text>
<text text-anchor="start" x="592.51" y="-25.9" font-family="Times,serif" font-size="8.00">49</text>
<text text-anchor="start" x="502.88" y="-6.45" font-family="Times,serif" font-size="14.00">23:</text>
<polygon fill="none" stroke="black" points="522.01,-0.5 522.01,-22.5 602.01,-22.5 602.01,-0.5 522.01,-0.5"/>
<text text-anchor="start" x="524.88" y="-6.2" font-family="Courier New" font-size="14.00">YRE...FSL</text>
</g>
<!-- 6.0&#45;&gt;23.0 -->
<g id="edge26" class="edge">
<title>6.0:e&#45;&gt;23.0:w</title>
<path fill="none" stroke="black" d="M462.5,-119.5C462.5,-119.5 487.43,-49.57 497.17,-22.25"/>
<polygon fill="black" stroke="black" points="500.44,-23.52 500.5,-12.93 493.84,-21.17 500.44,-23.52"/>
</g>
<!-- 14.0&#45;&gt;7.0 -->
<g id="edge27" class="edge">
<title>14.0:e&#45;&gt;7.0:w</title>
<path fill="none" stroke="black" d="M465,-65.5C465,-65.5 486.21,-95.25 497.15,-110.58"/>
<polygon fill="black" stroke="black" points="493.97,-112.16 502.63,-118.27 499.67,-108.09 493.97,-112.16"/>
</g>
<!-- 14.0&#45;&gt;15.0 -->
<g id="edge28" class="edge">
<title>14.0:e&#45;&gt;15.0:w</title>
<path fill="none" stroke="black" d="M465,-65.5C465,-65.5 479.07,-65.5 489.61,-65.5"/>
<polygon fill="black" stroke="black" points="489.49,-69 499.49,-65.5 489.49,-62 489.49,-69"/>
</g>
<!-- 14.0&#45;&gt;23.0 -->
<g id="edge29" class="edge">
<title>14.0:e&#45;&gt;23.0:w</title>
<path fill="none" stroke="black" d="M465,-65.5C465,-65.5 484.42,-36.38 494.73,-20.91"/>
<polygon fill="black" stroke="black" points="497.53,-23.02 500.17,-12.76 491.71,-19.14 497.53,-23.02"/>
</g>
<!-- 22.0&#45;&gt;7.0 -->
<g id="edge30" class="edge">
<title>22.0:e&#45;&gt;7.0:w</title>
<path fill="none" stroke="black" d="M465,-11.5C465,-11.5 489.93,-81.43 499.67,-108.75"/>
<polygon fill="black" stroke="black" points="496.34,-109.83 503,-118.07 502.94,-107.48 496.34,-109.83"/>
</g>
<!-- 22.0&#45;&gt;15.0 -->
<g id="edge31" class="edge">
<title>22.0:e&#45;&gt;15.0:w</title>
<path fill="none" stroke="black" d="M465,-11.5C465,-11.5 484.42,-40.62 494.73,-56.09"/>
<polygon fill="black" stroke="black" points="491.71,-57.86 500.17,-64.24 497.53,-53.98 491.71,-57.86"/>
</g>
<!-- 22.0&#45;&gt;23.0 -->
<g id="edge32" class="edge">
<title>22.0:e&#45;&gt;23.0:w</title>
<path fill="none" stroke="black" d="M465,-11.5C465,-11.5 479.07,-11.5 489.61,-11.5"/>
<polygon fill="black" stroke="black" points="489.49,-15 499.49,-11.5 489.49,-8 489.49,-15"/>
</g>
<!-- 8.0 -->
<g id="node16" class="node">
<title>8.0</title>
<text text-anchor="start" x="657.51" y="-133.9" font-family="Times,serif" font-size="8.00">0</text>
<text text-anchor="start" x="726.01" y="-133.9" font-family="Times,serif" font-size="8.00">51</text>
<text text-anchor="start" x="643.26" y="-114.45" font-family="Times,serif" font-size="14.00">8:</text>
<polygon fill="none" stroke="black" points="655.51,-108.5 655.51,-130.5 735.51,-130.5 735.51,-108.5 655.51,-108.5"/>
<text text-anchor="start" x="658.38" y="-114.2" font-family="Courier New" font-size="14.00">VDK...GHE</text>
</g>
<!-- 7.0&#45;&gt;8.0 -->
<g id="edge33" class="edge">
<title>7.0:e&#45;&gt;8.0:w</title>
<path fill="none" stroke="black" d="M599.51,-119.5C599.51,-119.5 617.16,-119.5 629.3,-119.5"/>
<polygon fill="black" stroke="black" points="628.99,-123 638.99,-119.5 628.99,-116 628.99,-123"/>
</g>
<!-- 16.0 -->
<g id="node17" class="node">
<title>16.0</title>
<text text-anchor="start" x="661.01" y="-79.9" font-family="Times,serif" font-size="8.00">0</text>
<text text-anchor="start" x="729.51" y="-79.9" font-family="Times,serif" font-size="8.00">52</text>
<text text-anchor="start" x="639.88" y="-60.45" font-family="Times,serif" font-size="14.00">16:</text>
<polygon fill="none" stroke="black" points="659.01,-54.5 659.01,-76.5 739.01,-76.5 739.01,-54.5 659.01,-54.5"/>
<text text-anchor="start" x="661.88" y="-60.2" font-family="Courier New" font-size="14.00">VDR...GHE</text>
</g>
<!-- 7.0&#45;&gt;16.0 -->
<g id="edge34" class="edge">
<title>7.0:e&#45;&gt;16.0:w</title>
<path fill="none" stroke="black" d="M599.51,-119.5C599.51,-119.5 620.71,-89.75 631.65,-74.42"/>
<polygon fill="black" stroke="black" points="634.17,-76.91 637.13,-66.73 628.47,-72.84 634.17,-76.91"/>
</g>
<!-- 24.0 -->
<g id="node18" class="node">
<title>24.0</title>
<text text-anchor="start" x="661.01" y="-25.9" font-family="Times,serif" font-size="8.00">0</text>
<text text-anchor="start" x="729.51" y="-25.9" font-family="Times,serif" font-size="8.00">52</text>
<text text-anchor="start" x="639.88" y="-6.45" font-family="Times,serif" font-size="14.00">24:</text>
<polygon fill="none" stroke="black" points="659.01,-0.5 659.01,-22.5 739.01,-22.5 739.01,-0.5 659.01,-0.5"/>
<text text-anchor="start" x="661.88" y="-6.2" font-family="Courier New" font-size="14.00">VDS...GHE</text>
</g>
<!-- 7.0&#45;&gt;24.0 -->
<g id="edge35" class="edge">
<title>7.0:e&#45;&gt;24.0:w</title>
<path fill="none" stroke="black" d="M599.51,-119.5C599.51,-119.5 624.44,-49.57 634.17,-22.25"/>
<polygon fill="black" stroke="black" points="637.44,-23.52 637.5,-12.93 630.84,-21.17 637.44,-23.52"/>
</g>
<!-- 15.0&#45;&gt;8.0 -->
<g id="edge36" class="edge">
<title>15.0:e&#45;&gt;8.0:w</title>
<path fill="none" stroke="black" d="M602.01,-65.5C602.01,-65.5 623.21,-95.25 634.15,-110.58"/>
<polygon fill="black" stroke="black" points="630.97,-112.16 639.63,-118.27 636.67,-108.09 630.97,-112.16"/>
</g>
<!-- 15.0&#45;&gt;16.0 -->
<g id="edge37" class="edge">
<title>15.0:e&#45;&gt;16.0:w</title>
<path fill="none" stroke="black" d="M602.01,-65.5C602.01,-65.5 616.07,-65.5 626.62,-65.5"/>
<polygon fill="black" stroke="black" points="626.49,-69 636.49,-65.5 626.49,-62 626.49,-69"/>
</g>
<!-- 15.0&#45;&gt;24.0 -->
<g id="edge38" class="edge">
<title>15.0:e&#45;&gt;24.0:w</title>
<path fill="none" stroke="black" d="M602.01,-65.5C602.01,-65.5 621.42,-36.38 631.74,-20.91"/>
<polygon fill="black" stroke="black" points="634.53,-23.02 637.17,-12.76 628.71,-19.14 634.53,-23.02"/>
</g>
<!-- 23.0&#45;&gt;8.0 -->
<g id="edge39" class="edge">
<title>23.0:e&#45;&gt;8.0:w</title>
<path fill="none" stroke="black" d="M602.01,-11.5C602.01,-11.5 626.94,-81.43 636.67,-108.75"/>
<polygon fill="black" stroke="black" points="633.34,-109.83 640,-118.07 639.94,-107.48 633.34,-109.83"/>
</g>
<!-- 23.0&#45;&gt;16.0 -->
<g id="edge40" class="edge">
<title>23.0:e&#45;&gt;16.0:w</title>
<path fill="none" stroke="black" d="M602.01,-11.5C602.01,-11.5 621.42,-40.62 631.74,-56.09"/>
<polygon fill="black" stroke="black" points="628.71,-57.86 637.17,-64.24 634.53,-53.98 628.71,-57.86"/>
</g>
<!-- 23.0&#45;&gt;24.0 -->
<g id="edge41" class="edge">
<title>23.0:e&#45;&gt;24.0:w</title>
<path fill="none" stroke="black" d="M602.01,-11.5C602.01,-11.5 616.07,-11.5 626.62,-11.5"/>
<polygon fill="black" stroke="black" points="626.49,-15 636.49,-11.5 626.49,-8 626.49,-15"/>
</g>
<!-- 9.0 -->
<g id="node19" class="node">
<title>9.0</title>
<text text-anchor="start" x="794.51" y="-133.9" font-family="Times,serif" font-size="8.00">0</text>
<text text-anchor="start" x="863.01" y="-133.9" font-family="Times,serif" font-size="8.00">59</text>
<text text-anchor="start" x="780.26" y="-114.45" font-family="Times,serif" font-size="14.00">9:</text>
<polygon fill="none" stroke="black" points="792.51,-108.5 792.51,-130.5 872.51,-130.5 872.51,-108.5 792.51,-108.5"/>
<text text-anchor="start" x="795.38" y="-114.2" font-family="Courier New" font-size="14.00">TTS...WPT</text>
</g>
<!-- 8.0&#45;&gt;9.0 -->
<g id="edge42" class="edge">
<title>8.0:e&#45;&gt;9.0:w</title>
<path fill="none" stroke="black" d="M736.51,-119.5C736.51,-119.5 754.17,-119.5 766.3,-119.5"/>
<polygon fill="black" stroke="black" points="766,-123 776,-119.5 766,-116 766,-123"/>
</g>
<!-- 17.0 -->
<g id="node20" class="node">
<title>17.0</title>
<text text-anchor="start" x="798.01" y="-79.9" font-family="Times,serif" font-size="8.00">0</text>
<text text-anchor="start" x="866.51" y="-79.9" font-family="Times,serif" font-size="8.00">59</text>
<text text-anchor="start" x="776.88" y="-60.45" font-family="Times,serif" font-size="14.00">17:</text>
<polygon fill="none" stroke="black" points="796.01,-54.5 796.01,-76.5 876.01,-76.5 876.01,-54.5 796.01,-54.5"/>
<text text-anchor="start" x="798.88" y="-60.2" font-family="Courier New" font-size="14.00">TTS...YPT</text>
</g>
<!-- 8.0&#45;&gt;17.0 -->
<g id="edge43" class="edge">
<title>8.0:e&#45;&gt;17.0:w</title>
<path fill="none" stroke="black" d="M736.51,-119.5C736.51,-119.5 757.72,-89.75 768.65,-74.42"/>
<polygon fill="black" stroke="black" points="771.17,-76.91 774.13,-66.73 765.47,-72.84 771.17,-76.91"/>
</g>
<!-- 25.0 -->
<g id="node21" class="node">
<title>25.0</title>
<text text-anchor="start" x="798.01" y="-25.9" font-family="Times,serif" font-size="8.00">0</text>
<text text-anchor="start" x="866.51" y="-25.9" font-family="Times,serif" font-size="8.00">59</text>
<text text-anchor="start" x="776.88" y="-6.45" font-family="Times,serif" font-size="14.00">25:</text>
<polygon fill="none" stroke="black" points="796.01,-0.5 796.01,-22.5 876.01,-22.5 876.01,-0.5 796.01,-0.5"/>
<text text-anchor="start" x="798.88" y="-6.2" font-family="Courier New" font-size="14.00">TTS...WPT</text>
</g>
<!-- 8.0&#45;&gt;25.0 -->
<g id="edge44" class="edge">
<title>8.0:e&#45;&gt;25.0:w</title>
<path fill="none" stroke="black" d="M736.51,-119.5C736.51,-119.5 761.44,-49.57 771.18,-22.25"/>
<polygon fill="black" stroke="black" points="774.44,-23.52 774.5,-12.93 767.85,-21.17 774.44,-23.52"/>
</g>
<!-- 16.0&#45;&gt;9.0 -->
<g id="edge45" class="edge">
<title>16.0:e&#45;&gt;9.0:w</title>
<path fill="none" stroke="black" d="M739.01,-65.5C739.01,-65.5 760.22,-95.25 771.15,-110.58"/>
<polygon fill="black" stroke="black" points="767.97,-112.16 776.63,-118.27 773.67,-108.09 767.97,-112.16"/>
</g>
<!-- 16.0&#45;&gt;17.0 -->
<g id="edge46" class="edge">
<title>16.0:e&#45;&gt;17.0:w</title>
<path fill="none" stroke="black" d="M739.01,-65.5C739.01,-65.5 753.07,-65.5 763.62,-65.5"/>
<polygon fill="black" stroke="black" points="763.49,-69 773.49,-65.5 763.49,-62 763.49,-69"/>
</g>
<!-- 16.0&#45;&gt;25.0 -->
<g id="edge47" class="edge">
<title>16.0:e&#45;&gt;25.0:w</title>
<path fill="none" stroke="black" d="M739.01,-65.5C739.01,-65.5 758.42,-36.38 768.74,-20.91"/>
<polygon fill="black" stroke="black" points="771.53,-23.02 774.17,-12.76 765.71,-19.14 771.53,-23.02"/>
</g>
<!-- 24.0&#45;&gt;9.0 -->
<g id="edge48" class="edge">
<title>24.0:e&#45;&gt;9.0:w</title>
<path fill="none" stroke="black" d="M739.01,-11.5C739.01,-11.5 763.94,-81.43 773.68,-108.75"/>
<polygon fill="black" stroke="black" points="770.35,-109.83 777,-118.07 776.94,-107.48 770.35,-109.83"/>
</g>
<!-- 24.0&#45;&gt;17.0 -->
<g id="edge49" class="edge">
<title>24.0:e&#45;&gt;17.0:w</title>
<path fill="none" stroke="black" d="M739.01,-11.5C739.01,-11.5 758.42,-40.62 768.74,-56.09"/>
<polygon fill="black" stroke="black" points="765.71,-57.86 774.17,-64.24 771.53,-53.98 765.71,-57.86"/>
</g>
<!-- 24.0&#45;&gt;25.0 -->
<g id="edge50" class="edge">
<title>24.0:e&#45;&gt;25.0:w</title>
<path fill="none" stroke="black" d="M739.01,-11.5C739.01,-11.5 753.07,-11.5 763.62,-11.5"/>
<polygon fill="black" stroke="black" points="763.49,-15 773.49,-11.5 763.49,-8 763.49,-15"/>
</g>
<!-- 10.0 -->
<g id="node22" class="node">
<title>10.0</title>
<text text-anchor="start" x="935.01" y="-133.9" font-family="Times,serif" font-size="8.00">0</text>
<text text-anchor="start" x="1003.51" y="-133.9" font-family="Times,serif" font-size="8.00">75</text>
<text text-anchor="start" x="913.89" y="-114.45" font-family="Times,serif" font-size="14.00">10:</text>
<polygon fill="none" stroke="black" points="933.01,-108.5 933.01,-130.5 1013.01,-130.5 1013.01,-108.5 933.01,-108.5"/>
<text text-anchor="start" x="935.89" y="-114.2" font-family="Courier New" font-size="14.00">APA...IGQ</text>
</g>
<!-- 9.0&#45;&gt;10.0 -->
<g id="edge51" class="edge">
<title>9.0:e&#45;&gt;10.0:w</title>
<path fill="none" stroke="black" d="M873.51,-119.5C873.51,-119.5 889.31,-119.5 900.67,-119.5"/>
<polygon fill="black" stroke="black" points="900.5,-123 910.5,-119.5 900.5,-116 900.5,-123"/>
</g>
<!-- 18.0 -->
<g id="node23" class="node">
<title>18.0</title>
<text text-anchor="start" x="935.01" y="-79.9" font-family="Times,serif" font-size="8.00">0</text>
<text text-anchor="start" x="1003.51" y="-79.9" font-family="Times,serif" font-size="8.00">75</text>
<text text-anchor="start" x="913.89" y="-60.45" font-family="Times,serif" font-size="14.00">18:</text>
<polygon fill="none" stroke="black" points="933.01,-54.5 933.01,-76.5 1013.01,-76.5 1013.01,-54.5 933.01,-54.5"/>
<text text-anchor="start" x="935.89" y="-60.2" font-family="Courier New" font-size="14.00">APA...IGM</text>
</g>
<!-- 9.0&#45;&gt;18.0 -->
<g id="edge52" class="edge">
<title>9.0:e&#45;&gt;18.0:w</title>
<path fill="none" stroke="black" d="M873.51,-119.5C873.51,-119.5 894.72,-89.75 905.65,-74.42"/>
<polygon fill="black" stroke="black" points="908.18,-76.91 911.13,-66.73 902.48,-72.84 908.18,-76.91"/>
</g>
<!-- 26.0 -->
<g id="node24" class="node">
<title>26.0</title>
<text text-anchor="start" x="935.01" y="-25.9" font-family="Times,serif" font-size="8.00">0</text>
<text text-anchor="start" x="1003.51" y="-25.9" font-family="Times,serif" font-size="8.00">75</text>
<text text-anchor="start" x="913.89" y="-6.45" font-family="Times,serif" font-size="14.00">26:</text>
<polygon fill="none" stroke="black" points="933.01,-0.5 933.01,-22.5 1013.01,-22.5 1013.01,-0.5 933.01,-0.5"/>
<text text-anchor="start" x="935.89" y="-6.2" font-family="Courier New" font-size="14.00">APA...IGM</text>
</g>
<!-- 9.0&#45;&gt;26.0 -->
<g id="edge53" class="edge">
<title>9.0:e&#45;&gt;26.0:w</title>
<path fill="none" stroke="black" d="M873.51,-119.5C873.51,-119.5 898.44,-49.57 908.18,-22.25"/>
<polygon fill="black" stroke="black" points="911.44,-23.52 911.5,-12.93 904.85,-21.17 911.44,-23.52"/>
</g>
<!-- 17.0&#45;&gt;10.0 -->
<g id="edge54" class="edge">
<title>17.0:e&#45;&gt;10.0:w</title>
<path fill="none" stroke="black" d="M876.01,-65.5C876.01,-65.5 895.42,-94.62 905.74,-110.09"/>
<polygon fill="black" stroke="black" points="902.71,-111.86 911.17,-118.24 908.54,-107.98 902.71,-111.86"/>
</g>
<!-- 17.0&#45;&gt;18.0 -->
<g id="edge55" class="edge">
<title>17.0:e&#45;&gt;18.0:w</title>
<path fill="none" stroke="black" d="M876.01,-65.5C876.01,-65.5 890.07,-65.5 900.62,-65.5"/>
<polygon fill="black" stroke="black" points="900.5,-69 910.5,-65.5 900.5,-62 900.5,-69"/>
</g>
<!-- 17.0&#45;&gt;26.0 -->
<g id="edge56" class="edge">
<title>17.0:e&#45;&gt;26.0:w</title>
<path fill="none" stroke="black" d="M876.01,-65.5C876.01,-65.5 895.42,-36.38 905.74,-20.91"/>
<polygon fill="black" stroke="black" points="908.54,-23.02 911.17,-12.76 902.71,-19.14 908.54,-23.02"/>
</g>
<!-- 25.0&#45;&gt;10.0 -->
<g id="edge57" class="edge">
<title>25.0:e&#45;&gt;10.0:w</title>
<path fill="none" stroke="black" d="M876.01,-11.5C876.01,-11.5 899.32,-81.43 908.43,-108.75"/>
<polygon fill="black" stroke="black" points="905.05,-109.68 911.53,-118.06 911.69,-107.47 905.05,-109.68"/>
</g>
<!-- 25.0&#45;&gt;18.0 -->
<g id="edge58" class="edge">
<title>25.0:e&#45;&gt;18.0:w</title>
<path fill="none" stroke="black" d="M876.01,-11.5C876.01,-11.5 895.42,-40.62 905.74,-56.09"/>
<polygon fill="black" stroke="black" points="902.71,-57.86 911.17,-64.24 908.54,-53.98 902.71,-57.86"/>
</g>
<!-- 25.0&#45;&gt;26.0 -->
<g id="edge59" class="edge">
<title>25.0:e&#45;&gt;26.0:w</title>
<path fill="none" stroke="black" d="M876.01,-11.5C876.01,-11.5 890.07,-11.5 900.62,-11.5"/>
<polygon fill="black" stroke="black" points="900.5,-15 910.5,-11.5 900.5,-8 900.5,-15"/>
</g>
<!-- 11.0 -->
<g id="node25" class="node">
<title>11.0</title>
<text text-anchor="start" x="1072.01" y="-133.9" font-family="Times,serif" font-size="8.00">0</text>
<text text-anchor="start" x="1136.76" y="-133.9" font-family="Times,serif" font-size="8.00">644</text>
<text text-anchor="start" x="1050.89" y="-114.45" font-family="Times,serif" font-size="14.00">11:</text>
<polygon fill="none" stroke="black" points="1070.01,-108.5 1070.01,-130.5 1150.01,-130.5 1150.01,-108.5 1070.01,-108.5"/>
<text text-anchor="start" x="1072.89" y="-114.2" font-family="Courier New" font-size="14.00">QFA...WAG</text>
</g>
<!-- 10.0&#45;&gt;11.0 -->
<g id="edge60" class="edge">
<title>10.0:e&#45;&gt;11.0:w</title>
<path fill="none" stroke="black" d="M1013.01,-119.5C1013.01,-119.5 1027.07,-119.5 1037.62,-119.5"/>
<polygon fill="black" stroke="black" points="1037.5,-123 1047.5,-119.5 1037.5,-116 1037.5,-123"/>
</g>
<!-- 19.0 -->
<g id="node26" class="node">
<title>19.0</title>
<text text-anchor="start" x="1072.01" y="-79.9" font-family="Times,serif" font-size="8.00">0</text>
<text text-anchor="start" x="1136.76" y="-79.9" font-family="Times,serif" font-size="8.00">647</text>
<text text-anchor="start" x="1050.89" y="-60.45" font-family="Times,serif" font-size="14.00">19:</text>
<polygon fill="none" stroke="black" points="1070.01,-54.5 1070.01,-76.5 1150.01,-76.5 1150.01,-54.5 1070.01,-54.5"/>
<text text-anchor="start" x="1072.89" y="-60.2" font-family="Courier New" font-size="14.00">QFA...TGM</text>
</g>
<!-- 10.0&#45;&gt;19.0 -->
<g id="edge61" class="edge">
<title>10.0:e&#45;&gt;19.0:w</title>
<path fill="none" stroke="black" d="M1013.01,-119.5C1013.01,-119.5 1032.43,-90.38 1042.74,-74.91"/>
<polygon fill="black" stroke="black" points="1045.54,-77.02 1048.17,-66.76 1039.71,-73.14 1045.54,-77.02"/>
</g>
<!-- 27.0 -->
<g id="node27" class="node">
<title>27.0</title>
<text text-anchor="start" x="1072.01" y="-25.9" font-family="Times,serif" font-size="8.00">0</text>
<text text-anchor="start" x="1136.76" y="-25.9" font-family="Times,serif" font-size="8.00">654</text>
<text text-anchor="start" x="1050.89" y="-6.45" font-family="Times,serif" font-size="14.00">27:</text>
<polygon fill="none" stroke="black" points="1070.01,-0.5 1070.01,-22.5 1150.01,-22.5 1150.01,-0.5 1070.01,-0.5"/>
<text text-anchor="start" x="1072.89" y="-6.2" font-family="Courier New" font-size="14.00">QFA...AGI</text>
</g>
<!-- 10.0&#45;&gt;27.0 -->
<g id="edge62" class="edge">
<title>10.0:e&#45;&gt;27.0:w</title>
<path fill="none" stroke="black" d="M1013.01,-119.5C1013.01,-119.5 1036.32,-49.57 1045.43,-22.25"/>
<polygon fill="black" stroke="black" points="1048.69,-23.53 1048.53,-12.94 1042.05,-21.32 1048.69,-23.53"/>
</g>
<!-- 18.0&#45;&gt;11.0 -->
<g id="edge63" class="edge">
<title>18.0:e&#45;&gt;11.0:w</title>
<path fill="none" stroke="black" d="M1013.01,-65.5C1013.01,-65.5 1032.43,-94.62 1042.74,-110.09"/>
<polygon fill="black" stroke="black" points="1039.71,-111.86 1048.17,-118.24 1045.54,-107.98 1039.71,-111.86"/>
</g>
<!-- 18.0&#45;&gt;19.0 -->
<g id="edge64" class="edge">
<title>18.0:e&#45;&gt;19.0:w</title>
<path fill="none" stroke="black" d="M1013.01,-65.5C1013.01,-65.5 1027.07,-65.5 1037.62,-65.5"/>
<polygon fill="black" stroke="black" points="1037.5,-69 1047.5,-65.5 1037.5,-62 1037.5,-69"/>
</g>
<!-- 18.0&#45;&gt;27.0 -->
<g id="edge65" class="edge">
<title>18.0:e&#45;&gt;27.0:w</title>
<path fill="none" stroke="black" d="M1013.01,-65.5C1013.01,-65.5 1032.43,-36.38 1042.74,-20.91"/>
<polygon fill="black" stroke="black" points="1045.54,-23.02 1048.17,-12.76 1039.71,-19.14 1045.54,-23.02"/>
</g>
<!-- 26.0&#45;&gt;11.0 -->
<g id="edge66" class="edge">
<title>26.0:e&#45;&gt;11.0:w</title>
<path fill="none" stroke="black" d="M1013.01,-11.5C1013.01,-11.5 1036.32,-81.43 1045.43,-108.75"/>
<polygon fill="black" stroke="black" points="1042.05,-109.68 1048.53,-118.06 1048.69,-107.47 1042.05,-109.68"/>
</g>
<!-- 26.0&#45;&gt;19.0 -->
<g id="edge67" class="edge">
<title>26.0:e&#45;&gt;19.0:w</title>
<path fill="none" stroke="black" d="M1013.01,-11.5C1013.01,-11.5 1032.43,-40.62 1042.74,-56.09"/>
<polygon fill="black" stroke="black" points="1039.71,-57.86 1048.17,-64.24 1045.54,-53.98 1039.71,-57.86"/>
</g>
<!-- 26.0&#45;&gt;27.0 -->
<g id="edge68" class="edge">
<title>26.0:e&#45;&gt;27.0:w</title>
<path fill="none" stroke="black" d="M1013.01,-11.5C1013.01,-11.5 1027.07,-11.5 1037.62,-11.5"/>
<polygon fill="black" stroke="black" points="1037.5,-15 1047.5,-11.5 1037.5,-8 1037.5,-15"/>
</g>
<!-- 11.0&#45;&gt;sink -->
<g id="edge69" class="edge">
<title>11.0:e&#45;&gt;sink:w</title>
<path fill="none" stroke="black" d="M1150.01,-119.5C1150.01,-119.5 1166.26,-107.54 1176.93,-99.69"/>
<polygon fill="black" stroke="black" points="1178.82,-102.64 1184.79,-93.9 1174.67,-97.01 1178.82,-102.64"/>
</g>
<!-- 19.0&#45;&gt;sink -->
<g id="edge70" class="edge">
<title>19.0:e&#45;&gt;sink:w</title>
<path fill="none" stroke="black" d="M1150.01,-65.5C1150.01,-65.5 1166.26,-77.91 1176.93,-86.06"/>
<polygon fill="black" stroke="black" points="1174.74,-88.79 1184.81,-92.08 1178.99,-83.23 1174.74,-88.79"/>
</g>
<!-- 27.0&#45;&gt;sink -->
<g id="edge71" class="edge">
<title>27.0:e&#45;&gt;sink:w</title>
<path fill="none" stroke="black" d="M1150.01,-11.5C1150.01,-11.5 1171.77,-60.75 1181.45,-82.68"/>
<polygon fill="black" stroke="black" points="1178.16,-83.88 1185.4,-91.62 1184.56,-81.05 1178.16,-83.88"/>
</g>
</g>
</svg>
