<?xml version="1.0" encoding="UTF-8" standalone="no"?>
<!DOCTYPE svg PUBLIC "-//W3C//DTD SVG 1.1//EN"
 "http://www.w3.org/Graphics/SVG/1.1/DTD/svg11.dtd">
<!-- Generated by graphviz version 12.1.1 (20240910.0053)
 -->
<!-- Pages: 1 -->
<svg width="1184pt" height="206pt"
 viewBox="0.00 0.00 1184.02 206.00" xmlns="http://www.w3.org/2000/svg" xmlns:xlink="http://www.w3.org/1999/xlink">
<g id="graph0" class="graph" transform="scale(1 1) rotate(0) translate(4 202)">
<polygon fill="white" stroke="none" points="-4,4 -4,-202 1180.02,-202 1180.02,4 -4,4"/>
<!-- source -->
<g id="node1" class="node">
<title>source</title>
<ellipse fill="none" stroke="black" cx="27" cy="-93" rx="27" ry="18"/>
<text text-anchor="middle" x="27" y="-87.95" font-family="Times,serif" font-size="14.00">start</text>
</g>
<!-- 3.0 -->
<g id="node2" class="node">
<title>3.0</title>
<text text-anchor="start" x="238.5" y="-187.9" font-family="Times,serif" font-size="8.00">0</text>
<text text-anchor="start" x="291.5" y="-187.9" font-family="Times,serif" font-size="8.00">1048</text>
<text text-anchor="start" x="224.25" y="-168.45" font-family="Times,serif" font-size="14.00">3:</text>
<polygon fill="none" stroke="black" points="236.5,-162.5 236.5,-184.5 308.5,-184.5 308.5,-162.5 236.5,-162.5"/>
<text text-anchor="start" x="239.5" y="-168.2" font-family="Courier New" font-size="14.00">MTI..WAG</text>
</g>
<!-- source&#45;&gt;3.0 -->
<g id="edge1" class="edge">
<title>source:e&#45;&gt;3.0:w</title>
<path fill="none" stroke="black" d="M54,-93C54,-93 90,-153 90,-153 90,-153 178.49,-166.79 210.29,-171.75"/>
<polygon fill="black" stroke="black" points="209.59,-175.18 220.01,-173.27 210.67,-168.27 209.59,-175.18"/>
</g>
<!-- 4.0 -->
<g id="node3" class="node">
<title>4.0</title>
<text text-anchor="start" x="109.5" y="-133.9" font-family="Times,serif" font-size="8.00">0</text>
<text text-anchor="start" x="170" y="-133.9" font-family="Times,serif" font-size="8.00">63</text>
<text text-anchor="start" x="95.25" y="-114.45" font-family="Times,serif" font-size="14.00">4:</text>
<polygon fill="none" stroke="black" points="107.5,-108.5 107.5,-130.5 179.5,-130.5 179.5,-108.5 107.5,-108.5"/>
<text text-anchor="start" x="110.5" y="-114.2" font-family="Courier New" font-size="14.00">MTI..ACD</text>
</g>
<!-- source&#45;&gt;4.0 -->
<g id="edge2" class="edge">
<title>source:e&#45;&gt;4.0:w</title>
<path fill="none" stroke="black" d="M54,-93C54,-93 71.79,-105.24 83.18,-113.09"/>
<polygon fill="black" stroke="black" points="81.03,-115.86 91.25,-118.64 85,-110.09 81.03,-115.86"/>
</g>
<!-- 12.0 -->
<g id="node4" class="node">
<title>12.0</title>
<text text-anchor="start" x="113" y="-79.9" font-family="Times,serif" font-size="8.00">0</text>
<text text-anchor="start" x="173.5" y="-79.9" font-family="Times,serif" font-size="8.00">64</text>
<text text-anchor="start" x="91.88" y="-60.45" font-family="Times,serif" font-size="14.00">12:</text>
<polygon fill="none" stroke="black" points="111,-54.5 111,-76.5 183,-76.5 183,-54.5 111,-54.5"/>
<text text-anchor="start" x="114" y="-60.2" font-family="Courier New" font-size="14.00">MKQ..VCD</text>
</g>
<!-- source&#45;&gt;12.0 -->
<g id="edge3" class="edge">
<title>source:e&#45;&gt;12.0:w</title>
<path fill="none" stroke="black" d="M54,-93C54,-93 70.25,-80.59 80.92,-72.44"/>
<polygon fill="black" stroke="black" points="82.98,-75.27 88.8,-66.42 78.73,-69.71 82.98,-75.27"/>
</g>
<!-- 20.0 -->
<g id="node5" class="node">
<title>20.0</title>
<text text-anchor="start" x="113" y="-25.9" font-family="Times,serif" font-size="8.00">0</text>
<text text-anchor="start" x="173.5" y="-25.9" font-family="Times,serif" font-size="8.00">64</text>
<text text-anchor="start" x="91.88" y="-6.45" font-family="Times,serif" font-size="14.00">20:</text>
<polygon fill="none" stroke="black" points="111,-0.5 111,-22.5 183,-22.5 183,-0.5 111,-0.5"/>
<text text-anchor="start" x="114" y="-6.2" font-family="Courier New" font-size="14.00">MKE..VCD</text>
</g>
<!-- source&#45;&gt;20.0 -->
<g id="edge4" class="edge">
<title>source:e&#45;&gt;20.0:w</title>
<path fill="none" stroke="black" d="M54,-93C54,-93 75.75,-43.75 85.44,-21.82"/>
<polygon fill="black" stroke="black" points="88.55,-23.45 89.39,-12.88 82.15,-20.62 88.55,-23.45"/>
</g>
<!-- sink -->
<g id="node6" class="node">
<title>sink</title>
<ellipse fill="none" stroke="black" cx="1149.02" cy="-93" rx="27" ry="18"/>
<text text-anchor="middle" x="1149.02" y="-87.95" font-family="Times,serif" font-size="14.00">end</text>
</g>
<!-- 3.0&#45;&gt;sink -->
<g id="edge5" class="edge">
<title>3.0:e&#45;&gt;sink:w</title>
<path fill="none" stroke="black" d="M309.5,-173.5C309.5,-173.5 522.51,-173 522.51,-173 522.51,-173 522.51,-173 911.52,-173 911.52,-173 1086.02,-153 1086.02,-153 1086.02,-153 1106.06,-119.6 1116.24,-102.64"/>
<polygon fill="black" stroke="black" points="1119.1,-104.67 1121.24,-94.3 1113.09,-101.07 1119.1,-104.67"/>
</g>
<!-- 5.0 -->
<g id="node7" class="node">
<title>5.0</title>
<text text-anchor="start" x="238.5" y="-133.9" font-family="Times,serif" font-size="8.00">0</text>
<text text-anchor="start" x="299" y="-133.9" font-family="Times,serif" font-size="8.00">57</text>
<text text-anchor="start" x="224.25" y="-114.45" font-family="Times,serif" font-size="14.00">5:</text>
<polygon fill="none" stroke="black" points="236.5,-108.5 236.5,-130.5 308.5,-130.5 308.5,-108.5 236.5,-108.5"/>
<text text-anchor="start" x="239.5" y="-114.2" font-family="Courier New" font-size="14.00">ESR..MVD</text>
</g>
<!-- 4.0&#45;&gt;5.0 -->
<g id="edge6" class="edge">
<title>4.0:e&#45;&gt;5.0:w</title>
<path fill="none" stroke="black" d="M180.5,-119.5C180.5,-119.5 198.16,-119.5 210.3,-119.5"/>
<polygon fill="black" stroke="black" points="209.99,-123 219.99,-119.5 209.99,-116 209.99,-123"/>
</g>
<!-- 13.0 -->
<g id="node8" class="node">
<title>13.0</title>
<text text-anchor="start" x="242" y="-79.9" font-family="Times,serif" font-size="8.00">0</text>
<text text-anchor="start" x="302.5" y="-79.9" font-family="Times,serif" font-size="8.00">57</text>
<text text-anchor="start" x="220.88" y="-60.45" font-family="Times,serif" font-size="14.00">13:</text>
<polygon fill="none" stroke="black" points="240,-54.5 240,-76.5 312,-76.5 312,-54.5 240,-54.5"/>
<text text-anchor="start" x="243" y="-60.2" font-family="Courier New" font-size="14.00">EKR..MLD</text>
</g>
<!-- 4.0&#45;&gt;13.0 -->
<g id="edge7" class="edge">
<title>4.0:e&#45;&gt;13.0:w</title>
<path fill="none" stroke="black" d="M180.5,-119.5C180.5,-119.5 201.71,-89.75 212.64,-74.42"/>
<polygon fill="black" stroke="black" points="215.17,-76.91 218.12,-66.73 209.47,-72.84 215.17,-76.91"/>
</g>
<!-- 21.0 -->
<g id="node9" class="node">
<title>21.0</title>
<text text-anchor="start" x="242" y="-25.9" font-family="Times,serif" font-size="8.00">0</text>
<text text-anchor="start" x="302.5" y="-25.9" font-family="Times,serif" font-size="8.00">57</text>
<text text-anchor="start" x="220.88" y="-6.45" font-family="Times,serif" font-size="14.00">21:</text>
<polygon fill="none" stroke="black" points="240,-0.5 240,-22.5 312,-22.5 312,-0.5 240,-0.5"/>
<text text-anchor="start" x="243" y="-6.2" font-family="Courier New" font-size="14.00">EER..MVD</text>
</g>
<!-- 4.0&#45;&gt;21.0 -->
<g id="edge8" class="edge">
<title>4.0:e&#45;&gt;21.0:w</title>
<path fill="none" stroke="black" d="M180.5,-119.5C180.5,-119.5 205.43,-49.57 215.17,-22.25"/>
<polygon fill="black" stroke="black" points="218.43,-23.52 218.49,-12.93 211.84,-21.17 218.43,-23.52"/>
</g>
<!-- 12.0&#45;&gt;5.0 -->
<g id="edge9" class="edge">
<title>12.0:e&#45;&gt;5.0:w</title>
<path fill="none" stroke="black" d="M183,-65.5C183,-65.5 204.21,-95.25 215.15,-110.58"/>
<polygon fill="black" stroke="black" points="211.97,-112.16 220.62,-118.27 217.67,-108.09 211.97,-112.16"/>
</g>
<!-- 12.0&#45;&gt;13.0 -->
<g id="edge10" class="edge">
<title>12.0:e&#45;&gt;13.0:w</title>
<path fill="none" stroke="black" d="M183,-65.5C183,-65.5 197.06,-65.5 207.61,-65.5"/>
<polygon fill="black" stroke="black" points="207.49,-69 217.49,-65.5 207.49,-62 207.49,-69"/>
</g>
<!-- 12.0&#45;&gt;21.0 -->
<g id="edge11" class="edge">
<title>12.0:e&#45;&gt;21.0:w</title>
<path fill="none" stroke="black" d="M183,-65.5C183,-65.5 202.42,-36.38 212.73,-20.91"/>
<polygon fill="black" stroke="black" points="215.53,-23.02 218.16,-12.76 209.7,-19.14 215.53,-23.02"/>
</g>
<!-- 20.0&#45;&gt;5.0 -->
<g id="edge12" class="edge">
<title>20.0:e&#45;&gt;5.0:w</title>
<path fill="none" stroke="black" d="M183,-11.5C183,-11.5 207.93,-81.43 217.67,-108.75"/>
<polygon fill="black" stroke="black" points="214.34,-109.83 221,-118.07 220.93,-107.48 214.34,-109.83"/>
</g>
<!-- 20.0&#45;&gt;13.0 -->
<g id="edge13" class="edge">
<title>20.0:e&#45;&gt;13.0:w</title>
<path fill="none" stroke="black" d="M183,-11.5C183,-11.5 202.42,-40.62 212.73,-56.09"/>
<polygon fill="black" stroke="black" points="209.7,-57.86 218.16,-64.24 215.53,-53.98 209.7,-57.86"/>
</g>
<!-- 20.0&#45;&gt;21.0 -->
<g id="edge14" class="edge">
<title>20.0:e&#45;&gt;21.0:w</title>
<path fill="none" stroke="black" d="M183,-11.5C183,-11.5 197.06,-11.5 207.61,-11.5"/>
<polygon fill="black" stroke="black" points="207.49,-15 217.49,-11.5 207.49,-8 207.49,-15"/>
</g>
<!-- 6.0 -->
<g id="node10" class="node">
<title>6.0</title>
<text text-anchor="start" x="367.51" y="-133.9" font-family="Times,serif" font-size="8.00">0</text>
<text text-anchor="start" x="428.01" y="-133.9" font-family="Times,serif" font-size="8.00">43</text>
<text text-anchor="start" x="353.26" y="-114.45" font-family="Times,serif" font-size="14.00">6:</text>
<polygon fill="none" stroke="black" points="365.51,-108.5 365.51,-130.5 437.51,-130.5 437.51,-108.5 365.51,-108.5"/>
<text text-anchor="start" x="368.51" y="-114.2" font-family="Courier New" font-size="14.00">IAV..NSF</text>
</g>
<!-- 5.0&#45;&gt;6.0 -->
<g id="edge15" class="edge">
<title>5.0:e&#45;&gt;6.0:w</title>
<path fill="none" stroke="black" d="M309.5,-119.5C309.5,-119.5 327.16,-119.5 339.3,-119.5"/>
<polygon fill="black" stroke="black" points="338.99,-123 348.99,-119.5 338.99,-116 338.99,-123"/>
</g>
<!-- 14.0 -->
<g id="node11" class="node">
<title>14.0</title>
<text text-anchor="start" x="371.01" y="-79.9" font-family="Times,serif" font-size="8.00">0</text>
<text text-anchor="start" x="431.51" y="-79.9" font-family="Times,serif" font-size="8.00">43</text>
<text text-anchor="start" x="349.88" y="-60.45" font-family="Times,serif" font-size="14.00">14:</text>
<polygon fill="none" stroke="black" points="369.01,-54.5 369.01,-76.5 441.01,-76.5 441.01,-54.5 369.01,-54.5"/>
<text text-anchor="start" x="372.01" y="-60.2" font-family="Courier New" font-size="14.00">IAT..NSF</text>
</g>
<!-- 5.0&#45;&gt;14.0 -->
<g id="edge16" class="edge">
<title>5.0:e&#45;&gt;14.0:w</title>
<path fill="none" stroke="black" d="M309.5,-119.5C309.5,-119.5 330.71,-89.75 341.65,-74.42"/>
<polygon fill="black" stroke="black" points="344.17,-76.91 347.13,-66.73 338.47,-72.84 344.17,-76.91"/>
</g>
<!-- 22.0 -->
<g id="node12" class="node">
<title>22.0</title>
<text text-anchor="start" x="371.01" y="-25.9" font-family="Times,serif" font-size="8.00">0</text>
<text text-anchor="start" x="431.51" y="-25.9" font-family="Times,serif" font-size="8.00">43</text>
<text text-anchor="start" x="349.88" y="-6.45" font-family="Times,serif" font-size="14.00">22:</text>
<polygon fill="none" stroke="black" points="369.01,-0.5 369.01,-22.5 441.01,-22.5 441.01,-0.5 369.01,-0.5"/>
<text text-anchor="start" x="372.01" y="-6.2" font-family="Courier New" font-size="14.00">IAV..NSY</text>
</g>
<!-- 5.0&#45;&gt;22.0 -->
<g id="edge17" class="edge">
<title>5.0:e&#45;&gt;22.0:w</title>
<path fill="none" stroke="black" d="M309.5,-119.5C309.5,-119.5 334.43,-49.57 344.17,-22.25"/>
<polygon fill="black" stroke="black" points="347.44,-23.52 347.5,-12.93 340.84,-21.17 347.44,-23.52"/>
</g>
<!-- 13.0&#45;&gt;6.0 -->
<g id="edge18" class="edge">
<title>13.0:e&#45;&gt;6.0:w</title>
<path fill="none" stroke="black" d="M312,-65.5C312,-65.5 333.21,-95.25 344.15,-110.58"/>
<polygon fill="black" stroke="black" points="340.97,-112.16 349.63,-118.27 346.67,-108.09 340.97,-112.16"/>
</g>
<!-- 13.0&#45;&gt;14.0 -->
<g id="edge19" class="edge">
<title>13.0:e&#45;&gt;14.0:w</title>
<path fill="none" stroke="black" d="M312,-65.5C312,-65.5 326.07,-65.5 336.61,-65.5"/>
<polygon fill="black" stroke="black" points="336.49,-69 346.49,-65.5 336.49,-62 336.49,-69"/>
</g>
<!-- 13.0&#45;&gt;22.0 -->
<g id="edge20" class="edge">
<title>13.0:e&#45;&gt;22.0:w</title>
<path fill="none" stroke="black" d="M312,-65.5C312,-65.5 331.42,-36.38 341.73,-20.91"/>
<polygon fill="black" stroke="black" points="344.53,-23.02 347.17,-12.76 338.71,-19.14 344.53,-23.02"/>
</g>
<!-- 21.0&#45;&gt;6.0 -->
<g id="edge21" class="edge">
<title>21.0:e&#45;&gt;6.0:w</title>
<path fill="none" stroke="black" d="M312,-11.5C312,-11.5 336.94,-81.43 346.67,-108.75"/>
<polygon fill="black" stroke="black" points="343.34,-109.83 350,-118.07 349.94,-107.48 343.34,-109.83"/>
</g>
<!-- 21.0&#45;&gt;14.0 -->
<g id="edge22" class="edge">
<title>21.0:e&#45;&gt;14.0:w</title>
<path fill="none" stroke="black" d="M312,-11.5C312,-11.5 331.42,-40.62 341.73,-56.09"/>
<polygon fill="black" stroke="black" points="338.71,-57.86 347.17,-64.24 344.53,-53.98 338.71,-57.86"/>
</g>
<!-- 21.0&#45;&gt;22.0 -->
<g id="edge23" class="edge">
<title>21.0:e&#45;&gt;22.0:w</title>
<path fill="none" stroke="black" d="M312,-11.5C312,-11.5 326.07,-11.5 336.61,-11.5"/>
<polygon fill="black" stroke="black" points="336.49,-15 346.49,-11.5 336.49,-8 336.49,-15"/>
</g>
<!-- 7.0 -->
<g id="node13" class="node">
<title>7.0</title>
<text text-anchor="start" x="496.51" y="-133.9" font-family="Times,serif" font-size="8.00">0</text>
<text text-anchor="start" x="557.01" y="-133.9" font-family="Times,serif" font-size="8.00">49</text>
<text text-anchor="start" x="482.26" y="-114.45" font-family="Times,serif" font-size="14.00">7:</text>
<polygon fill="none" stroke="black" points="494.51,-108.5 494.51,-130.5 566.51,-130.5 566.51,-108.5 494.51,-108.5"/>
<text text-anchor="start" x="497.51" y="-114.2" font-family="Courier New" font-size="14.00">YRD..NDL</text>
</g>
<!-- 6.0&#45;&gt;7.0 -->
<g id="edge24" class="edge">
<title>6.0:e&#45;&gt;7.0:w</title>
<path fill="none" stroke="black" d="M438.51,-119.5C438.51,-119.5 456.16,-119.5 468.3,-119.5"/>
<polygon fill="black" stroke="black" points="467.99,-123 477.99,-119.5 467.99,-116 467.99,-123"/>
</g>
<!-- 15.0 -->
<g id="node14" class="node">
<title>15.0</title>
<text text-anchor="start" x="500.01" y="-79.9" font-family="Times,serif" font-size="8.00">0</text>
<text text-anchor="start" x="560.51" y="-79.9" font-family="Times,serif" font-size="8.00">49</text>
<text text-anchor="start" x="478.88" y="-60.45" font-family="Times,serif" font-size="14.00">15:</text>
<polygon fill="none" stroke="black" points="498.01,-54.5 498.01,-76.5 570.01,-76.5 570.01,-54.5 498.01,-54.5"/>
<text text-anchor="start" x="501.01" y="-60.2" font-family="Courier New" font-size="14.00">YRD..NSL</text>
</g>
<!-- 6.0&#45;&gt;15.0 -->
<g id="edge25" class="edge">
<title>6.0:e&#45;&gt;15.0:w</title>
<path fill="none" stroke="black" d="M438.51,-119.5C438.51,-119.5 459.71,-89.75 470.65,-74.42"/>
<polygon fill="black" stroke="black" points="473.17,-76.91 476.13,-66.73 467.47,-72.84 473.17,-76.91"/>
</g>
<!-- 23.0 -->
<g id="node15" class="node">
<title>23.0</title>
<text text-anchor="start" x="500.01" y="-25.9" font-family="Times,serif" font-size="8.00">0</text>
<text text-anchor="start" x="560.51" y="-25.9" font-family="Times,serif" font-size="8.00">49</text>
<text text-anchor="start" x="478.88" y="-6.45" font-family="Times,serif" font-size="14.00">23:</text>
<polygon fill="none" stroke="black" points="498.01,-0.5 498.01,-22.5 570.01,-22.5 570.01,-0.5 498.01,-0.5"/>
<text text-anchor="start" x="501.01" y="-6.2" font-family="Courier New" font-size="14.00">YRE..FSL</text>
</g>
<!-- 6.0&#45;&gt;23.0 -->
<g id="edge26" class="edge">
<title>6.0:e&#45;&gt;23.0:w</title>
<path fill="none" stroke="black" d="M438.51,-119.5C438.51,-119.5 463.44,-49.57 473.17,-22.25"/>
<polygon fill="black" stroke="black" points="476.44,-23.52 476.5,-12.93 469.84,-21.17 476.44,-23.52"/>
</g>
<!-- 14.0&#45;&gt;7.0 -->
<g id="edge27" class="edge">
<title>14.0:e&#45;&gt;7.0:w</title>
<path fill="none" stroke="black" d="M441.01,-65.5C441.01,-65.5 462.22,-95.25 473.15,-110.58"/>
<polygon fill="black" stroke="black" points="469.97,-112.16 478.63,-118.27 475.67,-108.09 469.97,-112.16"/>
</g>
<!-- 14.0&#45;&gt;15.0 -->
<g id="edge28" class="edge">
<title>14.0:e&#45;&gt;15.0:w</title>
<path fill="none" stroke="black" d="M441.01,-65.5C441.01,-65.5 455.07,-65.5 465.62,-65.5"/>
<polygon fill="black" stroke="black" points="465.49,-69 475.49,-65.5 465.49,-62 465.49,-69"/>
</g>
<!-- 14.0&#45;&gt;23.0 -->
<g id="edge29" class="edge">
<title>14.0:e&#45;&gt;23.0:w</title>
<path fill="none" stroke="black" d="M441.01,-65.5C441.01,-65.5 460.42,-36.38 470.74,-20.91"/>
<polygon fill="black" stroke="black" points="473.53,-23.02 476.17,-12.76 467.71,-19.14 473.53,-23.02"/>
</g>
<!-- 22.0&#45;&gt;7.0 -->
<g id="edge30" class="edge">
<title>22.0:e&#45;&gt;7.0:w</title>
<path fill="none" stroke="black" d="M441.01,-11.5C441.01,-11.5 465.94,-81.43 475.68,-108.75"/>
<polygon fill="black" stroke="black" points="472.35,-109.83 479,-118.07 478.94,-107.48 472.35,-109.83"/>
</g>
<!-- 22.0&#45;&gt;15.0 -->
<g id="edge31" class="edge">
<title>22.0:e&#45;&gt;15.0:w</title>
<path fill="none" stroke="black" d="M441.01,-11.5C441.01,-11.5 460.42,-40.62 470.74,-56.09"/>
<polygon fill="black" stroke="black" points="467.71,-57.86 476.17,-64.24 473.53,-53.98 467.71,-57.86"/>
</g>
<!-- 22.0&#45;&gt;23.0 -->
<g id="edge32" class="edge">
<title>22.0:e&#45;&gt;23.0:w</title>
<path fill="none" stroke="black" d="M441.01,-11.5C441.01,-11.5 455.07,-11.5 465.62,-11.5"/>
<polygon fill="black" stroke="black" points="465.49,-15 475.49,-11.5 465.49,-8 465.49,-15"/>
</g>
<!-- 8.0 -->
<g id="node16" class="node">
<title>8.0</title>
<text text-anchor="start" x="625.51" y="-133.9" font-family="Times,serif" font-size="8.00">0</text>
<text text-anchor="start" x="686.01" y="-133.9" font-family="Times,serif" font-size="8.00">51</text>
<text text-anchor="start" x="611.26" y="-114.45" font-family="Times,serif" font-size="14.00">8:</text>
<polygon fill="none" stroke="black" points="623.51,-108.5 623.51,-130.5 695.51,-130.5 695.51,-108.5 623.51,-108.5"/>
<text text-anchor="start" x="626.51" y="-114.2" font-family="Courier New" font-size="14.00">VDK..GHE</text>
</g>
<!-- 7.0&#45;&gt;8.0 -->
<g id="edge33" class="edge">
<title>7.0:e&#45;&gt;8.0:w</title>
<path fill="none" stroke="black" d="M567.51,-119.5C567.51,-119.5 585.17,-119.5 597.31,-119.5"/>
<polygon fill="black" stroke="black" points="597,-123 607,-119.5 597,-116 597,-123"/>
</g>
<!-- 16.0 -->
<g id="node17" class="node">
<title>16.0</title>
<text text-anchor="start" x="629.01" y="-79.9" font-family="Times,serif" font-size="8.00">0</text>
<text text-anchor="start" x="689.51" y="-79.9" font-family="Times,serif" font-size="8.00">52</text>
<text text-anchor="start" x="607.89" y="-60.45" font-family="Times,serif" font-size="14.00">16:</text>
<polygon fill="none" stroke="black" points="627.01,-54.5 627.01,-76.5 699.01,-76.5 699.01,-54.5 627.01,-54.5"/>
<text text-anchor="start" x="630.01" y="-60.2" font-family="Courier New" font-size="14.00">VDR..GHE</text>
</g>
<!-- 7.0&#45;&gt;16.0 -->
<g id="edge34" class="edge">
<title>7.0:e&#45;&gt;16.0:w</title>
<path fill="none" stroke="black" d="M567.51,-119.5C567.51,-119.5 588.72,-89.75 599.65,-74.42"/>
<polygon fill="black" stroke="black" points="602.18,-76.91 605.13,-66.73 596.48,-72.84 602.18,-76.91"/>
</g>
<!-- 24.0 -->
<g id="node18" class="node">
<title>24.0</title>
<text text-anchor="start" x="629.01" y="-25.9" font-family="Times,serif" font-size="8.00">0</text>
<text text-anchor="start" x="689.51" y="-25.9" font-family="Times,serif" font-size="8.00">52</text>
<text text-anchor="start" x="607.89" y="-6.45" font-family="Times,serif" font-size="14.00">24:</text>
<polygon fill="none" stroke="black" points="627.01,-0.5 627.01,-22.5 699.01,-22.5 699.01,-0.5 627.01,-0.5"/>
<text text-anchor="start" x="630.01" y="-6.2" font-family="Courier New" font-size="14.00">VDS..GHE</text>
</g>
<!-- 7.0&#45;&gt;24.0 -->
<g id="edge35" class="edge">
<title>7.0:e&#45;&gt;24.0:w</title>
<path fill="none" stroke="black" d="M567.51,-119.5C567.51,-119.5 592.44,-49.57 602.18,-22.25"/>
<polygon fill="black" stroke="black" points="605.44,-23.52 605.5,-12.93 598.85,-21.17 605.44,-23.52"/>
</g>
<!-- 15.0&#45;&gt;8.0 -->
<g id="edge36" class="edge">
<title>15.0:e&#45;&gt;8.0:w</title>
<path fill="none" stroke="black" d="M570.01,-65.5C570.01,-65.5 591.22,-95.25 602.15,-110.58"/>
<polygon fill="black" stroke="black" points="598.98,-112.16 607.63,-118.27 604.68,-108.09 598.98,-112.16"/>
</g>
<!-- 15.0&#45;&gt;16.0 -->
<g id="edge37" class="edge">
<title>15.0:e&#45;&gt;16.0:w</title>
<path fill="none" stroke="black" d="M570.01,-65.5C570.01,-65.5 584.07,-65.5 594.62,-65.5"/>
<polygon fill="black" stroke="black" points="594.5,-69 604.5,-65.5 594.5,-62 594.5,-69"/>
</g>
<!-- 15.0&#45;&gt;24.0 -->
<g id="edge38" class="edge">
<title>15.0:e&#45;&gt;24.0:w</title>
<path fill="none" stroke="black" d="M570.01,-65.5C570.01,-65.5 589.42,-36.38 599.74,-20.91"/>
<polygon fill="black" stroke="black" points="602.54,-23.02 605.17,-12.76 596.71,-19.14 602.54,-23.02"/>
</g>
<!-- 23.0&#45;&gt;8.0 -->
<g id="edge39" class="edge">
<title>23.0:e&#45;&gt;8.0:w</title>
<path fill="none" stroke="black" d="M570.01,-11.5C570.01,-11.5 594.94,-81.43 604.68,-108.75"/>
<polygon fill="black" stroke="black" points="601.35,-109.83 608,-118.07 607.94,-107.48 601.35,-109.83"/>
</g>
<!-- 23.0&#45;&gt;16.0 -->
<g id="edge40" class="edge">
<title>23.0:e&#45;&gt;16.0:w</title>
<path fill="none" stroke="black" d="M570.01,-11.5C570.01,-11.5 589.42,-40.62 599.74,-56.09"/>
<polygon fill="black" stroke="black" points="596.71,-57.86 605.17,-64.24 602.54,-53.98 596.71,-57.86"/>
</g>
<!-- 23.0&#45;&gt;24.0 -->
<g id="edge41" class="edge">
<title>23.0:e&#45;&gt;24.0:w</title>
<path fill="none" stroke="black" d="M570.01,-11.5C570.01,-11.5 584.07,-11.5 594.62,-11.5"/>
<polygon fill="black" stroke="black" points="594.5,-15 604.5,-11.5 594.5,-8 594.5,-15"/>
</g>
<!-- 9.0 -->
<g id="node19" class="node">
<title>9.0</title>
<text text-anchor="start" x="754.51" y="-133.9" font-family="Times,serif" font-size="8.00">0</text>
<text text-anchor="start" x="815.01" y="-133.9" font-family="Times,serif" font-size="8.00">59</text>
<text text-anchor="start" x="740.26" y="-114.45" font-family="Times,serif" font-size="14.00">9:</text>
<polygon fill="none" stroke="black" points="752.51,-108.5 752.51,-130.5 824.51,-130.5 824.51,-108.5 752.51,-108.5"/>
<text text-anchor="start" x="755.51" y="-114.2" font-family="Courier New" font-size="14.00">TTS..WPT</text>
</g>
<!-- 8.0&#45;&gt;9.0 -->
<g id="edge42" class="edge">
<title>8.0:e&#45;&gt;9.0:w</title>
<path fill="none" stroke="black" d="M696.51,-119.5C696.51,-119.5 714.17,-119.5 726.31,-119.5"/>
<polygon fill="black" stroke="black" points="726,-123 736,-119.5 726,-116 726,-123"/>
</g>
<!-- 17.0 -->
<g id="node20" class="node">
<title>17.0</title>
<text text-anchor="start" x="758.01" y="-79.9" font-family="Times,serif" font-size="8.00">0</text>
<text text-anchor="start" x="818.51" y="-79.9" font-family="Times,serif" font-size="8.00">59</text>
<text text-anchor="start" x="736.89" y="-60.45" font-family="Times,serif" font-size="14.00">17:</text>
<polygon fill="none" stroke="black" points="756.01,-54.5 756.01,-76.5 828.01,-76.5 828.01,-54.5 756.01,-54.5"/>
<text text-anchor="start" x="759.01" y="-60.2" font-family="Courier New" font-size="14.00">TTS..YPT</text>
</g>
<!-- 8.0&#45;&gt;17.0 -->
<g id="edge43" class="edge">
<title>8.0:e&#45;&gt;17.0:w</title>
<path fill="none" stroke="black" d="M696.51,-119.5C696.51,-119.5 717.72,-89.75 728.65,-74.42"/>
<polygon fill="black" stroke="black" points="731.18,-76.91 734.13,-66.73 725.48,-72.84 731.18,-76.91"/>
</g>
<!-- 25.0 -->
<g id="node21" class="node">
<title>25.0</title>
<text text-anchor="start" x="758.01" y="-25.9" font-family="Times,serif" font-size="8.00">0</text>
<text text-anchor="start" x="818.51" y="-25.9" font-family="Times,serif" font-size="8.00">59</text>
<text text-anchor="start" x="736.89" y="-6.45" font-family="Times,serif" font-size="14.00">25:</text>
<polygon fill="none" stroke="black" points="756.01,-0.5 756.01,-22.5 828.01,-22.5 828.01,-0.5 756.01,-0.5"/>
<text text-anchor="start" x="759.01" y="-6.2" font-family="Courier New" font-size="14.00">TTS..WPT</text>
</g>
<!-- 8.0&#45;&gt;25.0 -->
<g id="edge44" class="edge">
<title>8.0:e&#45;&gt;25.0:w</title>
<path fill="none" stroke="black" d="M696.51,-119.5C696.51,-119.5 721.44,-49.57 731.18,-22.25"/>
<polygon fill="black" stroke="black" points="734.44,-23.52 734.5,-12.93 727.85,-21.17 734.44,-23.52"/>
</g>
<!-- 16.0&#45;&gt;9.0 -->
<g id="edge45" class="edge">
<title>16.0:e&#45;&gt;9.0:w</title>
<path fill="none" stroke="black" d="M699.01,-65.5C699.01,-65.5 720.22,-95.25 731.16,-110.58"/>
<polygon fill="black" stroke="black" points="727.98,-112.16 736.63,-118.27 733.68,-108.09 727.98,-112.16"/>
</g>
<!-- 16.0&#45;&gt;17.0 -->
<g id="edge46" class="edge">
<title>16.0:e&#45;&gt;17.0:w</title>
<path fill="none" stroke="black" d="M699.01,-65.5C699.01,-65.5 713.07,-65.5 723.62,-65.5"/>
<polygon fill="black" stroke="black" points="723.5,-69 733.5,-65.5 723.5,-62 723.5,-69"/>
</g>
<!-- 16.0&#45;&gt;25.0 -->
<g id="edge47" class="edge">
<title>16.0:e&#45;&gt;25.0:w</title>
<path fill="none" stroke="black" d="M699.01,-65.5C699.01,-65.5 718.43,-36.38 728.74,-20.91"/>
<polygon fill="black" stroke="black" points="731.54,-23.02 734.17,-12.76 725.71,-19.14 731.54,-23.02"/>
</g>
<!-- 24.0&#45;&gt;9.0 -->
<g id="edge48" class="edge">
<title>24.0:e&#45;&gt;9.0:w</title>
<path fill="none" stroke="black" d="M699.01,-11.5C699.01,-11.5 723.94,-81.43 733.68,-108.75"/>
<polygon fill="black" stroke="black" points="730.35,-109.83 737,-118.07 736.94,-107.48 730.35,-109.83"/>
</g>
<!-- 24.0&#45;&gt;17.0 -->
<g id="edge49" class="edge">
<title>24.0:e&#45;&gt;17.0:w</title>
<path fill="none" stroke="black" d="M699.01,-11.5C699.01,-11.5 718.43,-40.62 728.74,-56.09"/>
<polygon fill="black" stroke="black" points="725.71,-57.86 734.17,-64.24 731.54,-53.98 725.71,-57.86"/>
</g>
<!-- 24.0&#45;&gt;25.0 -->
<g id="edge50" class="edge">
<title>24.0:e&#45;&gt;25.0:w</title>
<path fill="none" stroke="black" d="M699.01,-11.5C699.01,-11.5 713.07,-11.5 723.62,-11.5"/>
<polygon fill="black" stroke="black" points="723.5,-15 733.5,-11.5 723.5,-8 723.5,-15"/>
</g>
<!-- 10.0 -->
<g id="node22" class="node">
<title>10.0</title>
<text text-anchor="start" x="887.02" y="-133.9" font-family="Times,serif" font-size="8.00">0</text>
<text text-anchor="start" x="947.52" y="-133.9" font-family="Times,serif" font-size="8.00">75</text>
<text text-anchor="start" x="865.89" y="-114.45" font-family="Times,serif" font-size="14.00">10:</text>
<polygon fill="none" stroke="black" points="885.02,-108.5 885.02,-130.5 957.02,-130.5 957.02,-108.5 885.02,-108.5"/>
<text text-anchor="start" x="888.02" y="-114.2" font-family="Courier New" font-size="14.00">APA..IGQ</text>
</g>
<!-- 9.0&#45;&gt;10.0 -->
<g id="edge51" class="edge">
<title>9.0:e&#45;&gt;10.0:w</title>
<path fill="none" stroke="black" d="M825.51,-119.5C825.51,-119.5 841.31,-119.5 852.67,-119.5"/>
<polygon fill="black" stroke="black" points="852.5,-123 862.5,-119.5 852.5,-116 852.5,-123"/>
</g>
<!-- 18.0 -->
<g id="node23" class="node">
<title>18.0</title>
<text text-anchor="start" x="887.02" y="-79.9" font-family="Times,serif" font-size="8.00">0</text>
<text text-anchor="start" x="947.52" y="-79.9" font-family="Times,serif" font-size="8.00">75</text>
<text text-anchor="start" x="865.89" y="-60.45" font-family="Times,serif" font-size="14.00">18:</text>
<polygon fill="none" stroke="black" points="885.02,-54.5 885.02,-76.5 957.02,-76.5 957.02,-54.5 885.02,-54.5"/>
<text text-anchor="start" x="888.02" y="-60.2" font-family="Courier New" font-size="14.00">APA..IGM</text>
</g>
<!-- 9.0&#45;&gt;18.0 -->
<g id="edge52" class="edge">
<title>9.0:e&#45;&gt;18.0:w</title>
<path fill="none" stroke="black" d="M825.51,-119.5C825.51,-119.5 846.72,-89.75 857.66,-74.42"/>
<polygon fill="black" stroke="black" points="860.18,-76.91 863.14,-66.73 854.48,-72.84 860.18,-76.91"/>
</g>
<!-- 26.0 -->
<g id="node24" class="node">
<title>26.0</title>
<text text-anchor="start" x="887.02" y="-25.9" font-family="Times,serif" font-size="8.00">0</text>
<text text-anchor="start" x="947.52" y="-25.9" font-family="Times,serif" font-size="8.00">75</text>
<text text-anchor="start" x="865.89" y="-6.45" font-family="Times,serif" font-size="14.00">26:</text>
<polygon fill="none" stroke="black" points="885.02,-0.5 885.02,-22.5 957.02,-22.5 957.02,-0.5 885.02,-0.5"/>
<text text-anchor="start" x="888.02" y="-6.2" font-family="Courier New" font-size="14.00">APA..IGM</text>
</g>
<!-- 9.0&#45;&gt;26.0 -->
<g id="edge53" class="edge">
<title>9.0:e&#45;&gt;26.0:w</title>
<path fill="none" stroke="black" d="M825.51,-119.5C825.51,-119.5 850.44,-49.57 860.18,-22.25"/>
<polygon fill="black" stroke="black" points="863.44,-23.52 863.51,-12.93 856.85,-21.17 863.44,-23.52"/>
</g>
<!-- 17.0&#45;&gt;10.0 -->
<g id="edge54" class="edge">
<title>17.0:e&#45;&gt;10.0:w</title>
<path fill="none" stroke="black" d="M828.01,-65.5C828.01,-65.5 847.43,-94.62 857.74,-110.09"/>
<polygon fill="black" stroke="black" points="854.72,-111.86 863.17,-118.24 860.54,-107.98 854.72,-111.86"/>
</g>
<!-- 17.0&#45;&gt;18.0 -->
<g id="edge55" class="edge">
<title>17.0:e&#45;&gt;18.0:w</title>
<path fill="none" stroke="black" d="M828.01,-65.5C828.01,-65.5 842.08,-65.5 852.62,-65.5"/>
<polygon fill="black" stroke="black" points="852.5,-69 862.5,-65.5 852.5,-62 852.5,-69"/>
</g>
<!-- 17.0&#45;&gt;26.0 -->
<g id="edge56" class="edge">
<title>17.0:e&#45;&gt;26.0:w</title>
<path fill="none" stroke="black" d="M828.01,-65.5C828.01,-65.5 847.43,-36.38 857.74,-20.91"/>
<polygon fill="black" stroke="black" points="860.54,-23.02 863.17,-12.76 854.72,-19.14 860.54,-23.02"/>
</g>
<!-- 25.0&#45;&gt;10.0 -->
<g id="edge57" class="edge">
<title>25.0:e&#45;&gt;10.0:w</title>
<path fill="none" stroke="black" d="M828.01,-11.5C828.01,-11.5 851.33,-81.43 860.43,-108.75"/>
<polygon fill="black" stroke="black" points="857.05,-109.68 863.54,-118.06 863.69,-107.47 857.05,-109.68"/>
</g>
<!-- 25.0&#45;&gt;18.0 -->
<g id="edge58" class="edge">
<title>25.0:e&#45;&gt;18.0:w</title>
<path fill="none" stroke="black" d="M828.01,-11.5C828.01,-11.5 847.43,-40.62 857.74,-56.09"/>
<polygon fill="black" stroke="black" points="854.72,-57.86 863.17,-64.24 860.54,-53.98 854.72,-57.86"/>
</g>
<!-- 25.0&#45;&gt;26.0 -->
<g id="edge59" class="edge">
<title>25.0:e&#45;&gt;26.0:w</title>
<path fill="none" stroke="black" d="M828.01,-11.5C828.01,-11.5 842.08,-11.5 852.62,-11.5"/>
<polygon fill="black" stroke="black" points="852.5,-15 862.5,-11.5 852.5,-8 852.5,-15"/>
</g>
<!-- 11.0 -->
<g id="node25" class="node">
<title>11.0</title>
<text text-anchor="start" x="1016.02" y="-133.9" font-family="Times,serif" font-size="8.00">0</text>
<text text-anchor="start" x="1072.77" y="-133.9" font-family="Times,serif" font-size="8.00">644</text>
<text text-anchor="start" x="994.89" y="-114.45" font-family="Times,serif" font-size="14.00">11:</text>
<polygon fill="none" stroke="black" points="1014.02,-108.5 1014.02,-130.5 1086.02,-130.5 1086.02,-108.5 1014.02,-108.5"/>
<text text-anchor="start" x="1017.02" y="-114.2" font-family="Courier New" font-size="14.00">QFA..WAG</text>
</g>
<!-- 10.0&#45;&gt;11.0 -->
<g id="edge60" class="edge">
<title>10.0:e&#45;&gt;11.0:w</title>
<path fill="none" stroke="black" d="M957.02,-119.5C957.02,-119.5 971.08,-119.5 981.63,-119.5"/>
<polygon fill="black" stroke="black" points="981.5,-123 991.5,-119.5 981.5,-116 981.5,-123"/>
</g>
<!-- 19.0 -->
<g id="node26" class="node">
<title>19.0</title>
<text text-anchor="start" x="1016.02" y="-79.9" font-family="Times,serif" font-size="8.00">0</text>
<text text-anchor="start" x="1072.77" y="-79.9" font-family="Times,serif" font-size="8.00">647</text>
<text text-anchor="start" x="994.89" y="-60.45" font-family="Times,serif" font-size="14.00">19:</text>
<polygon fill="none" stroke="black" points="1014.02,-54.5 1014.02,-76.5 1086.02,-76.5 1086.02,-54.5 1014.02,-54.5"/>
<text text-anchor="start" x="1017.02" y="-60.2" font-family="Courier New" font-size="14.00">QFA..TGM</text>
</g>
<!-- 10.0&#45;&gt;19.0 -->
<g id="edge61" class="edge">
<title>10.0:e&#45;&gt;19.0:w</title>
<path fill="none" stroke="black" d="M957.02,-119.5C957.02,-119.5 976.43,-90.38 986.75,-74.91"/>
<polygon fill="black" stroke="black" points="989.54,-77.02 992.18,-66.76 983.72,-73.14 989.54,-77.02"/>
</g>
<!-- 27.0 -->
<g id="node27" class="node">
<title>27.0</title>
<text text-anchor="start" x="1016.02" y="-25.9" font-family="Times,serif" font-size="8.00">0</text>
<text text-anchor="start" x="1072.77" y="-25.9" font-family="Times,serif" font-size="8.00">654</text>
<text text-anchor="start" x="994.89" y="-6.45" font-family="Times,serif" font-size="14.00">27:</text>
<polygon fill="none" stroke="black" points="1014.02,-0.5 1014.02,-22.5 1086.02,-22.5 1086.02,-0.5 1014.02,-0.5"/>
<text text-anchor="start" x="1017.02" y="-6.2" font-family="Courier New" font-size="14.00">QFA..AGI</text>
</g>
<!-- 10.0&#45;&gt;27.0 -->
<g id="edge62" class="edge">
<title>10.0:e&#45;&gt;27.0:w</title>
<path fill="none" stroke="black" d="M957.02,-119.5C957.02,-119.5 980.33,-49.57 989.43,-22.25"/>
<polygon fill="black" stroke="black" points="992.7,-23.53 992.54,-12.94 986.06,-21.32 992.7,-23.53"/>
</g>
<!-- 18.0&#45;&gt;11.0 -->
<g id="edge63" class="edge">
<title>18.0:e&#45;&gt;11.0:w</title>
<path fill="none" stroke="black" d="M957.02,-65.5C957.02,-65.5 976.43,-94.62 986.75,-110.09"/>
<polygon fill="black" stroke="black" points="983.72,-111.86 992.18,-118.24 989.54,-107.98 983.72,-111.86"/>
</g>
<!-- 18.0&#45;&gt;19.0 -->
<g id="edge64" class="edge">
<title>18.0:e&#45;&gt;19.0:w</title>
<path fill="none" stroke="black" d="M957.02,-65.5C957.02,-65.5 971.08,-65.5 981.63,-65.5"/>
<polygon fill="black" stroke="black" points="981.5,-69 991.5,-65.5 981.5,-62 981.5,-69"/>
</g>
<!-- 18.0&#45;&gt;27.0 -->
<g id="edge65" class="edge">
<title>18.0:e&#45;&gt;27.0:w</title>
<path fill="none" stroke="black" d="M957.02,-65.5C957.02,-65.5 976.43,-36.38 986.75,-20.91"/>
<polygon fill="black" stroke="black" points="989.54,-23.02 992.18,-12.76 983.72,-19.14 989.54,-23.02"/>
</g>
<!-- 26.0&#45;&gt;11.0 -->
<g id="edge66" class="edge">
<title>26.0:e&#45;&gt;11.0:w</title>
<path fill="none" stroke="black" d="M957.02,-11.5C957.02,-11.5 980.33,-81.43 989.43,-108.75"/>
<polygon fill="black" stroke="black" points="986.06,-109.68 992.54,-118.06 992.7,-107.47 986.06,-109.68"/>
</g>
<!-- 26.0&#45;&gt;19.0 -->
<g id="edge67" class="edge">
<title>26.0:e&#45;&gt;19.0:w</title>
<path fill="none" stroke="black" d="M957.02,-11.5C957.02,-11.5 976.43,-40.62 986.75,-56.09"/>
<polygon fill="black" stroke="black" points="983.72,-57.86 992.18,-64.24 989.54,-53.98 983.72,-57.86"/>
</g>
<!-- 26.0&#45;&gt;27.0 -->
<g id="edge68" class="edge">
<title>26.0:e&#45;&gt;27.0:w</title>
<path fill="none" stroke="black" d="M957.02,-11.5C957.02,-11.5 971.08,-11.5 981.63,-11.5"/>
<polygon fill="black" stroke="black" points="981.5,-15 991.5,-11.5 981.5,-8 981.5,-15"/>
</g>
<!-- 11.0&#45;&gt;sink -->
<g id="edge69" class="edge">
<title>11.0:e&#45;&gt;sink:w</title>
<path fill="none" stroke="black" d="M1086.02,-119.5C1086.02,-119.5 1102.27,-107.54 1112.93,-99.69"/>
<polygon fill="black" stroke="black" points="1114.82,-102.64 1120.8,-93.9 1110.67,-97.01 1114.82,-102.64"/>
</g>
<!-- 19.0&#45;&gt;sink -->
<g id="edge70" class="edge">
<title>19.0:e&#45;&gt;sink:w</title>
<path fill="none" stroke="black" d="M1086.02,-65.5C1086.02,-65.5 1102.27,-77.91 1112.93,-86.06"/>
<polygon fill="black" stroke="black" points="1110.75,-88.79 1120.82,-92.08 1114.99,-83.23 1110.75,-88.79"/>
</g>
<!-- 27.0&#45;&gt;sink -->
<g id="edge71" class="edge">
<title>27.0:e&#45;&gt;sink:w</title>
<path fill="none" stroke="black" d="M1086.02,-11.5C1086.02,-11.5 1107.77,-60.75 1117.46,-82.68"/>
<polygon fill="black" stroke="black" points="1114.17,-83.88 1121.41,-91.62 1120.57,-81.05 1114.17,-83.88"/>
</g>
</g>
</svg>
