<?xml version="1.0" encoding="UTF-8" standalone="no"?>
<!DOCTYPE svg PUBLIC "-//W3C//DTD SVG 1.1//EN"
 "http://www.w3.org/Graphics/SVG/1.1/DTD/svg11.dtd">
<!-- Generated by graphviz version 12.1.1 (20240910.0053)
 -->
<!-- Pages: 1 -->
<svg width="1016pt" height="214pt"
 viewBox="0.00 0.00 1016.00 213.75" xmlns="http://www.w3.org/2000/svg" xmlns:xlink="http://www.w3.org/1999/xlink">
<g id="graph0" class="graph" transform="scale(1 1) rotate(0) translate(4 209.75)">
<polygon fill="white" stroke="none" points="-4,4 -4,-209.75 1012,-209.75 1012,4 -4,4"/>
<!-- start -->
<g id="node1" class="node">
<title>start</title>
<ellipse fill="none" stroke="black" cx="27" cy="-109.88" rx="27" ry="18"/>
<text text-anchor="middle" x="27" y="-104.83" font-family="Times,serif" font-size="14.00">start</text>
</g>
<!-- 3.0 -->
<g id="node2" class="node">
<title>3.0</title>
<polygon fill="none" stroke="black" points="198,-183.25 198,-205.75 270,-205.75 270,-183.25 198,-183.25"/>
<text text-anchor="start" x="201" y="-189.45" font-family="Courier,monospace" font-size="14.00">MTI..WAG</text>
<text text-anchor="start" x="213.38" y="-171.75" font-family="Times,serif" font-size="10.00">3.0 &#45; 1048</text>
</g>
<!-- start&#45;&gt;3.0 -->
<g id="edge1" class="edge">
<title>start:e&#45;&gt;3.0:w</title>
<path fill="none" stroke="black" d="M54,-109.88C54,-109.88 90,-158.88 90,-158.88 90,-158.88 159.93,-181.94 187.25,-190.95"/>
<polygon fill="black" stroke="black" points="185.97,-194.22 196.56,-194.03 188.16,-187.57 185.97,-194.22"/>
</g>
<!-- 4.0 -->
<g id="node3" class="node">
<title>4.0</title>
<polygon fill="none" stroke="black" points="90,-127.25 90,-149.75 162,-149.75 162,-127.25 90,-127.25"/>
<text text-anchor="start" x="93" y="-133.45" font-family="Courier,monospace" font-size="14.00">MTI..ACD</text>
<text text-anchor="start" x="110.62" y="-115.75" font-family="Times,serif" font-size="10.00">4.0 &#45; 63</text>
</g>
<!-- start&#45;&gt;4.0 -->
<g id="edge2" class="edge">
<title>start:e&#45;&gt;4.0:w</title>
<path fill="none" stroke="black" d="M54,-109.88C54,-109.88 70.63,-123.1 81.29,-131.57"/>
<polygon fill="black" stroke="black" points="78.81,-134.07 88.82,-137.56 83.17,-128.59 78.81,-134.07"/>
</g>
<!-- 12.0 -->
<g id="node4" class="node">
<title>12.0</title>
<polygon fill="none" stroke="black" points="90,-71.25 90,-93.75 162,-93.75 162,-71.25 90,-71.25"/>
<text text-anchor="start" x="93" y="-77.45" font-family="Courier,monospace" font-size="14.00">MKQ..VCD</text>
<text text-anchor="start" x="108" y="-59.75" font-family="Times,serif" font-size="10.00">12.0 &#45; 64</text>
</g>
<!-- start&#45;&gt;12.0 -->
<g id="edge3" class="edge">
<title>start:e&#45;&gt;12.0:w</title>
<path fill="none" stroke="black" d="M54,-109.88C54,-109.88 70.25,-97.52 80.92,-89.41"/>
<polygon fill="black" stroke="black" points="82.95,-92.26 88.8,-83.42 78.72,-86.68 82.95,-92.26"/>
</g>
<!-- 20.0 -->
<g id="node5" class="node">
<title>20.0</title>
<polygon fill="none" stroke="black" points="90,-15.25 90,-37.75 162,-37.75 162,-15.25 90,-15.25"/>
<text text-anchor="start" x="93" y="-21.45" font-family="Courier,monospace" font-size="14.00">MKE..VCD</text>
<text text-anchor="start" x="108" y="-3.75" font-family="Times,serif" font-size="10.00">20.0 &#45; 64</text>
</g>
<!-- start&#45;&gt;20.0 -->
<g id="edge4" class="edge">
<title>start:e&#45;&gt;20.0:w</title>
<path fill="none" stroke="black" d="M54,-109.88C54,-109.88 75.75,-59.49 85.44,-37.06"/>
<polygon fill="black" stroke="black" points="88.65,-38.46 89.4,-27.89 82.22,-35.68 88.65,-38.46"/>
</g>
<!-- end -->
<g id="node6" class="node">
<title>end</title>
<ellipse fill="none" stroke="black" cx="981" cy="-109.88" rx="27" ry="18"/>
<text text-anchor="middle" x="981" y="-104.83" font-family="Times,serif" font-size="14.00">end</text>
</g>
<!-- 3.0&#45;&gt;end -->
<g id="edge5" class="edge">
<title>3.0:e&#45;&gt;end:w</title>
<path fill="none" stroke="black" d="M270,-194.5C270,-194.5 449,-185.88 449,-185.88 449,-185.88 449,-185.88 775,-185.88 775,-185.88 918,-158.88 918,-158.88 918,-158.88 937,-133.01 947.4,-118.86"/>
<polygon fill="black" stroke="black" points="950,-121.23 953.1,-111.09 944.36,-117.08 950,-121.23"/>
</g>
<!-- 5.0 -->
<g id="node7" class="node">
<title>5.0</title>
<polygon fill="none" stroke="black" points="198,-127.25 198,-149.75 270,-149.75 270,-127.25 198,-127.25"/>
<text text-anchor="start" x="201" y="-133.45" font-family="Courier,monospace" font-size="14.00">ESR..MVD</text>
<text text-anchor="start" x="218.62" y="-115.75" font-family="Times,serif" font-size="10.00">5.0 &#45; 57</text>
</g>
<!-- 4.0&#45;&gt;5.0 -->
<g id="edge6" class="edge">
<title>4.0:e&#45;&gt;5.0:w</title>
<path fill="none" stroke="black" d="M162,-138.5C162,-138.5 176.06,-138.5 186.61,-138.5"/>
<polygon fill="black" stroke="black" points="186.49,-142 196.49,-138.5 186.49,-135 186.49,-142"/>
</g>
<!-- 13.0 -->
<g id="node8" class="node">
<title>13.0</title>
<polygon fill="none" stroke="black" points="198,-71.25 198,-93.75 270,-93.75 270,-71.25 198,-71.25"/>
<text text-anchor="start" x="201" y="-77.45" font-family="Courier,monospace" font-size="14.00">EKR..MLD</text>
<text text-anchor="start" x="216" y="-59.75" font-family="Times,serif" font-size="10.00">13.0 &#45; 57</text>
</g>
<!-- 4.0&#45;&gt;13.0 -->
<g id="edge7" class="edge">
<title>4.0:e&#45;&gt;13.0:w</title>
<path fill="none" stroke="black" d="M162,-138.5C162,-138.5 181.62,-107.98 191.89,-92"/>
<polygon fill="black" stroke="black" points="194.72,-94.08 197.18,-83.77 188.83,-90.29 194.72,-94.08"/>
</g>
<!-- 21.0 -->
<g id="node9" class="node">
<title>21.0</title>
<polygon fill="none" stroke="black" points="198,-15.25 198,-37.75 270,-37.75 270,-15.25 198,-15.25"/>
<text text-anchor="start" x="201" y="-21.45" font-family="Courier,monospace" font-size="14.00">EER..MVD</text>
<text text-anchor="start" x="216" y="-3.75" font-family="Times,serif" font-size="10.00">21.0 &#45; 57</text>
</g>
<!-- 4.0&#45;&gt;21.0 -->
<g id="edge8" class="edge">
<title>4.0:e&#45;&gt;21.0:w</title>
<path fill="none" stroke="black" d="M162,-138.5C162,-138.5 185.54,-65.27 194.55,-37.24"/>
<polygon fill="black" stroke="black" points="197.81,-38.53 197.54,-27.94 191.14,-36.39 197.81,-38.53"/>
</g>
<!-- 12.0&#45;&gt;5.0 -->
<g id="edge9" class="edge">
<title>12.0:e&#45;&gt;5.0:w</title>
<path fill="none" stroke="black" d="M162,-82.5C162,-82.5 181.62,-113.02 191.89,-129"/>
<polygon fill="black" stroke="black" points="188.83,-130.71 197.18,-137.23 194.72,-126.92 188.83,-130.71"/>
</g>
<!-- 12.0&#45;&gt;13.0 -->
<g id="edge10" class="edge">
<title>12.0:e&#45;&gt;13.0:w</title>
<path fill="none" stroke="black" d="M162,-82.5C162,-82.5 176.06,-82.5 186.61,-82.5"/>
<polygon fill="black" stroke="black" points="186.49,-86 196.49,-82.5 186.49,-79 186.49,-86"/>
</g>
<!-- 12.0&#45;&gt;21.0 -->
<g id="edge11" class="edge">
<title>12.0:e&#45;&gt;21.0:w</title>
<path fill="none" stroke="black" d="M162,-82.5C162,-82.5 181.62,-51.98 191.89,-36"/>
<polygon fill="black" stroke="black" points="194.72,-38.08 197.18,-27.77 188.83,-34.29 194.72,-38.08"/>
</g>
<!-- 20.0&#45;&gt;5.0 -->
<g id="edge12" class="edge">
<title>20.0:e&#45;&gt;5.0:w</title>
<path fill="none" stroke="black" d="M162,-26.5C162,-26.5 185.54,-99.73 194.55,-127.76"/>
<polygon fill="black" stroke="black" points="191.14,-128.61 197.54,-137.06 197.81,-126.47 191.14,-128.61"/>
</g>
<!-- 20.0&#45;&gt;13.0 -->
<g id="edge13" class="edge">
<title>20.0:e&#45;&gt;13.0:w</title>
<path fill="none" stroke="black" d="M162,-26.5C162,-26.5 181.62,-57.02 191.89,-73"/>
<polygon fill="black" stroke="black" points="188.83,-74.71 197.18,-81.23 194.72,-70.92 188.83,-74.71"/>
</g>
<!-- 20.0&#45;&gt;21.0 -->
<g id="edge14" class="edge">
<title>20.0:e&#45;&gt;21.0:w</title>
<path fill="none" stroke="black" d="M162,-26.5C162,-26.5 176.06,-26.5 186.61,-26.5"/>
<polygon fill="black" stroke="black" points="186.49,-30 196.49,-26.5 186.49,-23 186.49,-30"/>
</g>
<!-- 6.0 -->
<g id="node10" class="node">
<title>6.0</title>
<polygon fill="none" stroke="black" points="306,-127.25 306,-149.75 378,-149.75 378,-127.25 306,-127.25"/>
<text text-anchor="start" x="309" y="-133.45" font-family="Courier,monospace" font-size="14.00">IAV..NSF</text>
<text text-anchor="start" x="326.62" y="-115.75" font-family="Times,serif" font-size="10.00">6.0 &#45; 43</text>
</g>
<!-- 5.0&#45;&gt;6.0 -->
<g id="edge15" class="edge">
<title>5.0:e&#45;&gt;6.0:w</title>
<path fill="none" stroke="black" d="M270,-138.5C270,-138.5 284.06,-138.5 294.61,-138.5"/>
<polygon fill="black" stroke="black" points="294.49,-142 304.49,-138.5 294.49,-135 294.49,-142"/>
</g>
<!-- 14.0 -->
<g id="node11" class="node">
<title>14.0</title>
<polygon fill="none" stroke="black" points="306,-71.25 306,-93.75 378,-93.75 378,-71.25 306,-71.25"/>
<text text-anchor="start" x="309" y="-77.45" font-family="Courier,monospace" font-size="14.00">IAT..NSF</text>
<text text-anchor="start" x="324" y="-59.75" font-family="Times,serif" font-size="10.00">14.0 &#45; 43</text>
</g>
<!-- 5.0&#45;&gt;14.0 -->
<g id="edge16" class="edge">
<title>5.0:e&#45;&gt;14.0:w</title>
<path fill="none" stroke="black" d="M270,-138.5C270,-138.5 289.62,-107.98 299.89,-92"/>
<polygon fill="black" stroke="black" points="302.72,-94.08 305.18,-83.77 296.83,-90.29 302.72,-94.08"/>
</g>
<!-- 22.0 -->
<g id="node12" class="node">
<title>22.0</title>
<polygon fill="none" stroke="black" points="306,-15.25 306,-37.75 378,-37.75 378,-15.25 306,-15.25"/>
<text text-anchor="start" x="309" y="-21.45" font-family="Courier,monospace" font-size="14.00">IAV..NSY</text>
<text text-anchor="start" x="324" y="-3.75" font-family="Times,serif" font-size="10.00">22.0 &#45; 43</text>
</g>
<!-- 5.0&#45;&gt;22.0 -->
<g id="edge17" class="edge">
<title>5.0:e&#45;&gt;22.0:w</title>
<path fill="none" stroke="black" d="M270,-138.5C270,-138.5 293.54,-65.27 302.55,-37.24"/>
<polygon fill="black" stroke="black" points="305.81,-38.53 305.54,-27.94 299.14,-36.39 305.81,-38.53"/>
</g>
<!-- 13.0&#45;&gt;6.0 -->
<g id="edge18" class="edge">
<title>13.0:e&#45;&gt;6.0:w</title>
<path fill="none" stroke="black" d="M270,-82.5C270,-82.5 289.62,-113.02 299.89,-129"/>
<polygon fill="black" stroke="black" points="296.83,-130.71 305.18,-137.23 302.72,-126.92 296.83,-130.71"/>
</g>
<!-- 13.0&#45;&gt;14.0 -->
<g id="edge19" class="edge">
<title>13.0:e&#45;&gt;14.0:w</title>
<path fill="none" stroke="black" d="M270,-82.5C270,-82.5 284.06,-82.5 294.61,-82.5"/>
<polygon fill="black" stroke="black" points="294.49,-86 304.49,-82.5 294.49,-79 294.49,-86"/>
</g>
<!-- 13.0&#45;&gt;22.0 -->
<g id="edge20" class="edge">
<title>13.0:e&#45;&gt;22.0:w</title>
<path fill="none" stroke="black" d="M270,-82.5C270,-82.5 289.62,-51.98 299.89,-36"/>
<polygon fill="black" stroke="black" points="302.72,-38.08 305.18,-27.77 296.83,-34.29 302.72,-38.08"/>
</g>
<!-- 21.0&#45;&gt;6.0 -->
<g id="edge21" class="edge">
<title>21.0:e&#45;&gt;6.0:w</title>
<path fill="none" stroke="black" d="M270,-26.5C270,-26.5 293.54,-99.73 302.55,-127.76"/>
<polygon fill="black" stroke="black" points="299.14,-128.61 305.54,-137.06 305.81,-126.47 299.14,-128.61"/>
</g>
<!-- 21.0&#45;&gt;14.0 -->
<g id="edge22" class="edge">
<title>21.0:e&#45;&gt;14.0:w</title>
<path fill="none" stroke="black" d="M270,-26.5C270,-26.5 289.62,-57.02 299.89,-73"/>
<polygon fill="black" stroke="black" points="296.83,-74.71 305.18,-81.23 302.72,-70.92 296.83,-74.71"/>
</g>
<!-- 21.0&#45;&gt;22.0 -->
<g id="edge23" class="edge">
<title>21.0:e&#45;&gt;22.0:w</title>
<path fill="none" stroke="black" d="M270,-26.5C270,-26.5 284.06,-26.5 294.61,-26.5"/>
<polygon fill="black" stroke="black" points="294.49,-30 304.49,-26.5 294.49,-23 294.49,-30"/>
</g>
<!-- 7.0 -->
<g id="node13" class="node">
<title>7.0</title>
<polygon fill="none" stroke="black" points="414,-127.25 414,-149.75 486,-149.75 486,-127.25 414,-127.25"/>
<text text-anchor="start" x="417" y="-133.45" font-family="Courier,monospace" font-size="14.00">YRD..NDL</text>
<text text-anchor="start" x="434.62" y="-115.75" font-family="Times,serif" font-size="10.00">7.0 &#45; 49</text>
</g>
<!-- 6.0&#45;&gt;7.0 -->
<g id="edge24" class="edge">
<title>6.0:e&#45;&gt;7.0:w</title>
<path fill="none" stroke="black" d="M378,-138.5C378,-138.5 392.06,-138.5 402.61,-138.5"/>
<polygon fill="black" stroke="black" points="402.49,-142 412.49,-138.5 402.49,-135 402.49,-142"/>
</g>
<!-- 15.0 -->
<g id="node14" class="node">
<title>15.0</title>
<polygon fill="none" stroke="black" points="414,-71.25 414,-93.75 486,-93.75 486,-71.25 414,-71.25"/>
<text text-anchor="start" x="417" y="-77.45" font-family="Courier,monospace" font-size="14.00">YRD..NSL</text>
<text text-anchor="start" x="432" y="-59.75" font-family="Times,serif" font-size="10.00">15.0 &#45; 49</text>
</g>
<!-- 6.0&#45;&gt;15.0 -->
<g id="edge25" class="edge">
<title>6.0:e&#45;&gt;15.0:w</title>
<path fill="none" stroke="black" d="M378,-138.5C378,-138.5 397.62,-107.98 407.89,-92"/>
<polygon fill="black" stroke="black" points="410.72,-94.08 413.18,-83.77 404.83,-90.29 410.72,-94.08"/>
</g>
<!-- 23.0 -->
<g id="node15" class="node">
<title>23.0</title>
<polygon fill="none" stroke="black" points="414,-15.25 414,-37.75 486,-37.75 486,-15.25 414,-15.25"/>
<text text-anchor="start" x="417" y="-21.45" font-family="Courier,monospace" font-size="14.00">YRE..FSL</text>
<text text-anchor="start" x="432" y="-3.75" font-family="Times,serif" font-size="10.00">23.0 &#45; 49</text>
</g>
<!-- 6.0&#45;&gt;23.0 -->
<g id="edge26" class="edge">
<title>6.0:e&#45;&gt;23.0:w</title>
<path fill="none" stroke="black" d="M378,-138.5C378,-138.5 401.54,-65.27 410.55,-37.24"/>
<polygon fill="black" stroke="black" points="413.81,-38.53 413.54,-27.94 407.14,-36.39 413.81,-38.53"/>
</g>
<!-- 14.0&#45;&gt;7.0 -->
<g id="edge27" class="edge">
<title>14.0:e&#45;&gt;7.0:w</title>
<path fill="none" stroke="black" d="M378,-82.5C378,-82.5 397.62,-113.02 407.89,-129"/>
<polygon fill="black" stroke="black" points="404.83,-130.71 413.18,-137.23 410.72,-126.92 404.83,-130.71"/>
</g>
<!-- 14.0&#45;&gt;15.0 -->
<g id="edge28" class="edge">
<title>14.0:e&#45;&gt;15.0:w</title>
<path fill="none" stroke="black" d="M378,-82.5C378,-82.5 392.06,-82.5 402.61,-82.5"/>
<polygon fill="black" stroke="black" points="402.49,-86 412.49,-82.5 402.49,-79 402.49,-86"/>
</g>
<!-- 14.0&#45;&gt;23.0 -->
<g id="edge29" class="edge">
<title>14.0:e&#45;&gt;23.0:w</title>
<path fill="none" stroke="black" d="M378,-82.5C378,-82.5 397.62,-51.98 407.89,-36"/>
<polygon fill="black" stroke="black" points="410.72,-38.08 413.18,-27.77 404.83,-34.29 410.72,-38.08"/>
</g>
<!-- 22.0&#45;&gt;7.0 -->
<g id="edge30" class="edge">
<title>22.0:e&#45;&gt;7.0:w</title>
<path fill="none" stroke="black" d="M378,-26.5C378,-26.5 401.54,-99.73 410.55,-127.76"/>
<polygon fill="black" stroke="black" points="407.14,-128.61 413.54,-137.06 413.81,-126.47 407.14,-128.61"/>
</g>
<!-- 22.0&#45;&gt;15.0 -->
<g id="edge31" class="edge">
<title>22.0:e&#45;&gt;15.0:w</title>
<path fill="none" stroke="black" d="M378,-26.5C378,-26.5 397.62,-57.02 407.89,-73"/>
<polygon fill="black" stroke="black" points="404.83,-74.71 413.18,-81.23 410.72,-70.92 404.83,-74.71"/>
</g>
<!-- 22.0&#45;&gt;23.0 -->
<g id="edge32" class="edge">
<title>22.0:e&#45;&gt;23.0:w</title>
<path fill="none" stroke="black" d="M378,-26.5C378,-26.5 392.06,-26.5 402.61,-26.5"/>
<polygon fill="black" stroke="black" points="402.49,-30 412.49,-26.5 402.49,-23 402.49,-30"/>
</g>
<!-- 8.0 -->
<g id="node16" class="node">
<title>8.0</title>
<polygon fill="none" stroke="black" points="522,-127.25 522,-149.75 594,-149.75 594,-127.25 522,-127.25"/>
<text text-anchor="start" x="525" y="-133.45" font-family="Courier,monospace" font-size="14.00">VDK..GHE</text>
<text text-anchor="start" x="542.62" y="-115.75" font-family="Times,serif" font-size="10.00">8.0 &#45; 51</text>
</g>
<!-- 7.0&#45;&gt;8.0 -->
<g id="edge33" class="edge">
<title>7.0:e&#45;&gt;8.0:w</title>
<path fill="none" stroke="black" d="M486,-138.5C486,-138.5 500.06,-138.5 510.61,-138.5"/>
<polygon fill="black" stroke="black" points="510.49,-142 520.49,-138.5 510.49,-135 510.49,-142"/>
</g>
<!-- 16.0 -->
<g id="node17" class="node">
<title>16.0</title>
<polygon fill="none" stroke="black" points="522,-71.25 522,-93.75 594,-93.75 594,-71.25 522,-71.25"/>
<text text-anchor="start" x="525" y="-77.45" font-family="Courier,monospace" font-size="14.00">VDR..GHE</text>
<text text-anchor="start" x="540" y="-59.75" font-family="Times,serif" font-size="10.00">16.0 &#45; 52</text>
</g>
<!-- 7.0&#45;&gt;16.0 -->
<g id="edge34" class="edge">
<title>7.0:e&#45;&gt;16.0:w</title>
<path fill="none" stroke="black" d="M486,-138.5C486,-138.5 505.62,-107.98 515.89,-92"/>
<polygon fill="black" stroke="black" points="518.72,-94.08 521.18,-83.77 512.83,-90.29 518.72,-94.08"/>
</g>
<!-- 24.0 -->
<g id="node18" class="node">
<title>24.0</title>
<polygon fill="none" stroke="black" points="522,-15.25 522,-37.75 594,-37.75 594,-15.25 522,-15.25"/>
<text text-anchor="start" x="525" y="-21.45" font-family="Courier,monospace" font-size="14.00">VDS..GHE</text>
<text text-anchor="start" x="540" y="-3.75" font-family="Times,serif" font-size="10.00">24.0 &#45; 52</text>
</g>
<!-- 7.0&#45;&gt;24.0 -->
<g id="edge35" class="edge">
<title>7.0:e&#45;&gt;24.0:w</title>
<path fill="none" stroke="black" d="M486,-138.5C486,-138.5 509.54,-65.27 518.55,-37.24"/>
<polygon fill="black" stroke="black" points="521.81,-38.53 521.54,-27.94 515.14,-36.39 521.81,-38.53"/>
</g>
<!-- 15.0&#45;&gt;8.0 -->
<g id="edge36" class="edge">
<title>15.0:e&#45;&gt;8.0:w</title>
<path fill="none" stroke="black" d="M486,-82.5C486,-82.5 505.62,-113.02 515.89,-129"/>
<polygon fill="black" stroke="black" points="512.83,-130.71 521.18,-137.23 518.72,-126.92 512.83,-130.71"/>
</g>
<!-- 15.0&#45;&gt;16.0 -->
<g id="edge37" class="edge">
<title>15.0:e&#45;&gt;16.0:w</title>
<path fill="none" stroke="black" d="M486,-82.5C486,-82.5 500.06,-82.5 510.61,-82.5"/>
<polygon fill="black" stroke="black" points="510.49,-86 520.49,-82.5 510.49,-79 510.49,-86"/>
</g>
<!-- 15.0&#45;&gt;24.0 -->
<g id="edge38" class="edge">
<title>15.0:e&#45;&gt;24.0:w</title>
<path fill="none" stroke="black" d="M486,-82.5C486,-82.5 505.62,-51.98 515.89,-36"/>
<polygon fill="black" stroke="black" points="518.72,-38.08 521.18,-27.77 512.83,-34.29 518.72,-38.08"/>
</g>
<!-- 23.0&#45;&gt;8.0 -->
<g id="edge39" class="edge">
<title>23.0:e&#45;&gt;8.0:w</title>
<path fill="none" stroke="black" d="M486,-26.5C486,-26.5 509.54,-99.73 518.55,-127.76"/>
<polygon fill="black" stroke="black" points="515.14,-128.61 521.54,-137.06 521.81,-126.47 515.14,-128.61"/>
</g>
<!-- 23.0&#45;&gt;16.0 -->
<g id="edge40" class="edge">
<title>23.0:e&#45;&gt;16.0:w</title>
<path fill="none" stroke="black" d="M486,-26.5C486,-26.5 505.62,-57.02 515.89,-73"/>
<polygon fill="black" stroke="black" points="512.83,-74.71 521.18,-81.23 518.72,-70.92 512.83,-74.71"/>
</g>
<!-- 23.0&#45;&gt;24.0 -->
<g id="edge41" class="edge">
<title>23.0:e&#45;&gt;24.0:w</title>
<path fill="none" stroke="black" d="M486,-26.5C486,-26.5 500.06,-26.5 510.61,-26.5"/>
<polygon fill="black" stroke="black" points="510.49,-30 520.49,-26.5 510.49,-23 510.49,-30"/>
</g>
<!-- 9.0 -->
<g id="node19" class="node">
<title>9.0</title>
<polygon fill="none" stroke="black" points="630,-127.25 630,-149.75 702,-149.75 702,-127.25 630,-127.25"/>
<text text-anchor="start" x="633" y="-133.45" font-family="Courier,monospace" font-size="14.00">TTS..WPT</text>
<text text-anchor="start" x="650.62" y="-115.75" font-family="Times,serif" font-size="10.00">9.0 &#45; 59</text>
</g>
<!-- 8.0&#45;&gt;9.0 -->
<g id="edge42" class="edge">
<title>8.0:e&#45;&gt;9.0:w</title>
<path fill="none" stroke="black" d="M594,-138.5C594,-138.5 608.06,-138.5 618.61,-138.5"/>
<polygon fill="black" stroke="black" points="618.49,-142 628.49,-138.5 618.49,-135 618.49,-142"/>
</g>
<!-- 17.0 -->
<g id="node20" class="node">
<title>17.0</title>
<polygon fill="none" stroke="black" points="630,-71.25 630,-93.75 702,-93.75 702,-71.25 630,-71.25"/>
<text text-anchor="start" x="633" y="-77.45" font-family="Courier,monospace" font-size="14.00">TTS..YPT</text>
<text text-anchor="start" x="648" y="-59.75" font-family="Times,serif" font-size="10.00">17.0 &#45; 59</text>
</g>
<!-- 8.0&#45;&gt;17.0 -->
<g id="edge43" class="edge">
<title>8.0:e&#45;&gt;17.0:w</title>
<path fill="none" stroke="black" d="M594,-138.5C594,-138.5 613.62,-107.98 623.89,-92"/>
<polygon fill="black" stroke="black" points="626.72,-94.08 629.18,-83.77 620.83,-90.29 626.72,-94.08"/>
</g>
<!-- 25.0 -->
<g id="node21" class="node">
<title>25.0</title>
<polygon fill="none" stroke="black" points="630,-15.25 630,-37.75 702,-37.75 702,-15.25 630,-15.25"/>
<text text-anchor="start" x="633" y="-21.45" font-family="Courier,monospace" font-size="14.00">TTS..WPT</text>
<text text-anchor="start" x="648" y="-3.75" font-family="Times,serif" font-size="10.00">25.0 &#45; 59</text>
</g>
<!-- 8.0&#45;&gt;25.0 -->
<g id="edge44" class="edge">
<title>8.0:e&#45;&gt;25.0:w</title>
<path fill="none" stroke="black" d="M594,-138.5C594,-138.5 617.54,-65.27 626.55,-37.24"/>
<polygon fill="black" stroke="black" points="629.81,-38.53 629.54,-27.94 623.14,-36.39 629.81,-38.53"/>
</g>
<!-- 16.0&#45;&gt;9.0 -->
<g id="edge45" class="edge">
<title>16.0:e&#45;&gt;9.0:w</title>
<path fill="none" stroke="black" d="M594,-82.5C594,-82.5 613.62,-113.02 623.89,-129"/>
<polygon fill="black" stroke="black" points="620.83,-130.71 629.18,-137.23 626.72,-126.92 620.83,-130.71"/>
</g>
<!-- 16.0&#45;&gt;17.0 -->
<g id="edge46" class="edge">
<title>16.0:e&#45;&gt;17.0:w</title>
<path fill="none" stroke="black" d="M594,-82.5C594,-82.5 608.06,-82.5 618.61,-82.5"/>
<polygon fill="black" stroke="black" points="618.49,-86 628.49,-82.5 618.49,-79 618.49,-86"/>
</g>
<!-- 16.0&#45;&gt;25.0 -->
<g id="edge47" class="edge">
<title>16.0:e&#45;&gt;25.0:w</title>
<path fill="none" stroke="black" d="M594,-82.5C594,-82.5 613.62,-51.98 623.89,-36"/>
<polygon fill="black" stroke="black" points="626.72,-38.08 629.18,-27.77 620.83,-34.29 626.72,-38.08"/>
</g>
<!-- 24.0&#45;&gt;9.0 -->
<g id="edge48" class="edge">
<title>24.0:e&#45;&gt;9.0:w</title>
<path fill="none" stroke="black" d="M594,-26.5C594,-26.5 617.54,-99.73 626.55,-127.76"/>
<polygon fill="black" stroke="black" points="623.14,-128.61 629.54,-137.06 629.81,-126.47 623.14,-128.61"/>
</g>
<!-- 24.0&#45;&gt;17.0 -->
<g id="edge49" class="edge">
<title>24.0:e&#45;&gt;17.0:w</title>
<path fill="none" stroke="black" d="M594,-26.5C594,-26.5 613.62,-57.02 623.89,-73"/>
<polygon fill="black" stroke="black" points="620.83,-74.71 629.18,-81.23 626.72,-70.92 620.83,-74.71"/>
</g>
<!-- 24.0&#45;&gt;25.0 -->
<g id="edge50" class="edge">
<title>24.0:e&#45;&gt;25.0:w</title>
<path fill="none" stroke="black" d="M594,-26.5C594,-26.5 608.06,-26.5 618.61,-26.5"/>
<polygon fill="black" stroke="black" points="618.49,-30 628.49,-26.5 618.49,-23 618.49,-30"/>
</g>
<!-- 10.0 -->
<g id="node22" class="node">
<title>10.0</title>
<polygon fill="none" stroke="black" points="738,-127.25 738,-149.75 810,-149.75 810,-127.25 738,-127.25"/>
<text text-anchor="start" x="741" y="-133.45" font-family="Courier,monospace" font-size="14.00">APA..IGQ</text>
<text text-anchor="start" x="756" y="-115.75" font-family="Times,serif" font-size="10.00">10.0 &#45; 75</text>
</g>
<!-- 9.0&#45;&gt;10.0 -->
<g id="edge51" class="edge">
<title>9.0:e&#45;&gt;10.0:w</title>
<path fill="none" stroke="black" d="M702,-138.5C702,-138.5 716.06,-138.5 726.61,-138.5"/>
<polygon fill="black" stroke="black" points="726.49,-142 736.49,-138.5 726.49,-135 726.49,-142"/>
</g>
<!-- 18.0 -->
<g id="node23" class="node">
<title>18.0</title>
<polygon fill="none" stroke="black" points="738,-71.25 738,-93.75 810,-93.75 810,-71.25 738,-71.25"/>
<text text-anchor="start" x="741" y="-77.45" font-family="Courier,monospace" font-size="14.00">APA..IGM</text>
<text text-anchor="start" x="756" y="-59.75" font-family="Times,serif" font-size="10.00">18.0 &#45; 75</text>
</g>
<!-- 9.0&#45;&gt;18.0 -->
<g id="edge52" class="edge">
<title>9.0:e&#45;&gt;18.0:w</title>
<path fill="none" stroke="black" d="M702,-138.5C702,-138.5 721.62,-107.98 731.89,-92"/>
<polygon fill="black" stroke="black" points="734.72,-94.08 737.18,-83.77 728.83,-90.29 734.72,-94.08"/>
</g>
<!-- 26.0 -->
<g id="node24" class="node">
<title>26.0</title>
<polygon fill="none" stroke="black" points="738,-15.25 738,-37.75 810,-37.75 810,-15.25 738,-15.25"/>
<text text-anchor="start" x="741" y="-21.45" font-family="Courier,monospace" font-size="14.00">APA..IGM</text>
<text text-anchor="start" x="756" y="-3.75" font-family="Times,serif" font-size="10.00">26.0 &#45; 75</text>
</g>
<!-- 9.0&#45;&gt;26.0 -->
<g id="edge53" class="edge">
<title>9.0:e&#45;&gt;26.0:w</title>
<path fill="none" stroke="black" d="M702,-138.5C702,-138.5 725.54,-65.27 734.55,-37.24"/>
<polygon fill="black" stroke="black" points="737.81,-38.53 737.54,-27.94 731.14,-36.39 737.81,-38.53"/>
</g>
<!-- 17.0&#45;&gt;10.0 -->
<g id="edge54" class="edge">
<title>17.0:e&#45;&gt;10.0:w</title>
<path fill="none" stroke="black" d="M702,-82.5C702,-82.5 721.62,-113.02 731.89,-129"/>
<polygon fill="black" stroke="black" points="728.83,-130.71 737.18,-137.23 734.72,-126.92 728.83,-130.71"/>
</g>
<!-- 17.0&#45;&gt;18.0 -->
<g id="edge55" class="edge">
<title>17.0:e&#45;&gt;18.0:w</title>
<path fill="none" stroke="black" d="M702,-82.5C702,-82.5 716.06,-82.5 726.61,-82.5"/>
<polygon fill="black" stroke="black" points="726.49,-86 736.49,-82.5 726.49,-79 726.49,-86"/>
</g>
<!-- 17.0&#45;&gt;26.0 -->
<g id="edge56" class="edge">
<title>17.0:e&#45;&gt;26.0:w</title>
<path fill="none" stroke="black" d="M702,-82.5C702,-82.5 721.62,-51.98 731.89,-36"/>
<polygon fill="black" stroke="black" points="734.72,-38.08 737.18,-27.77 728.83,-34.29 734.72,-38.08"/>
</g>
<!-- 25.0&#45;&gt;10.0 -->
<g id="edge57" class="edge">
<title>25.0:e&#45;&gt;10.0:w</title>
<path fill="none" stroke="black" d="M702,-26.5C702,-26.5 725.54,-99.73 734.55,-127.76"/>
<polygon fill="black" stroke="black" points="731.14,-128.61 737.54,-137.06 737.81,-126.47 731.14,-128.61"/>
</g>
<!-- 25.0&#45;&gt;18.0 -->
<g id="edge58" class="edge">
<title>25.0:e&#45;&gt;18.0:w</title>
<path fill="none" stroke="black" d="M702,-26.5C702,-26.5 721.62,-57.02 731.89,-73"/>
<polygon fill="black" stroke="black" points="728.83,-74.71 737.18,-81.23 734.72,-70.92 728.83,-74.71"/>
</g>
<!-- 25.0&#45;&gt;26.0 -->
<g id="edge59" class="edge">
<title>25.0:e&#45;&gt;26.0:w</title>
<path fill="none" stroke="black" d="M702,-26.5C702,-26.5 716.06,-26.5 726.61,-26.5"/>
<polygon fill="black" stroke="black" points="726.49,-30 736.49,-26.5 726.49,-23 726.49,-30"/>
</g>
<!-- 11.0 -->
<g id="node25" class="node">
<title>11.0</title>
<polygon fill="none" stroke="black" points="846,-127.25 846,-149.75 918,-149.75 918,-127.25 846,-127.25"/>
<text text-anchor="start" x="849" y="-133.45" font-family="Courier,monospace" font-size="14.00">QFA..WAG</text>
<text text-anchor="start" x="862.12" y="-115.75" font-family="Times,serif" font-size="10.00">11.0 &#45; 644</text>
</g>
<!-- 10.0&#45;&gt;11.0 -->
<g id="edge60" class="edge">
<title>10.0:e&#45;&gt;11.0:w</title>
<path fill="none" stroke="black" d="M810,-138.5C810,-138.5 824.06,-138.5 834.61,-138.5"/>
<polygon fill="black" stroke="black" points="834.49,-142 844.49,-138.5 834.49,-135 834.49,-142"/>
</g>
<!-- 19.0 -->
<g id="node26" class="node">
<title>19.0</title>
<polygon fill="none" stroke="black" points="846,-71.25 846,-93.75 918,-93.75 918,-71.25 846,-71.25"/>
<text text-anchor="start" x="849" y="-77.45" font-family="Courier,monospace" font-size="14.00">QFA..TGM</text>
<text text-anchor="start" x="861.38" y="-59.75" font-family="Times,serif" font-size="10.00">19.0 &#45; 647</text>
</g>
<!-- 10.0&#45;&gt;19.0 -->
<g id="edge61" class="edge">
<title>10.0:e&#45;&gt;19.0:w</title>
<path fill="none" stroke="black" d="M810,-138.5C810,-138.5 829.62,-107.98 839.89,-92"/>
<polygon fill="black" stroke="black" points="842.72,-94.08 845.18,-83.77 836.83,-90.29 842.72,-94.08"/>
</g>
<!-- 27.0 -->
<g id="node27" class="node">
<title>27.0</title>
<polygon fill="none" stroke="black" points="846,-15.25 846,-37.75 918,-37.75 918,-15.25 846,-15.25"/>
<text text-anchor="start" x="849" y="-21.45" font-family="Courier,monospace" font-size="14.00">QFA..AGI</text>
<text text-anchor="start" x="861.38" y="-3.75" font-family="Times,serif" font-size="10.00">27.0 &#45; 654</text>
</g>
<!-- 10.0&#45;&gt;27.0 -->
<g id="edge62" class="edge">
<title>10.0:e&#45;&gt;27.0:w</title>
<path fill="none" stroke="black" d="M810,-138.5C810,-138.5 833.54,-65.27 842.55,-37.24"/>
<polygon fill="black" stroke="black" points="845.81,-38.53 845.54,-27.94 839.14,-36.39 845.81,-38.53"/>
</g>
<!-- 18.0&#45;&gt;11.0 -->
<g id="edge63" class="edge">
<title>18.0:e&#45;&gt;11.0:w</title>
<path fill="none" stroke="black" d="M810,-82.5C810,-82.5 829.62,-113.02 839.89,-129"/>
<polygon fill="black" stroke="black" points="836.83,-130.71 845.18,-137.23 842.72,-126.92 836.83,-130.71"/>
</g>
<!-- 18.0&#45;&gt;19.0 -->
<g id="edge64" class="edge">
<title>18.0:e&#45;&gt;19.0:w</title>
<path fill="none" stroke="black" d="M810,-82.5C810,-82.5 824.06,-82.5 834.61,-82.5"/>
<polygon fill="black" stroke="black" points="834.49,-86 844.49,-82.5 834.49,-79 834.49,-86"/>
</g>
<!-- 18.0&#45;&gt;27.0 -->
<g id="edge65" class="edge">
<title>18.0:e&#45;&gt;27.0:w</title>
<path fill="none" stroke="black" d="M810,-82.5C810,-82.5 829.62,-51.98 839.89,-36"/>
<polygon fill="black" stroke="black" points="842.72,-38.08 845.18,-27.77 836.83,-34.29 842.72,-38.08"/>
</g>
<!-- 26.0&#45;&gt;11.0 -->
<g id="edge66" class="edge">
<title>26.0:e&#45;&gt;11.0:w</title>
<path fill="none" stroke="black" d="M810,-26.5C810,-26.5 833.54,-99.73 842.55,-127.76"/>
<polygon fill="black" stroke="black" points="839.14,-128.61 845.54,-137.06 845.81,-126.47 839.14,-128.61"/>
</g>
<!-- 26.0&#45;&gt;19.0 -->
<g id="edge67" class="edge">
<title>26.0:e&#45;&gt;19.0:w</title>
<path fill="none" stroke="black" d="M810,-26.5C810,-26.5 829.62,-57.02 839.89,-73"/>
<polygon fill="black" stroke="black" points="836.83,-74.71 845.18,-81.23 842.72,-70.92 836.83,-74.71"/>
</g>
<!-- 26.0&#45;&gt;27.0 -->
<g id="edge68" class="edge">
<title>26.0:e&#45;&gt;27.0:w</title>
<path fill="none" stroke="black" d="M810,-26.5C810,-26.5 824.06,-26.5 834.61,-26.5"/>
<polygon fill="black" stroke="black" points="834.49,-30 844.49,-26.5 834.49,-23 834.49,-30"/>
</g>
<!-- 11.0&#45;&gt;end -->
<g id="edge69" class="edge">
<title>11.0:e&#45;&gt;end:w</title>
<path fill="none" stroke="black" d="M918,-138.5C918,-138.5 934.63,-125.28 945.29,-116.8"/>
<polygon fill="black" stroke="black" points="947.17,-119.78 952.82,-110.82 942.81,-114.3 947.17,-119.78"/>
</g>
<!-- 19.0&#45;&gt;end -->
<g id="edge70" class="edge">
<title>19.0:e&#45;&gt;end:w</title>
<path fill="none" stroke="black" d="M918,-82.5C918,-82.5 934.25,-94.86 944.92,-102.97"/>
<polygon fill="black" stroke="black" points="942.72,-105.69 952.8,-108.96 946.95,-100.12 942.72,-105.69"/>
</g>
<!-- 27.0&#45;&gt;end -->
<g id="edge71" class="edge">
<title>27.0:e&#45;&gt;end:w</title>
<path fill="none" stroke="black" d="M918,-26.5C918,-26.5 939.75,-76.88 949.44,-99.32"/>
<polygon fill="black" stroke="black" points="946.22,-100.69 953.4,-108.49 952.65,-97.92 946.22,-100.69"/>
</g>
</g>
</svg>
