<?xml version="1.0" encoding="UTF-8" standalone="no"?>
<!DOCTYPE svg PUBLIC "-//W3C//DTD SVG 1.1//EN"
 "http://www.w3.org/Graphics/SVG/1.1/DTD/svg11.dtd">
<!-- Generated by graphviz version 12.1.1 (20240910.0053)
 -->
<!-- Pages: 1 -->
<svg width="1112pt" height="206pt"
 viewBox="0.00 0.00 1112.02 206.00" xmlns="http://www.w3.org/2000/svg" xmlns:xlink="http://www.w3.org/1999/xlink">
<g id="graph0" class="graph" transform="scale(1 1) rotate(0) translate(4 202)">
<polygon fill="white" stroke="none" points="-4,4 -4,-202 1108.02,-202 1108.02,4 -4,4"/>
<!-- source -->
<g id="node1" class="node">
<title>source</title>
<ellipse fill="none" stroke="black" cx="27" cy="-93" rx="27" ry="18"/>
<text text-anchor="middle" x="27" y="-87.95" font-family="Times,serif" font-size="14.00">start</text>
</g>
<!-- 3.0 -->
<g id="node2" class="node">
<title>3.0</title>
<text text-anchor="start" x="229.5" y="-187.9" font-family="Times,serif" font-size="8.00">0</text>
<text text-anchor="start" x="273.5" y="-187.9" font-family="Times,serif" font-size="8.00">1048</text>
<text text-anchor="start" x="215.25" y="-168.45" font-family="Times,serif" font-size="14.00">3:</text>
<polygon fill="none" stroke="black" points="227.5,-162.5 227.5,-184.5 290.5,-184.5 290.5,-162.5 227.5,-162.5"/>
<text text-anchor="start" x="230.13" y="-168.2" font-family="Courier New" font-size="14.00">MTI…WAG</text>
</g>
<!-- source&#45;&gt;3.0 -->
<g id="edge1" class="edge">
<title>source:e&#45;&gt;3.0:w</title>
<path fill="none" stroke="black" d="M54,-93C54,-93 90,-153 90,-153 90,-153 170.87,-166.53 201.2,-171.61"/>
<polygon fill="black" stroke="black" points="200.57,-175.05 211.01,-173.25 201.73,-168.15 200.57,-175.05"/>
</g>
<!-- 4.0 -->
<g id="node3" class="node">
<title>4.0</title>
<text text-anchor="start" x="109.5" y="-133.9" font-family="Times,serif" font-size="8.00">0</text>
<text text-anchor="start" x="161" y="-133.9" font-family="Times,serif" font-size="8.00">63</text>
<text text-anchor="start" x="95.25" y="-114.45" font-family="Times,serif" font-size="14.00">4:</text>
<polygon fill="none" stroke="black" points="107.5,-108.5 107.5,-130.5 170.5,-130.5 170.5,-108.5 107.5,-108.5"/>
<text text-anchor="start" x="110.13" y="-114.2" font-family="Courier New" font-size="14.00">MTI…ACD</text>
</g>
<!-- source&#45;&gt;4.0 -->
<g id="edge2" class="edge">
<title>source:e&#45;&gt;4.0:w</title>
<path fill="none" stroke="black" d="M54,-93C54,-93 71.79,-105.24 83.18,-113.09"/>
<polygon fill="black" stroke="black" points="81.03,-115.86 91.25,-118.64 85,-110.09 81.03,-115.86"/>
</g>
<!-- 12.0 -->
<g id="node4" class="node">
<title>12.0</title>
<text text-anchor="start" x="113" y="-79.9" font-family="Times,serif" font-size="8.00">0</text>
<text text-anchor="start" x="164.5" y="-79.9" font-family="Times,serif" font-size="8.00">64</text>
<text text-anchor="start" x="91.88" y="-60.45" font-family="Times,serif" font-size="14.00">12:</text>
<polygon fill="none" stroke="black" points="111,-54.5 111,-76.5 174,-76.5 174,-54.5 111,-54.5"/>
<text text-anchor="start" x="113.63" y="-60.2" font-family="Courier New" font-size="14.00">MKQ…VCD</text>
</g>
<!-- source&#45;&gt;12.0 -->
<g id="edge3" class="edge">
<title>source:e&#45;&gt;12.0:w</title>
<path fill="none" stroke="black" d="M54,-93C54,-93 70.25,-80.59 80.92,-72.44"/>
<polygon fill="black" stroke="black" points="82.98,-75.27 88.8,-66.42 78.73,-69.71 82.98,-75.27"/>
</g>
<!-- 20.0 -->
<g id="node5" class="node">
<title>20.0</title>
<text text-anchor="start" x="113" y="-25.9" font-family="Times,serif" font-size="8.00">0</text>
<text text-anchor="start" x="164.5" y="-25.9" font-family="Times,serif" font-size="8.00">64</text>
<text text-anchor="start" x="91.88" y="-6.45" font-family="Times,serif" font-size="14.00">20:</text>
<polygon fill="none" stroke="black" points="111,-0.5 111,-22.5 174,-22.5 174,-0.5 111,-0.5"/>
<text text-anchor="start" x="113.63" y="-6.2" font-family="Courier New" font-size="14.00">MKE…VCD</text>
</g>
<!-- source&#45;&gt;20.0 -->
<g id="edge4" class="edge">
<title>source:e&#45;&gt;20.0:w</title>
<path fill="none" stroke="black" d="M54,-93C54,-93 75.75,-43.75 85.44,-21.82"/>
<polygon fill="black" stroke="black" points="88.55,-23.45 89.39,-12.88 82.15,-20.62 88.55,-23.45"/>
</g>
<!-- sink -->
<g id="node6" class="node">
<title>sink</title>
<ellipse fill="none" stroke="black" cx="1077.02" cy="-93" rx="27" ry="18"/>
<text text-anchor="middle" x="1077.02" y="-87.95" font-family="Times,serif" font-size="14.00">end</text>
</g>
<!-- 3.0&#45;&gt;sink -->
<g id="edge5" class="edge">
<title>3.0:e&#45;&gt;sink:w</title>
<path fill="none" stroke="black" d="M291.5,-173.5C291.5,-173.5 491.01,-173 491.01,-173 491.01,-173 491.01,-173 853.02,-173 853.02,-173 1014.02,-153 1014.02,-153 1014.02,-153 1034.06,-119.6 1044.24,-102.64"/>
<polygon fill="black" stroke="black" points="1047.1,-104.67 1049.24,-94.3 1041.09,-101.07 1047.1,-104.67"/>
</g>
<!-- 5.0 -->
<g id="node7" class="node">
<title>5.0</title>
<text text-anchor="start" x="229.5" y="-133.9" font-family="Times,serif" font-size="8.00">0</text>
<text text-anchor="start" x="281" y="-133.9" font-family="Times,serif" font-size="8.00">57</text>
<text text-anchor="start" x="215.25" y="-114.45" font-family="Times,serif" font-size="14.00">5:</text>
<polygon fill="none" stroke="black" points="227.5,-108.5 227.5,-130.5 290.5,-130.5 290.5,-108.5 227.5,-108.5"/>
<text text-anchor="start" x="230.13" y="-114.2" font-family="Courier New" font-size="14.00">ESR…MVD</text>
</g>
<!-- 4.0&#45;&gt;5.0 -->
<g id="edge6" class="edge">
<title>4.0:e&#45;&gt;5.0:w</title>
<path fill="none" stroke="black" d="M171.5,-119.5C171.5,-119.5 189.16,-119.5 201.3,-119.5"/>
<polygon fill="black" stroke="black" points="200.99,-123 210.99,-119.5 200.99,-116 200.99,-123"/>
</g>
<!-- 13.0 -->
<g id="node8" class="node">
<title>13.0</title>
<text text-anchor="start" x="233" y="-79.9" font-family="Times,serif" font-size="8.00">0</text>
<text text-anchor="start" x="284.5" y="-79.9" font-family="Times,serif" font-size="8.00">57</text>
<text text-anchor="start" x="211.88" y="-60.45" font-family="Times,serif" font-size="14.00">13:</text>
<polygon fill="none" stroke="black" points="231,-54.5 231,-76.5 294,-76.5 294,-54.5 231,-54.5"/>
<text text-anchor="start" x="233.63" y="-60.2" font-family="Courier New" font-size="14.00">EKR…MLD</text>
</g>
<!-- 4.0&#45;&gt;13.0 -->
<g id="edge7" class="edge">
<title>4.0:e&#45;&gt;13.0:w</title>
<path fill="none" stroke="black" d="M171.5,-119.5C171.5,-119.5 192.71,-89.75 203.64,-74.42"/>
<polygon fill="black" stroke="black" points="206.17,-76.91 209.12,-66.73 200.47,-72.84 206.17,-76.91"/>
</g>
<!-- 21.0 -->
<g id="node9" class="node">
<title>21.0</title>
<text text-anchor="start" x="233" y="-25.9" font-family="Times,serif" font-size="8.00">0</text>
<text text-anchor="start" x="284.5" y="-25.9" font-family="Times,serif" font-size="8.00">57</text>
<text text-anchor="start" x="211.88" y="-6.45" font-family="Times,serif" font-size="14.00">21:</text>
<polygon fill="none" stroke="black" points="231,-0.5 231,-22.5 294,-22.5 294,-0.5 231,-0.5"/>
<text text-anchor="start" x="233.63" y="-6.2" font-family="Courier New" font-size="14.00">EER…MVD</text>
</g>
<!-- 4.0&#45;&gt;21.0 -->
<g id="edge8" class="edge">
<title>4.0:e&#45;&gt;21.0:w</title>
<path fill="none" stroke="black" d="M171.5,-119.5C171.5,-119.5 196.43,-49.57 206.17,-22.25"/>
<polygon fill="black" stroke="black" points="209.43,-23.52 209.49,-12.93 202.84,-21.17 209.43,-23.52"/>
</g>
<!-- 12.0&#45;&gt;5.0 -->
<g id="edge9" class="edge">
<title>12.0:e&#45;&gt;5.0:w</title>
<path fill="none" stroke="black" d="M174,-65.5C174,-65.5 195.21,-95.25 206.15,-110.58"/>
<polygon fill="black" stroke="black" points="202.97,-112.16 211.62,-118.27 208.67,-108.09 202.97,-112.16"/>
</g>
<!-- 12.0&#45;&gt;13.0 -->
<g id="edge10" class="edge">
<title>12.0:e&#45;&gt;13.0:w</title>
<path fill="none" stroke="black" d="M174,-65.5C174,-65.5 188.06,-65.5 198.61,-65.5"/>
<polygon fill="black" stroke="black" points="198.49,-69 208.49,-65.5 198.49,-62 198.49,-69"/>
</g>
<!-- 12.0&#45;&gt;21.0 -->
<g id="edge11" class="edge">
<title>12.0:e&#45;&gt;21.0:w</title>
<path fill="none" stroke="black" d="M174,-65.5C174,-65.5 193.42,-36.38 203.73,-20.91"/>
<polygon fill="black" stroke="black" points="206.53,-23.02 209.16,-12.76 200.7,-19.14 206.53,-23.02"/>
</g>
<!-- 20.0&#45;&gt;5.0 -->
<g id="edge12" class="edge">
<title>20.0:e&#45;&gt;5.0:w</title>
<path fill="none" stroke="black" d="M174,-11.5C174,-11.5 198.93,-81.43 208.67,-108.75"/>
<polygon fill="black" stroke="black" points="205.34,-109.83 212,-118.07 211.93,-107.48 205.34,-109.83"/>
</g>
<!-- 20.0&#45;&gt;13.0 -->
<g id="edge13" class="edge">
<title>20.0:e&#45;&gt;13.0:w</title>
<path fill="none" stroke="black" d="M174,-11.5C174,-11.5 193.42,-40.62 203.73,-56.09"/>
<polygon fill="black" stroke="black" points="200.7,-57.86 209.16,-64.24 206.53,-53.98 200.7,-57.86"/>
</g>
<!-- 20.0&#45;&gt;21.0 -->
<g id="edge14" class="edge">
<title>20.0:e&#45;&gt;21.0:w</title>
<path fill="none" stroke="black" d="M174,-11.5C174,-11.5 188.06,-11.5 198.61,-11.5"/>
<polygon fill="black" stroke="black" points="198.49,-15 208.49,-11.5 198.49,-8 198.49,-15"/>
</g>
<!-- 6.0 -->
<g id="node10" class="node">
<title>6.0</title>
<text text-anchor="start" x="349.51" y="-133.9" font-family="Times,serif" font-size="8.00">0</text>
<text text-anchor="start" x="401.01" y="-133.9" font-family="Times,serif" font-size="8.00">43</text>
<text text-anchor="start" x="335.26" y="-114.45" font-family="Times,serif" font-size="14.00">6:</text>
<polygon fill="none" stroke="black" points="347.51,-108.5 347.51,-130.5 410.51,-130.5 410.51,-108.5 347.51,-108.5"/>
<text text-anchor="start" x="350.13" y="-114.2" font-family="Courier New" font-size="14.00">IAV…NSF</text>
</g>
<!-- 5.0&#45;&gt;6.0 -->
<g id="edge15" class="edge">
<title>5.0:e&#45;&gt;6.0:w</title>
<path fill="none" stroke="black" d="M291.5,-119.5C291.5,-119.5 309.16,-119.5 321.3,-119.5"/>
<polygon fill="black" stroke="black" points="320.99,-123 330.99,-119.5 320.99,-116 320.99,-123"/>
</g>
<!-- 14.0 -->
<g id="node11" class="node">
<title>14.0</title>
<text text-anchor="start" x="353.01" y="-79.9" font-family="Times,serif" font-size="8.00">0</text>
<text text-anchor="start" x="404.51" y="-79.9" font-family="Times,serif" font-size="8.00">43</text>
<text text-anchor="start" x="331.88" y="-60.45" font-family="Times,serif" font-size="14.00">14:</text>
<polygon fill="none" stroke="black" points="351.01,-54.5 351.01,-76.5 414.01,-76.5 414.01,-54.5 351.01,-54.5"/>
<text text-anchor="start" x="353.63" y="-60.2" font-family="Courier New" font-size="14.00">IAT…NSF</text>
</g>
<!-- 5.0&#45;&gt;14.0 -->
<g id="edge16" class="edge">
<title>5.0:e&#45;&gt;14.0:w</title>
<path fill="none" stroke="black" d="M291.5,-119.5C291.5,-119.5 312.71,-89.75 323.65,-74.42"/>
<polygon fill="black" stroke="black" points="326.17,-76.91 329.13,-66.73 320.47,-72.84 326.17,-76.91"/>
</g>
<!-- 22.0 -->
<g id="node12" class="node">
<title>22.0</title>
<text text-anchor="start" x="353.01" y="-25.9" font-family="Times,serif" font-size="8.00">0</text>
<text text-anchor="start" x="404.51" y="-25.9" font-family="Times,serif" font-size="8.00">43</text>
<text text-anchor="start" x="331.88" y="-6.45" font-family="Times,serif" font-size="14.00">22:</text>
<polygon fill="none" stroke="black" points="351.01,-0.5 351.01,-22.5 414.01,-22.5 414.01,-0.5 351.01,-0.5"/>
<text text-anchor="start" x="353.63" y="-6.2" font-family="Courier New" font-size="14.00">IAV…NSY</text>
</g>
<!-- 5.0&#45;&gt;22.0 -->
<g id="edge17" class="edge">
<title>5.0:e&#45;&gt;22.0:w</title>
<path fill="none" stroke="black" d="M291.5,-119.5C291.5,-119.5 316.43,-49.57 326.17,-22.25"/>
<polygon fill="black" stroke="black" points="329.44,-23.52 329.5,-12.93 322.84,-21.17 329.44,-23.52"/>
</g>
<!-- 13.0&#45;&gt;6.0 -->
<g id="edge18" class="edge">
<title>13.0:e&#45;&gt;6.0:w</title>
<path fill="none" stroke="black" d="M294,-65.5C294,-65.5 315.21,-95.25 326.15,-110.58"/>
<polygon fill="black" stroke="black" points="322.97,-112.16 331.63,-118.27 328.67,-108.09 322.97,-112.16"/>
</g>
<!-- 13.0&#45;&gt;14.0 -->
<g id="edge19" class="edge">
<title>13.0:e&#45;&gt;14.0:w</title>
<path fill="none" stroke="black" d="M294,-65.5C294,-65.5 308.07,-65.5 318.61,-65.5"/>
<polygon fill="black" stroke="black" points="318.49,-69 328.49,-65.5 318.49,-62 318.49,-69"/>
</g>
<!-- 13.0&#45;&gt;22.0 -->
<g id="edge20" class="edge">
<title>13.0:e&#45;&gt;22.0:w</title>
<path fill="none" stroke="black" d="M294,-65.5C294,-65.5 313.42,-36.38 323.73,-20.91"/>
<polygon fill="black" stroke="black" points="326.53,-23.02 329.17,-12.76 320.71,-19.14 326.53,-23.02"/>
</g>
<!-- 21.0&#45;&gt;6.0 -->
<g id="edge21" class="edge">
<title>21.0:e&#45;&gt;6.0:w</title>
<path fill="none" stroke="black" d="M294,-11.5C294,-11.5 318.94,-81.43 328.67,-108.75"/>
<polygon fill="black" stroke="black" points="325.34,-109.83 332,-118.07 331.94,-107.48 325.34,-109.83"/>
</g>
<!-- 21.0&#45;&gt;14.0 -->
<g id="edge22" class="edge">
<title>21.0:e&#45;&gt;14.0:w</title>
<path fill="none" stroke="black" d="M294,-11.5C294,-11.5 313.42,-40.62 323.73,-56.09"/>
<polygon fill="black" stroke="black" points="320.71,-57.86 329.17,-64.24 326.53,-53.98 320.71,-57.86"/>
</g>
<!-- 21.0&#45;&gt;22.0 -->
<g id="edge23" class="edge">
<title>21.0:e&#45;&gt;22.0:w</title>
<path fill="none" stroke="black" d="M294,-11.5C294,-11.5 308.07,-11.5 318.61,-11.5"/>
<polygon fill="black" stroke="black" points="318.49,-15 328.49,-11.5 318.49,-8 318.49,-15"/>
</g>
<!-- 7.0 -->
<g id="node13" class="node">
<title>7.0</title>
<text text-anchor="start" x="469.51" y="-133.9" font-family="Times,serif" font-size="8.00">0</text>
<text text-anchor="start" x="521.01" y="-133.9" font-family="Times,serif" font-size="8.00">49</text>
<text text-anchor="start" x="455.26" y="-114.45" font-family="Times,serif" font-size="14.00">7:</text>
<polygon fill="none" stroke="black" points="467.51,-108.5 467.51,-130.5 530.51,-130.5 530.51,-108.5 467.51,-108.5"/>
<text text-anchor="start" x="470.13" y="-114.2" font-family="Courier New" font-size="14.00">YRD…NDL</text>
</g>
<!-- 6.0&#45;&gt;7.0 -->
<g id="edge24" class="edge">
<title>6.0:e&#45;&gt;7.0:w</title>
<path fill="none" stroke="black" d="M411.51,-119.5C411.51,-119.5 429.16,-119.5 441.3,-119.5"/>
<polygon fill="black" stroke="black" points="440.99,-123 450.99,-119.5 440.99,-116 440.99,-123"/>
</g>
<!-- 15.0 -->
<g id="node14" class="node">
<title>15.0</title>
<text text-anchor="start" x="473.01" y="-79.9" font-family="Times,serif" font-size="8.00">0</text>
<text text-anchor="start" x="524.51" y="-79.9" font-family="Times,serif" font-size="8.00">49</text>
<text text-anchor="start" x="451.88" y="-60.45" font-family="Times,serif" font-size="14.00">15:</text>
<polygon fill="none" stroke="black" points="471.01,-54.5 471.01,-76.5 534.01,-76.5 534.01,-54.5 471.01,-54.5"/>
<text text-anchor="start" x="473.63" y="-60.2" font-family="Courier New" font-size="14.00">YRD…NSL</text>
</g>
<!-- 6.0&#45;&gt;15.0 -->
<g id="edge25" class="edge">
<title>6.0:e&#45;&gt;15.0:w</title>
<path fill="none" stroke="black" d="M411.51,-119.5C411.51,-119.5 432.71,-89.75 443.65,-74.42"/>
<polygon fill="black" stroke="black" points="446.17,-76.91 449.13,-66.73 440.47,-72.84 446.17,-76.91"/>
</g>
<!-- 23.0 -->
<g id="node15" class="node">
<title>23.0</title>
<text text-anchor="start" x="473.01" y="-25.9" font-family="Times,serif" font-size="8.00">0</text>
<text text-anchor="start" x="524.51" y="-25.9" font-family="Times,serif" font-size="8.00">49</text>
<text text-anchor="start" x="451.88" y="-6.45" font-family="Times,serif" font-size="14.00">23:</text>
<polygon fill="none" stroke="black" points="471.01,-0.5 471.01,-22.5 534.01,-22.5 534.01,-0.5 471.01,-0.5"/>
<text text-anchor="start" x="473.63" y="-6.2" font-family="Courier New" font-size="14.00">YRE…FSL</text>
</g>
<!-- 6.0&#45;&gt;23.0 -->
<g id="edge26" class="edge">
<title>6.0:e&#45;&gt;23.0:w</title>
<path fill="none" stroke="black" d="M411.51,-119.5C411.51,-119.5 436.44,-49.57 446.17,-22.25"/>
<polygon fill="black" stroke="black" points="449.44,-23.52 449.5,-12.93 442.84,-21.17 449.44,-23.52"/>
</g>
<!-- 14.0&#45;&gt;7.0 -->
<g id="edge27" class="edge">
<title>14.0:e&#45;&gt;7.0:w</title>
<path fill="none" stroke="black" d="M414.01,-65.5C414.01,-65.5 435.22,-95.25 446.15,-110.58"/>
<polygon fill="black" stroke="black" points="442.97,-112.16 451.63,-118.27 448.67,-108.09 442.97,-112.16"/>
</g>
<!-- 14.0&#45;&gt;15.0 -->
<g id="edge28" class="edge">
<title>14.0:e&#45;&gt;15.0:w</title>
<path fill="none" stroke="black" d="M414.01,-65.5C414.01,-65.5 428.07,-65.5 438.62,-65.5"/>
<polygon fill="black" stroke="black" points="438.49,-69 448.49,-65.5 438.49,-62 438.49,-69"/>
</g>
<!-- 14.0&#45;&gt;23.0 -->
<g id="edge29" class="edge">
<title>14.0:e&#45;&gt;23.0:w</title>
<path fill="none" stroke="black" d="M414.01,-65.5C414.01,-65.5 433.42,-36.38 443.74,-20.91"/>
<polygon fill="black" stroke="black" points="446.53,-23.02 449.17,-12.76 440.71,-19.14 446.53,-23.02"/>
</g>
<!-- 22.0&#45;&gt;7.0 -->
<g id="edge30" class="edge">
<title>22.0:e&#45;&gt;7.0:w</title>
<path fill="none" stroke="black" d="M414.01,-11.5C414.01,-11.5 438.94,-81.43 448.68,-108.75"/>
<polygon fill="black" stroke="black" points="445.35,-109.83 452,-118.07 451.94,-107.48 445.35,-109.83"/>
</g>
<!-- 22.0&#45;&gt;15.0 -->
<g id="edge31" class="edge">
<title>22.0:e&#45;&gt;15.0:w</title>
<path fill="none" stroke="black" d="M414.01,-11.5C414.01,-11.5 433.42,-40.62 443.74,-56.09"/>
<polygon fill="black" stroke="black" points="440.71,-57.86 449.17,-64.24 446.53,-53.98 440.71,-57.86"/>
</g>
<!-- 22.0&#45;&gt;23.0 -->
<g id="edge32" class="edge">
<title>22.0:e&#45;&gt;23.0:w</title>
<path fill="none" stroke="black" d="M414.01,-11.5C414.01,-11.5 428.07,-11.5 438.62,-11.5"/>
<polygon fill="black" stroke="black" points="438.49,-15 448.49,-11.5 438.49,-8 438.49,-15"/>
</g>
<!-- 8.0 -->
<g id="node16" class="node">
<title>8.0</title>
<text text-anchor="start" x="589.51" y="-133.9" font-family="Times,serif" font-size="8.00">0</text>
<text text-anchor="start" x="641.01" y="-133.9" font-family="Times,serif" font-size="8.00">51</text>
<text text-anchor="start" x="575.26" y="-114.45" font-family="Times,serif" font-size="14.00">8:</text>
<polygon fill="none" stroke="black" points="587.51,-108.5 587.51,-130.5 650.51,-130.5 650.51,-108.5 587.51,-108.5"/>
<text text-anchor="start" x="590.14" y="-114.2" font-family="Courier New" font-size="14.00">VDK…GHE</text>
</g>
<!-- 7.0&#45;&gt;8.0 -->
<g id="edge33" class="edge">
<title>7.0:e&#45;&gt;8.0:w</title>
<path fill="none" stroke="black" d="M531.51,-119.5C531.51,-119.5 549.17,-119.5 561.31,-119.5"/>
<polygon fill="black" stroke="black" points="561,-123 571,-119.5 561,-116 561,-123"/>
</g>
<!-- 16.0 -->
<g id="node17" class="node">
<title>16.0</title>
<text text-anchor="start" x="593.01" y="-79.9" font-family="Times,serif" font-size="8.00">0</text>
<text text-anchor="start" x="644.51" y="-79.9" font-family="Times,serif" font-size="8.00">52</text>
<text text-anchor="start" x="571.89" y="-60.45" font-family="Times,serif" font-size="14.00">16:</text>
<polygon fill="none" stroke="black" points="591.01,-54.5 591.01,-76.5 654.01,-76.5 654.01,-54.5 591.01,-54.5"/>
<text text-anchor="start" x="593.64" y="-60.2" font-family="Courier New" font-size="14.00">VDR…GHE</text>
</g>
<!-- 7.0&#45;&gt;16.0 -->
<g id="edge34" class="edge">
<title>7.0:e&#45;&gt;16.0:w</title>
<path fill="none" stroke="black" d="M531.51,-119.5C531.51,-119.5 552.72,-89.75 563.65,-74.42"/>
<polygon fill="black" stroke="black" points="566.18,-76.91 569.13,-66.73 560.48,-72.84 566.18,-76.91"/>
</g>
<!-- 24.0 -->
<g id="node18" class="node">
<title>24.0</title>
<text text-anchor="start" x="593.01" y="-25.9" font-family="Times,serif" font-size="8.00">0</text>
<text text-anchor="start" x="644.51" y="-25.9" font-family="Times,serif" font-size="8.00">52</text>
<text text-anchor="start" x="571.89" y="-6.45" font-family="Times,serif" font-size="14.00">24:</text>
<polygon fill="none" stroke="black" points="591.01,-0.5 591.01,-22.5 654.01,-22.5 654.01,-0.5 591.01,-0.5"/>
<text text-anchor="start" x="593.64" y="-6.2" font-family="Courier New" font-size="14.00">VDS…GHE</text>
</g>
<!-- 7.0&#45;&gt;24.0 -->
<g id="edge35" class="edge">
<title>7.0:e&#45;&gt;24.0:w</title>
<path fill="none" stroke="black" d="M531.51,-119.5C531.51,-119.5 556.44,-49.57 566.18,-22.25"/>
<polygon fill="black" stroke="black" points="569.44,-23.52 569.5,-12.93 562.85,-21.17 569.44,-23.52"/>
</g>
<!-- 15.0&#45;&gt;8.0 -->
<g id="edge36" class="edge">
<title>15.0:e&#45;&gt;8.0:w</title>
<path fill="none" stroke="black" d="M534.01,-65.5C534.01,-65.5 555.22,-95.25 566.15,-110.58"/>
<polygon fill="black" stroke="black" points="562.98,-112.16 571.63,-118.27 568.68,-108.09 562.98,-112.16"/>
</g>
<!-- 15.0&#45;&gt;16.0 -->
<g id="edge37" class="edge">
<title>15.0:e&#45;&gt;16.0:w</title>
<path fill="none" stroke="black" d="M534.01,-65.5C534.01,-65.5 548.07,-65.5 558.62,-65.5"/>
<polygon fill="black" stroke="black" points="558.5,-69 568.5,-65.5 558.5,-62 558.5,-69"/>
</g>
<!-- 15.0&#45;&gt;24.0 -->
<g id="edge38" class="edge">
<title>15.0:e&#45;&gt;24.0:w</title>
<path fill="none" stroke="black" d="M534.01,-65.5C534.01,-65.5 553.42,-36.38 563.74,-20.91"/>
<polygon fill="black" stroke="black" points="566.54,-23.02 569.17,-12.76 560.71,-19.14 566.54,-23.02"/>
</g>
<!-- 23.0&#45;&gt;8.0 -->
<g id="edge39" class="edge">
<title>23.0:e&#45;&gt;8.0:w</title>
<path fill="none" stroke="black" d="M534.01,-11.5C534.01,-11.5 558.94,-81.43 568.68,-108.75"/>
<polygon fill="black" stroke="black" points="565.35,-109.83 572,-118.07 571.94,-107.48 565.35,-109.83"/>
</g>
<!-- 23.0&#45;&gt;16.0 -->
<g id="edge40" class="edge">
<title>23.0:e&#45;&gt;16.0:w</title>
<path fill="none" stroke="black" d="M534.01,-11.5C534.01,-11.5 553.42,-40.62 563.74,-56.09"/>
<polygon fill="black" stroke="black" points="560.71,-57.86 569.17,-64.24 566.54,-53.98 560.71,-57.86"/>
</g>
<!-- 23.0&#45;&gt;24.0 -->
<g id="edge41" class="edge">
<title>23.0:e&#45;&gt;24.0:w</title>
<path fill="none" stroke="black" d="M534.01,-11.5C534.01,-11.5 548.07,-11.5 558.62,-11.5"/>
<polygon fill="black" stroke="black" points="558.5,-15 568.5,-11.5 558.5,-8 558.5,-15"/>
</g>
<!-- 9.0 -->
<g id="node19" class="node">
<title>9.0</title>
<text text-anchor="start" x="709.51" y="-133.9" font-family="Times,serif" font-size="8.00">0</text>
<text text-anchor="start" x="761.01" y="-133.9" font-family="Times,serif" font-size="8.00">59</text>
<text text-anchor="start" x="695.26" y="-114.45" font-family="Times,serif" font-size="14.00">9:</text>
<polygon fill="none" stroke="black" points="707.51,-108.5 707.51,-130.5 770.51,-130.5 770.51,-108.5 707.51,-108.5"/>
<text text-anchor="start" x="710.14" y="-114.2" font-family="Courier New" font-size="14.00">TTS…WPT</text>
</g>
<!-- 8.0&#45;&gt;9.0 -->
<g id="edge42" class="edge">
<title>8.0:e&#45;&gt;9.0:w</title>
<path fill="none" stroke="black" d="M651.51,-119.5C651.51,-119.5 669.17,-119.5 681.31,-119.5"/>
<polygon fill="black" stroke="black" points="681,-123 691,-119.5 681,-116 681,-123"/>
</g>
<!-- 17.0 -->
<g id="node20" class="node">
<title>17.0</title>
<text text-anchor="start" x="713.01" y="-79.9" font-family="Times,serif" font-size="8.00">0</text>
<text text-anchor="start" x="764.51" y="-79.9" font-family="Times,serif" font-size="8.00">59</text>
<text text-anchor="start" x="691.89" y="-60.45" font-family="Times,serif" font-size="14.00">17:</text>
<polygon fill="none" stroke="black" points="711.01,-54.5 711.01,-76.5 774.01,-76.5 774.01,-54.5 711.01,-54.5"/>
<text text-anchor="start" x="713.64" y="-60.2" font-family="Courier New" font-size="14.00">TTS…YPT</text>
</g>
<!-- 8.0&#45;&gt;17.0 -->
<g id="edge43" class="edge">
<title>8.0:e&#45;&gt;17.0:w</title>
<path fill="none" stroke="black" d="M651.51,-119.5C651.51,-119.5 672.72,-89.75 683.65,-74.42"/>
<polygon fill="black" stroke="black" points="686.18,-76.91 689.13,-66.73 680.48,-72.84 686.18,-76.91"/>
</g>
<!-- 25.0 -->
<g id="node21" class="node">
<title>25.0</title>
<text text-anchor="start" x="713.01" y="-25.9" font-family="Times,serif" font-size="8.00">0</text>
<text text-anchor="start" x="764.51" y="-25.9" font-family="Times,serif" font-size="8.00">59</text>
<text text-anchor="start" x="691.89" y="-6.45" font-family="Times,serif" font-size="14.00">25:</text>
<polygon fill="none" stroke="black" points="711.01,-0.5 711.01,-22.5 774.01,-22.5 774.01,-0.5 711.01,-0.5"/>
<text text-anchor="start" x="713.64" y="-6.2" font-family="Courier New" font-size="14.00">TTS…WPT</text>
</g>
<!-- 8.0&#45;&gt;25.0 -->
<g id="edge44" class="edge">
<title>8.0:e&#45;&gt;25.0:w</title>
<path fill="none" stroke="black" d="M651.51,-119.5C651.51,-119.5 676.44,-49.57 686.18,-22.25"/>
<polygon fill="black" stroke="black" points="689.44,-23.52 689.5,-12.93 682.85,-21.17 689.44,-23.52"/>
</g>
<!-- 16.0&#45;&gt;9.0 -->
<g id="edge45" class="edge">
<title>16.0:e&#45;&gt;9.0:w</title>
<path fill="none" stroke="black" d="M654.01,-65.5C654.01,-65.5 675.22,-95.25 686.16,-110.58"/>
<polygon fill="black" stroke="black" points="682.98,-112.16 691.63,-118.27 688.68,-108.09 682.98,-112.16"/>
</g>
<!-- 16.0&#45;&gt;17.0 -->
<g id="edge46" class="edge">
<title>16.0:e&#45;&gt;17.0:w</title>
<path fill="none" stroke="black" d="M654.01,-65.5C654.01,-65.5 668.07,-65.5 678.62,-65.5"/>
<polygon fill="black" stroke="black" points="678.5,-69 688.5,-65.5 678.5,-62 678.5,-69"/>
</g>
<!-- 16.0&#45;&gt;25.0 -->
<g id="edge47" class="edge">
<title>16.0:e&#45;&gt;25.0:w</title>
<path fill="none" stroke="black" d="M654.01,-65.5C654.01,-65.5 673.43,-36.38 683.74,-20.91"/>
<polygon fill="black" stroke="black" points="686.54,-23.02 689.17,-12.76 680.71,-19.14 686.54,-23.02"/>
</g>
<!-- 24.0&#45;&gt;9.0 -->
<g id="edge48" class="edge">
<title>24.0:e&#45;&gt;9.0:w</title>
<path fill="none" stroke="black" d="M654.01,-11.5C654.01,-11.5 678.94,-81.43 688.68,-108.75"/>
<polygon fill="black" stroke="black" points="685.35,-109.83 692,-118.07 691.94,-107.48 685.35,-109.83"/>
</g>
<!-- 24.0&#45;&gt;17.0 -->
<g id="edge49" class="edge">
<title>24.0:e&#45;&gt;17.0:w</title>
<path fill="none" stroke="black" d="M654.01,-11.5C654.01,-11.5 673.43,-40.62 683.74,-56.09"/>
<polygon fill="black" stroke="black" points="680.71,-57.86 689.17,-64.24 686.54,-53.98 680.71,-57.86"/>
</g>
<!-- 24.0&#45;&gt;25.0 -->
<g id="edge50" class="edge">
<title>24.0:e&#45;&gt;25.0:w</title>
<path fill="none" stroke="black" d="M654.01,-11.5C654.01,-11.5 668.07,-11.5 678.62,-11.5"/>
<polygon fill="black" stroke="black" points="678.5,-15 688.5,-11.5 678.5,-8 678.5,-15"/>
</g>
<!-- 10.0 -->
<g id="node22" class="node">
<title>10.0</title>
<text text-anchor="start" x="833.02" y="-133.9" font-family="Times,serif" font-size="8.00">0</text>
<text text-anchor="start" x="884.52" y="-133.9" font-family="Times,serif" font-size="8.00">75</text>
<text text-anchor="start" x="811.89" y="-114.45" font-family="Times,serif" font-size="14.00">10:</text>
<polygon fill="none" stroke="black" points="831.02,-108.5 831.02,-130.5 894.02,-130.5 894.02,-108.5 831.02,-108.5"/>
<text text-anchor="start" x="833.64" y="-114.2" font-family="Courier New" font-size="14.00">APA…IGQ</text>
</g>
<!-- 9.0&#45;&gt;10.0 -->
<g id="edge51" class="edge">
<title>9.0:e&#45;&gt;10.0:w</title>
<path fill="none" stroke="black" d="M771.51,-119.5C771.51,-119.5 787.31,-119.5 798.67,-119.5"/>
<polygon fill="black" stroke="black" points="798.5,-123 808.5,-119.5 798.5,-116 798.5,-123"/>
</g>
<!-- 18.0 -->
<g id="node23" class="node">
<title>18.0</title>
<text text-anchor="start" x="833.02" y="-79.9" font-family="Times,serif" font-size="8.00">0</text>
<text text-anchor="start" x="884.52" y="-79.9" font-family="Times,serif" font-size="8.00">75</text>
<text text-anchor="start" x="811.89" y="-60.45" font-family="Times,serif" font-size="14.00">18:</text>
<polygon fill="none" stroke="black" points="831.02,-54.5 831.02,-76.5 894.02,-76.5 894.02,-54.5 831.02,-54.5"/>
<text text-anchor="start" x="833.64" y="-60.2" font-family="Courier New" font-size="14.00">APA…IGM</text>
</g>
<!-- 9.0&#45;&gt;18.0 -->
<g id="edge52" class="edge">
<title>9.0:e&#45;&gt;18.0:w</title>
<path fill="none" stroke="black" d="M771.51,-119.5C771.51,-119.5 792.72,-89.75 803.66,-74.42"/>
<polygon fill="black" stroke="black" points="806.18,-76.91 809.14,-66.73 800.48,-72.84 806.18,-76.91"/>
</g>
<!-- 26.0 -->
<g id="node24" class="node">
<title>26.0</title>
<text text-anchor="start" x="833.02" y="-25.9" font-family="Times,serif" font-size="8.00">0</text>
<text text-anchor="start" x="884.52" y="-25.9" font-family="Times,serif" font-size="8.00">75</text>
<text text-anchor="start" x="811.89" y="-6.45" font-family="Times,serif" font-size="14.00">26:</text>
<polygon fill="none" stroke="black" points="831.02,-0.5 831.02,-22.5 894.02,-22.5 894.02,-0.5 831.02,-0.5"/>
<text text-anchor="start" x="833.64" y="-6.2" font-family="Courier New" font-size="14.00">APA…IGM</text>
</g>
<!-- 9.0&#45;&gt;26.0 -->
<g id="edge53" class="edge">
<title>9.0:e&#45;&gt;26.0:w</title>
<path fill="none" stroke="black" d="M771.51,-119.5C771.51,-119.5 796.44,-49.57 806.18,-22.25"/>
<polygon fill="black" stroke="black" points="809.44,-23.52 809.51,-12.93 802.85,-21.17 809.44,-23.52"/>
</g>
<!-- 17.0&#45;&gt;10.0 -->
<g id="edge54" class="edge">
<title>17.0:e&#45;&gt;10.0:w</title>
<path fill="none" stroke="black" d="M774.01,-65.5C774.01,-65.5 793.43,-94.62 803.74,-110.09"/>
<polygon fill="black" stroke="black" points="800.72,-111.86 809.17,-118.24 806.54,-107.98 800.72,-111.86"/>
</g>
<!-- 17.0&#45;&gt;18.0 -->
<g id="edge55" class="edge">
<title>17.0:e&#45;&gt;18.0:w</title>
<path fill="none" stroke="black" d="M774.01,-65.5C774.01,-65.5 788.08,-65.5 798.62,-65.5"/>
<polygon fill="black" stroke="black" points="798.5,-69 808.5,-65.5 798.5,-62 798.5,-69"/>
</g>
<!-- 17.0&#45;&gt;26.0 -->
<g id="edge56" class="edge">
<title>17.0:e&#45;&gt;26.0:w</title>
<path fill="none" stroke="black" d="M774.01,-65.5C774.01,-65.5 793.43,-36.38 803.74,-20.91"/>
<polygon fill="black" stroke="black" points="806.54,-23.02 809.17,-12.76 800.72,-19.14 806.54,-23.02"/>
</g>
<!-- 25.0&#45;&gt;10.0 -->
<g id="edge57" class="edge">
<title>25.0:e&#45;&gt;10.0:w</title>
<path fill="none" stroke="black" d="M774.01,-11.5C774.01,-11.5 797.33,-81.43 806.43,-108.75"/>
<polygon fill="black" stroke="black" points="803.05,-109.68 809.54,-118.06 809.69,-107.47 803.05,-109.68"/>
</g>
<!-- 25.0&#45;&gt;18.0 -->
<g id="edge58" class="edge">
<title>25.0:e&#45;&gt;18.0:w</title>
<path fill="none" stroke="black" d="M774.01,-11.5C774.01,-11.5 793.43,-40.62 803.74,-56.09"/>
<polygon fill="black" stroke="black" points="800.72,-57.86 809.17,-64.24 806.54,-53.98 800.72,-57.86"/>
</g>
<!-- 25.0&#45;&gt;26.0 -->
<g id="edge59" class="edge">
<title>25.0:e&#45;&gt;26.0:w</title>
<path fill="none" stroke="black" d="M774.01,-11.5C774.01,-11.5 788.08,-11.5 798.62,-11.5"/>
<polygon fill="black" stroke="black" points="798.5,-15 808.5,-11.5 798.5,-8 798.5,-15"/>
</g>
<!-- 11.0 -->
<g id="node25" class="node">
<title>11.0</title>
<text text-anchor="start" x="953.02" y="-133.9" font-family="Times,serif" font-size="8.00">0</text>
<text text-anchor="start" x="1000.77" y="-133.9" font-family="Times,serif" font-size="8.00">644</text>
<text text-anchor="start" x="931.89" y="-114.45" font-family="Times,serif" font-size="14.00">11:</text>
<polygon fill="none" stroke="black" points="951.02,-108.5 951.02,-130.5 1014.02,-130.5 1014.02,-108.5 951.02,-108.5"/>
<text text-anchor="start" x="953.64" y="-114.2" font-family="Courier New" font-size="14.00">QFA…WAG</text>
</g>
<!-- 10.0&#45;&gt;11.0 -->
<g id="edge60" class="edge">
<title>10.0:e&#45;&gt;11.0:w</title>
<path fill="none" stroke="black" d="M894.02,-119.5C894.02,-119.5 908.08,-119.5 918.63,-119.5"/>
<polygon fill="black" stroke="black" points="918.5,-123 928.5,-119.5 918.5,-116 918.5,-123"/>
</g>
<!-- 19.0 -->
<g id="node26" class="node">
<title>19.0</title>
<text text-anchor="start" x="953.02" y="-79.9" font-family="Times,serif" font-size="8.00">0</text>
<text text-anchor="start" x="1000.77" y="-79.9" font-family="Times,serif" font-size="8.00">647</text>
<text text-anchor="start" x="931.89" y="-60.45" font-family="Times,serif" font-size="14.00">19:</text>
<polygon fill="none" stroke="black" points="951.02,-54.5 951.02,-76.5 1014.02,-76.5 1014.02,-54.5 951.02,-54.5"/>
<text text-anchor="start" x="953.64" y="-60.2" font-family="Courier New" font-size="14.00">QFA…TGM</text>
</g>
<!-- 10.0&#45;&gt;19.0 -->
<g id="edge61" class="edge">
<title>10.0:e&#45;&gt;19.0:w</title>
<path fill="none" stroke="black" d="M894.02,-119.5C894.02,-119.5 913.43,-90.38 923.75,-74.91"/>
<polygon fill="black" stroke="black" points="926.54,-77.02 929.18,-66.76 920.72,-73.14 926.54,-77.02"/>
</g>
<!-- 27.0 -->
<g id="node27" class="node">
<title>27.0</title>
<text text-anchor="start" x="953.02" y="-25.9" font-family="Times,serif" font-size="8.00">0</text>
<text text-anchor="start" x="1000.77" y="-25.9" font-family="Times,serif" font-size="8.00">654</text>
<text text-anchor="start" x="931.89" y="-6.45" font-family="Times,serif" font-size="14.00">27:</text>
<polygon fill="none" stroke="black" points="951.02,-0.5 951.02,-22.5 1014.02,-22.5 1014.02,-0.5 951.02,-0.5"/>
<text text-anchor="start" x="953.64" y="-6.2" font-family="Courier New" font-size="14.00">QFA…AGI</text>
</g>
<!-- 10.0&#45;&gt;27.0 -->
<g id="edge62" class="edge">
<title>10.0:e&#45;&gt;27.0:w</title>
<path fill="none" stroke="black" d="M894.02,-119.5C894.02,-119.5 917.33,-49.57 926.43,-22.25"/>
<polygon fill="black" stroke="black" points="929.7,-23.53 929.54,-12.94 923.06,-21.32 929.7,-23.53"/>
</g>
<!-- 18.0&#45;&gt;11.0 -->
<g id="edge63" class="edge">
<title>18.0:e&#45;&gt;11.0:w</title>
<path fill="none" stroke="black" d="M894.02,-65.5C894.02,-65.5 913.43,-94.62 923.75,-110.09"/>
<polygon fill="black" stroke="black" points="920.72,-111.86 929.18,-118.24 926.54,-107.98 920.72,-111.86"/>
</g>
<!-- 18.0&#45;&gt;19.0 -->
<g id="edge64" class="edge">
<title>18.0:e&#45;&gt;19.0:w</title>
<path fill="none" stroke="black" d="M894.02,-65.5C894.02,-65.5 908.08,-65.5 918.63,-65.5"/>
<polygon fill="black" stroke="black" points="918.5,-69 928.5,-65.5 918.5,-62 918.5,-69"/>
</g>
<!-- 18.0&#45;&gt;27.0 -->
<g id="edge65" class="edge">
<title>18.0:e&#45;&gt;27.0:w</title>
<path fill="none" stroke="black" d="M894.02,-65.5C894.02,-65.5 913.43,-36.38 923.75,-20.91"/>
<polygon fill="black" stroke="black" points="926.54,-23.02 929.18,-12.76 920.72,-19.14 926.54,-23.02"/>
</g>
<!-- 26.0&#45;&gt;11.0 -->
<g id="edge66" class="edge">
<title>26.0:e&#45;&gt;11.0:w</title>
<path fill="none" stroke="black" d="M894.02,-11.5C894.02,-11.5 917.33,-81.43 926.43,-108.75"/>
<polygon fill="black" stroke="black" points="923.06,-109.68 929.54,-118.06 929.7,-107.47 923.06,-109.68"/>
</g>
<!-- 26.0&#45;&gt;19.0 -->
<g id="edge67" class="edge">
<title>26.0:e&#45;&gt;19.0:w</title>
<path fill="none" stroke="black" d="M894.02,-11.5C894.02,-11.5 913.43,-40.62 923.75,-56.09"/>
<polygon fill="black" stroke="black" points="920.72,-57.86 929.18,-64.24 926.54,-53.98 920.72,-57.86"/>
</g>
<!-- 26.0&#45;&gt;27.0 -->
<g id="edge68" class="edge">
<title>26.0:e&#45;&gt;27.0:w</title>
<path fill="none" stroke="black" d="M894.02,-11.5C894.02,-11.5 908.08,-11.5 918.63,-11.5"/>
<polygon fill="black" stroke="black" points="918.5,-15 928.5,-11.5 918.5,-8 918.5,-15"/>
</g>
<!-- 11.0&#45;&gt;sink -->
<g id="edge69" class="edge">
<title>11.0:e&#45;&gt;sink:w</title>
<path fill="none" stroke="black" d="M1014.02,-119.5C1014.02,-119.5 1030.27,-107.54 1040.93,-99.69"/>
<polygon fill="black" stroke="black" points="1042.82,-102.64 1048.8,-93.9 1038.67,-97.01 1042.82,-102.64"/>
</g>
<!-- 19.0&#45;&gt;sink -->
<g id="edge70" class="edge">
<title>19.0:e&#45;&gt;sink:w</title>
<path fill="none" stroke="black" d="M1014.02,-65.5C1014.02,-65.5 1030.27,-77.91 1040.93,-86.06"/>
<polygon fill="black" stroke="black" points="1038.75,-88.79 1048.82,-92.08 1042.99,-83.23 1038.75,-88.79"/>
</g>
<!-- 27.0&#45;&gt;sink -->
<g id="edge71" class="edge">
<title>27.0:e&#45;&gt;sink:w</title>
<path fill="none" stroke="black" d="M1014.02,-11.5C1014.02,-11.5 1035.77,-60.75 1045.46,-82.68"/>
<polygon fill="black" stroke="black" points="1042.17,-83.88 1049.41,-91.62 1048.57,-81.05 1042.17,-83.88"/>
</g>
</g>
</svg>
