<?xml version="1.0" encoding="UTF-8" standalone="no"?>
<!DOCTYPE svg PUBLIC "-//W3C//DTD SVG 1.1//EN"
 "http://www.w3.org/Graphics/SVG/1.1/DTD/svg11.dtd">
<!-- Generated by graphviz version 12.1.1 (20240910.0053)
 -->
<!-- Pages: 1 -->
<svg width="1225pt" height="222pt"
 viewBox="0.00 0.00 1225.02 222.00" xmlns="http://www.w3.org/2000/svg" xmlns:xlink="http://www.w3.org/1999/xlink">
<g id="graph0" class="graph" transform="scale(1 1) rotate(0) translate(4 218)">
<polygon fill="white" stroke="none" points="-4,4 -4,-218 1221.02,-218 1221.02,4 -4,4"/>
<g id="clust1" class="cluster">
<title>cluster_3</title>
</g>
<!-- 3.0 -->
<g id="node1" class="node">
<title>3.0</title>
<text text-anchor="start" x="949.52" y="-187.9" font-family="Times,serif" font-size="8.00">0</text>
<text text-anchor="start" x="997.27" y="-187.9" font-family="Times,serif" font-size="8.00">656</text>
<text text-anchor="start" x="935.27" y="-168.45" font-family="Times,serif" font-size="14.00">3:</text>
<polygon fill="none" stroke="black" points="947.52,-162.5 947.52,-184.5 1010.52,-184.5 1010.52,-162.5 947.52,-162.5"/>
<text text-anchor="start" x="950.14" y="-168.2" font-family="Courier New" font-size="14.00">MTI…PLA</text>
</g>
<!-- 3.657 -->
<g id="node2" class="node">
<title>3.657</title>
<text text-anchor="start" x="1066.02" y="-187.9" font-family="Times,serif" font-size="8.00">657</text>
<text text-anchor="start" x="1110.02" y="-187.9" font-family="Times,serif" font-size="8.00">1048</text>
<text text-anchor="start" x="1051.77" y="-168.45" font-family="Times,serif" font-size="14.00">3:</text>
<polygon fill="none" stroke="black" points="1064.02,-162.5 1064.02,-184.5 1127.02,-184.5 1127.02,-162.5 1064.02,-162.5"/>
<text text-anchor="start" x="1066.64" y="-168.2" font-family="Courier New" font-size="14.00">KMH…WAG</text>
</g>
<!-- 3.0&#45;&gt;3.657 -->
<g id="edge1" class="edge">
<title>3.0:e&#45;&gt;3.657:w</title>
<path fill="none" stroke="black" stroke-dasharray="5,2" d="M1011.52,-173.5C1011.52,-173.5 1027.32,-173.5 1038.68,-173.5"/>
<polygon fill="black" stroke="black" points="1038.51,-177 1048.51,-173.5 1038.51,-170 1038.51,-177"/>
</g>
<!-- sink -->
<g id="node3" class="node">
<title>sink</title>
<ellipse fill="none" stroke="black" cx="1190.02" cy="-174" rx="27" ry="18"/>
<text text-anchor="middle" x="1190.02" y="-168.95" font-family="Times,serif" font-size="14.00">end</text>
</g>
<!-- 3.657&#45;&gt;sink -->
<g id="edge2" class="edge">
<title>3.657:e&#45;&gt;sink:w</title>
<path fill="none" stroke="black" d="M1128.02,-173.5C1128.02,-173.5 1141.35,-173.69 1151.56,-173.84"/>
<polygon fill="black" stroke="black" points="1151.46,-177.34 1161.51,-173.98 1151.56,-170.34 1151.46,-177.34"/>
</g>
<!-- source -->
<g id="node4" class="node">
<title>source</title>
<ellipse fill="none" stroke="black" cx="27" cy="-93" rx="27" ry="18"/>
<text text-anchor="middle" x="27" y="-87.95" font-family="Times,serif" font-size="14.00">start</text>
</g>
<!-- source&#45;&gt;3.0 -->
<g id="edge3" class="edge">
<title>source:e&#45;&gt;3.0:w</title>
<path fill="none" stroke="black" d="M54,-93C54,-93 90,-153 90,-153 90,-153 251,-173 251,-173 251,-173 251,-173 733.01,-173 733.01,-173 879.02,-173.37 921.22,-173.47"/>
<polygon fill="black" stroke="black" points="921,-176.97 931,-173.5 921.01,-169.97 921,-176.97"/>
</g>
<!-- 4.0 -->
<g id="node5" class="node">
<title>4.0</title>
<text text-anchor="start" x="109.5" y="-133.9" font-family="Times,serif" font-size="8.00">0</text>
<text text-anchor="start" x="161" y="-133.9" font-family="Times,serif" font-size="8.00">63</text>
<text text-anchor="start" x="95.25" y="-114.45" font-family="Times,serif" font-size="14.00">4:</text>
<polygon fill="none" stroke="black" points="107.5,-108.5 107.5,-130.5 170.5,-130.5 170.5,-108.5 107.5,-108.5"/>
<text text-anchor="start" x="110.13" y="-114.2" font-family="Courier New" font-size="14.00">MTI…ACD</text>
</g>
<!-- source&#45;&gt;4.0 -->
<g id="edge4" class="edge">
<title>source:e&#45;&gt;4.0:w</title>
<path fill="none" stroke="black" d="M54,-93C54,-93 71.79,-105.24 83.18,-113.09"/>
<polygon fill="black" stroke="black" points="81.03,-115.86 91.25,-118.64 85,-110.09 81.03,-115.86"/>
</g>
<!-- 12.0 -->
<g id="node6" class="node">
<title>12.0</title>
<text text-anchor="start" x="113" y="-79.9" font-family="Times,serif" font-size="8.00">0</text>
<text text-anchor="start" x="164.5" y="-79.9" font-family="Times,serif" font-size="8.00">64</text>
<text text-anchor="start" x="91.88" y="-60.45" font-family="Times,serif" font-size="14.00">12:</text>
<polygon fill="none" stroke="black" points="111,-54.5 111,-76.5 174,-76.5 174,-54.5 111,-54.5"/>
<text text-anchor="start" x="113.63" y="-60.2" font-family="Courier New" font-size="14.00">MKQ…VCD</text>
</g>
<!-- source&#45;&gt;12.0 -->
<g id="edge5" class="edge">
<title>source:e&#45;&gt;12.0:w</title>
<path fill="none" stroke="black" d="M54,-93C54,-93 70.25,-80.59 80.92,-72.44"/>
<polygon fill="black" stroke="black" points="82.98,-75.27 88.8,-66.42 78.73,-69.71 82.98,-75.27"/>
</g>
<!-- 20.0 -->
<g id="node7" class="node">
<title>20.0</title>
<text text-anchor="start" x="113" y="-25.9" font-family="Times,serif" font-size="8.00">0</text>
<text text-anchor="start" x="164.5" y="-25.9" font-family="Times,serif" font-size="8.00">64</text>
<text text-anchor="start" x="91.88" y="-6.45" font-family="Times,serif" font-size="14.00">20:</text>
<polygon fill="none" stroke="black" points="111,-0.5 111,-22.5 174,-22.5 174,-0.5 111,-0.5"/>
<text text-anchor="start" x="113.63" y="-6.2" font-family="Courier New" font-size="14.00">MKE…VCD</text>
</g>
<!-- source&#45;&gt;20.0 -->
<g id="edge6" class="edge">
<title>source:e&#45;&gt;20.0:w</title>
<path fill="none" stroke="black" d="M54,-93C54,-93 75.75,-43.75 85.44,-21.82"/>
<polygon fill="black" stroke="black" points="88.55,-23.45 89.39,-12.88 82.15,-20.62 88.55,-23.45"/>
</g>
<!-- 5.0 -->
<g id="node8" class="node">
<title>5.0</title>
<text text-anchor="start" x="229.5" y="-25.9" font-family="Times,serif" font-size="8.00">0</text>
<text text-anchor="start" x="281" y="-25.9" font-family="Times,serif" font-size="8.00">57</text>
<text text-anchor="start" x="215.25" y="-6.45" font-family="Times,serif" font-size="14.00">5:</text>
<polygon fill="none" stroke="black" points="227.5,-0.5 227.5,-22.5 290.5,-22.5 290.5,-0.5 227.5,-0.5"/>
<text text-anchor="start" x="230.13" y="-6.2" font-family="Courier New" font-size="14.00">ESR…MVD</text>
</g>
<!-- 4.0&#45;&gt;5.0 -->
<g id="edge7" class="edge">
<title>4.0:e&#45;&gt;5.0:w</title>
<path fill="none" stroke="black" d="M171.5,-119.5C171.5,-119.5 198.05,-49.57 208.42,-22.25"/>
<polygon fill="black" stroke="black" points="211.69,-23.51 211.97,-12.91 205.14,-21.02 211.69,-23.51"/>
</g>
<!-- 13.0 -->
<g id="node9" class="node">
<title>13.0</title>
<text text-anchor="start" x="233" y="-133.9" font-family="Times,serif" font-size="8.00">0</text>
<text text-anchor="start" x="284.5" y="-133.9" font-family="Times,serif" font-size="8.00">57</text>
<text text-anchor="start" x="211.88" y="-114.45" font-family="Times,serif" font-size="14.00">13:</text>
<polygon fill="none" stroke="black" points="231,-108.5 231,-130.5 294,-130.5 294,-108.5 231,-108.5"/>
<text text-anchor="start" x="233.63" y="-114.2" font-family="Courier New" font-size="14.00">EKR…MLD</text>
</g>
<!-- 4.0&#45;&gt;13.0 -->
<g id="edge8" class="edge">
<title>4.0:e&#45;&gt;13.0:w</title>
<path fill="none" stroke="black" d="M171.5,-119.5C171.5,-119.5 187.3,-119.5 198.66,-119.5"/>
<polygon fill="black" stroke="black" points="198.49,-123 208.49,-119.5 198.49,-116 198.49,-123"/>
</g>
<!-- 21.0 -->
<g id="node10" class="node">
<title>21.0</title>
<text text-anchor="start" x="233" y="-79.9" font-family="Times,serif" font-size="8.00">0</text>
<text text-anchor="start" x="284.5" y="-79.9" font-family="Times,serif" font-size="8.00">57</text>
<text text-anchor="start" x="211.88" y="-60.45" font-family="Times,serif" font-size="14.00">21:</text>
<polygon fill="none" stroke="black" points="231,-54.5 231,-76.5 294,-76.5 294,-54.5 231,-54.5"/>
<text text-anchor="start" x="233.63" y="-60.2" font-family="Courier New" font-size="14.00">EER…MVD</text>
</g>
<!-- 4.0&#45;&gt;21.0 -->
<g id="edge9" class="edge">
<title>4.0:e&#45;&gt;21.0:w</title>
<path fill="none" stroke="black" d="M171.5,-119.5C171.5,-119.5 192.71,-89.75 203.64,-74.42"/>
<polygon fill="black" stroke="black" points="206.17,-76.91 209.12,-66.73 200.47,-72.84 206.17,-76.91"/>
</g>
<!-- 12.0&#45;&gt;5.0 -->
<g id="edge10" class="edge">
<title>12.0:e&#45;&gt;5.0:w</title>
<path fill="none" stroke="black" d="M174,-65.5C174,-65.5 195.21,-35.75 206.15,-20.42"/>
<polygon fill="black" stroke="black" points="208.67,-22.91 211.62,-12.73 202.97,-18.84 208.67,-22.91"/>
</g>
<!-- 12.0&#45;&gt;13.0 -->
<g id="edge11" class="edge">
<title>12.0:e&#45;&gt;13.0:w</title>
<path fill="none" stroke="black" d="M174,-65.5C174,-65.5 193.42,-94.62 203.73,-110.09"/>
<polygon fill="black" stroke="black" points="200.7,-111.86 209.16,-118.24 206.53,-107.98 200.7,-111.86"/>
</g>
<!-- 12.0&#45;&gt;21.0 -->
<g id="edge12" class="edge">
<title>12.0:e&#45;&gt;21.0:w</title>
<path fill="none" stroke="black" d="M174,-65.5C174,-65.5 188.06,-65.5 198.61,-65.5"/>
<polygon fill="black" stroke="black" points="198.49,-69 208.49,-65.5 198.49,-62 198.49,-69"/>
</g>
<!-- 20.0&#45;&gt;5.0 -->
<g id="edge13" class="edge">
<title>20.0:e&#45;&gt;5.0:w</title>
<path fill="none" stroke="black" d="M174,-11.5C174,-11.5 189.8,-11.5 201.16,-11.5"/>
<polygon fill="black" stroke="black" points="200.99,-15 210.99,-11.5 200.99,-8 200.99,-15"/>
</g>
<!-- 20.0&#45;&gt;13.0 -->
<g id="edge14" class="edge">
<title>20.0:e&#45;&gt;13.0:w</title>
<path fill="none" stroke="black" d="M174,-11.5C174,-11.5 197.31,-81.43 206.42,-108.75"/>
<polygon fill="black" stroke="black" points="203.04,-109.68 209.52,-118.06 209.68,-107.47 203.04,-109.68"/>
</g>
<!-- 20.0&#45;&gt;21.0 -->
<g id="edge15" class="edge">
<title>20.0:e&#45;&gt;21.0:w</title>
<path fill="none" stroke="black" d="M174,-11.5C174,-11.5 193.42,-40.62 203.73,-56.09"/>
<polygon fill="black" stroke="black" points="200.7,-57.86 209.16,-64.24 206.53,-53.98 200.7,-57.86"/>
</g>
<!-- 6.0 -->
<g id="node11" class="node">
<title>6.0</title>
<text text-anchor="start" x="349.51" y="-25.9" font-family="Times,serif" font-size="8.00">0</text>
<text text-anchor="start" x="401.01" y="-25.9" font-family="Times,serif" font-size="8.00">43</text>
<text text-anchor="start" x="335.26" y="-6.45" font-family="Times,serif" font-size="14.00">6:</text>
<polygon fill="none" stroke="black" points="347.51,-0.5 347.51,-22.5 410.51,-22.5 410.51,-0.5 347.51,-0.5"/>
<text text-anchor="start" x="350.13" y="-6.2" font-family="Courier New" font-size="14.00">IAV…NSF</text>
</g>
<!-- 5.0&#45;&gt;6.0 -->
<g id="edge16" class="edge">
<title>5.0:e&#45;&gt;6.0:w</title>
<path fill="none" stroke="black" d="M291.5,-11.5C291.5,-11.5 309.16,-11.5 321.3,-11.5"/>
<polygon fill="black" stroke="black" points="320.99,-15 330.99,-11.5 320.99,-8 320.99,-15"/>
</g>
<!-- 14.0 -->
<g id="node12" class="node">
<title>14.0</title>
<text text-anchor="start" x="353.01" y="-133.9" font-family="Times,serif" font-size="8.00">0</text>
<text text-anchor="start" x="404.51" y="-133.9" font-family="Times,serif" font-size="8.00">43</text>
<text text-anchor="start" x="331.88" y="-114.45" font-family="Times,serif" font-size="14.00">14:</text>
<polygon fill="none" stroke="black" points="351.01,-108.5 351.01,-130.5 414.01,-130.5 414.01,-108.5 351.01,-108.5"/>
<text text-anchor="start" x="353.63" y="-114.2" font-family="Courier New" font-size="14.00">IAT…NSF</text>
</g>
<!-- 5.0&#45;&gt;14.0 -->
<g id="edge17" class="edge">
<title>5.0:e&#45;&gt;14.0:w</title>
<path fill="none" stroke="black" d="M291.5,-11.5C291.5,-11.5 316.43,-81.43 326.17,-108.75"/>
<polygon fill="black" stroke="black" points="322.84,-109.83 329.5,-118.07 329.44,-107.48 322.84,-109.83"/>
</g>
<!-- 22.0 -->
<g id="node13" class="node">
<title>22.0</title>
<text text-anchor="start" x="353.01" y="-79.9" font-family="Times,serif" font-size="8.00">0</text>
<text text-anchor="start" x="404.51" y="-79.9" font-family="Times,serif" font-size="8.00">43</text>
<text text-anchor="start" x="331.88" y="-60.45" font-family="Times,serif" font-size="14.00">22:</text>
<polygon fill="none" stroke="black" points="351.01,-54.5 351.01,-76.5 414.01,-76.5 414.01,-54.5 351.01,-54.5"/>
<text text-anchor="start" x="353.63" y="-60.2" font-family="Courier New" font-size="14.00">IAV…NSY</text>
</g>
<!-- 5.0&#45;&gt;22.0 -->
<g id="edge18" class="edge">
<title>5.0:e&#45;&gt;22.0:w</title>
<path fill="none" stroke="black" d="M291.5,-11.5C291.5,-11.5 312.71,-41.25 323.65,-56.58"/>
<polygon fill="black" stroke="black" points="320.47,-58.16 329.13,-64.27 326.17,-54.09 320.47,-58.16"/>
</g>
<!-- 13.0&#45;&gt;6.0 -->
<g id="edge19" class="edge">
<title>13.0:e&#45;&gt;6.0:w</title>
<path fill="none" stroke="black" d="M294,-119.5C294,-119.5 318.94,-49.57 328.67,-22.25"/>
<polygon fill="black" stroke="black" points="331.94,-23.52 332,-12.93 325.34,-21.17 331.94,-23.52"/>
</g>
<!-- 13.0&#45;&gt;14.0 -->
<g id="edge20" class="edge">
<title>13.0:e&#45;&gt;14.0:w</title>
<path fill="none" stroke="black" d="M294,-119.5C294,-119.5 308.07,-119.5 318.61,-119.5"/>
<polygon fill="black" stroke="black" points="318.49,-123 328.49,-119.5 318.49,-116 318.49,-123"/>
</g>
<!-- 13.0&#45;&gt;22.0 -->
<g id="edge21" class="edge">
<title>13.0:e&#45;&gt;22.0:w</title>
<path fill="none" stroke="black" d="M294,-119.5C294,-119.5 313.42,-90.38 323.73,-74.91"/>
<polygon fill="black" stroke="black" points="326.53,-77.02 329.17,-66.76 320.71,-73.14 326.53,-77.02"/>
</g>
<!-- 21.0&#45;&gt;6.0 -->
<g id="edge22" class="edge">
<title>21.0:e&#45;&gt;6.0:w</title>
<path fill="none" stroke="black" d="M294,-65.5C294,-65.5 315.21,-35.75 326.15,-20.42"/>
<polygon fill="black" stroke="black" points="328.67,-22.91 331.63,-12.73 322.97,-18.84 328.67,-22.91"/>
</g>
<!-- 21.0&#45;&gt;14.0 -->
<g id="edge23" class="edge">
<title>21.0:e&#45;&gt;14.0:w</title>
<path fill="none" stroke="black" d="M294,-65.5C294,-65.5 313.42,-94.62 323.73,-110.09"/>
<polygon fill="black" stroke="black" points="320.71,-111.86 329.17,-118.24 326.53,-107.98 320.71,-111.86"/>
</g>
<!-- 21.0&#45;&gt;22.0 -->
<g id="edge24" class="edge">
<title>21.0:e&#45;&gt;22.0:w</title>
<path fill="none" stroke="black" d="M294,-65.5C294,-65.5 308.07,-65.5 318.61,-65.5"/>
<polygon fill="black" stroke="black" points="318.49,-69 328.49,-65.5 318.49,-62 318.49,-69"/>
</g>
<!-- 7.0 -->
<g id="node14" class="node">
<title>7.0</title>
<text text-anchor="start" x="469.51" y="-25.9" font-family="Times,serif" font-size="8.00">0</text>
<text text-anchor="start" x="521.01" y="-25.9" font-family="Times,serif" font-size="8.00">49</text>
<text text-anchor="start" x="455.26" y="-6.45" font-family="Times,serif" font-size="14.00">7:</text>
<polygon fill="none" stroke="black" points="467.51,-0.5 467.51,-22.5 530.51,-22.5 530.51,-0.5 467.51,-0.5"/>
<text text-anchor="start" x="470.13" y="-6.2" font-family="Courier New" font-size="14.00">YRD…NDL</text>
</g>
<!-- 6.0&#45;&gt;7.0 -->
<g id="edge25" class="edge">
<title>6.0:e&#45;&gt;7.0:w</title>
<path fill="none" stroke="black" d="M411.51,-11.5C411.51,-11.5 429.16,-11.5 441.3,-11.5"/>
<polygon fill="black" stroke="black" points="440.99,-15 450.99,-11.5 440.99,-8 440.99,-15"/>
</g>
<!-- 15.0 -->
<g id="node15" class="node">
<title>15.0</title>
<text text-anchor="start" x="473.01" y="-133.9" font-family="Times,serif" font-size="8.00">0</text>
<text text-anchor="start" x="524.51" y="-133.9" font-family="Times,serif" font-size="8.00">49</text>
<text text-anchor="start" x="451.88" y="-114.45" font-family="Times,serif" font-size="14.00">15:</text>
<polygon fill="none" stroke="black" points="471.01,-108.5 471.01,-130.5 534.01,-130.5 534.01,-108.5 471.01,-108.5"/>
<text text-anchor="start" x="473.63" y="-114.2" font-family="Courier New" font-size="14.00">YRD…NSL</text>
</g>
<!-- 6.0&#45;&gt;15.0 -->
<g id="edge26" class="edge">
<title>6.0:e&#45;&gt;15.0:w</title>
<path fill="none" stroke="black" d="M411.51,-11.5C411.51,-11.5 436.44,-81.43 446.17,-108.75"/>
<polygon fill="black" stroke="black" points="442.84,-109.83 449.5,-118.07 449.44,-107.48 442.84,-109.83"/>
</g>
<!-- 23.0 -->
<g id="node16" class="node">
<title>23.0</title>
<text text-anchor="start" x="473.01" y="-79.9" font-family="Times,serif" font-size="8.00">0</text>
<text text-anchor="start" x="524.51" y="-79.9" font-family="Times,serif" font-size="8.00">49</text>
<text text-anchor="start" x="451.88" y="-60.45" font-family="Times,serif" font-size="14.00">23:</text>
<polygon fill="none" stroke="black" points="471.01,-54.5 471.01,-76.5 534.01,-76.5 534.01,-54.5 471.01,-54.5"/>
<text text-anchor="start" x="473.63" y="-60.2" font-family="Courier New" font-size="14.00">YRE…FSL</text>
</g>
<!-- 6.0&#45;&gt;23.0 -->
<g id="edge27" class="edge">
<title>6.0:e&#45;&gt;23.0:w</title>
<path fill="none" stroke="black" d="M411.51,-11.5C411.51,-11.5 432.71,-41.25 443.65,-56.58"/>
<polygon fill="black" stroke="black" points="440.47,-58.16 449.13,-64.27 446.17,-54.09 440.47,-58.16"/>
</g>
<!-- 14.0&#45;&gt;7.0 -->
<g id="edge28" class="edge">
<title>14.0:e&#45;&gt;7.0:w</title>
<path fill="none" stroke="black" d="M414.01,-119.5C414.01,-119.5 438.94,-49.57 448.68,-22.25"/>
<polygon fill="black" stroke="black" points="451.94,-23.52 452,-12.93 445.35,-21.17 451.94,-23.52"/>
</g>
<!-- 14.0&#45;&gt;15.0 -->
<g id="edge29" class="edge">
<title>14.0:e&#45;&gt;15.0:w</title>
<path fill="none" stroke="black" d="M414.01,-119.5C414.01,-119.5 428.07,-119.5 438.62,-119.5"/>
<polygon fill="black" stroke="black" points="438.49,-123 448.49,-119.5 438.49,-116 438.49,-123"/>
</g>
<!-- 14.0&#45;&gt;23.0 -->
<g id="edge30" class="edge">
<title>14.0:e&#45;&gt;23.0:w</title>
<path fill="none" stroke="black" d="M414.01,-119.5C414.01,-119.5 433.42,-90.38 443.74,-74.91"/>
<polygon fill="black" stroke="black" points="446.53,-77.02 449.17,-66.76 440.71,-73.14 446.53,-77.02"/>
</g>
<!-- 22.0&#45;&gt;7.0 -->
<g id="edge31" class="edge">
<title>22.0:e&#45;&gt;7.0:w</title>
<path fill="none" stroke="black" d="M414.01,-65.5C414.01,-65.5 435.22,-35.75 446.15,-20.42"/>
<polygon fill="black" stroke="black" points="448.67,-22.91 451.63,-12.73 442.97,-18.84 448.67,-22.91"/>
</g>
<!-- 22.0&#45;&gt;15.0 -->
<g id="edge32" class="edge">
<title>22.0:e&#45;&gt;15.0:w</title>
<path fill="none" stroke="black" d="M414.01,-65.5C414.01,-65.5 433.42,-94.62 443.74,-110.09"/>
<polygon fill="black" stroke="black" points="440.71,-111.86 449.17,-118.24 446.53,-107.98 440.71,-111.86"/>
</g>
<!-- 22.0&#45;&gt;23.0 -->
<g id="edge33" class="edge">
<title>22.0:e&#45;&gt;23.0:w</title>
<path fill="none" stroke="black" d="M414.01,-65.5C414.01,-65.5 428.07,-65.5 438.62,-65.5"/>
<polygon fill="black" stroke="black" points="438.49,-69 448.49,-65.5 438.49,-62 438.49,-69"/>
</g>
<!-- 8.0 -->
<g id="node17" class="node">
<title>8.0</title>
<text text-anchor="start" x="589.51" y="-25.9" font-family="Times,serif" font-size="8.00">0</text>
<text text-anchor="start" x="641.01" y="-25.9" font-family="Times,serif" font-size="8.00">51</text>
<text text-anchor="start" x="575.26" y="-6.45" font-family="Times,serif" font-size="14.00">8:</text>
<polygon fill="none" stroke="black" points="587.51,-0.5 587.51,-22.5 650.51,-22.5 650.51,-0.5 587.51,-0.5"/>
<text text-anchor="start" x="590.14" y="-6.2" font-family="Courier New" font-size="14.00">VDK…GHE</text>
</g>
<!-- 7.0&#45;&gt;8.0 -->
<g id="edge34" class="edge">
<title>7.0:e&#45;&gt;8.0:w</title>
<path fill="none" stroke="black" d="M531.51,-11.5C531.51,-11.5 549.17,-11.5 561.31,-11.5"/>
<polygon fill="black" stroke="black" points="561,-15 571,-11.5 561,-8 561,-15"/>
</g>
<!-- 16.0 -->
<g id="node18" class="node">
<title>16.0</title>
<text text-anchor="start" x="593.01" y="-133.9" font-family="Times,serif" font-size="8.00">0</text>
<text text-anchor="start" x="644.51" y="-133.9" font-family="Times,serif" font-size="8.00">52</text>
<text text-anchor="start" x="571.89" y="-114.45" font-family="Times,serif" font-size="14.00">16:</text>
<polygon fill="none" stroke="black" points="591.01,-108.5 591.01,-130.5 654.01,-130.5 654.01,-108.5 591.01,-108.5"/>
<text text-anchor="start" x="593.64" y="-114.2" font-family="Courier New" font-size="14.00">VDR…GHE</text>
</g>
<!-- 7.0&#45;&gt;16.0 -->
<g id="edge35" class="edge">
<title>7.0:e&#45;&gt;16.0:w</title>
<path fill="none" stroke="black" d="M531.51,-11.5C531.51,-11.5 556.44,-81.43 566.18,-108.75"/>
<polygon fill="black" stroke="black" points="562.85,-109.83 569.5,-118.07 569.44,-107.48 562.85,-109.83"/>
</g>
<!-- 24.0 -->
<g id="node19" class="node">
<title>24.0</title>
<text text-anchor="start" x="593.01" y="-79.9" font-family="Times,serif" font-size="8.00">0</text>
<text text-anchor="start" x="644.51" y="-79.9" font-family="Times,serif" font-size="8.00">52</text>
<text text-anchor="start" x="571.89" y="-60.45" font-family="Times,serif" font-size="14.00">24:</text>
<polygon fill="none" stroke="black" points="591.01,-54.5 591.01,-76.5 654.01,-76.5 654.01,-54.5 591.01,-54.5"/>
<text text-anchor="start" x="593.64" y="-60.2" font-family="Courier New" font-size="14.00">VDS…GHE</text>
</g>
<!-- 7.0&#45;&gt;24.0 -->
<g id="edge36" class="edge">
<title>7.0:e&#45;&gt;24.0:w</title>
<path fill="none" stroke="black" d="M531.51,-11.5C531.51,-11.5 552.72,-41.25 563.65,-56.58"/>
<polygon fill="black" stroke="black" points="560.48,-58.16 569.13,-64.27 566.18,-54.09 560.48,-58.16"/>
</g>
<!-- 15.0&#45;&gt;8.0 -->
<g id="edge37" class="edge">
<title>15.0:e&#45;&gt;8.0:w</title>
<path fill="none" stroke="black" d="M534.01,-119.5C534.01,-119.5 558.94,-49.57 568.68,-22.25"/>
<polygon fill="black" stroke="black" points="571.94,-23.52 572,-12.93 565.35,-21.17 571.94,-23.52"/>
</g>
<!-- 15.0&#45;&gt;16.0 -->
<g id="edge38" class="edge">
<title>15.0:e&#45;&gt;16.0:w</title>
<path fill="none" stroke="black" d="M534.01,-119.5C534.01,-119.5 548.07,-119.5 558.62,-119.5"/>
<polygon fill="black" stroke="black" points="558.5,-123 568.5,-119.5 558.5,-116 558.5,-123"/>
</g>
<!-- 15.0&#45;&gt;24.0 -->
<g id="edge39" class="edge">
<title>15.0:e&#45;&gt;24.0:w</title>
<path fill="none" stroke="black" d="M534.01,-119.5C534.01,-119.5 553.42,-90.38 563.74,-74.91"/>
<polygon fill="black" stroke="black" points="566.54,-77.02 569.17,-66.76 560.71,-73.14 566.54,-77.02"/>
</g>
<!-- 23.0&#45;&gt;8.0 -->
<g id="edge40" class="edge">
<title>23.0:e&#45;&gt;8.0:w</title>
<path fill="none" stroke="black" d="M534.01,-65.5C534.01,-65.5 555.22,-35.75 566.15,-20.42"/>
<polygon fill="black" stroke="black" points="568.68,-22.91 571.63,-12.73 562.98,-18.84 568.68,-22.91"/>
</g>
<!-- 23.0&#45;&gt;16.0 -->
<g id="edge41" class="edge">
<title>23.0:e&#45;&gt;16.0:w</title>
<path fill="none" stroke="black" d="M534.01,-65.5C534.01,-65.5 553.42,-94.62 563.74,-110.09"/>
<polygon fill="black" stroke="black" points="560.71,-111.86 569.17,-118.24 566.54,-107.98 560.71,-111.86"/>
</g>
<!-- 23.0&#45;&gt;24.0 -->
<g id="edge42" class="edge">
<title>23.0:e&#45;&gt;24.0:w</title>
<path fill="none" stroke="black" d="M534.01,-65.5C534.01,-65.5 548.07,-65.5 558.62,-65.5"/>
<polygon fill="black" stroke="black" points="558.5,-69 568.5,-65.5 558.5,-62 558.5,-69"/>
</g>
<!-- 9.0 -->
<g id="node20" class="node">
<title>9.0</title>
<text text-anchor="start" x="709.51" y="-25.9" font-family="Times,serif" font-size="8.00">0</text>
<text text-anchor="start" x="761.01" y="-25.9" font-family="Times,serif" font-size="8.00">59</text>
<text text-anchor="start" x="695.26" y="-6.45" font-family="Times,serif" font-size="14.00">9:</text>
<polygon fill="none" stroke="black" points="707.51,-0.5 707.51,-22.5 770.51,-22.5 770.51,-0.5 707.51,-0.5"/>
<text text-anchor="start" x="710.14" y="-6.2" font-family="Courier New" font-size="14.00">TTS…WPT</text>
</g>
<!-- 8.0&#45;&gt;9.0 -->
<g id="edge43" class="edge">
<title>8.0:e&#45;&gt;9.0:w</title>
<path fill="none" stroke="black" d="M651.51,-11.5C651.51,-11.5 669.17,-11.5 681.31,-11.5"/>
<polygon fill="black" stroke="black" points="681,-15 691,-11.5 681,-8 681,-15"/>
</g>
<!-- 17.0 -->
<g id="node21" class="node">
<title>17.0</title>
<text text-anchor="start" x="713.01" y="-133.9" font-family="Times,serif" font-size="8.00">0</text>
<text text-anchor="start" x="764.51" y="-133.9" font-family="Times,serif" font-size="8.00">59</text>
<text text-anchor="start" x="691.89" y="-114.45" font-family="Times,serif" font-size="14.00">17:</text>
<polygon fill="none" stroke="black" points="711.01,-108.5 711.01,-130.5 774.01,-130.5 774.01,-108.5 711.01,-108.5"/>
<text text-anchor="start" x="713.64" y="-114.2" font-family="Courier New" font-size="14.00">TTS…YPT</text>
</g>
<!-- 8.0&#45;&gt;17.0 -->
<g id="edge44" class="edge">
<title>8.0:e&#45;&gt;17.0:w</title>
<path fill="none" stroke="black" d="M651.51,-11.5C651.51,-11.5 676.44,-81.43 686.18,-108.75"/>
<polygon fill="black" stroke="black" points="682.85,-109.83 689.5,-118.07 689.44,-107.48 682.85,-109.83"/>
</g>
<!-- 25.0 -->
<g id="node22" class="node">
<title>25.0</title>
<text text-anchor="start" x="713.01" y="-79.9" font-family="Times,serif" font-size="8.00">0</text>
<text text-anchor="start" x="764.51" y="-79.9" font-family="Times,serif" font-size="8.00">59</text>
<text text-anchor="start" x="691.89" y="-60.45" font-family="Times,serif" font-size="14.00">25:</text>
<polygon fill="none" stroke="black" points="711.01,-54.5 711.01,-76.5 774.01,-76.5 774.01,-54.5 711.01,-54.5"/>
<text text-anchor="start" x="713.64" y="-60.2" font-family="Courier New" font-size="14.00">TTS…WPT</text>
</g>
<!-- 8.0&#45;&gt;25.0 -->
<g id="edge45" class="edge">
<title>8.0:e&#45;&gt;25.0:w</title>
<path fill="none" stroke="black" d="M651.51,-11.5C651.51,-11.5 672.72,-41.25 683.65,-56.58"/>
<polygon fill="black" stroke="black" points="680.48,-58.16 689.13,-64.27 686.18,-54.09 680.48,-58.16"/>
</g>
<!-- 16.0&#45;&gt;9.0 -->
<g id="edge46" class="edge">
<title>16.0:e&#45;&gt;9.0:w</title>
<path fill="none" stroke="black" d="M654.01,-119.5C654.01,-119.5 678.94,-49.57 688.68,-22.25"/>
<polygon fill="black" stroke="black" points="691.94,-23.52 692,-12.93 685.35,-21.17 691.94,-23.52"/>
</g>
<!-- 16.0&#45;&gt;17.0 -->
<g id="edge47" class="edge">
<title>16.0:e&#45;&gt;17.0:w</title>
<path fill="none" stroke="black" d="M654.01,-119.5C654.01,-119.5 668.07,-119.5 678.62,-119.5"/>
<polygon fill="black" stroke="black" points="678.5,-123 688.5,-119.5 678.5,-116 678.5,-123"/>
</g>
<!-- 16.0&#45;&gt;25.0 -->
<g id="edge48" class="edge">
<title>16.0:e&#45;&gt;25.0:w</title>
<path fill="none" stroke="black" d="M654.01,-119.5C654.01,-119.5 673.43,-90.38 683.74,-74.91"/>
<polygon fill="black" stroke="black" points="686.54,-77.02 689.17,-66.76 680.71,-73.14 686.54,-77.02"/>
</g>
<!-- 24.0&#45;&gt;9.0 -->
<g id="edge49" class="edge">
<title>24.0:e&#45;&gt;9.0:w</title>
<path fill="none" stroke="black" d="M654.01,-65.5C654.01,-65.5 675.22,-35.75 686.16,-20.42"/>
<polygon fill="black" stroke="black" points="688.68,-22.91 691.63,-12.73 682.98,-18.84 688.68,-22.91"/>
</g>
<!-- 24.0&#45;&gt;17.0 -->
<g id="edge50" class="edge">
<title>24.0:e&#45;&gt;17.0:w</title>
<path fill="none" stroke="black" d="M654.01,-65.5C654.01,-65.5 673.43,-94.62 683.74,-110.09"/>
<polygon fill="black" stroke="black" points="680.71,-111.86 689.17,-118.24 686.54,-107.98 680.71,-111.86"/>
</g>
<!-- 24.0&#45;&gt;25.0 -->
<g id="edge51" class="edge">
<title>24.0:e&#45;&gt;25.0:w</title>
<path fill="none" stroke="black" d="M654.01,-65.5C654.01,-65.5 668.07,-65.5 678.62,-65.5"/>
<polygon fill="black" stroke="black" points="678.5,-69 688.5,-65.5 678.5,-62 678.5,-69"/>
</g>
<!-- 10.0 -->
<g id="node23" class="node">
<title>10.0</title>
<text text-anchor="start" x="833.02" y="-25.9" font-family="Times,serif" font-size="8.00">0</text>
<text text-anchor="start" x="884.52" y="-25.9" font-family="Times,serif" font-size="8.00">75</text>
<text text-anchor="start" x="811.89" y="-6.45" font-family="Times,serif" font-size="14.00">10:</text>
<polygon fill="none" stroke="black" points="831.02,-0.5 831.02,-22.5 894.02,-22.5 894.02,-0.5 831.02,-0.5"/>
<text text-anchor="start" x="833.64" y="-6.2" font-family="Courier New" font-size="14.00">APA…IGQ</text>
</g>
<!-- 9.0&#45;&gt;10.0 -->
<g id="edge52" class="edge">
<title>9.0:e&#45;&gt;10.0:w</title>
<path fill="none" stroke="black" d="M771.51,-11.5C771.51,-11.5 787.31,-11.5 798.67,-11.5"/>
<polygon fill="black" stroke="black" points="798.5,-15 808.5,-11.5 798.5,-8 798.5,-15"/>
</g>
<!-- 18.0 -->
<g id="node24" class="node">
<title>18.0</title>
<text text-anchor="start" x="833.02" y="-133.9" font-family="Times,serif" font-size="8.00">0</text>
<text text-anchor="start" x="884.52" y="-133.9" font-family="Times,serif" font-size="8.00">75</text>
<text text-anchor="start" x="811.89" y="-114.45" font-family="Times,serif" font-size="14.00">18:</text>
<polygon fill="none" stroke="black" points="831.02,-108.5 831.02,-130.5 894.02,-130.5 894.02,-108.5 831.02,-108.5"/>
<text text-anchor="start" x="833.64" y="-114.2" font-family="Courier New" font-size="14.00">APA…IGM</text>
</g>
<!-- 9.0&#45;&gt;18.0 -->
<g id="edge53" class="edge">
<title>9.0:e&#45;&gt;18.0:w</title>
<path fill="none" stroke="black" d="M771.51,-11.5C771.51,-11.5 796.44,-81.43 806.18,-108.75"/>
<polygon fill="black" stroke="black" points="802.85,-109.83 809.51,-118.07 809.44,-107.48 802.85,-109.83"/>
</g>
<!-- 26.0 -->
<g id="node25" class="node">
<title>26.0</title>
<text text-anchor="start" x="833.02" y="-79.9" font-family="Times,serif" font-size="8.00">0</text>
<text text-anchor="start" x="884.52" y="-79.9" font-family="Times,serif" font-size="8.00">75</text>
<text text-anchor="start" x="811.89" y="-60.45" font-family="Times,serif" font-size="14.00">26:</text>
<polygon fill="none" stroke="black" points="831.02,-54.5 831.02,-76.5 894.02,-76.5 894.02,-54.5 831.02,-54.5"/>
<text text-anchor="start" x="833.64" y="-60.2" font-family="Courier New" font-size="14.00">APA…IGM</text>
</g>
<!-- 9.0&#45;&gt;26.0 -->
<g id="edge54" class="edge">
<title>9.0:e&#45;&gt;26.0:w</title>
<path fill="none" stroke="black" d="M771.51,-11.5C771.51,-11.5 792.72,-41.25 803.66,-56.58"/>
<polygon fill="black" stroke="black" points="800.48,-58.16 809.14,-64.27 806.18,-54.09 800.48,-58.16"/>
</g>
<!-- 17.0&#45;&gt;10.0 -->
<g id="edge55" class="edge">
<title>17.0:e&#45;&gt;10.0:w</title>
<path fill="none" stroke="black" d="M774.01,-119.5C774.01,-119.5 797.33,-49.57 806.43,-22.25"/>
<polygon fill="black" stroke="black" points="809.69,-23.53 809.54,-12.94 803.05,-21.32 809.69,-23.53"/>
</g>
<!-- 17.0&#45;&gt;18.0 -->
<g id="edge56" class="edge">
<title>17.0:e&#45;&gt;18.0:w</title>
<path fill="none" stroke="black" d="M774.01,-119.5C774.01,-119.5 788.08,-119.5 798.62,-119.5"/>
<polygon fill="black" stroke="black" points="798.5,-123 808.5,-119.5 798.5,-116 798.5,-123"/>
</g>
<!-- 17.0&#45;&gt;26.0 -->
<g id="edge57" class="edge">
<title>17.0:e&#45;&gt;26.0:w</title>
<path fill="none" stroke="black" d="M774.01,-119.5C774.01,-119.5 793.43,-90.38 803.74,-74.91"/>
<polygon fill="black" stroke="black" points="806.54,-77.02 809.17,-66.76 800.72,-73.14 806.54,-77.02"/>
</g>
<!-- 25.0&#45;&gt;10.0 -->
<g id="edge58" class="edge">
<title>25.0:e&#45;&gt;10.0:w</title>
<path fill="none" stroke="black" d="M774.01,-65.5C774.01,-65.5 793.43,-36.38 803.74,-20.91"/>
<polygon fill="black" stroke="black" points="806.54,-23.02 809.17,-12.76 800.72,-19.14 806.54,-23.02"/>
</g>
<!-- 25.0&#45;&gt;18.0 -->
<g id="edge59" class="edge">
<title>25.0:e&#45;&gt;18.0:w</title>
<path fill="none" stroke="black" d="M774.01,-65.5C774.01,-65.5 793.43,-94.62 803.74,-110.09"/>
<polygon fill="black" stroke="black" points="800.72,-111.86 809.17,-118.24 806.54,-107.98 800.72,-111.86"/>
</g>
<!-- 25.0&#45;&gt;26.0 -->
<g id="edge60" class="edge">
<title>25.0:e&#45;&gt;26.0:w</title>
<path fill="none" stroke="black" d="M774.01,-65.5C774.01,-65.5 788.08,-65.5 798.62,-65.5"/>
<polygon fill="black" stroke="black" points="798.5,-69 808.5,-65.5 798.5,-62 798.5,-69"/>
</g>
<!-- 11.0 -->
<g id="node26" class="node">
<title>11.0</title>
<text text-anchor="start" x="953.02" y="-25.9" font-family="Times,serif" font-size="8.00">0</text>
<text text-anchor="start" x="1000.77" y="-25.9" font-family="Times,serif" font-size="8.00">644</text>
<text text-anchor="start" x="931.89" y="-6.45" font-family="Times,serif" font-size="14.00">11:</text>
<polygon fill="none" stroke="black" points="951.02,-0.5 951.02,-22.5 1014.02,-22.5 1014.02,-0.5 951.02,-0.5"/>
<text text-anchor="start" x="953.64" y="-6.2" font-family="Courier New" font-size="14.00">QFA…WAG</text>
</g>
<!-- 10.0&#45;&gt;11.0 -->
<g id="edge61" class="edge">
<title>10.0:e&#45;&gt;11.0:w</title>
<path fill="none" stroke="black" d="M894.02,-11.5C894.02,-11.5 907.35,-11.5 917.56,-11.5"/>
<polygon fill="black" stroke="black" points="917.5,-15 927.5,-11.5 917.5,-8 917.5,-15"/>
</g>
<!-- 19.0 -->
<g id="node27" class="node">
<title>19.0</title>
<text text-anchor="start" x="953.02" y="-133.9" font-family="Times,serif" font-size="8.00">0</text>
<text text-anchor="start" x="1000.77" y="-133.9" font-family="Times,serif" font-size="8.00">647</text>
<text text-anchor="start" x="931.89" y="-114.45" font-family="Times,serif" font-size="14.00">19:</text>
<polygon fill="none" stroke="black" points="951.02,-108.5 951.02,-130.5 1014.02,-130.5 1014.02,-108.5 951.02,-108.5"/>
<text text-anchor="start" x="953.64" y="-114.2" font-family="Courier New" font-size="14.00">QFA…TGM</text>
</g>
<!-- 10.0&#45;&gt;19.0 -->
<g id="edge62" class="edge">
<title>10.0:e&#45;&gt;19.0:w</title>
<path fill="none" stroke="black" d="M894.02,-11.5C894.02,-11.5 916.68,-81.43 925.53,-108.75"/>
<polygon fill="black" stroke="black" points="922.14,-109.63 928.55,-118.06 928.8,-107.47 922.14,-109.63"/>
</g>
<!-- 27.0 -->
<g id="node28" class="node">
<title>27.0</title>
<text text-anchor="start" x="953.02" y="-79.9" font-family="Times,serif" font-size="8.00">0</text>
<text text-anchor="start" x="1000.77" y="-79.9" font-family="Times,serif" font-size="8.00">654</text>
<text text-anchor="start" x="931.89" y="-60.45" font-family="Times,serif" font-size="14.00">27:</text>
<polygon fill="none" stroke="black" points="951.02,-54.5 951.02,-76.5 1014.02,-76.5 1014.02,-54.5 951.02,-54.5"/>
<text text-anchor="start" x="953.64" y="-60.2" font-family="Courier New" font-size="14.00">QFA…AGI</text>
</g>
<!-- 10.0&#45;&gt;27.0 -->
<g id="edge63" class="edge">
<title>10.0:e&#45;&gt;27.0:w</title>
<path fill="none" stroke="black" d="M894.02,-11.5C894.02,-11.5 912.89,-40.62 922.92,-56.09"/>
<polygon fill="black" stroke="black" points="919.82,-57.74 928.19,-64.23 925.69,-53.93 919.82,-57.74"/>
</g>
<!-- 18.0&#45;&gt;11.0 -->
<g id="edge64" class="edge">
<title>18.0:e&#45;&gt;11.0:w</title>
<path fill="none" stroke="black" d="M894.02,-119.5C894.02,-119.5 916.68,-49.57 925.53,-22.25"/>
<polygon fill="black" stroke="black" points="928.8,-23.53 928.55,-12.94 922.14,-21.37 928.8,-23.53"/>
</g>
<!-- 18.0&#45;&gt;19.0 -->
<g id="edge65" class="edge">
<title>18.0:e&#45;&gt;19.0:w</title>
<path fill="none" stroke="black" d="M894.02,-119.5C894.02,-119.5 907.35,-119.5 917.56,-119.5"/>
<polygon fill="black" stroke="black" points="917.5,-123 927.5,-119.5 917.5,-116 917.5,-123"/>
</g>
<!-- 18.0&#45;&gt;27.0 -->
<g id="edge66" class="edge">
<title>18.0:e&#45;&gt;27.0:w</title>
<path fill="none" stroke="black" d="M894.02,-119.5C894.02,-119.5 912.89,-90.38 922.92,-74.91"/>
<polygon fill="black" stroke="black" points="925.69,-77.07 928.19,-66.77 919.82,-73.26 925.69,-77.07"/>
</g>
<!-- 26.0&#45;&gt;11.0 -->
<g id="edge67" class="edge">
<title>26.0:e&#45;&gt;11.0:w</title>
<path fill="none" stroke="black" d="M894.02,-65.5C894.02,-65.5 912.89,-36.38 922.92,-20.91"/>
<polygon fill="black" stroke="black" points="925.69,-23.07 928.19,-12.77 919.82,-19.26 925.69,-23.07"/>
</g>
<!-- 26.0&#45;&gt;19.0 -->
<g id="edge68" class="edge">
<title>26.0:e&#45;&gt;19.0:w</title>
<path fill="none" stroke="black" d="M894.02,-65.5C894.02,-65.5 912.89,-94.62 922.92,-110.09"/>
<polygon fill="black" stroke="black" points="919.82,-111.74 928.19,-118.23 925.69,-107.93 919.82,-111.74"/>
</g>
<!-- 26.0&#45;&gt;27.0 -->
<g id="edge69" class="edge">
<title>26.0:e&#45;&gt;27.0:w</title>
<path fill="none" stroke="black" d="M894.02,-65.5C894.02,-65.5 907.35,-65.5 917.56,-65.5"/>
<polygon fill="black" stroke="black" points="917.5,-69 927.5,-65.5 917.5,-62 917.5,-69"/>
</g>
<!-- 11.0&#45;&gt;3.657 -->
<g id="edge70" class="edge">
<title>11.0:e&#45;&gt;3.657:w</title>
<path fill="none" stroke="black" d="M1014.02,-11.5C1014.02,-11.5 1039.41,-125.76 1047.54,-162.37"/>
<polygon fill="black" stroke="black" points="1044.1,-163.02 1049.69,-172.02 1050.94,-161.5 1044.1,-163.02"/>
</g>
<!-- 19.0&#45;&gt;3.657 -->
<g id="edge71" class="edge">
<title>19.0:e&#45;&gt;3.657:w</title>
<path fill="none" stroke="black" d="M1014.02,-119.5C1014.02,-119.5 1033.43,-148.62 1043.75,-164.09"/>
<polygon fill="black" stroke="black" points="1040.72,-165.86 1049.18,-172.24 1046.54,-161.98 1040.72,-165.86"/>
</g>
<!-- 27.0&#45;&gt;3.657 -->
<g id="edge72" class="edge">
<title>27.0:e&#45;&gt;3.657:w</title>
<path fill="none" stroke="black" d="M1014.02,-65.5C1014.02,-65.5 1037.33,-135.43 1046.44,-162.75"/>
<polygon fill="black" stroke="black" points="1043.06,-163.68 1049.54,-172.06 1049.7,-161.47 1043.06,-163.68"/>
</g>
</g>
</svg>
