<?xml version="1.0" encoding="UTF-8" standalone="no"?>
<!DOCTYPE svg PUBLIC "-//W3C//DTD SVG 1.1//EN"
 "http://www.w3.org/Graphics/SVG/1.1/DTD/svg11.dtd">
<!-- Generated by graphviz version 12.1.1 (20240910.0053)
 -->
<!-- Pages: 1 -->
<svg width="1000pt" height="230pt"
 viewBox="0.00 0.00 1000.00 229.50" xmlns="http://www.w3.org/2000/svg" xmlns:xlink="http://www.w3.org/1999/xlink">
<g id="graph0" class="graph" transform="scale(1 1) rotate(0) translate(4 225.5)">
<polygon fill="white" stroke="none" points="-4,4 -4,-225.5 996,-225.5 996,4 -4,4"/>
<!-- start -->
<g id="node1" class="node">
<title>start</title>
<ellipse fill="none" stroke="black" cx="27" cy="-118.75" rx="27" ry="18"/>
<text text-anchor="middle" x="27" y="-113.7" font-family="serif,serif" font-size="14.00">start</text>
</g>
<!-- 3.0 -->
<g id="node2" class="node">
<title>3.0</title>
<polygon fill="none" stroke="black" points="198,-199.25 198,-219.5 264,-219.5 264,-199.25 198,-199.25"/>
<text text-anchor="start" x="201" y="-205.1" font-family="Monospace" font-size="12.00">MTI..WAG</text>
<text text-anchor="start" x="212.25" y="-185.75" font-family="serif,serif" font-size="10.00">3:0&#45;1048</text>
</g>
<!-- start&#45;&gt;3.0 -->
<g id="edge1" class="edge">
<title>start:e&#45;&gt;3.0:w</title>
<path fill="none" stroke="black" d="M54,-118.75C54,-118.75 90,-170.75 90,-170.75 90,-170.75 159.28,-195.76 186.35,-205.53"/>
<polygon fill="black" stroke="black" points="184.98,-208.76 195.58,-208.86 187.36,-202.17 184.98,-208.76"/>
</g>
<!-- 4.0 -->
<g id="node3" class="node">
<title>4.0</title>
<polygon fill="none" stroke="black" points="92,-139.25 92,-159.5 158,-159.5 158,-139.25 92,-139.25"/>
<text text-anchor="start" x="95" y="-145.1" font-family="Monospace" font-size="12.00">MTI..ACD</text>
<text text-anchor="start" x="111.5" y="-125.75" font-family="serif,serif" font-size="10.00">4:0&#45;63</text>
</g>
<!-- start&#45;&gt;4.0 -->
<g id="edge2" class="edge">
<title>start:e&#45;&gt;4.0:w</title>
<path fill="none" stroke="black" d="M54,-118.75C54,-118.75 71.49,-133.23 82.42,-142.27"/>
<polygon fill="black" stroke="black" points="79.9,-144.73 89.83,-148.41 84.36,-139.34 79.9,-144.73"/>
</g>
<!-- 12.0 -->
<g id="node4" class="node">
<title>12.0</title>
<polygon fill="none" stroke="black" points="92,-79.25 92,-99.5 158,-99.5 158,-79.25 92,-79.25"/>
<text text-anchor="start" x="95" y="-85.1" font-family="Monospace" font-size="12.00">MKQ..VCD</text>
<text text-anchor="start" x="108.88" y="-65.75" font-family="serif,serif" font-size="10.00">12:0&#45;64</text>
</g>
<!-- start&#45;&gt;12.0 -->
<g id="edge3" class="edge">
<title>start:e&#45;&gt;12.0:w</title>
<path fill="none" stroke="black" d="M54,-118.75C54,-118.75 71.09,-105.18 82.04,-96.49"/>
<polygon fill="black" stroke="black" points="84.16,-99.28 89.81,-90.32 79.81,-93.79 84.16,-99.28"/>
</g>
<!-- 20.0 -->
<g id="node5" class="node">
<title>20.0</title>
<polygon fill="none" stroke="black" points="92,-19.25 92,-39.5 158,-39.5 158,-19.25 92,-19.25"/>
<text text-anchor="start" x="95" y="-25.1" font-family="Monospace" font-size="12.00">MKE..VCD</text>
<text text-anchor="start" x="108.88" y="-5.75" font-family="serif,serif" font-size="10.00">20:0&#45;64</text>
</g>
<!-- start&#45;&gt;20.0 -->
<g id="edge4" class="edge">
<title>start:e&#45;&gt;20.0:w</title>
<path fill="none" stroke="black" d="M54,-118.75C54,-118.75 76.81,-63.65 86.61,-39.98"/>
<polygon fill="black" stroke="black" points="89.83,-41.35 90.42,-30.77 83.36,-38.67 89.83,-41.35"/>
</g>
<!-- end -->
<g id="node6" class="node">
<title>end</title>
<ellipse fill="none" stroke="black" cx="965" cy="-118.75" rx="27" ry="18"/>
<text text-anchor="middle" x="965" y="-113.7" font-family="serif,serif" font-size="14.00">end</text>
</g>
<!-- 3.0&#45;&gt;end -->
<g id="edge5" class="edge">
<title>3.0:e&#45;&gt;end:w</title>
<path fill="none" stroke="black" d="M265,-209.38C265,-209.38 442,-198.75 442,-198.75 442,-198.75 442,-198.75 762,-198.75 762,-198.75 902,-170.75 902,-170.75 902,-170.75 921.42,-142.71 931.73,-127.81"/>
<polygon fill="black" stroke="black" points="934.32,-130.21 937.14,-119.99 928.57,-126.22 934.32,-130.21"/>
</g>
<!-- 5.0 -->
<g id="node7" class="node">
<title>5.0</title>
<polygon fill="none" stroke="black" points="198,-139.25 198,-159.5 264,-159.5 264,-139.25 198,-139.25"/>
<text text-anchor="start" x="201" y="-145.1" font-family="Monospace" font-size="12.00">ESR..MVD</text>
<text text-anchor="start" x="217.5" y="-125.75" font-family="serif,serif" font-size="10.00">5:0&#45;57</text>
</g>
<!-- 4.0&#45;&gt;5.0 -->
<g id="edge6" class="edge">
<title>4.0:e&#45;&gt;5.0:w</title>
<path fill="none" stroke="black" d="M159,-149.38C159,-149.38 174.6,-149.38 185.8,-149.38"/>
<polygon fill="black" stroke="black" points="185.49,-152.88 195.49,-149.38 185.49,-145.88 185.49,-152.88"/>
</g>
<!-- 13.0 -->
<g id="node8" class="node">
<title>13.0</title>
<polygon fill="none" stroke="black" points="198,-79.25 198,-99.5 264,-99.5 264,-79.25 198,-79.25"/>
<text text-anchor="start" x="201" y="-85.1" font-family="Monospace" font-size="12.00">EKR..MLD</text>
<text text-anchor="start" x="214.88" y="-65.75" font-family="serif,serif" font-size="10.00">13:0&#45;57</text>
</g>
<!-- 4.0&#45;&gt;13.0 -->
<g id="edge7" class="edge">
<title>4.0:e&#45;&gt;13.0:w</title>
<path fill="none" stroke="black" d="M159,-149.38C159,-149.38 180.15,-115.98 190.89,-99.02"/>
<polygon fill="black" stroke="black" points="193.8,-100.97 196.19,-90.65 187.88,-97.23 193.8,-100.97"/>
</g>
<!-- 21.0 -->
<g id="node9" class="node">
<title>21.0</title>
<polygon fill="none" stroke="black" points="198,-19.25 198,-39.5 264,-39.5 264,-19.25 198,-19.25"/>
<text text-anchor="start" x="201" y="-25.1" font-family="Monospace" font-size="12.00">EER..MVD</text>
<text text-anchor="start" x="214.88" y="-5.75" font-family="serif,serif" font-size="10.00">21:0&#45;57</text>
</g>
<!-- 4.0&#45;&gt;21.0 -->
<g id="edge8" class="edge">
<title>4.0:e&#45;&gt;21.0:w</title>
<path fill="none" stroke="black" d="M159,-149.38C159,-149.38 184.33,-69.39 193.63,-40.02"/>
<polygon fill="black" stroke="black" points="196.86,-41.41 196.54,-30.82 190.19,-39.29 196.86,-41.41"/>
</g>
<!-- 12.0&#45;&gt;5.0 -->
<g id="edge9" class="edge">
<title>12.0:e&#45;&gt;5.0:w</title>
<path fill="none" stroke="black" d="M159,-89.38C159,-89.38 180.15,-122.77 190.89,-139.74"/>
<polygon fill="black" stroke="black" points="187.88,-141.52 196.19,-148.1 193.8,-137.78 187.88,-141.52"/>
</g>
<!-- 12.0&#45;&gt;13.0 -->
<g id="edge10" class="edge">
<title>12.0:e&#45;&gt;13.0:w</title>
<path fill="none" stroke="black" d="M159,-89.38C159,-89.38 174.6,-89.38 185.8,-89.38"/>
<polygon fill="black" stroke="black" points="185.49,-92.88 195.49,-89.38 185.49,-85.88 185.49,-92.88"/>
</g>
<!-- 12.0&#45;&gt;21.0 -->
<g id="edge11" class="edge">
<title>12.0:e&#45;&gt;21.0:w</title>
<path fill="none" stroke="black" d="M159,-89.38C159,-89.38 180.15,-55.98 190.89,-39.02"/>
<polygon fill="black" stroke="black" points="193.8,-40.97 196.19,-30.65 187.88,-37.23 193.8,-40.97"/>
</g>
<!-- 20.0&#45;&gt;5.0 -->
<g id="edge12" class="edge">
<title>20.0:e&#45;&gt;5.0:w</title>
<path fill="none" stroke="black" d="M159,-29.38C159,-29.38 184.33,-109.36 193.63,-138.73"/>
<polygon fill="black" stroke="black" points="190.19,-139.46 196.54,-147.93 196.86,-137.34 190.19,-139.46"/>
</g>
<!-- 20.0&#45;&gt;13.0 -->
<g id="edge13" class="edge">
<title>20.0:e&#45;&gt;13.0:w</title>
<path fill="none" stroke="black" d="M159,-29.38C159,-29.38 180.15,-62.77 190.89,-79.74"/>
<polygon fill="black" stroke="black" points="187.88,-81.52 196.19,-88.1 193.8,-77.78 187.88,-81.52"/>
</g>
<!-- 20.0&#45;&gt;21.0 -->
<g id="edge14" class="edge">
<title>20.0:e&#45;&gt;21.0:w</title>
<path fill="none" stroke="black" d="M159,-29.38C159,-29.38 174.6,-29.38 185.8,-29.38"/>
<polygon fill="black" stroke="black" points="185.49,-32.88 195.49,-29.38 185.49,-25.88 185.49,-32.88"/>
</g>
<!-- 6.0 -->
<g id="node10" class="node">
<title>6.0</title>
<polygon fill="none" stroke="black" points="304,-139.25 304,-159.5 370,-159.5 370,-139.25 304,-139.25"/>
<text text-anchor="start" x="307" y="-145.1" font-family="Monospace" font-size="12.00">IAV..NSF</text>
<text text-anchor="start" x="323.5" y="-125.75" font-family="serif,serif" font-size="10.00">6:0&#45;43</text>
</g>
<!-- 5.0&#45;&gt;6.0 -->
<g id="edge15" class="edge">
<title>5.0:e&#45;&gt;6.0:w</title>
<path fill="none" stroke="black" d="M265,-149.38C265,-149.38 280.6,-149.38 291.8,-149.38"/>
<polygon fill="black" stroke="black" points="291.49,-152.88 301.49,-149.38 291.49,-145.88 291.49,-152.88"/>
</g>
<!-- 14.0 -->
<g id="node11" class="node">
<title>14.0</title>
<polygon fill="none" stroke="black" points="304,-79.25 304,-99.5 370,-99.5 370,-79.25 304,-79.25"/>
<text text-anchor="start" x="307" y="-85.1" font-family="Monospace" font-size="12.00">IAT..NSF</text>
<text text-anchor="start" x="320.88" y="-65.75" font-family="serif,serif" font-size="10.00">14:0&#45;43</text>
</g>
<!-- 5.0&#45;&gt;14.0 -->
<g id="edge16" class="edge">
<title>5.0:e&#45;&gt;14.0:w</title>
<path fill="none" stroke="black" d="M265,-149.38C265,-149.38 286.15,-115.98 296.89,-99.02"/>
<polygon fill="black" stroke="black" points="299.8,-100.97 302.19,-90.65 293.88,-97.23 299.8,-100.97"/>
</g>
<!-- 22.0 -->
<g id="node12" class="node">
<title>22.0</title>
<polygon fill="none" stroke="black" points="304,-19.25 304,-39.5 370,-39.5 370,-19.25 304,-19.25"/>
<text text-anchor="start" x="307" y="-25.1" font-family="Monospace" font-size="12.00">IAV..NSY</text>
<text text-anchor="start" x="320.88" y="-5.75" font-family="serif,serif" font-size="10.00">22:0&#45;43</text>
</g>
<!-- 5.0&#45;&gt;22.0 -->
<g id="edge17" class="edge">
<title>5.0:e&#45;&gt;22.0:w</title>
<path fill="none" stroke="black" d="M265,-149.38C265,-149.38 290.33,-69.39 299.63,-40.02"/>
<polygon fill="black" stroke="black" points="302.86,-41.41 302.54,-30.82 296.19,-39.29 302.86,-41.41"/>
</g>
<!-- 13.0&#45;&gt;6.0 -->
<g id="edge18" class="edge">
<title>13.0:e&#45;&gt;6.0:w</title>
<path fill="none" stroke="black" d="M265,-89.38C265,-89.38 286.15,-122.77 296.89,-139.74"/>
<polygon fill="black" stroke="black" points="293.88,-141.52 302.19,-148.1 299.8,-137.78 293.88,-141.52"/>
</g>
<!-- 13.0&#45;&gt;14.0 -->
<g id="edge19" class="edge">
<title>13.0:e&#45;&gt;14.0:w</title>
<path fill="none" stroke="black" d="M265,-89.38C265,-89.38 280.6,-89.38 291.8,-89.38"/>
<polygon fill="black" stroke="black" points="291.49,-92.88 301.49,-89.38 291.49,-85.88 291.49,-92.88"/>
</g>
<!-- 13.0&#45;&gt;22.0 -->
<g id="edge20" class="edge">
<title>13.0:e&#45;&gt;22.0:w</title>
<path fill="none" stroke="black" d="M265,-89.38C265,-89.38 286.15,-55.98 296.89,-39.02"/>
<polygon fill="black" stroke="black" points="299.8,-40.97 302.19,-30.65 293.88,-37.23 299.8,-40.97"/>
</g>
<!-- 21.0&#45;&gt;6.0 -->
<g id="edge21" class="edge">
<title>21.0:e&#45;&gt;6.0:w</title>
<path fill="none" stroke="black" d="M265,-29.38C265,-29.38 290.33,-109.36 299.63,-138.73"/>
<polygon fill="black" stroke="black" points="296.19,-139.46 302.54,-147.93 302.86,-137.34 296.19,-139.46"/>
</g>
<!-- 21.0&#45;&gt;14.0 -->
<g id="edge22" class="edge">
<title>21.0:e&#45;&gt;14.0:w</title>
<path fill="none" stroke="black" d="M265,-29.38C265,-29.38 286.15,-62.77 296.89,-79.74"/>
<polygon fill="black" stroke="black" points="293.88,-81.52 302.19,-88.1 299.8,-77.78 293.88,-81.52"/>
</g>
<!-- 21.0&#45;&gt;22.0 -->
<g id="edge23" class="edge">
<title>21.0:e&#45;&gt;22.0:w</title>
<path fill="none" stroke="black" d="M265,-29.38C265,-29.38 280.6,-29.38 291.8,-29.38"/>
<polygon fill="black" stroke="black" points="291.49,-32.88 301.49,-29.38 291.49,-25.88 291.49,-32.88"/>
</g>
<!-- 7.0 -->
<g id="node13" class="node">
<title>7.0</title>
<polygon fill="none" stroke="black" points="410,-139.25 410,-159.5 476,-159.5 476,-139.25 410,-139.25"/>
<text text-anchor="start" x="413" y="-145.1" font-family="Monospace" font-size="12.00">YRD..NDL</text>
<text text-anchor="start" x="429.5" y="-125.75" font-family="serif,serif" font-size="10.00">7:0&#45;49</text>
</g>
<!-- 6.0&#45;&gt;7.0 -->
<g id="edge24" class="edge">
<title>6.0:e&#45;&gt;7.0:w</title>
<path fill="none" stroke="black" d="M371,-149.38C371,-149.38 386.6,-149.38 397.8,-149.38"/>
<polygon fill="black" stroke="black" points="397.49,-152.88 407.49,-149.38 397.49,-145.88 397.49,-152.88"/>
</g>
<!-- 15.0 -->
<g id="node14" class="node">
<title>15.0</title>
<polygon fill="none" stroke="black" points="410,-79.25 410,-99.5 476,-99.5 476,-79.25 410,-79.25"/>
<text text-anchor="start" x="413" y="-85.1" font-family="Monospace" font-size="12.00">YRD..NSL</text>
<text text-anchor="start" x="426.88" y="-65.75" font-family="serif,serif" font-size="10.00">15:0&#45;49</text>
</g>
<!-- 6.0&#45;&gt;15.0 -->
<g id="edge25" class="edge">
<title>6.0:e&#45;&gt;15.0:w</title>
<path fill="none" stroke="black" d="M371,-149.38C371,-149.38 392.15,-115.98 402.89,-99.02"/>
<polygon fill="black" stroke="black" points="405.8,-100.97 408.19,-90.65 399.88,-97.23 405.8,-100.97"/>
</g>
<!-- 23.0 -->
<g id="node15" class="node">
<title>23.0</title>
<polygon fill="none" stroke="black" points="410,-19.25 410,-39.5 476,-39.5 476,-19.25 410,-19.25"/>
<text text-anchor="start" x="413" y="-25.1" font-family="Monospace" font-size="12.00">YRE..FSL</text>
<text text-anchor="start" x="426.88" y="-5.75" font-family="serif,serif" font-size="10.00">23:0&#45;49</text>
</g>
<!-- 6.0&#45;&gt;23.0 -->
<g id="edge26" class="edge">
<title>6.0:e&#45;&gt;23.0:w</title>
<path fill="none" stroke="black" d="M371,-149.38C371,-149.38 396.33,-69.39 405.63,-40.02"/>
<polygon fill="black" stroke="black" points="408.86,-41.41 408.54,-30.82 402.19,-39.29 408.86,-41.41"/>
</g>
<!-- 14.0&#45;&gt;7.0 -->
<g id="edge27" class="edge">
<title>14.0:e&#45;&gt;7.0:w</title>
<path fill="none" stroke="black" d="M371,-89.38C371,-89.38 392.15,-122.77 402.89,-139.74"/>
<polygon fill="black" stroke="black" points="399.88,-141.52 408.19,-148.1 405.8,-137.78 399.88,-141.52"/>
</g>
<!-- 14.0&#45;&gt;15.0 -->
<g id="edge28" class="edge">
<title>14.0:e&#45;&gt;15.0:w</title>
<path fill="none" stroke="black" d="M371,-89.38C371,-89.38 386.6,-89.38 397.8,-89.38"/>
<polygon fill="black" stroke="black" points="397.49,-92.88 407.49,-89.38 397.49,-85.88 397.49,-92.88"/>
</g>
<!-- 14.0&#45;&gt;23.0 -->
<g id="edge29" class="edge">
<title>14.0:e&#45;&gt;23.0:w</title>
<path fill="none" stroke="black" d="M371,-89.38C371,-89.38 392.15,-55.98 402.89,-39.02"/>
<polygon fill="black" stroke="black" points="405.8,-40.97 408.19,-30.65 399.88,-37.23 405.8,-40.97"/>
</g>
<!-- 22.0&#45;&gt;7.0 -->
<g id="edge30" class="edge">
<title>22.0:e&#45;&gt;7.0:w</title>
<path fill="none" stroke="black" d="M371,-29.38C371,-29.38 396.33,-109.36 405.63,-138.73"/>
<polygon fill="black" stroke="black" points="402.19,-139.46 408.54,-147.93 408.86,-137.34 402.19,-139.46"/>
</g>
<!-- 22.0&#45;&gt;15.0 -->
<g id="edge31" class="edge">
<title>22.0:e&#45;&gt;15.0:w</title>
<path fill="none" stroke="black" d="M371,-29.38C371,-29.38 392.15,-62.77 402.89,-79.74"/>
<polygon fill="black" stroke="black" points="399.88,-81.52 408.19,-88.1 405.8,-77.78 399.88,-81.52"/>
</g>
<!-- 22.0&#45;&gt;23.0 -->
<g id="edge32" class="edge">
<title>22.0:e&#45;&gt;23.0:w</title>
<path fill="none" stroke="black" d="M371,-29.38C371,-29.38 386.6,-29.38 397.8,-29.38"/>
<polygon fill="black" stroke="black" points="397.49,-32.88 407.49,-29.38 397.49,-25.88 397.49,-32.88"/>
</g>
<!-- 8.0 -->
<g id="node16" class="node">
<title>8.0</title>
<polygon fill="none" stroke="black" points="516,-139.25 516,-159.5 582,-159.5 582,-139.25 516,-139.25"/>
<text text-anchor="start" x="519" y="-145.1" font-family="Monospace" font-size="12.00">VDK..GHE</text>
<text text-anchor="start" x="535.5" y="-125.75" font-family="serif,serif" font-size="10.00">8:0&#45;51</text>
</g>
<!-- 7.0&#45;&gt;8.0 -->
<g id="edge33" class="edge">
<title>7.0:e&#45;&gt;8.0:w</title>
<path fill="none" stroke="black" d="M477,-149.38C477,-149.38 492.6,-149.38 503.8,-149.38"/>
<polygon fill="black" stroke="black" points="503.49,-152.88 513.49,-149.38 503.49,-145.88 503.49,-152.88"/>
</g>
<!-- 16.0 -->
<g id="node17" class="node">
<title>16.0</title>
<polygon fill="none" stroke="black" points="516,-79.25 516,-99.5 582,-99.5 582,-79.25 516,-79.25"/>
<text text-anchor="start" x="519" y="-85.1" font-family="Monospace" font-size="12.00">VDR..GHE</text>
<text text-anchor="start" x="532.88" y="-65.75" font-family="serif,serif" font-size="10.00">16:0&#45;52</text>
</g>
<!-- 7.0&#45;&gt;16.0 -->
<g id="edge34" class="edge">
<title>7.0:e&#45;&gt;16.0:w</title>
<path fill="none" stroke="black" d="M477,-149.38C477,-149.38 498.15,-115.98 508.89,-99.02"/>
<polygon fill="black" stroke="black" points="511.8,-100.97 514.19,-90.65 505.88,-97.23 511.8,-100.97"/>
</g>
<!-- 24.0 -->
<g id="node18" class="node">
<title>24.0</title>
<polygon fill="none" stroke="black" points="516,-19.25 516,-39.5 582,-39.5 582,-19.25 516,-19.25"/>
<text text-anchor="start" x="519" y="-25.1" font-family="Monospace" font-size="12.00">VDS..GHE</text>
<text text-anchor="start" x="532.88" y="-5.75" font-family="serif,serif" font-size="10.00">24:0&#45;52</text>
</g>
<!-- 7.0&#45;&gt;24.0 -->
<g id="edge35" class="edge">
<title>7.0:e&#45;&gt;24.0:w</title>
<path fill="none" stroke="black" d="M477,-149.38C477,-149.38 502.33,-69.39 511.63,-40.02"/>
<polygon fill="black" stroke="black" points="514.86,-41.41 514.54,-30.82 508.19,-39.29 514.86,-41.41"/>
</g>
<!-- 15.0&#45;&gt;8.0 -->
<g id="edge36" class="edge">
<title>15.0:e&#45;&gt;8.0:w</title>
<path fill="none" stroke="black" d="M477,-89.38C477,-89.38 498.15,-122.77 508.89,-139.74"/>
<polygon fill="black" stroke="black" points="505.88,-141.52 514.19,-148.1 511.8,-137.78 505.88,-141.52"/>
</g>
<!-- 15.0&#45;&gt;16.0 -->
<g id="edge37" class="edge">
<title>15.0:e&#45;&gt;16.0:w</title>
<path fill="none" stroke="black" d="M477,-89.38C477,-89.38 492.6,-89.38 503.8,-89.38"/>
<polygon fill="black" stroke="black" points="503.49,-92.88 513.49,-89.38 503.49,-85.88 503.49,-92.88"/>
</g>
<!-- 15.0&#45;&gt;24.0 -->
<g id="edge38" class="edge">
<title>15.0:e&#45;&gt;24.0:w</title>
<path fill="none" stroke="black" d="M477,-89.38C477,-89.38 498.15,-55.98 508.89,-39.02"/>
<polygon fill="black" stroke="black" points="511.8,-40.97 514.19,-30.65 505.88,-37.23 511.8,-40.97"/>
</g>
<!-- 23.0&#45;&gt;8.0 -->
<g id="edge39" class="edge">
<title>23.0:e&#45;&gt;8.0:w</title>
<path fill="none" stroke="black" d="M477,-29.38C477,-29.38 502.33,-109.36 511.63,-138.73"/>
<polygon fill="black" stroke="black" points="508.19,-139.46 514.54,-147.93 514.86,-137.34 508.19,-139.46"/>
</g>
<!-- 23.0&#45;&gt;16.0 -->
<g id="edge40" class="edge">
<title>23.0:e&#45;&gt;16.0:w</title>
<path fill="none" stroke="black" d="M477,-29.38C477,-29.38 498.15,-62.77 508.89,-79.74"/>
<polygon fill="black" stroke="black" points="505.88,-81.52 514.19,-88.1 511.8,-77.78 505.88,-81.52"/>
</g>
<!-- 23.0&#45;&gt;24.0 -->
<g id="edge41" class="edge">
<title>23.0:e&#45;&gt;24.0:w</title>
<path fill="none" stroke="black" d="M477,-29.38C477,-29.38 492.6,-29.38 503.8,-29.38"/>
<polygon fill="black" stroke="black" points="503.49,-32.88 513.49,-29.38 503.49,-25.88 503.49,-32.88"/>
</g>
<!-- 9.0 -->
<g id="node19" class="node">
<title>9.0</title>
<polygon fill="none" stroke="black" points="622,-139.25 622,-159.5 688,-159.5 688,-139.25 622,-139.25"/>
<text text-anchor="start" x="625" y="-145.1" font-family="Monospace" font-size="12.00">TTS..WPT</text>
<text text-anchor="start" x="641.5" y="-125.75" font-family="serif,serif" font-size="10.00">9:0&#45;59</text>
</g>
<!-- 8.0&#45;&gt;9.0 -->
<g id="edge42" class="edge">
<title>8.0:e&#45;&gt;9.0:w</title>
<path fill="none" stroke="black" d="M583,-149.38C583,-149.38 598.6,-149.38 609.8,-149.38"/>
<polygon fill="black" stroke="black" points="609.49,-152.88 619.49,-149.38 609.49,-145.88 609.49,-152.88"/>
</g>
<!-- 17.0 -->
<g id="node20" class="node">
<title>17.0</title>
<polygon fill="none" stroke="black" points="622,-79.25 622,-99.5 688,-99.5 688,-79.25 622,-79.25"/>
<text text-anchor="start" x="625" y="-85.1" font-family="Monospace" font-size="12.00">TTS..YPT</text>
<text text-anchor="start" x="638.88" y="-65.75" font-family="serif,serif" font-size="10.00">17:0&#45;59</text>
</g>
<!-- 8.0&#45;&gt;17.0 -->
<g id="edge43" class="edge">
<title>8.0:e&#45;&gt;17.0:w</title>
<path fill="none" stroke="black" d="M583,-149.38C583,-149.38 604.15,-115.98 614.89,-99.02"/>
<polygon fill="black" stroke="black" points="617.8,-100.97 620.19,-90.65 611.88,-97.23 617.8,-100.97"/>
</g>
<!-- 25.0 -->
<g id="node21" class="node">
<title>25.0</title>
<polygon fill="none" stroke="black" points="622,-19.25 622,-39.5 688,-39.5 688,-19.25 622,-19.25"/>
<text text-anchor="start" x="625" y="-25.1" font-family="Monospace" font-size="12.00">TTS..WPT</text>
<text text-anchor="start" x="638.88" y="-5.75" font-family="serif,serif" font-size="10.00">25:0&#45;59</text>
</g>
<!-- 8.0&#45;&gt;25.0 -->
<g id="edge44" class="edge">
<title>8.0:e&#45;&gt;25.0:w</title>
<path fill="none" stroke="black" d="M583,-149.38C583,-149.38 608.33,-69.39 617.63,-40.02"/>
<polygon fill="black" stroke="black" points="620.86,-41.41 620.54,-30.82 614.19,-39.29 620.86,-41.41"/>
</g>
<!-- 16.0&#45;&gt;9.0 -->
<g id="edge45" class="edge">
<title>16.0:e&#45;&gt;9.0:w</title>
<path fill="none" stroke="black" d="M583,-89.38C583,-89.38 604.15,-122.77 614.89,-139.74"/>
<polygon fill="black" stroke="black" points="611.88,-141.52 620.19,-148.1 617.8,-137.78 611.88,-141.52"/>
</g>
<!-- 16.0&#45;&gt;17.0 -->
<g id="edge46" class="edge">
<title>16.0:e&#45;&gt;17.0:w</title>
<path fill="none" stroke="black" d="M583,-89.38C583,-89.38 598.6,-89.38 609.8,-89.38"/>
<polygon fill="black" stroke="black" points="609.49,-92.88 619.49,-89.38 609.49,-85.88 609.49,-92.88"/>
</g>
<!-- 16.0&#45;&gt;25.0 -->
<g id="edge47" class="edge">
<title>16.0:e&#45;&gt;25.0:w</title>
<path fill="none" stroke="black" d="M583,-89.38C583,-89.38 604.15,-55.98 614.89,-39.02"/>
<polygon fill="black" stroke="black" points="617.8,-40.97 620.19,-30.65 611.88,-37.23 617.8,-40.97"/>
</g>
<!-- 24.0&#45;&gt;9.0 -->
<g id="edge48" class="edge">
<title>24.0:e&#45;&gt;9.0:w</title>
<path fill="none" stroke="black" d="M583,-29.38C583,-29.38 608.33,-109.36 617.63,-138.73"/>
<polygon fill="black" stroke="black" points="614.19,-139.46 620.54,-147.93 620.86,-137.34 614.19,-139.46"/>
</g>
<!-- 24.0&#45;&gt;17.0 -->
<g id="edge49" class="edge">
<title>24.0:e&#45;&gt;17.0:w</title>
<path fill="none" stroke="black" d="M583,-29.38C583,-29.38 604.15,-62.77 614.89,-79.74"/>
<polygon fill="black" stroke="black" points="611.88,-81.52 620.19,-88.1 617.8,-77.78 611.88,-81.52"/>
</g>
<!-- 24.0&#45;&gt;25.0 -->
<g id="edge50" class="edge">
<title>24.0:e&#45;&gt;25.0:w</title>
<path fill="none" stroke="black" d="M583,-29.38C583,-29.38 598.6,-29.38 609.8,-29.38"/>
<polygon fill="black" stroke="black" points="609.49,-32.88 619.49,-29.38 609.49,-25.88 609.49,-32.88"/>
</g>
<!-- 10.0 -->
<g id="node22" class="node">
<title>10.0</title>
<polygon fill="none" stroke="black" points="728,-139.25 728,-159.5 794,-159.5 794,-139.25 728,-139.25"/>
<text text-anchor="start" x="731" y="-145.1" font-family="Monospace" font-size="12.00">APA..IGQ</text>
<text text-anchor="start" x="744.88" y="-125.75" font-family="serif,serif" font-size="10.00">10:0&#45;75</text>
</g>
<!-- 9.0&#45;&gt;10.0 -->
<g id="edge51" class="edge">
<title>9.0:e&#45;&gt;10.0:w</title>
<path fill="none" stroke="black" d="M689,-149.38C689,-149.38 704.6,-149.38 715.8,-149.38"/>
<polygon fill="black" stroke="black" points="715.49,-152.88 725.49,-149.38 715.49,-145.88 715.49,-152.88"/>
</g>
<!-- 18.0 -->
<g id="node23" class="node">
<title>18.0</title>
<polygon fill="none" stroke="black" points="728,-79.25 728,-99.5 794,-99.5 794,-79.25 728,-79.25"/>
<text text-anchor="start" x="731" y="-85.1" font-family="Monospace" font-size="12.00">APA..IGM</text>
<text text-anchor="start" x="744.88" y="-65.75" font-family="serif,serif" font-size="10.00">18:0&#45;75</text>
</g>
<!-- 9.0&#45;&gt;18.0 -->
<g id="edge52" class="edge">
<title>9.0:e&#45;&gt;18.0:w</title>
<path fill="none" stroke="black" d="M689,-149.38C689,-149.38 710.15,-115.98 720.89,-99.02"/>
<polygon fill="black" stroke="black" points="723.8,-100.97 726.19,-90.65 717.88,-97.23 723.8,-100.97"/>
</g>
<!-- 26.0 -->
<g id="node24" class="node">
<title>26.0</title>
<polygon fill="none" stroke="black" points="728,-19.25 728,-39.5 794,-39.5 794,-19.25 728,-19.25"/>
<text text-anchor="start" x="731" y="-25.1" font-family="Monospace" font-size="12.00">APA..IGM</text>
<text text-anchor="start" x="744.88" y="-5.75" font-family="serif,serif" font-size="10.00">26:0&#45;75</text>
</g>
<!-- 9.0&#45;&gt;26.0 -->
<g id="edge53" class="edge">
<title>9.0:e&#45;&gt;26.0:w</title>
<path fill="none" stroke="black" d="M689,-149.38C689,-149.38 714.33,-69.39 723.63,-40.02"/>
<polygon fill="black" stroke="black" points="726.86,-41.41 726.54,-30.82 720.19,-39.29 726.86,-41.41"/>
</g>
<!-- 17.0&#45;&gt;10.0 -->
<g id="edge54" class="edge">
<title>17.0:e&#45;&gt;10.0:w</title>
<path fill="none" stroke="black" d="M689,-89.38C689,-89.38 710.15,-122.77 720.89,-139.74"/>
<polygon fill="black" stroke="black" points="717.88,-141.52 726.19,-148.1 723.8,-137.78 717.88,-141.52"/>
</g>
<!-- 17.0&#45;&gt;18.0 -->
<g id="edge55" class="edge">
<title>17.0:e&#45;&gt;18.0:w</title>
<path fill="none" stroke="black" d="M689,-89.38C689,-89.38 704.6,-89.38 715.8,-89.38"/>
<polygon fill="black" stroke="black" points="715.49,-92.88 725.49,-89.38 715.49,-85.88 715.49,-92.88"/>
</g>
<!-- 17.0&#45;&gt;26.0 -->
<g id="edge56" class="edge">
<title>17.0:e&#45;&gt;26.0:w</title>
<path fill="none" stroke="black" d="M689,-89.38C689,-89.38 710.15,-55.98 720.89,-39.02"/>
<polygon fill="black" stroke="black" points="723.8,-40.97 726.19,-30.65 717.88,-37.23 723.8,-40.97"/>
</g>
<!-- 25.0&#45;&gt;10.0 -->
<g id="edge57" class="edge">
<title>25.0:e&#45;&gt;10.0:w</title>
<path fill="none" stroke="black" d="M689,-29.38C689,-29.38 714.33,-109.36 723.63,-138.73"/>
<polygon fill="black" stroke="black" points="720.19,-139.46 726.54,-147.93 726.86,-137.34 720.19,-139.46"/>
</g>
<!-- 25.0&#45;&gt;18.0 -->
<g id="edge58" class="edge">
<title>25.0:e&#45;&gt;18.0:w</title>
<path fill="none" stroke="black" d="M689,-29.38C689,-29.38 710.15,-62.77 720.89,-79.74"/>
<polygon fill="black" stroke="black" points="717.88,-81.52 726.19,-88.1 723.8,-77.78 717.88,-81.52"/>
</g>
<!-- 25.0&#45;&gt;26.0 -->
<g id="edge59" class="edge">
<title>25.0:e&#45;&gt;26.0:w</title>
<path fill="none" stroke="black" d="M689,-29.38C689,-29.38 704.6,-29.38 715.8,-29.38"/>
<polygon fill="black" stroke="black" points="715.49,-32.88 725.49,-29.38 715.49,-25.88 715.49,-32.88"/>
</g>
<!-- 11.0 -->
<g id="node25" class="node">
<title>11.0</title>
<polygon fill="none" stroke="black" points="834,-139.25 834,-159.5 900,-159.5 900,-139.25 834,-139.25"/>
<text text-anchor="start" x="837" y="-145.1" font-family="Monospace" font-size="12.00">QFA..WAG</text>
<text text-anchor="start" x="849" y="-125.75" font-family="serif,serif" font-size="10.00">11:0&#45;644</text>
</g>
<!-- 10.0&#45;&gt;11.0 -->
<g id="edge60" class="edge">
<title>10.0:e&#45;&gt;11.0:w</title>
<path fill="none" stroke="black" d="M795,-149.38C795,-149.38 810.6,-149.38 821.8,-149.38"/>
<polygon fill="black" stroke="black" points="821.49,-152.88 831.49,-149.38 821.49,-145.88 821.49,-152.88"/>
</g>
<!-- 19.0 -->
<g id="node26" class="node">
<title>19.0</title>
<polygon fill="none" stroke="black" points="834,-79.25 834,-99.5 900,-99.5 900,-79.25 834,-79.25"/>
<text text-anchor="start" x="837" y="-85.1" font-family="Monospace" font-size="12.00">QFA..TGM</text>
<text text-anchor="start" x="848.25" y="-65.75" font-family="serif,serif" font-size="10.00">19:0&#45;647</text>
</g>
<!-- 10.0&#45;&gt;19.0 -->
<g id="edge61" class="edge">
<title>10.0:e&#45;&gt;19.0:w</title>
<path fill="none" stroke="black" d="M795,-149.38C795,-149.38 816.15,-115.98 826.89,-99.02"/>
<polygon fill="black" stroke="black" points="829.8,-100.97 832.19,-90.65 823.88,-97.23 829.8,-100.97"/>
</g>
<!-- 27.0 -->
<g id="node27" class="node">
<title>27.0</title>
<polygon fill="none" stroke="black" points="834,-19.25 834,-39.5 900,-39.5 900,-19.25 834,-19.25"/>
<text text-anchor="start" x="837" y="-25.1" font-family="Monospace" font-size="12.00">QFA..AGI</text>
<text text-anchor="start" x="848.25" y="-5.75" font-family="serif,serif" font-size="10.00">27:0&#45;654</text>
</g>
<!-- 10.0&#45;&gt;27.0 -->
<g id="edge62" class="edge">
<title>10.0:e&#45;&gt;27.0:w</title>
<path fill="none" stroke="black" d="M795,-149.38C795,-149.38 820.33,-69.39 829.63,-40.02"/>
<polygon fill="black" stroke="black" points="832.86,-41.41 832.54,-30.82 826.19,-39.29 832.86,-41.41"/>
</g>
<!-- 18.0&#45;&gt;11.0 -->
<g id="edge63" class="edge">
<title>18.0:e&#45;&gt;11.0:w</title>
<path fill="none" stroke="black" d="M795,-89.38C795,-89.38 816.15,-122.77 826.89,-139.74"/>
<polygon fill="black" stroke="black" points="823.88,-141.52 832.19,-148.1 829.8,-137.78 823.88,-141.52"/>
</g>
<!-- 18.0&#45;&gt;19.0 -->
<g id="edge64" class="edge">
<title>18.0:e&#45;&gt;19.0:w</title>
<path fill="none" stroke="black" d="M795,-89.38C795,-89.38 810.6,-89.38 821.8,-89.38"/>
<polygon fill="black" stroke="black" points="821.49,-92.88 831.49,-89.38 821.49,-85.88 821.49,-92.88"/>
</g>
<!-- 18.0&#45;&gt;27.0 -->
<g id="edge65" class="edge">
<title>18.0:e&#45;&gt;27.0:w</title>
<path fill="none" stroke="black" d="M795,-89.38C795,-89.38 816.15,-55.98 826.89,-39.02"/>
<polygon fill="black" stroke="black" points="829.8,-40.97 832.19,-30.65 823.88,-37.23 829.8,-40.97"/>
</g>
<!-- 26.0&#45;&gt;11.0 -->
<g id="edge66" class="edge">
<title>26.0:e&#45;&gt;11.0:w</title>
<path fill="none" stroke="black" d="M795,-29.38C795,-29.38 820.33,-109.36 829.63,-138.73"/>
<polygon fill="black" stroke="black" points="826.19,-139.46 832.54,-147.93 832.86,-137.34 826.19,-139.46"/>
</g>
<!-- 26.0&#45;&gt;19.0 -->
<g id="edge67" class="edge">
<title>26.0:e&#45;&gt;19.0:w</title>
<path fill="none" stroke="black" d="M795,-29.38C795,-29.38 816.15,-62.77 826.89,-79.74"/>
<polygon fill="black" stroke="black" points="823.88,-81.52 832.19,-88.1 829.8,-77.78 823.88,-81.52"/>
</g>
<!-- 26.0&#45;&gt;27.0 -->
<g id="edge68" class="edge">
<title>26.0:e&#45;&gt;27.0:w</title>
<path fill="none" stroke="black" d="M795,-29.38C795,-29.38 810.6,-29.38 821.8,-29.38"/>
<polygon fill="black" stroke="black" points="821.49,-32.88 831.49,-29.38 821.49,-25.88 821.49,-32.88"/>
</g>
<!-- 11.0&#45;&gt;end -->
<g id="edge69" class="edge">
<title>11.0:e&#45;&gt;end:w</title>
<path fill="none" stroke="black" d="M901,-149.38C901,-149.38 918.49,-134.9 929.42,-125.85"/>
<polygon fill="black" stroke="black" points="931.36,-128.79 936.83,-119.72 926.9,-123.4 931.36,-128.79"/>
</g>
<!-- 19.0&#45;&gt;end -->
<g id="edge70" class="edge">
<title>19.0:e&#45;&gt;end:w</title>
<path fill="none" stroke="black" d="M901,-89.38C901,-89.38 918.09,-102.95 929.04,-111.64"/>
<polygon fill="black" stroke="black" points="926.81,-114.33 936.81,-117.81 931.16,-108.85 926.81,-114.33"/>
</g>
<!-- 27.0&#45;&gt;end -->
<g id="edge71" class="edge">
<title>27.0:e&#45;&gt;end:w</title>
<path fill="none" stroke="black" d="M901,-29.38C901,-29.38 923.81,-84.47 933.61,-108.15"/>
<polygon fill="black" stroke="black" points="930.36,-109.45 937.42,-117.35 936.83,-106.77 930.36,-109.45"/>
</g>
</g>
</svg>
