<?xml version="1.0" encoding="UTF-8" standalone="no"?>
<!DOCTYPE svg PUBLIC "-//W3C//DTD SVG 1.1//EN"
 "http://www.w3.org/Graphics/SVG/1.1/DTD/svg11.dtd">
<!-- Generated by graphviz version 12.1.1 (20240910.0053)
 -->
<!-- Pages: 1 -->
<svg width="422pt" height="156pt"
 viewBox="0.00 0.00 422.00 155.88" xmlns="http://www.w3.org/2000/svg" xmlns:xlink="http://www.w3.org/1999/xlink">
<g id="graph0" class="graph" transform="scale(1 1) rotate(0) translate(4 151.88)">
<polygon fill="white" stroke="none" points="-4,4 -4,-151.88 418,-151.88 418,4 -4,4"/>
<!-- start -->
<g id="node1" class="node">
<title>start</title>
<ellipse fill="none" stroke="black" cx="27" cy="-129.88" rx="27" ry="18"/>
<text text-anchor="middle" x="27" y="-124.83" font-family="Times,serif" font-size="14.00">start</text>
</g>
<!-- 1.5 -->
<g id="node2" class="node">
<title>1.5</title>
<polygon fill="none" stroke="black" points="101.62,-71.25 101.62,-93.75 132.38,-93.75 132.38,-71.25 101.62,-71.25"/>
<text text-anchor="start" x="104.62" y="-78.45" font-family="Courier,monospace" font-weight="bold" font-size="14.00">TAC</text>
<text text-anchor="start" x="106.12" y="-59.75" font-family="Times,serif" font-size="10.00">1:5&#45;7</text>
</g>
<!-- start&#45;&gt;1.5 -->
<g id="edge1" class="edge">
<title>start:e&#45;&gt;1.5:w</title>
<path fill="none" stroke="black" d="M54,-129.88C79.16,-129.88 73.86,-95.52 89.97,-85.32"/>
<polygon fill="black" stroke="black" points="90.39,-88.83 99.16,-82.89 88.6,-82.06 90.39,-88.83"/>
</g>
<!-- 1.8 -->
<g id="node3" class="node">
<title>1.8</title>
<polygon fill="none" stroke="black" points="194.12,-71.25 194.12,-93.75 219.88,-93.75 219.88,-71.25 194.12,-71.25"/>
<text text-anchor="start" x="198.75" y="-78.45" font-family="Courier,monospace" font-weight="bold" font-size="14.00">AT</text>
<text text-anchor="start" x="196.12" y="-59.75" font-family="Times,serif" font-size="10.00">1:8&#45;9</text>
</g>
<!-- 1.5&#45;&gt;1.8 -->
<g id="edge2" class="edge">
<title>1.5:e&#45;&gt;1.8:w</title>
<path fill="none" stroke="black" stroke-dasharray="5,2" d="M133.38,-82.5C155.78,-82.5 164.01,-82.5 181.98,-82.5"/>
<polygon fill="black" stroke="black" points="181.61,-86 191.61,-82.5 181.61,-79 181.61,-86"/>
</g>
<!-- 2.0 -->
<g id="node4" class="node">
<title>2.0</title>
<polygon fill="none" stroke="black" points="194.12,-15.25 194.12,-37.75 219.88,-37.75 219.88,-15.25 194.12,-15.25"/>
<text text-anchor="start" x="198.75" y="-22.45" font-family="Courier,monospace" font-weight="bold" font-size="14.00">TG</text>
<text text-anchor="start" x="196.12" y="-3.75" font-family="Times,serif" font-size="10.00">2:0&#45;1</text>
</g>
<!-- 1.5&#45;&gt;2.0 -->
<g id="edge3" class="edge">
<title>1.5:e&#45;&gt;2.0:w</title>
<path fill="none" stroke="black" stroke-width="2" d="M133.38,-82.5C164.79,-82.5 159.37,-40.77 180.72,-29.35"/>
<polygon fill="black" stroke="black" stroke-width="2" points="181.21,-32.83 190.17,-27.18 179.64,-26.01 181.21,-32.83"/>
</g>
<!-- 1.10 -->
<g id="node5" class="node">
<title>1.10</title>
<polygon fill="none" stroke="black" points="278.88,-71.25 278.88,-93.75 315.12,-93.75 315.12,-71.25 278.88,-71.25"/>
<text text-anchor="start" x="284.62" y="-78.45" font-family="Courier,monospace" font-weight="bold" font-size="14.00">CAC</text>
<text text-anchor="start" x="280.88" y="-59.75" font-family="Times,serif" font-size="10.00">1:10&#45;12</text>
</g>
<!-- 1.8&#45;&gt;1.10 -->
<g id="edge4" class="edge">
<title>1.8:e&#45;&gt;1.10:w</title>
<path fill="none" stroke="black" stroke-dasharray="5,2" d="M220.88,-82.5C242.05,-82.5 249.95,-82.5 266.77,-82.5"/>
<polygon fill="black" stroke="black" points="266.36,-86 276.36,-82.5 266.36,-79 266.36,-86"/>
</g>
<!-- 2.0&#45;&gt;1.10 -->
<g id="edge5" class="edge">
<title>2.0:e&#45;&gt;1.10:w</title>
<path fill="none" stroke="black" stroke-width="2" d="M220.88,-26.5C251.26,-26.5 245.38,-67.48 265.28,-79.33"/>
<polygon fill="black" stroke="black" stroke-width="2" points="264.39,-82.71 274.94,-81.76 266.1,-75.92 264.39,-82.71"/>
</g>
<!-- 1.13 -->
<g id="node7" class="node">
<title>1.13</title>
<polygon fill="none" stroke="black" points="368.88,-71.25 368.88,-93.75 405.12,-93.75 405.12,-71.25 368.88,-71.25"/>
<text text-anchor="start" x="374.62" y="-77.45" font-family="Courier,monospace" font-size="14.00">GGC</text>
<text text-anchor="start" x="370.88" y="-59.75" font-family="Times,serif" font-size="10.00">1:13&#45;15</text>
</g>
<!-- 1.10&#45;&gt;1.13 -->
<g id="edge7" class="edge">
<title>1.10:e&#45;&gt;1.13:w</title>
<path fill="none" stroke="black" stroke-dasharray="5,2" d="M316.12,-82.5C334.81,-82.5 342.11,-82.5 356.53,-82.5"/>
<polygon fill="black" stroke="black" points="356.36,-86 366.36,-82.5 356.36,-79 356.36,-86"/>
</g>
<!-- end -->
<g id="node8" class="node">
<title>end</title>
<ellipse fill="none" stroke="black" cx="387" cy="-19.88" rx="27" ry="18"/>
<text text-anchor="middle" x="387" y="-14.83" font-family="Times,serif" font-size="14.00">end</text>
</g>
<!-- 1.10&#45;&gt;end -->
<g id="edge8" class="edge">
<title>1.10:e&#45;&gt;end:w</title>
<path fill="none" stroke="black" d="M316.12,-82.5C345.6,-82.5 331.39,-35.41 349.26,-22.9"/>
<polygon fill="black" stroke="black" points="349.86,-26.36 358.54,-20.28 347.97,-19.62 349.86,-26.36"/>
</g>
<!-- 1.0 -->
<g id="node6" class="node">
<title>1.0</title>
<polygon fill="none" stroke="black" points="3.38,-71.25 3.38,-93.75 50.62,-93.75 50.62,-71.25 3.38,-71.25"/>
<text text-anchor="start" x="6.38" y="-77.45" font-family="Courier,monospace" font-size="14.00">ATGTA</text>
<text text-anchor="start" x="16.12" y="-59.75" font-family="Times,serif" font-size="10.00">1:0&#45;4</text>
</g>
<!-- 1.0&#45;&gt;1.5 -->
<g id="edge6" class="edge">
<title>1.0:e&#45;&gt;1.5:w</title>
<path fill="none" stroke="black" stroke-dasharray="5,2" d="M51.62,-82.5C69.15,-82.5 76.1,-82.5 89.49,-82.5"/>
<polygon fill="black" stroke="black" points="89.11,-86 99.11,-82.5 89.11,-79 89.11,-86"/>
</g>
</g>
</svg>
