<?xml version="1.0" encoding="UTF-8" standalone="no"?>
<!DOCTYPE svg PUBLIC "-//W3C//DTD SVG 1.1//EN"
 "http://www.w3.org/Graphics/SVG/1.1/DTD/svg11.dtd">
<!-- Generated by graphviz version 12.1.1 (20240910.0053)
 -->
<!-- Pages: 1 -->
<svg width="422pt" height="115pt"
 viewBox="0.00 0.00 422.00 114.75" xmlns="http://www.w3.org/2000/svg" xmlns:xlink="http://www.w3.org/1999/xlink">
<g id="graph0" class="graph" transform="scale(1 1) rotate(0) translate(4 110.75)">
<polygon fill="white" stroke="none" points="-4,4 -4,-110.75 418,-110.75 418,4 -4,4"/>
<!-- start -->
<g id="node1" class="node">
<title>start</title>
<ellipse fill="none" stroke="black" cx="27" cy="-88.75" rx="27" ry="18"/>
<text text-anchor="middle" x="27" y="-83.7" font-family="serif,serif" font-size="14.00">start</text>
</g>
<!-- 1.5 -->
<g id="node2" class="node">
<title>1.5</title>
<polygon fill="none" stroke="black" points="102.75,-79.25 102.75,-99.5 131.25,-99.5 131.25,-79.25 102.75,-79.25"/>
<text text-anchor="start" x="105.75" y="-85.1" font-family="Monospace" font-size="12.00">TAA</text>
<text text-anchor="start" x="106.12" y="-65.75" font-family="serif,serif" font-size="10.00">1:5&#45;7</text>
</g>
<!-- start&#45;&gt;1.5 -->
<g id="edge1" class="edge">
<title>start:e&#45;&gt;1.5:w</title>
<path fill="none" stroke="black" d="M54,-88.75C70.91,-88.75 77.72,-89.15 90.52,-89.31"/>
<polygon fill="black" stroke="black" points="90.22,-92.81 100.24,-89.37 90.26,-85.81 90.22,-92.81"/>
</g>
<!-- 1.8 -->
<g id="node3" class="node">
<title>1.8</title>
<polygon fill="none" stroke="black" points="194.12,-79.25 194.12,-99.5 219.88,-99.5 219.88,-79.25 194.12,-79.25"/>
<text text-anchor="start" x="199.5" y="-85.1" font-family="Monospace" font-size="12.00">AG</text>
<text text-anchor="start" x="196.12" y="-65.75" font-family="serif,serif" font-size="10.00">1:8&#45;9</text>
</g>
<!-- 1.5&#45;&gt;1.8 -->
<g id="edge2" class="edge">
<title>1.5:e&#45;&gt;1.8:w</title>
<path fill="none" stroke="black" stroke-dasharray="5,2" d="M132.25,-89.38C155.08,-89.38 163.46,-89.38 181.77,-89.38"/>
<polygon fill="black" stroke="black" points="181.61,-92.88 191.61,-89.38 181.61,-85.88 181.61,-92.88"/>
</g>
<!-- 3.0 -->
<g id="node4" class="node">
<title>3.0</title>
<polygon fill="none" stroke="black" points="194.12,-19.25 194.12,-39.5 219.88,-39.5 219.88,-19.25 194.12,-19.25"/>
<text text-anchor="start" x="199.5" y="-25.1" font-family="Monospace" font-size="12.00">TG</text>
<text text-anchor="start" x="196.12" y="-5.75" font-family="serif,serif" font-size="10.00">3:0&#45;1</text>
</g>
<!-- 1.5&#45;&gt;3.0 -->
<g id="edge3" class="edge">
<title>1.5:e&#45;&gt;3.0:w</title>
<path fill="none" stroke="black" d="M132.25,-89.38C165.93,-89.38 157.88,-42.2 182.1,-31.51"/>
<polygon fill="black" stroke="black" points="182.49,-35 191.64,-29.66 181.16,-28.13 182.49,-35"/>
</g>
<!-- 1.10 -->
<g id="node5" class="node">
<title>1.10</title>
<polygon fill="none" stroke="black" points="278.88,-79.25 278.88,-99.5 315.12,-99.5 315.12,-79.25 278.88,-79.25"/>
<text text-anchor="start" x="285.75" y="-85.1" font-family="Monospace" font-size="12.00">GAG</text>
<text text-anchor="start" x="280.88" y="-65.75" font-family="serif,serif" font-size="10.00">1:10&#45;12</text>
</g>
<!-- 1.8&#45;&gt;1.10 -->
<g id="edge4" class="edge">
<title>1.8:e&#45;&gt;1.10:w</title>
<path fill="none" stroke="black" stroke-dasharray="5,2" d="M220.88,-89.38C242.05,-89.38 249.95,-89.38 266.77,-89.38"/>
<polygon fill="black" stroke="black" points="266.36,-92.88 276.36,-89.38 266.36,-85.88 266.36,-92.88"/>
</g>
<!-- 3.0&#45;&gt;1.10 -->
<g id="edge5" class="edge">
<title>3.0:e&#45;&gt;1.10:w</title>
<path fill="none" stroke="black" d="M220.88,-29.38C253.2,-29.38 244.32,-75.72 266.67,-86.95"/>
<polygon fill="black" stroke="black" points="265.88,-90.36 276.4,-89.05 267.36,-83.52 265.88,-90.36"/>
</g>
<!-- end -->
<g id="node6" class="node">
<title>end</title>
<ellipse fill="none" stroke="black" cx="387" cy="-88.75" rx="27" ry="18"/>
<text text-anchor="middle" x="387" y="-83.7" font-family="serif,serif" font-size="14.00">end</text>
</g>
<!-- 1.10&#45;&gt;end -->
<g id="edge6" class="edge">
<title>1.10:e&#45;&gt;end:w</title>
<path fill="none" stroke="black" d="M316.12,-89.38C331.21,-89.38 337.54,-89 348.66,-88.83"/>
<polygon fill="black" stroke="black" points="348.51,-92.33 358.49,-88.76 348.46,-85.33 348.51,-92.33"/>
</g>
</g>
</svg>
