<?xml version="1.0" encoding="UTF-8" standalone="no"?>
<!DOCTYPE svg PUBLIC "-//W3C//DTD SVG 1.1//EN"
 "http://www.w3.org/Graphics/SVG/1.1/DTD/svg11.dtd">
<!-- Generated by graphviz version 12.1.1 (20240910.0053)
 -->
<!-- Pages: 1 -->
<svg width="604pt" height="108pt"
 viewBox="0.00 0.00 603.50 107.88" xmlns="http://www.w3.org/2000/svg" xmlns:xlink="http://www.w3.org/1999/xlink">
<g id="graph0" class="graph" transform="scale(1 1) rotate(0) translate(4 103.88)">
<polygon fill="white" stroke="none" points="-4,4 -4,-103.88 599.5,-103.88 599.5,4 -4,4"/>
<!-- start -->
<g id="node1" class="node">
<title>start</title>
<ellipse fill="none" stroke="black" cx="27" cy="-81.88" rx="27" ry="18"/>
<text text-anchor="middle" x="27" y="-76.83" font-family="Times,serif" font-size="14.00">start</text>
</g>
<!-- 1.0 -->
<g id="node2" class="node">
<title>1.0</title>
<polygon fill="none" stroke="black" points="97.5,-71.25 97.5,-93.75 136.5,-93.75 136.5,-71.25 97.5,-71.25"/>
<text text-anchor="start" x="100.5" y="-77.45" font-family="Courier,monospace" font-size="14.00">ATGT</text>
<text text-anchor="start" x="106.12" y="-59.75" font-family="Times,serif" font-size="10.00">1:0&#45;3</text>
</g>
<!-- start&#45;&gt;1.0 -->
<g id="edge1" class="edge">
<title>start:e&#45;&gt;1.0:w</title>
<path fill="none" stroke="black" d="M54,-81.88C68.46,-81.88 74.62,-82.24 85.19,-82.41"/>
<polygon fill="black" stroke="black" points="84.96,-85.91 94.99,-82.49 85.01,-78.91 84.96,-85.91"/>
</g>
<!-- 1.4 -->
<g id="node3" class="node">
<title>1.4</title>
<polygon fill="none" stroke="black" points="277.5,-71.25 277.5,-93.75 316.5,-93.75 316.5,-71.25 277.5,-71.25"/>
<text text-anchor="start" x="280.5" y="-77.45" font-family="Courier,monospace" font-size="14.00">ATAC</text>
<text text-anchor="start" x="286.12" y="-59.75" font-family="Times,serif" font-size="10.00">1:4&#45;7</text>
</g>
<!-- 1.0&#45;&gt;1.4 -->
<g id="edge2" class="edge">
<title>1.0:e&#45;&gt;1.4:w</title>
<path fill="none" stroke="black" stroke-dasharray="5,2" d="M137.5,-82.5C195.3,-82.5 212.54,-82.5 265.11,-82.5"/>
<polygon fill="black" stroke="black" points="264.99,-86 274.99,-82.5 264.99,-79 264.99,-86"/>
</g>
<!-- 3.0 -->
<g id="node4" class="node">
<title>3.0</title>
<polygon fill="none" stroke="black" points="199.88,-31.25 199.88,-53.75 214.12,-53.75 214.12,-31.25 199.88,-31.25"/>
<text text-anchor="start" x="202.88" y="-37.45" font-family="Courier,monospace" font-size="14.00">C</text>
<text text-anchor="start" x="204.38" y="-19.75" font-family="Times,serif" font-size="10.00">3</text>
</g>
<!-- 1.0&#45;&gt;3.0 -->
<g id="edge3" class="edge">
<title>1.0:e&#45;&gt;3.0:w</title>
<path fill="none" stroke="black" d="M137.5,-82.5C165.74,-82.5 166.67,-52.42 187.65,-44.43"/>
<polygon fill="black" stroke="black" points="188.12,-47.9 197.38,-42.76 186.93,-41 188.12,-47.9"/>
</g>
<!-- 1.8 -->
<g id="node5" class="node">
<title>1.8</title>
<polygon fill="none" stroke="black" points="374.12,-71.25 374.12,-93.75 399.88,-93.75 399.88,-71.25 374.12,-71.25"/>
<text text-anchor="start" x="378.75" y="-77.45" font-family="Courier,monospace" font-size="14.00">AT</text>
<text text-anchor="start" x="376.12" y="-59.75" font-family="Times,serif" font-size="10.00">1:8&#45;9</text>
</g>
<!-- 1.4&#45;&gt;1.8 -->
<g id="edge4" class="edge">
<title>1.4:e&#45;&gt;1.8:w</title>
<path fill="none" stroke="black" stroke-dasharray="5,2" d="M317.5,-82.5C337.97,-82.5 345.73,-82.5 361.83,-82.5"/>
<polygon fill="black" stroke="black" points="361.61,-86 371.61,-82.5 361.61,-79 361.61,-86"/>
</g>
<!-- 2.0 -->
<g id="node6" class="node">
<title>2.0</title>
<polygon fill="none" stroke="black" points="374.12,-15.25 374.12,-37.75 399.88,-37.75 399.88,-15.25 374.12,-15.25"/>
<text text-anchor="start" x="378.75" y="-21.45" font-family="Courier,monospace" font-size="14.00">TG</text>
<text text-anchor="start" x="376.12" y="-3.75" font-family="Times,serif" font-size="10.00">2:0&#45;1</text>
</g>
<!-- 1.4&#45;&gt;2.0 -->
<g id="edge5" class="edge">
<title>1.4:e&#45;&gt;2.0:w</title>
<path fill="none" stroke="black" d="M317.5,-82.5C348.2,-82.5 340.9,-39.63 362.1,-28.91"/>
<polygon fill="black" stroke="black" points="362.62,-32.38 371.65,-26.82 361.13,-25.54 362.62,-32.38"/>
</g>
<!-- 3.0&#45;&gt;1.4 -->
<g id="edge6" class="edge">
<title>3.0:e&#45;&gt;1.4:w</title>
<path fill="none" stroke="black" d="M215.12,-42.5C243.36,-42.5 244.29,-72.58 265.28,-80.57"/>
<polygon fill="black" stroke="black" points="264.56,-84 275.01,-82.24 265.75,-77.1 264.56,-84"/>
</g>
<!-- 1.10 -->
<g id="node7" class="node">
<title>1.10</title>
<polygon fill="none" stroke="black" points="450,-71.25 450,-93.75 505.5,-93.75 505.5,-71.25 450,-71.25"/>
<text text-anchor="start" x="453" y="-77.45" font-family="Courier,monospace" font-size="14.00">CACGGC</text>
<text text-anchor="start" x="461.62" y="-59.75" font-family="Times,serif" font-size="10.00">1:10&#45;15</text>
</g>
<!-- 1.8&#45;&gt;1.10 -->
<g id="edge7" class="edge">
<title>1.8:e&#45;&gt;1.10:w</title>
<path fill="none" stroke="black" stroke-dasharray="5,2" d="M400.88,-82.5C418.44,-82.5 425.41,-82.5 438.84,-82.5"/>
<polygon fill="black" stroke="black" points="438.49,-86 448.49,-82.5 438.49,-79 438.49,-86"/>
</g>
<!-- 2.0&#45;&gt;1.10 -->
<g id="edge8" class="edge">
<title>2.0:e&#45;&gt;1.10:w</title>
<path fill="none" stroke="black" d="M400.88,-26.5C429.59,-26.5 420.55,-68.61 439.23,-79.8"/>
<polygon fill="black" stroke="black" points="437.98,-83.09 448.53,-82.13 439.68,-76.3 437.98,-83.09"/>
</g>
<!-- end -->
<g id="node8" class="node">
<title>end</title>
<ellipse fill="none" stroke="black" cx="568.5" cy="-81.88" rx="27" ry="18"/>
<text text-anchor="middle" x="568.5" y="-76.83" font-family="Times,serif" font-size="14.00">end</text>
</g>
<!-- 1.10&#45;&gt;end -->
<g id="edge9" class="edge">
<title>1.10:e&#45;&gt;end:w</title>
<path fill="none" stroke="black" d="M505.5,-82.5C516.88,-82.5 522.18,-82.18 530.05,-82"/>
<polygon fill="black" stroke="black" points="530.03,-85.5 539.99,-81.89 529.95,-78.5 530.03,-85.5"/>
</g>
</g>
</svg>
