<?xml version="1.0" encoding="UTF-8" standalone="no"?>
<!DOCTYPE svg PUBLIC "-//W3C//DTD SVG 1.1//EN"
 "http://www.w3.org/Graphics/SVG/1.1/DTD/svg11.dtd">
<!-- Generated by graphviz version 12.1.1 (20240910.0053)
 -->
<!-- Pages: 1 -->
<svg width="473pt" height="108pt"
 viewBox="0.00 0.00 473.00 107.88" xmlns="http://www.w3.org/2000/svg" xmlns:xlink="http://www.w3.org/1999/xlink">
<g id="graph0" class="graph" transform="scale(1 1) rotate(0) translate(4 103.88)">
<polygon fill="white" stroke="none" points="-4,4 -4,-103.88 469,-103.88 469,4 -4,4"/>
<!-- start -->
<g id="node1" class="node">
<title>start</title>
<ellipse fill="none" stroke="black" cx="27" cy="-81.88" rx="27" ry="18"/>
<text text-anchor="middle" x="27" y="-76.83" font-family="Times,serif" font-size="14.00">start</text>
</g>
<!-- 1.0 -->
<g id="node2" class="node">
<title>1.0</title>
<polygon fill="none" stroke="black" points="101.62,-71.25 101.62,-93.75 132.38,-93.75 132.38,-71.25 101.62,-71.25"/>
<text text-anchor="start" x="104.62" y="-77.45" font-family="Courier,monospace" font-size="14.00">ATG</text>
<text text-anchor="start" x="106.12" y="-59.75" font-family="Times,serif" font-size="10.00">1:0&#45;2</text>
</g>
<!-- start&#45;&gt;1.0 -->
<g id="edge1" class="edge">
<title>start:e&#45;&gt;1.0:w</title>
<path fill="none" stroke="black" d="M54,-81.88C70.35,-81.88 77.03,-82.26 89.29,-82.43"/>
<polygon fill="black" stroke="black" points="89.09,-85.93 99.11,-82.49 89.13,-78.93 89.09,-85.93"/>
</g>
<!-- 1.3 -->
<g id="node3" class="node">
<title>1.3</title>
<polygon fill="none" stroke="black" points="198.25,-71.25 198.25,-93.75 215.75,-93.75 215.75,-71.25 198.25,-71.25"/>
<text text-anchor="start" x="202.88" y="-77.45" font-family="Courier,monospace" font-size="14.00">T</text>
<text text-anchor="start" x="200.25" y="-59.75" font-family="Times,serif" font-size="10.00">1:3</text>
</g>
<!-- 1.0&#45;&gt;1.3 -->
<g id="edge2" class="edge">
<title>1.0:e&#45;&gt;1.3:w</title>
<path fill="none" stroke="black" stroke-dasharray="5,2" d="M133.38,-82.5C157.55,-82.5 166.28,-82.5 185.88,-82.5"/>
<polygon fill="black" stroke="black" points="185.74,-86 195.74,-82.5 185.74,-79 185.74,-86"/>
</g>
<!-- 5.0 -->
<g id="node4" class="node">
<title>5.0</title>
<polygon fill="none" stroke="black" points="199.88,-15.25 199.88,-37.75 214.12,-37.75 214.12,-15.25 199.88,-15.25"/>
<text text-anchor="start" x="202.88" y="-21.45" font-family="Courier,monospace" font-size="14.00">A</text>
<text text-anchor="start" x="204.38" y="-3.75" font-family="Times,serif" font-size="10.00">5</text>
</g>
<!-- 1.0&#45;&gt;5.0 -->
<g id="edge3" class="edge">
<title>1.0:e&#45;&gt;5.0:w</title>
<path fill="none" stroke="black" d="M133.38,-82.5C167.34,-82.5 162.46,-38.47 187.62,-28.49"/>
<polygon fill="black" stroke="black" points="188.15,-31.95 197.38,-26.76 186.93,-25.06 188.15,-31.95"/>
</g>
<!-- 1.4 -->
<g id="node5" class="node">
<title>1.4</title>
<polygon fill="none" stroke="black" points="270,-71.25 270,-93.75 375,-93.75 375,-71.25 270,-71.25"/>
<text text-anchor="start" x="273" y="-77.45" font-family="Courier,monospace" font-size="14.00">ATACATCACGGC</text>
<text text-anchor="start" x="309" y="-59.75" font-family="Times,serif" font-size="10.00">1:4&#45;15</text>
</g>
<!-- 1.3&#45;&gt;1.4 -->
<g id="edge4" class="edge">
<title>1.3:e&#45;&gt;1.4:w</title>
<path fill="none" stroke="black" stroke-dasharray="5,2" d="M216.75,-82.5C236.16,-82.5 243.63,-82.5 258.76,-82.5"/>
<polygon fill="black" stroke="black" points="258.49,-86 268.49,-82.5 258.49,-79 258.49,-86"/>
</g>
<!-- 5.0&#45;&gt;1.4 -->
<g id="edge5" class="edge">
<title>5.0:e&#45;&gt;1.4:w</title>
<path fill="none" stroke="black" d="M215.12,-26.5C245.48,-26.5 238.15,-68.99 258.79,-79.95"/>
<polygon fill="black" stroke="black" points="258,-83.36 268.52,-82.16 259.55,-76.53 258,-83.36"/>
</g>
<!-- end -->
<g id="node6" class="node">
<title>end</title>
<ellipse fill="none" stroke="black" cx="438" cy="-81.88" rx="27" ry="18"/>
<text text-anchor="middle" x="438" y="-76.83" font-family="Times,serif" font-size="14.00">end</text>
</g>
<!-- 1.4&#45;&gt;end -->
<g id="edge6" class="edge">
<title>1.4:e&#45;&gt;end:w</title>
<path fill="none" stroke="black" d="M375,-82.5C386.38,-82.5 391.68,-82.18 399.55,-82"/>
<polygon fill="black" stroke="black" points="399.53,-85.5 409.49,-81.89 399.45,-78.5 399.53,-85.5"/>
</g>
</g>
</svg>
