<?xml version="1.0" encoding="UTF-8" standalone="no"?>
<!DOCTYPE svg PUBLIC "-//W3C//DTD SVG 1.1//EN"
 "http://www.w3.org/Graphics/SVG/1.1/DTD/svg11.dtd">
<!-- Generated by graphviz version 2.43.0 (0)
 -->
<!-- Title: graphname Pages: 1 -->
<svg width="1047pt" height="434pt"
 viewBox="0.00 0.00 1046.95 434.34" xmlns="http://www.w3.org/2000/svg" xmlns:xlink="http://www.w3.org/1999/xlink">
<g id="graph0" class="graph" transform="scale(1 1) rotate(0) translate(4 430.34)">
<title>graphname</title>
<polygon fill="white" stroke="transparent" points="-4,4 -4,-430.34 1042.95,-430.34 1042.95,4 -4,4"/>
<!-- 1 -->
<g id="node1" class="node">
<title>1</title>
<ellipse fill="none" stroke="red" stroke-width="2" cx="156.92" cy="-367.67" rx="40.11" ry="40.11"/>
<text text-anchor="middle" x="156.92" y="-371.47" font-family="Times,serif" font-size="14.00">13.0</text>
<text text-anchor="middle" x="156.92" y="-356.47" font-family="Times,serif" font-size="14.00">58 bp</text>
</g>
<!-- 19 -->
<g id="node19" class="node">
<title>19</title>
<ellipse fill="none" stroke="red" stroke-width="2" cx="273.53" cy="-367.67" rx="40.11" ry="40.11"/>
<text text-anchor="middle" x="273.53" y="-371.47" font-family="Times,serif" font-size="14.00">14.0</text>
<text text-anchor="middle" x="273.53" y="-356.47" font-family="Times,serif" font-size="14.00">44 bp</text>
</g>
<!-- 1&#45;&gt;19 -->
<g id="edge4" class="edge">
<title>1&#45;&gt;19</title>
<path fill="none" stroke="black" d="M197.36,-367.67C205.55,-367.67 214.29,-367.67 222.8,-367.67"/>
<polygon fill="black" stroke="black" points="223.01,-371.17 233.01,-367.67 223.01,-364.17 223.01,-371.17"/>
</g>
<!-- 25 -->
<g id="node25" class="node">
<title>25</title>
<ellipse fill="none" stroke="red" stroke-width="2" cx="273.53" cy="-268.67" rx="40.11" ry="40.11"/>
<text text-anchor="middle" x="273.53" y="-272.47" font-family="Times,serif" font-size="14.00">6.0</text>
<text text-anchor="middle" x="273.53" y="-257.47" font-family="Times,serif" font-size="14.00">44 bp</text>
</g>
<!-- 1&#45;&gt;25 -->
<g id="edge6" class="edge">
<title>1&#45;&gt;25</title>
<path fill="none" stroke="black" d="M188.03,-341.66C202.26,-329.36 219.41,-314.55 234.52,-301.5"/>
<polygon fill="black" stroke="black" points="236.94,-304.04 242.22,-294.85 232.36,-298.74 236.94,-304.04"/>
</g>
<!-- 26 -->
<g id="node26" class="node">
<title>26</title>
<ellipse fill="none" stroke="red" stroke-width="2" cx="273.53" cy="-169.67" rx="40.11" ry="40.11"/>
<text text-anchor="middle" x="273.53" y="-173.47" font-family="Times,serif" font-size="14.00">22.0</text>
<text text-anchor="middle" x="273.53" y="-158.47" font-family="Times,serif" font-size="14.00">44 bp</text>
</g>
<!-- 1&#45;&gt;26 -->
<g id="edge5" class="edge">
<title>1&#45;&gt;26</title>
<path fill="none" stroke="black" d="M184.05,-337.53C188.81,-331.21 193.45,-324.42 197.22,-317.67 219.84,-277.15 210.6,-260.19 233.22,-219.67 235.4,-215.77 237.87,-211.85 240.49,-208.02"/>
<polygon fill="black" stroke="black" points="243.39,-209.97 246.4,-199.81 237.71,-205.88 243.39,-209.97"/>
</g>
<!-- 2 -->
<g id="node2" class="node">
<title>2</title>
<ellipse fill="none" stroke="red" stroke-width="2" cx="156.92" cy="-268.67" rx="40.11" ry="40.11"/>
<text text-anchor="middle" x="156.92" y="-272.47" font-family="Times,serif" font-size="14.00">5.0</text>
<text text-anchor="middle" x="156.92" y="-257.47" font-family="Times,serif" font-size="14.00">58 bp</text>
</g>
<!-- 2&#45;&gt;19 -->
<g id="edge10" class="edge">
<title>2&#45;&gt;19</title>
<path fill="none" stroke="black" d="M188.03,-294.68C202.26,-306.97 219.41,-321.78 234.52,-334.84"/>
<polygon fill="black" stroke="black" points="232.36,-337.6 242.22,-341.49 236.94,-332.3 232.36,-337.6"/>
</g>
<!-- 2&#45;&gt;25 -->
<g id="edge12" class="edge">
<title>2&#45;&gt;25</title>
<path fill="none" stroke="black" d="M197.36,-268.67C205.55,-268.67 214.29,-268.67 222.8,-268.67"/>
<polygon fill="black" stroke="black" points="223.01,-272.17 233.01,-268.67 223.01,-265.17 223.01,-272.17"/>
</g>
<!-- 2&#45;&gt;26 -->
<g id="edge11" class="edge">
<title>2&#45;&gt;26</title>
<path fill="none" stroke="black" d="M188.03,-242.66C202.26,-230.36 219.41,-215.55 234.52,-202.5"/>
<polygon fill="black" stroke="black" points="236.94,-205.04 242.22,-195.85 232.36,-199.74 236.94,-205.04"/>
</g>
<!-- 3 -->
<g id="node3" class="node">
<title>3</title>
<ellipse fill="none" stroke="red" stroke-width="2" cx="739.97" cy="-367.67" rx="40.11" ry="40.11"/>
<text text-anchor="middle" x="739.97" y="-371.47" font-family="Times,serif" font-size="14.00">10.0</text>
<text text-anchor="middle" x="739.97" y="-356.47" font-family="Times,serif" font-size="14.00">76 bp</text>
</g>
<!-- 7 -->
<g id="node7" class="node">
<title>7</title>
<ellipse fill="none" stroke="red" stroke-width="2" cx="862.94" cy="-379.67" rx="46.84" ry="46.84"/>
<text text-anchor="middle" x="862.94" y="-383.47" font-family="Times,serif" font-size="14.00">11.0</text>
<text text-anchor="middle" x="862.94" y="-368.47" font-family="Times,serif" font-size="14.00">645 bp</text>
</g>
<!-- 3&#45;&gt;7 -->
<g id="edge17" class="edge">
<title>3&#45;&gt;7</title>
<path fill="none" stroke="black" d="M780.24,-371.57C788.47,-372.38 797.31,-373.26 806.01,-374.12"/>
<polygon fill="black" stroke="black" points="805.83,-377.62 816.13,-375.12 806.52,-370.65 805.83,-377.62"/>
</g>
<!-- 14 -->
<g id="node14" class="node">
<title>14</title>
<ellipse fill="none" stroke="red" stroke-width="2" cx="862.94" cy="-268.67" rx="46.84" ry="46.84"/>
<text text-anchor="middle" x="862.94" y="-272.47" font-family="Times,serif" font-size="14.00">19.0</text>
<text text-anchor="middle" x="862.94" y="-257.47" font-family="Times,serif" font-size="14.00">648 bp</text>
</g>
<!-- 3&#45;&gt;14 -->
<g id="edge16" class="edge">
<title>3&#45;&gt;14</title>
<path fill="none" stroke="black" d="M771.81,-342.43C785.87,-330.92 802.79,-317.08 818.14,-304.51"/>
<polygon fill="black" stroke="black" points="820.48,-307.12 826,-298.08 816.05,-301.7 820.48,-307.12"/>
</g>
<!-- 17 -->
<g id="node17" class="node">
<title>17</title>
<ellipse fill="none" stroke="red" stroke-width="2" cx="862.94" cy="-157.67" rx="46.84" ry="46.84"/>
<text text-anchor="middle" x="862.94" y="-161.47" font-family="Times,serif" font-size="14.00">27.0</text>
<text text-anchor="middle" x="862.94" y="-146.47" font-family="Times,serif" font-size="14.00">655 bp</text>
</g>
<!-- 3&#45;&gt;17 -->
<g id="edge18" class="edge">
<title>3&#45;&gt;17</title>
<path fill="none" stroke="black" d="M767.21,-337.59C771.97,-331.27 776.58,-324.46 780.27,-317.67 803.85,-274.33 792.12,-255.69 816.27,-212.67 818.75,-208.25 821.6,-203.84 824.64,-199.55"/>
<polygon fill="black" stroke="black" points="827.49,-201.59 830.68,-191.48 821.89,-197.4 827.49,-201.59"/>
</g>
<!-- 4 -->
<g id="node4" class="node">
<title>4</title>
<ellipse fill="none" stroke="red" stroke-width="2" cx="623.36" cy="-367.67" rx="40.11" ry="40.11"/>
<text text-anchor="middle" x="623.36" y="-371.47" font-family="Times,serif" font-size="14.00">9.0</text>
<text text-anchor="middle" x="623.36" y="-356.47" font-family="Times,serif" font-size="14.00">60 bp</text>
</g>
<!-- 4&#45;&gt;3 -->
<g id="edge15" class="edge">
<title>4&#45;&gt;3</title>
<path fill="none" stroke="black" d="M663.8,-367.67C671.99,-367.67 680.73,-367.67 689.24,-367.67"/>
<polygon fill="black" stroke="black" points="689.45,-371.17 699.45,-367.67 689.45,-364.17 689.45,-371.17"/>
</g>
<!-- 11 -->
<g id="node11" class="node">
<title>11</title>
<ellipse fill="none" stroke="red" stroke-width="2" cx="739.97" cy="-268.67" rx="40.11" ry="40.11"/>
<text text-anchor="middle" x="739.97" y="-272.47" font-family="Times,serif" font-size="14.00">18.0</text>
<text text-anchor="middle" x="739.97" y="-257.47" font-family="Times,serif" font-size="14.00">76 bp</text>
</g>
<!-- 4&#45;&gt;11 -->
<g id="edge22" class="edge">
<title>4&#45;&gt;11</title>
<path fill="none" stroke="black" d="M654.47,-341.66C668.7,-329.36 685.85,-314.55 700.96,-301.5"/>
<polygon fill="black" stroke="black" points="703.38,-304.04 708.66,-294.85 698.8,-298.74 703.38,-304.04"/>
</g>
<!-- 13 -->
<g id="node13" class="node">
<title>13</title>
<ellipse fill="none" stroke="red" stroke-width="2" cx="739.97" cy="-169.67" rx="40.11" ry="40.11"/>
<text text-anchor="middle" x="739.97" y="-173.47" font-family="Times,serif" font-size="14.00">26.0</text>
<text text-anchor="middle" x="739.97" y="-158.47" font-family="Times,serif" font-size="14.00">76 bp</text>
</g>
<!-- 4&#45;&gt;13 -->
<g id="edge23" class="edge">
<title>4&#45;&gt;13</title>
<path fill="none" stroke="black" d="M650.49,-337.53C655.25,-331.21 659.89,-324.42 663.66,-317.67 686.28,-277.15 677.04,-260.19 699.66,-219.67 701.84,-215.77 704.31,-211.85 706.93,-208.02"/>
<polygon fill="black" stroke="black" points="709.84,-209.97 712.84,-199.81 704.15,-205.88 709.84,-209.97"/>
</g>
<!-- 5 -->
<g id="node5" class="node">
<title>5</title>
<ellipse fill="none" stroke="red" stroke-width="2" cx="623.36" cy="-268.67" rx="40.11" ry="40.11"/>
<text text-anchor="middle" x="623.36" y="-272.47" font-family="Times,serif" font-size="14.00">17.0</text>
<text text-anchor="middle" x="623.36" y="-257.47" font-family="Times,serif" font-size="14.00">60 bp</text>
</g>
<!-- 5&#45;&gt;3 -->
<g id="edge13" class="edge">
<title>5&#45;&gt;3</title>
<path fill="none" stroke="black" d="M654.47,-294.68C668.7,-306.97 685.85,-321.78 700.96,-334.84"/>
<polygon fill="black" stroke="black" points="698.8,-337.6 708.66,-341.49 703.38,-332.3 698.8,-337.6"/>
</g>
<!-- 5&#45;&gt;11 -->
<g id="edge28" class="edge">
<title>5&#45;&gt;11</title>
<path fill="none" stroke="black" d="M663.8,-268.67C671.99,-268.67 680.73,-268.67 689.24,-268.67"/>
<polygon fill="black" stroke="black" points="689.45,-272.17 699.45,-268.67 689.45,-265.17 689.45,-272.17"/>
</g>
<!-- 5&#45;&gt;13 -->
<g id="edge27" class="edge">
<title>5&#45;&gt;13</title>
<path fill="none" stroke="black" d="M654.47,-242.66C668.7,-230.36 685.85,-215.55 700.96,-202.5"/>
<polygon fill="black" stroke="black" points="703.38,-205.04 708.66,-195.85 698.8,-199.74 703.38,-205.04"/>
</g>
<!-- 6 -->
<g id="node6" class="node">
<title>6</title>
<ellipse fill="none" stroke="red" stroke-width="2" cx="506.75" cy="-367.67" rx="40.11" ry="40.11"/>
<text text-anchor="middle" x="506.75" y="-371.47" font-family="Times,serif" font-size="14.00">16.0</text>
<text text-anchor="middle" x="506.75" y="-356.47" font-family="Times,serif" font-size="14.00">53 bp</text>
</g>
<!-- 6&#45;&gt;4 -->
<g id="edge20" class="edge">
<title>6&#45;&gt;4</title>
<path fill="none" stroke="black" d="M547.19,-367.67C555.38,-367.67 564.12,-367.67 572.63,-367.67"/>
<polygon fill="black" stroke="black" points="572.84,-371.17 582.84,-367.67 572.84,-364.17 572.84,-371.17"/>
</g>
<!-- 6&#45;&gt;5 -->
<g id="edge25" class="edge">
<title>6&#45;&gt;5</title>
<path fill="none" stroke="black" d="M537.86,-341.66C552.09,-329.36 569.24,-314.55 584.35,-301.5"/>
<polygon fill="black" stroke="black" points="586.77,-304.04 592.05,-294.85 582.19,-298.74 586.77,-304.04"/>
</g>
<!-- 15 -->
<g id="node15" class="node">
<title>15</title>
<ellipse fill="none" stroke="red" stroke-width="2" cx="623.36" cy="-169.67" rx="40.11" ry="40.11"/>
<text text-anchor="middle" x="623.36" y="-173.47" font-family="Times,serif" font-size="14.00">25.0</text>
<text text-anchor="middle" x="623.36" y="-158.47" font-family="Times,serif" font-size="14.00">60 bp</text>
</g>
<!-- 6&#45;&gt;15 -->
<g id="edge32" class="edge">
<title>6&#45;&gt;15</title>
<path fill="none" stroke="black" d="M533.88,-337.53C538.64,-331.21 543.28,-324.42 547.05,-317.67 569.67,-277.15 560.43,-260.19 583.05,-219.67 585.23,-215.77 587.7,-211.85 590.32,-208.02"/>
<polygon fill="black" stroke="black" points="593.23,-209.97 596.23,-199.81 587.54,-205.88 593.23,-209.97"/>
</g>
<!-- 22 -->
<g id="node22" class="node">
<title>22</title>
<ellipse fill="none" stroke="black" stroke-width="2" cx="992.28" cy="-212.67" rx="46.84" ry="46.84"/>
<text text-anchor="middle" x="992.28" y="-216.47" font-family="Times,serif" font-size="14.00">3.657</text>
<text text-anchor="middle" x="992.28" y="-201.47" font-family="Times,serif" font-size="14.00">392 bp</text>
</g>
<!-- 7&#45;&gt;22 -->
<g id="edge35" class="edge">
<title>7&#45;&gt;22</title>
<path fill="none" stroke="black" d="M893.75,-344.43C899.1,-337.92 904.58,-331.13 909.61,-324.67 926.24,-303.31 944.03,-279.09 958.74,-258.65"/>
<polygon fill="black" stroke="black" points="961.65,-260.6 964.64,-250.44 955.96,-256.52 961.65,-260.6"/>
</g>
<!-- 8 -->
<g id="node8" class="node">
<title>8</title>
<ellipse fill="none" stroke="red" stroke-width="2" cx="40.31" cy="-367.67" rx="40.11" ry="40.11"/>
<text text-anchor="middle" x="40.31" y="-371.47" font-family="Times,serif" font-size="14.00">12.0</text>
<text text-anchor="middle" x="40.31" y="-356.47" font-family="Times,serif" font-size="14.00">65 bp</text>
</g>
<!-- 8&#45;&gt;1 -->
<g id="edge3" class="edge">
<title>8&#45;&gt;1</title>
<path fill="none" stroke="black" d="M80.75,-367.67C88.94,-367.67 97.68,-367.67 106.19,-367.67"/>
<polygon fill="black" stroke="black" points="106.4,-371.17 116.4,-367.67 106.4,-364.17 106.4,-371.17"/>
</g>
<!-- 8&#45;&gt;2 -->
<g id="edge7" class="edge">
<title>8&#45;&gt;2</title>
<path fill="none" stroke="black" d="M71.42,-341.66C85.65,-329.36 102.8,-314.55 117.91,-301.5"/>
<polygon fill="black" stroke="black" points="120.33,-304.04 125.61,-294.85 115.75,-298.74 120.33,-304.04"/>
</g>
<!-- 12 -->
<g id="node12" class="node">
<title>12</title>
<ellipse fill="none" stroke="red" stroke-width="2" cx="156.92" cy="-169.67" rx="40.11" ry="40.11"/>
<text text-anchor="middle" x="156.92" y="-173.47" font-family="Times,serif" font-size="14.00">21.0</text>
<text text-anchor="middle" x="156.92" y="-158.47" font-family="Times,serif" font-size="14.00">58 bp</text>
</g>
<!-- 8&#45;&gt;12 -->
<g id="edge36" class="edge">
<title>8&#45;&gt;12</title>
<path fill="none" stroke="black" d="M67.43,-337.53C72.2,-331.21 76.84,-324.42 80.61,-317.67 103.23,-277.15 93.99,-260.19 116.61,-219.67 118.79,-215.77 121.26,-211.85 123.88,-208.02"/>
<polygon fill="black" stroke="black" points="126.78,-209.97 129.79,-199.81 121.1,-205.88 126.78,-209.97"/>
</g>
<!-- 9 -->
<g id="node9" class="node">
<title>9</title>
<ellipse fill="none" stroke="red" stroke-width="2" cx="506.75" cy="-268.67" rx="40.11" ry="40.11"/>
<text text-anchor="middle" x="506.75" y="-272.47" font-family="Times,serif" font-size="14.00">24.0</text>
<text text-anchor="middle" x="506.75" y="-257.47" font-family="Times,serif" font-size="14.00">53 bp</text>
</g>
<!-- 9&#45;&gt;4 -->
<g id="edge21" class="edge">
<title>9&#45;&gt;4</title>
<path fill="none" stroke="black" d="M537.86,-294.68C552.09,-306.97 569.24,-321.78 584.35,-334.84"/>
<polygon fill="black" stroke="black" points="582.19,-337.6 592.05,-341.49 586.77,-332.3 582.19,-337.6"/>
</g>
<!-- 9&#45;&gt;5 -->
<g id="edge26" class="edge">
<title>9&#45;&gt;5</title>
<path fill="none" stroke="black" d="M547.19,-268.67C555.38,-268.67 564.12,-268.67 572.63,-268.67"/>
<polygon fill="black" stroke="black" points="572.84,-272.17 582.84,-268.67 572.84,-265.17 572.84,-272.17"/>
</g>
<!-- 9&#45;&gt;15 -->
<g id="edge40" class="edge">
<title>9&#45;&gt;15</title>
<path fill="none" stroke="black" d="M537.86,-242.66C552.09,-230.36 569.24,-215.55 584.35,-202.5"/>
<polygon fill="black" stroke="black" points="586.77,-205.04 592.05,-195.85 582.19,-199.74 586.77,-205.04"/>
</g>
<!-- 10 -->
<g id="node10" class="node">
<title>10</title>
<ellipse fill="none" stroke="red" stroke-width="2" cx="40.31" cy="-268.67" rx="40.11" ry="40.11"/>
<text text-anchor="middle" x="40.31" y="-272.47" font-family="Times,serif" font-size="14.00">4.0</text>
<text text-anchor="middle" x="40.31" y="-257.47" font-family="Times,serif" font-size="14.00">64 bp</text>
</g>
<!-- 10&#45;&gt;1 -->
<g id="edge2" class="edge">
<title>10&#45;&gt;1</title>
<path fill="none" stroke="black" d="M71.42,-294.68C85.65,-306.97 102.8,-321.78 117.91,-334.84"/>
<polygon fill="black" stroke="black" points="115.75,-337.6 125.61,-341.49 120.33,-332.3 115.75,-337.6"/>
</g>
<!-- 10&#45;&gt;2 -->
<g id="edge8" class="edge">
<title>10&#45;&gt;2</title>
<path fill="none" stroke="black" d="M80.75,-268.67C88.94,-268.67 97.68,-268.67 106.19,-268.67"/>
<polygon fill="black" stroke="black" points="106.4,-272.17 116.4,-268.67 106.4,-265.17 106.4,-272.17"/>
</g>
<!-- 10&#45;&gt;12 -->
<g id="edge41" class="edge">
<title>10&#45;&gt;12</title>
<path fill="none" stroke="black" d="M71.42,-242.66C85.65,-230.36 102.8,-215.55 117.91,-202.5"/>
<polygon fill="black" stroke="black" points="120.33,-205.04 125.61,-195.85 115.75,-199.74 120.33,-205.04"/>
</g>
<!-- 11&#45;&gt;7 -->
<g id="edge34" class="edge">
<title>11&#45;&gt;7</title>
<path fill="none" stroke="black" d="M770.25,-295.54C785.29,-309.34 803.87,-326.39 820.37,-341.52"/>
<polygon fill="black" stroke="black" points="818.04,-344.14 827.78,-348.32 822.78,-338.98 818.04,-344.14"/>
</g>
<!-- 11&#45;&gt;14 -->
<g id="edge44" class="edge">
<title>11&#45;&gt;14</title>
<path fill="none" stroke="black" d="M780.58,-268.67C788.61,-268.67 797.21,-268.67 805.69,-268.67"/>
<polygon fill="black" stroke="black" points="805.94,-272.17 815.94,-268.67 805.94,-265.17 805.94,-272.17"/>
</g>
<!-- 11&#45;&gt;17 -->
<g id="edge43" class="edge">
<title>11&#45;&gt;17</title>
<path fill="none" stroke="black" d="M770.25,-241.8C785.29,-228 803.87,-210.95 820.37,-195.81"/>
<polygon fill="black" stroke="black" points="822.78,-198.35 827.78,-189.01 818.04,-193.2 822.78,-198.35"/>
</g>
<!-- 12&#45;&gt;19 -->
<g id="edge48" class="edge">
<title>12&#45;&gt;19</title>
<path fill="none" stroke="black" d="M184.05,-199.81C188.81,-206.12 193.45,-212.92 197.22,-219.67 219.84,-260.19 210.6,-277.15 233.22,-317.67 235.4,-321.57 237.87,-325.49 240.49,-329.32"/>
<polygon fill="black" stroke="black" points="237.71,-331.46 246.4,-337.53 243.39,-327.37 237.71,-331.46"/>
</g>
<!-- 12&#45;&gt;25 -->
<g id="edge47" class="edge">
<title>12&#45;&gt;25</title>
<path fill="none" stroke="black" d="M188.03,-195.68C202.26,-207.97 219.41,-222.78 234.52,-235.84"/>
<polygon fill="black" stroke="black" points="232.36,-238.6 242.22,-242.49 236.94,-233.3 232.36,-238.6"/>
</g>
<!-- 12&#45;&gt;26 -->
<g id="edge46" class="edge">
<title>12&#45;&gt;26</title>
<path fill="none" stroke="black" d="M197.36,-169.67C205.55,-169.67 214.29,-169.67 222.8,-169.67"/>
<polygon fill="black" stroke="black" points="223.01,-173.17 233.01,-169.67 223.01,-166.17 223.01,-173.17"/>
</g>
<!-- 13&#45;&gt;7 -->
<g id="edge33" class="edge">
<title>13&#45;&gt;7</title>
<path fill="none" stroke="black" d="M767.21,-199.75C771.97,-206.06 776.58,-212.88 780.27,-219.67 803.85,-263 792.12,-281.65 816.27,-324.67 818.75,-329.09 821.6,-333.5 824.64,-337.78"/>
<polygon fill="black" stroke="black" points="821.89,-339.94 830.68,-345.86 827.49,-335.75 821.89,-339.94"/>
</g>
<!-- 13&#45;&gt;14 -->
<g id="edge51" class="edge">
<title>13&#45;&gt;14</title>
<path fill="none" stroke="black" d="M771.81,-194.91C785.87,-206.42 802.79,-220.26 818.14,-232.83"/>
<polygon fill="black" stroke="black" points="816.05,-235.64 826,-239.26 820.48,-230.22 816.05,-235.64"/>
</g>
<!-- 13&#45;&gt;17 -->
<g id="edge50" class="edge">
<title>13&#45;&gt;17</title>
<path fill="none" stroke="black" d="M780.24,-165.77C788.47,-164.96 797.31,-164.08 806.01,-163.22"/>
<polygon fill="black" stroke="black" points="806.52,-166.68 816.13,-162.21 805.83,-159.72 806.52,-166.68"/>
</g>
<!-- 14&#45;&gt;22 -->
<g id="edge52" class="edge">
<title>14&#45;&gt;22</title>
<path fill="none" stroke="black" d="M905.99,-250.18C916.85,-245.4 928.67,-240.2 939.96,-235.24"/>
<polygon fill="black" stroke="black" points="941.53,-238.37 949.27,-231.14 938.71,-231.96 941.53,-238.37"/>
</g>
<!-- 15&#45;&gt;3 -->
<g id="edge14" class="edge">
<title>15&#45;&gt;3</title>
<path fill="none" stroke="black" d="M650.49,-199.81C655.25,-206.12 659.89,-212.92 663.66,-219.67 686.28,-260.19 677.04,-277.15 699.66,-317.67 701.84,-321.57 704.31,-325.49 706.93,-329.32"/>
<polygon fill="black" stroke="black" points="704.15,-331.46 712.84,-337.53 709.84,-327.37 704.15,-331.46"/>
</g>
<!-- 15&#45;&gt;11 -->
<g id="edge42" class="edge">
<title>15&#45;&gt;11</title>
<path fill="none" stroke="black" d="M654.47,-195.68C668.7,-207.97 685.85,-222.78 700.96,-235.84"/>
<polygon fill="black" stroke="black" points="698.8,-238.6 708.66,-242.49 703.38,-233.3 698.8,-238.6"/>
</g>
<!-- 15&#45;&gt;13 -->
<g id="edge49" class="edge">
<title>15&#45;&gt;13</title>
<path fill="none" stroke="black" d="M663.8,-169.67C671.99,-169.67 680.73,-169.67 689.24,-169.67"/>
<polygon fill="black" stroke="black" points="689.45,-173.17 699.45,-169.67 689.45,-166.17 689.45,-173.17"/>
</g>
<!-- 16 -->
<g id="node16" class="node">
<title>16</title>
<ellipse fill="none" stroke="red" stroke-width="2" cx="390.14" cy="-367.67" rx="40.11" ry="40.11"/>
<text text-anchor="middle" x="390.14" y="-371.47" font-family="Times,serif" font-size="14.00">23.0</text>
<text text-anchor="middle" x="390.14" y="-356.47" font-family="Times,serif" font-size="14.00">50 bp</text>
</g>
<!-- 16&#45;&gt;6 -->
<g id="edge31" class="edge">
<title>16&#45;&gt;6</title>
<path fill="none" stroke="black" d="M430.58,-367.67C438.77,-367.67 447.51,-367.67 456.02,-367.67"/>
<polygon fill="black" stroke="black" points="456.23,-371.17 466.23,-367.67 456.23,-364.17 456.23,-371.17"/>
</g>
<!-- 16&#45;&gt;9 -->
<g id="edge39" class="edge">
<title>16&#45;&gt;9</title>
<path fill="none" stroke="black" d="M421.25,-341.66C435.48,-329.36 452.63,-314.55 467.74,-301.5"/>
<polygon fill="black" stroke="black" points="470.16,-304.04 475.44,-294.85 465.58,-298.74 470.16,-304.04"/>
</g>
<!-- 23 -->
<g id="node23" class="node">
<title>23</title>
<ellipse fill="none" stroke="red" stroke-width="2" cx="506.75" cy="-169.67" rx="40.11" ry="40.11"/>
<text text-anchor="middle" x="506.75" y="-173.47" font-family="Times,serif" font-size="14.00">8.0</text>
<text text-anchor="middle" x="506.75" y="-158.47" font-family="Times,serif" font-size="14.00">52 bp</text>
</g>
<!-- 16&#45;&gt;23 -->
<g id="edge57" class="edge">
<title>16&#45;&gt;23</title>
<path fill="none" stroke="black" d="M417.27,-337.53C422.03,-331.21 426.67,-324.42 430.44,-317.67 453.06,-277.15 443.82,-260.19 466.44,-219.67 468.62,-215.77 471.09,-211.85 473.71,-208.02"/>
<polygon fill="black" stroke="black" points="476.62,-209.97 479.62,-199.81 470.93,-205.88 476.62,-209.97"/>
</g>
<!-- 17&#45;&gt;22 -->
<g id="edge58" class="edge">
<title>17&#45;&gt;22</title>
<path fill="none" stroke="black" d="M905.99,-175.83C916.85,-180.52 928.67,-185.63 939.96,-190.5"/>
<polygon fill="black" stroke="black" points="938.71,-193.77 949.27,-194.53 941.48,-187.35 938.71,-193.77"/>
</g>
<!-- 18 -->
<g id="node18" class="node">
<title>18</title>
<ellipse fill="none" stroke="red" stroke-width="2" cx="390.14" cy="-268.67" rx="40.11" ry="40.11"/>
<text text-anchor="middle" x="390.14" y="-272.47" font-family="Times,serif" font-size="14.00">15.0</text>
<text text-anchor="middle" x="390.14" y="-257.47" font-family="Times,serif" font-size="14.00">50 bp</text>
</g>
<!-- 18&#45;&gt;6 -->
<g id="edge29" class="edge">
<title>18&#45;&gt;6</title>
<path fill="none" stroke="black" d="M421.25,-294.68C435.48,-306.97 452.63,-321.78 467.74,-334.84"/>
<polygon fill="black" stroke="black" points="465.58,-337.6 475.44,-341.49 470.16,-332.3 465.58,-337.6"/>
</g>
<!-- 18&#45;&gt;9 -->
<g id="edge38" class="edge">
<title>18&#45;&gt;9</title>
<path fill="none" stroke="black" d="M430.58,-268.67C438.77,-268.67 447.51,-268.67 456.02,-268.67"/>
<polygon fill="black" stroke="black" points="456.23,-272.17 466.23,-268.67 456.23,-265.17 456.23,-272.17"/>
</g>
<!-- 18&#45;&gt;23 -->
<g id="edge62" class="edge">
<title>18&#45;&gt;23</title>
<path fill="none" stroke="black" d="M421.25,-242.66C435.48,-230.36 452.63,-215.55 467.74,-202.5"/>
<polygon fill="black" stroke="black" points="470.16,-205.04 475.44,-195.85 465.58,-199.74 470.16,-205.04"/>
</g>
<!-- 19&#45;&gt;16 -->
<g id="edge56" class="edge">
<title>19&#45;&gt;16</title>
<path fill="none" stroke="black" d="M313.97,-367.67C322.16,-367.67 330.9,-367.67 339.41,-367.67"/>
<polygon fill="black" stroke="black" points="339.62,-371.17 349.62,-367.67 339.62,-364.17 339.62,-371.17"/>
</g>
<!-- 19&#45;&gt;18 -->
<g id="edge59" class="edge">
<title>19&#45;&gt;18</title>
<path fill="none" stroke="black" d="M304.64,-341.66C318.87,-329.36 336.02,-314.55 351.13,-301.5"/>
<polygon fill="black" stroke="black" points="353.55,-304.04 358.83,-294.85 348.97,-298.74 353.55,-304.04"/>
</g>
<!-- 20 -->
<g id="node20" class="node">
<title>20</title>
<ellipse fill="none" stroke="red" stroke-width="2" cx="390.14" cy="-169.67" rx="40.11" ry="40.11"/>
<text text-anchor="middle" x="390.14" y="-173.47" font-family="Times,serif" font-size="14.00">7.0</text>
<text text-anchor="middle" x="390.14" y="-158.47" font-family="Times,serif" font-size="14.00">50 bp</text>
</g>
<!-- 19&#45;&gt;20 -->
<g id="edge63" class="edge">
<title>19&#45;&gt;20</title>
<path fill="none" stroke="black" d="M300.66,-337.53C305.42,-331.21 310.06,-324.42 313.83,-317.67 336.45,-277.15 327.21,-260.19 349.83,-219.67 352.01,-215.77 354.48,-211.85 357.1,-208.02"/>
<polygon fill="black" stroke="black" points="360.01,-209.97 363.01,-199.81 354.32,-205.88 360.01,-209.97"/>
</g>
<!-- 20&#45;&gt;6 -->
<g id="edge30" class="edge">
<title>20&#45;&gt;6</title>
<path fill="none" stroke="black" d="M417.27,-199.81C422.03,-206.12 426.67,-212.92 430.44,-219.67 453.06,-260.19 443.82,-277.15 466.44,-317.67 468.62,-321.57 471.09,-325.49 473.71,-329.32"/>
<polygon fill="black" stroke="black" points="470.93,-331.46 479.62,-337.53 476.62,-327.37 470.93,-331.46"/>
</g>
<!-- 20&#45;&gt;9 -->
<g id="edge37" class="edge">
<title>20&#45;&gt;9</title>
<path fill="none" stroke="black" d="M421.25,-195.68C435.48,-207.97 452.63,-222.78 467.74,-235.84"/>
<polygon fill="black" stroke="black" points="465.58,-238.6 475.44,-242.49 470.16,-233.3 465.58,-238.6"/>
</g>
<!-- 20&#45;&gt;23 -->
<g id="edge66" class="edge">
<title>20&#45;&gt;23</title>
<path fill="none" stroke="black" d="M430.58,-169.67C438.77,-169.67 447.51,-169.67 456.02,-169.67"/>
<polygon fill="black" stroke="black" points="456.23,-173.17 466.23,-169.67 456.23,-166.17 456.23,-173.17"/>
</g>
<!-- 21 -->
<g id="node21" class="node">
<title>21</title>
<ellipse fill="none" stroke="black" stroke-width="2" cx="862.94" cy="-46.67" rx="46.84" ry="46.84"/>
<text text-anchor="middle" x="862.94" y="-50.47" font-family="Times,serif" font-size="14.00">3.0</text>
<text text-anchor="middle" x="862.94" y="-35.47" font-family="Times,serif" font-size="14.00">657 bp</text>
</g>
<!-- 21&#45;&gt;22 -->
<g id="edge67" class="edge">
<title>21&#45;&gt;22</title>
<path fill="none" stroke="black" d="M893.73,-81.92C899.08,-88.43 904.56,-95.22 909.61,-101.67 926.12,-122.79 943.83,-146.69 958.52,-166.89"/>
<polygon fill="black" stroke="black" points="955.7,-168.97 964.41,-175.01 961.37,-164.86 955.7,-168.97"/>
</g>
<!-- 23&#45;&gt;4 -->
<g id="edge19" class="edge">
<title>23&#45;&gt;4</title>
<path fill="none" stroke="black" d="M533.88,-199.81C538.64,-206.12 543.28,-212.92 547.05,-219.67 569.67,-260.19 560.43,-277.15 583.05,-317.67 585.23,-321.57 587.7,-325.49 590.32,-329.32"/>
<polygon fill="black" stroke="black" points="587.54,-331.46 596.23,-337.53 593.23,-327.37 587.54,-331.46"/>
</g>
<!-- 23&#45;&gt;5 -->
<g id="edge24" class="edge">
<title>23&#45;&gt;5</title>
<path fill="none" stroke="black" d="M537.86,-195.68C552.09,-207.97 569.24,-222.78 584.35,-235.84"/>
<polygon fill="black" stroke="black" points="582.19,-238.6 592.05,-242.49 586.77,-233.3 582.19,-238.6"/>
</g>
<!-- 23&#45;&gt;15 -->
<g id="edge53" class="edge">
<title>23&#45;&gt;15</title>
<path fill="none" stroke="black" d="M547.19,-169.67C555.38,-169.67 564.12,-169.67 572.63,-169.67"/>
<polygon fill="black" stroke="black" points="572.84,-173.17 582.84,-169.67 572.84,-166.17 572.84,-173.17"/>
</g>
<!-- 24 -->
<g id="node24" class="node">
<title>24</title>
<ellipse fill="none" stroke="red" stroke-width="2" cx="40.31" cy="-169.67" rx="40.11" ry="40.11"/>
<text text-anchor="middle" x="40.31" y="-173.47" font-family="Times,serif" font-size="14.00">20.0</text>
<text text-anchor="middle" x="40.31" y="-158.47" font-family="Times,serif" font-size="14.00">65 bp</text>
</g>
<!-- 24&#45;&gt;1 -->
<g id="edge1" class="edge">
<title>24&#45;&gt;1</title>
<path fill="none" stroke="black" d="M67.43,-199.81C72.2,-206.12 76.84,-212.92 80.61,-219.67 103.23,-260.19 93.99,-277.15 116.61,-317.67 118.79,-321.57 121.26,-325.49 123.88,-329.32"/>
<polygon fill="black" stroke="black" points="121.1,-331.46 129.79,-337.53 126.78,-327.37 121.1,-331.46"/>
</g>
<!-- 24&#45;&gt;2 -->
<g id="edge9" class="edge">
<title>24&#45;&gt;2</title>
<path fill="none" stroke="black" d="M71.42,-195.68C85.65,-207.97 102.8,-222.78 117.91,-235.84"/>
<polygon fill="black" stroke="black" points="115.75,-238.6 125.61,-242.49 120.33,-233.3 115.75,-238.6"/>
</g>
<!-- 24&#45;&gt;12 -->
<g id="edge45" class="edge">
<title>24&#45;&gt;12</title>
<path fill="none" stroke="black" d="M80.75,-169.67C88.94,-169.67 97.68,-169.67 106.19,-169.67"/>
<polygon fill="black" stroke="black" points="106.4,-173.17 116.4,-169.67 106.4,-166.17 106.4,-173.17"/>
</g>
<!-- 25&#45;&gt;16 -->
<g id="edge55" class="edge">
<title>25&#45;&gt;16</title>
<path fill="none" stroke="black" d="M304.64,-294.68C318.87,-306.97 336.02,-321.78 351.13,-334.84"/>
<polygon fill="black" stroke="black" points="348.97,-337.6 358.83,-341.49 353.55,-332.3 348.97,-337.6"/>
</g>
<!-- 25&#45;&gt;18 -->
<g id="edge61" class="edge">
<title>25&#45;&gt;18</title>
<path fill="none" stroke="black" d="M313.97,-268.67C322.16,-268.67 330.9,-268.67 339.41,-268.67"/>
<polygon fill="black" stroke="black" points="339.62,-272.17 349.62,-268.67 339.62,-265.17 339.62,-272.17"/>
</g>
<!-- 25&#45;&gt;20 -->
<g id="edge65" class="edge">
<title>25&#45;&gt;20</title>
<path fill="none" stroke="black" d="M304.64,-242.66C318.87,-230.36 336.02,-215.55 351.13,-202.5"/>
<polygon fill="black" stroke="black" points="353.55,-205.04 358.83,-195.85 348.97,-199.74 353.55,-205.04"/>
</g>
<!-- 26&#45;&gt;16 -->
<g id="edge54" class="edge">
<title>26&#45;&gt;16</title>
<path fill="none" stroke="black" d="M300.66,-199.81C305.42,-206.12 310.06,-212.92 313.83,-219.67 336.45,-260.19 327.21,-277.15 349.83,-317.67 352.01,-321.57 354.48,-325.49 357.1,-329.32"/>
<polygon fill="black" stroke="black" points="354.32,-331.46 363.01,-337.53 360.01,-327.37 354.32,-331.46"/>
</g>
<!-- 26&#45;&gt;18 -->
<g id="edge60" class="edge">
<title>26&#45;&gt;18</title>
<path fill="none" stroke="black" d="M304.64,-195.68C318.87,-207.97 336.02,-222.78 351.13,-235.84"/>
<polygon fill="black" stroke="black" points="348.97,-238.6 358.83,-242.49 353.55,-233.3 348.97,-238.6"/>
</g>
<!-- 26&#45;&gt;20 -->
<g id="edge64" class="edge">
<title>26&#45;&gt;20</title>
<path fill="none" stroke="black" d="M313.97,-169.67C322.16,-169.67 330.9,-169.67 339.41,-169.67"/>
<polygon fill="black" stroke="black" points="339.62,-173.17 349.62,-169.67 339.62,-166.17 339.62,-173.17"/>
</g>
</g>
</svg>
