<svg width="402pt" height="152pt" viewBox="0.00 0.00 401.66 152.00" xmlns="http://www.w3.org/2000/svg" xmlns:xlink="http://www.w3.org/1999/xlink">
<g id="graph0" class="graph" transform="scale(1 1) rotate(0) translate(4 148)">
<polygon fill="white" stroke="none" points="-4,4 -4,-148 397.66,-148 397.66,4 -4,4"/>
<!-- source -->
<g id="node1" class="node">
<title>source</title>
<ellipse fill="none" stroke="black" cx="27.66" cy="-90" rx="27.66" ry="18"/>
<text text-anchor="middle" x="27.66" y="-85.8" font-family="Times,serif" font-size="14.00">start</text>
</g>
<!-- 1 -->
<g id="node2" class="node">
<title>1</title>
<text text-anchor="start" x="75.26" y="-85.8" font-family="Times,serif" font-size="14.00">1: </text>
<polygon fill="none" stroke="black" points="91.65,-78.6 91.65,-101.4 106.05,-101.4 106.05,-78.6 91.65,-78.6"/>
<text text-anchor="start" x="94.65" y="-86.8" font-family="Courier New" font-weight="bold" font-size="14.00">A</text>
<polygon fill="none" stroke="black" points="106.05,-78.6 106.05,-101.4 120.45,-101.4 120.45,-78.6 106.05,-78.6"/>
<text text-anchor="start" x="109.05" y="-86.8" font-family="Courier New" font-weight="bold" font-size="14.00">T</text>
<polygon fill="none" stroke="black" points="120.45,-78.6 120.45,-101.4 134.85,-101.4 134.85,-78.6 120.45,-78.6"/>
<text text-anchor="start" x="123.45" y="-86.8" font-family="Courier New" font-weight="bold" font-size="14.00">G</text>
<polygon fill="none" stroke="black" points="134.85,-78.6 134.85,-101.4 149.25,-101.4 149.25,-78.6 134.85,-78.6"/>
<text text-anchor="start" x="137.85" y="-86.8" font-family="Courier New" font-weight="bold" font-size="14.00">T</text>
<polygon fill="none" stroke="black" points="149.25,-78.6 149.25,-101.4 163.65,-101.4 163.65,-78.6 149.25,-78.6"/>
<text text-anchor="start" x="152.25" y="-86.8" font-family="Courier New" font-weight="bold" font-size="14.00">A</text>
<polygon fill="none" stroke="black" points="163.65,-78.6 163.65,-101.4 178.05,-101.4 178.05,-78.6 163.65,-78.6"/>
<text text-anchor="start" x="166.65" y="-86.8" font-family="Courier New" font-weight="bold" font-size="14.00">T</text>
<polygon fill="none" stroke="black" points="178.05,-78.6 178.05,-101.4 192.46,-101.4 192.46,-78.6 178.05,-78.6"/>
<text text-anchor="start" x="181.05" y="-86.8" font-family="Courier New" font-weight="bold" font-size="14.00">A</text>
<polygon fill="none" stroke="black" points="192.46,-78.6 192.46,-101.4 206.86,-101.4 206.86,-78.6 192.46,-78.6"/>
<text text-anchor="start" x="195.46" y="-86.8" font-family="Courier New" font-weight="bold" font-size="14.00">C</text>
<polygon fill="none" stroke="black" points="206.86,-78.6 206.86,-101.4 221.26,-101.4 221.26,-78.6 206.86,-78.6"/>
<text text-anchor="start" x="209.86" y="-85.8" font-family="Courier New" font-size="14.00">A</text>
<polygon fill="none" stroke="black" points="221.26,-78.6 221.26,-101.4 235.66,-101.4 235.66,-78.6 221.26,-78.6"/>
<text text-anchor="start" x="224.26" y="-85.8" font-family="Courier New" font-size="14.00">T</text>
<polygon fill="none" stroke="black" points="235.66,-78.6 235.66,-101.4 250.06,-101.4 250.06,-78.6 235.66,-78.6"/>
<text text-anchor="start" x="238.66" y="-86.8" font-family="Courier New" font-weight="bold" font-size="14.00">C</text>
<polygon fill="none" stroke="black" points="250.06,-78.6 250.06,-101.4 264.46,-101.4 264.46,-78.6 250.06,-78.6"/>
<text text-anchor="start" x="253.06" y="-86.8" font-family="Courier New" font-weight="bold" font-size="14.00">A</text>
<polygon fill="none" stroke="black" points="264.46,-78.6 264.46,-101.4 278.86,-101.4 278.86,-78.6 264.46,-78.6"/>
<text text-anchor="start" x="267.46" y="-86.8" font-family="Courier New" font-weight="bold" font-size="14.00">C</text>
<polygon fill="none" stroke="black" points="278.86,-78.6 278.86,-101.4 293.27,-101.4 293.27,-78.6 278.86,-78.6"/>
<text text-anchor="start" x="281.86" y="-86.8" font-family="Courier New" font-weight="bold" font-size="14.00">G</text>
<polygon fill="none" stroke="black" points="293.27,-78.6 293.27,-101.4 307.67,-101.4 307.67,-78.6 293.27,-78.6"/>
<text text-anchor="start" x="296.27" y="-86.8" font-family="Courier New" font-weight="bold" font-size="14.00">G</text>
<polygon fill="none" stroke="black" points="307.67,-78.6 307.67,-101.4 322.07,-101.4 322.07,-78.6 307.67,-78.6"/>
<text text-anchor="start" x="310.67" y="-86.8" font-family="Courier New" font-weight="bold" font-size="14.00">C</text>
</g>
<!-- source&#45;&gt;1 -->
<g id="edge1" class="edge">
<title>source:e-&gt;1:caption</title>
<path fill="none" stroke="black" d="M55.33,-90C58.06,-90 60.1,-90 61.91,-90"/>
<polygon fill="black" stroke="black" points="61.74,-93.5 71.74,-90 61.74,-86.5 61.74,-93.5"/>
</g>
<!-- 1&#45;&gt;1 -->
<g id="edge5" class="edge">
<title>1:4-&gt;1:7</title>
<path fill="none" stroke="black" d="M152.6,-101.13C148.44,-119.78 152.95,-144 178.05,-144 198.26,-144 205.12,-128.31 204.87,-112.47"/>
<polygon fill="black" stroke="black" points="208.35,-112.15 203.69,-102.64 201.4,-112.98 208.35,-112.15"/>
</g>
<!-- sink -->
<g id="node3" class="node">
<title>sink</title>
<ellipse fill="none" stroke="black" cx="366.66" cy="-90" rx="27" ry="18"/>
<text text-anchor="middle" x="366.66" y="-85.8" font-family="Times,serif" font-size="14.00">end</text>
</g>
<!-- 1&#45;&gt;sink -->
<g id="edge2" class="edge">
<title>1:15-&gt;sink:w</title>
<path fill="none" stroke="black" d="M322.07,-90C324.76,-90 326.75,-90 328.53,-90"/>
<polygon fill="black" stroke="black" points="328.15,-93.5 338.15,-90 328.15,-86.5 328.15,-93.5"/>
</g>
<!-- 2 -->
<g id="node4" class="node">
<title>2</title>
<text text-anchor="start" x="169.07" y="-13.8" font-family="Times,serif" font-size="14.00">2: </text>
<polygon fill="none" stroke="black" points="185.46,-6.6 185.46,-29.4 199.86,-29.4 199.86,-6.6 185.46,-6.6"/>
<text text-anchor="start" x="188.46" y="-14.8" font-family="Courier New" font-weight="bold" font-size="14.00">T</text>
<polygon fill="none" stroke="black" points="199.86,-6.6 199.86,-29.4 214.26,-29.4 214.26,-6.6 199.86,-6.6"/>
<text text-anchor="start" x="202.86" y="-14.8" font-family="Courier New" font-weight="bold" font-size="14.00">G</text>
</g>
<!-- 1&#45;&gt;2 -->
<g id="edge3" class="edge">
<title>1:7-&gt;2:0</title>
<path fill="none" stroke="black" d="M199.66,-77.6C199.66,-60.7 195.21,-54.23 193.41,-41.57"/>
<polygon fill="black" stroke="black" points="196.92,-41.65 192.76,-31.91 189.94,-42.12 196.92,-41.65"/>
</g>
<!-- 2&#45;&gt;1 -->
<g id="edge4" class="edge">
<title>2:1-&gt;1:7</title>
<path fill="none" stroke="black" d="M207.06,-30.4C207.06,-47.32 202.36,-53.76 200.45,-66.43"/>
<polygon fill="black" stroke="black" points="196.98,-65.87 199.76,-76.09 203.96,-66.36 196.98,-65.87"/>
</g>
</g>
</svg>