<?xml version="1.0" encoding="UTF-8" standalone="no"?>
<!DOCTYPE svg PUBLIC "-//W3C//DTD SVG 1.1//EN"
 "http://www.w3.org/Graphics/SVG/1.1/DTD/svg11.dtd">
<!-- Generated by graphviz version 12.1.1 (20240910.0053)
 -->
<!-- Pages: 1 -->
<svg width="506pt" height="98pt"
 viewBox="0.00 0.00 505.75 98.00" xmlns="http://www.w3.org/2000/svg" xmlns:xlink="http://www.w3.org/1999/xlink">
<g id="graph0" class="graph" transform="scale(1 1) rotate(0) translate(4 94)">
<polygon fill="white" stroke="none" points="-4,4 -4,-94 501.75,-94 501.75,4 -4,4"/>
<!-- 1.0 -->
<g id="node1" class="node">
<title>1.0</title>
<text text-anchor="start" x="92" y="-39.95" font-family="Times,serif" font-size="14.00">1.0: </text>
<polygon fill="none" stroke="black" points="118.75,-33.75 118.75,-56.25 190.75,-56.25 190.75,-33.75 118.75,-33.75"/>
<text text-anchor="start" x="121.75" y="-40.95" font-family="Courier New" font-weight="bold" font-size="14.00">ATGTATAC</text>
</g>
<!-- 1.8 -->
<g id="node2" class="node">
<title>1.8</title>
<text text-anchor="start" x="230.12" y="-66.95" font-family="Times,serif" font-size="14.00">1.8: </text>
<polygon fill="none" stroke="black" points="256.88,-60.75 256.88,-83.25 279.38,-83.25 279.38,-60.75 256.88,-60.75"/>
<text text-anchor="start" x="259.88" y="-66.95" font-family="Courier New" font-size="14.00">AT</text>
</g>
<!-- 1.0&#45;&gt;1.8 -->
<g id="edge1" class="edge">
<title>1.0:e&#45;&gt;1.8:w</title>
<path fill="none" stroke="black" stroke-dasharray="5,2" d="M190.75,-45C206.06,-45 207.31,-60.83 216.02,-68.25"/>
<polygon fill="black" stroke="black" points="214.73,-71.5 225.32,-71.5 217.04,-64.89 214.73,-71.5"/>
</g>
<!-- 2.0 -->
<g id="node3" class="node">
<title>2.0</title>
<text text-anchor="start" x="230.12" y="-12.95" font-family="Times,serif" font-size="14.00">2.0: </text>
<polygon fill="none" stroke="black" points="256.88,-6.75 256.88,-29.25 279.38,-29.25 279.38,-6.75 256.88,-6.75"/>
<text text-anchor="start" x="259.88" y="-13.95" font-family="Courier New" font-weight="bold" font-size="14.00">TG</text>
</g>
<!-- 1.0&#45;&gt;2.0 -->
<g id="edge2" class="edge">
<title>1.0:e&#45;&gt;2.0:w</title>
<path fill="none" stroke="black" d="M190.75,-45C206.06,-45 207.31,-29.17 216.02,-21.75"/>
<polygon fill="black" stroke="black" points="217.04,-25.11 225.32,-18.5 214.73,-18.5 217.04,-25.11"/>
</g>
<!-- 1.10 -->
<g id="node4" class="node">
<title>1.10</title>
<text text-anchor="start" x="318.75" y="-39.95" font-family="Times,serif" font-size="14.00">1.10: </text>
<polygon fill="none" stroke="black" points="352.25,-33.75 352.25,-56.25 407.75,-56.25 407.75,-33.75 352.25,-33.75"/>
<text text-anchor="start" x="355.25" y="-40.95" font-family="Courier New" font-weight="bold" font-size="14.00">CACGGC</text>
</g>
<!-- 1.8&#45;&gt;1.10 -->
<g id="edge3" class="edge">
<title>1.8:e&#45;&gt;1.10:w</title>
<path fill="none" stroke="black" stroke-dasharray="5,2" d="M280.75,-72C296.06,-72 297.31,-56.17 306.02,-48.75"/>
<polygon fill="black" stroke="black" points="307.04,-52.11 315.32,-45.5 304.73,-45.5 307.04,-52.11"/>
</g>
<!-- 2.0&#45;&gt;1.10 -->
<g id="edge4" class="edge">
<title>2.0:e&#45;&gt;1.10:w</title>
<path fill="none" stroke="black" d="M280.75,-18C296.06,-18 297.31,-33.83 306.02,-41.25"/>
<polygon fill="black" stroke="black" points="304.73,-44.5 315.32,-44.5 307.04,-37.89 304.73,-44.5"/>
</g>
<!-- end -->
<g id="node6" class="node">
<title>end</title>
<ellipse fill="none" stroke="black" cx="470.75" cy="-45" rx="27" ry="18"/>
<text text-anchor="middle" x="470.75" y="-39.95" font-family="Times,serif" font-size="14.00">end</text>
</g>
<!-- 1.10&#45;&gt;end -->
<g id="edge6" class="edge">
<title>1.10:e&#45;&gt;end:w</title>
<path fill="none" stroke="black" d="M407.75,-45C419.13,-45 424.44,-45 432.3,-45"/>
<polygon fill="black" stroke="black" points="432.24,-48.5 442.24,-45 432.24,-41.5 432.24,-48.5"/>
</g>
<!-- start -->
<g id="node5" class="node">
<title>start</title>
<ellipse fill="none" stroke="black" cx="27" cy="-45" rx="27" ry="18"/>
<text text-anchor="middle" x="27" y="-39.95" font-family="Times,serif" font-size="14.00">start</text>
</g>
<!-- start&#45;&gt;1.0 -->
<g id="edge5" class="edge">
<title>start:e&#45;&gt;1.0:w</title>
<path fill="none" stroke="black" d="M54,-45C65.38,-45 70.68,-45 78.55,-45"/>
<polygon fill="black" stroke="black" points="78.49,-48.5 88.49,-45 78.49,-41.5 78.49,-48.5"/>
</g>
</g>
</svg>
