<?xml version="1.0" encoding="UTF-8" standalone="no"?>
<!DOCTYPE svg PUBLIC "-//W3C//DTD SVG 1.1//EN"
 "http://www.w3.org/Graphics/SVG/1.1/DTD/svg11.dtd">
<!-- Generated by graphviz version 2.43.0 (0)
 -->
<!-- Title: graphname Pages: 1 -->
<svg width="606pt" height="515pt"
 viewBox="0.00 0.00 605.96 514.61" xmlns="http://www.w3.org/2000/svg" xmlns:xlink="http://www.w3.org/1999/xlink">
<g id="graph0" class="graph" transform="scale(1 1) rotate(0) translate(4 510.61)">
<title>graphname</title>
<polygon fill="white" stroke="transparent" points="-4,4 -4,-510.61 601.96,-510.61 601.96,4 -4,4"/>
<!-- 1 -->
<g id="node1" class="node">
<title>1</title>
<ellipse fill="none" stroke="red" stroke-width="2" cx="169.64" cy="-70.31" rx="40.11" ry="40.11"/>
<text text-anchor="middle" x="169.64" y="-74.11" font-family="Times,serif" font-size="14.00">6.0</text>
<text text-anchor="middle" x="169.64" y="-59.11" font-family="Times,serif" font-size="14.00">35 bp</text>
</g>
<!-- 2 -->
<g id="node2" class="node">
<title>2</title>
<ellipse fill="none" stroke="red" stroke-width="2" cx="286.25" cy="-367.31" rx="40.11" ry="40.11"/>
<text text-anchor="middle" x="286.25" y="-371.11" font-family="Times,serif" font-size="14.00">11.0</text>
<text text-anchor="middle" x="286.25" y="-356.11" font-family="Times,serif" font-size="14.00">26 bp</text>
</g>
<!-- 1&#45;&gt;2 -->
<g id="edge3" class="edge">
<title>1&#45;&gt;2</title>
<path fill="none" stroke="black" d="M197.51,-99.71C202.27,-106.13 206.73,-113.16 209.95,-120.31 246.52,-201.45 209.37,-236.17 245.95,-317.31 247.81,-321.44 250.09,-325.53 252.59,-329.49"/>
<polygon fill="black" stroke="black" points="249.84,-331.66 258.39,-337.91 255.6,-327.69 249.84,-331.66"/>
</g>
<!-- 9 -->
<g id="node9" class="node">
<title>9</title>
<ellipse fill="none" stroke="red" stroke-width="2" cx="286.25" cy="-268.31" rx="40.11" ry="40.11"/>
<text text-anchor="middle" x="286.25" y="-272.11" font-family="Times,serif" font-size="14.00">10.0</text>
<text text-anchor="middle" x="286.25" y="-257.11" font-family="Times,serif" font-size="14.00">25 bp</text>
</g>
<!-- 1&#45;&gt;9 -->
<g id="edge4" class="edge">
<title>1&#45;&gt;9</title>
<path fill="none" stroke="black" d="M196.77,-100.45C201.54,-106.76 206.18,-113.56 209.95,-120.31 232.56,-160.83 223.33,-177.79 245.95,-218.31 248.13,-222.21 250.6,-226.13 253.22,-229.96"/>
<polygon fill="black" stroke="black" points="250.44,-232.1 259.12,-238.17 256.12,-228.01 250.44,-232.1"/>
</g>
<!-- 10 -->
<g id="node10" class="node">
<title>10</title>
<ellipse fill="none" stroke="red" stroke-width="2" cx="286.25" cy="-169.31" rx="40.11" ry="40.11"/>
<text text-anchor="middle" x="286.25" y="-173.11" font-family="Times,serif" font-size="14.00">12.0</text>
<text text-anchor="middle" x="286.25" y="-158.11" font-family="Times,serif" font-size="14.00">28 bp</text>
</g>
<!-- 1&#45;&gt;10 -->
<g id="edge2" class="edge">
<title>1&#45;&gt;10</title>
<path fill="none" stroke="black" d="M200.76,-96.32C214.99,-108.61 232.13,-123.42 247.25,-136.48"/>
<polygon fill="black" stroke="black" points="245.09,-139.24 254.94,-143.13 249.66,-133.94 245.09,-139.24"/>
</g>
<!-- 3 -->
<g id="node3" class="node">
<title>3</title>
<ellipse fill="none" stroke="red" stroke-width="2" cx="409.23" cy="-218.31" rx="46.84" ry="46.84"/>
<text text-anchor="middle" x="409.23" y="-222.11" font-family="Times,serif" font-size="14.00">4.0</text>
<text text-anchor="middle" x="409.23" y="-207.11" font-family="Times,serif" font-size="14.00">264 bp</text>
</g>
<!-- 2&#45;&gt;3 -->
<g id="edge9" class="edge">
<title>2&#45;&gt;3</title>
<path fill="none" stroke="black" d="M312.32,-336.44C329.79,-314.92 353.35,-285.9 372.75,-262.01"/>
<polygon fill="black" stroke="black" points="375.57,-264.09 379.15,-254.12 370.13,-259.68 375.57,-264.09"/>
</g>
<!-- 8 -->
<g id="node8" class="node">
<title>8</title>
<ellipse fill="none" stroke="black" stroke-width="2" cx="544.93" cy="-134.31" rx="53.07" ry="53.07"/>
<text text-anchor="middle" x="544.93" y="-138.11" font-family="Times,serif" font-size="14.00">3.539</text>
<text text-anchor="middle" x="544.93" y="-123.11" font-family="Times,serif" font-size="14.00">2147 bp</text>
</g>
<!-- 3&#45;&gt;8 -->
<g id="edge12" class="edge">
<title>3&#45;&gt;8</title>
<path fill="none" stroke="black" d="M449.26,-193.79C462.28,-185.61 477.02,-176.35 490.92,-167.62"/>
<polygon fill="black" stroke="black" points="492.84,-170.54 499.44,-162.26 489.11,-164.62 492.84,-170.54"/>
</g>
<!-- 4 -->
<g id="node4" class="node">
<title>4</title>
<ellipse fill="none" stroke="red" stroke-width="2" cx="169.64" cy="-466.31" rx="40.11" ry="40.11"/>
<text text-anchor="middle" x="169.64" y="-470.11" font-family="Times,serif" font-size="14.00">8.0</text>
<text text-anchor="middle" x="169.64" y="-455.11" font-family="Times,serif" font-size="14.00">35 bp</text>
</g>
<!-- 4&#45;&gt;2 -->
<g id="edge8" class="edge">
<title>4&#45;&gt;2</title>
<path fill="none" stroke="black" d="M200.76,-440.3C214.99,-428 232.13,-413.19 247.25,-400.14"/>
<polygon fill="black" stroke="black" points="249.66,-402.68 254.94,-393.49 245.09,-397.38 249.66,-402.68"/>
</g>
<!-- 4&#45;&gt;9 -->
<g id="edge14" class="edge">
<title>4&#45;&gt;9</title>
<path fill="none" stroke="black" d="M196.77,-436.17C201.54,-429.85 206.18,-423.06 209.95,-416.31 232.56,-375.79 223.33,-358.83 245.95,-318.31 248.13,-314.41 250.6,-310.49 253.22,-306.66"/>
<polygon fill="black" stroke="black" points="256.12,-308.61 259.12,-298.45 250.44,-304.52 256.12,-308.61"/>
</g>
<!-- 4&#45;&gt;10 -->
<g id="edge15" class="edge">
<title>4&#45;&gt;10</title>
<path fill="none" stroke="black" d="M197.51,-436.91C202.27,-430.48 206.73,-423.46 209.95,-416.31 246.52,-335.17 209.37,-300.45 245.95,-219.31 247.81,-215.18 250.09,-211.08 252.59,-207.13"/>
<polygon fill="black" stroke="black" points="255.6,-208.93 258.39,-198.71 249.84,-204.96 255.6,-208.93"/>
</g>
<!-- 5 -->
<g id="node5" class="node">
<title>5</title>
<ellipse fill="none" stroke="red" stroke-width="2" cx="169.64" cy="-367.31" rx="40.11" ry="40.11"/>
<text text-anchor="middle" x="169.64" y="-371.11" font-family="Times,serif" font-size="14.00">5.0</text>
<text text-anchor="middle" x="169.64" y="-356.11" font-family="Times,serif" font-size="14.00">35 bp</text>
</g>
<!-- 5&#45;&gt;2 -->
<g id="edge7" class="edge">
<title>5&#45;&gt;2</title>
<path fill="none" stroke="black" d="M210.09,-367.31C218.28,-367.31 227.02,-367.31 235.52,-367.31"/>
<polygon fill="black" stroke="black" points="235.74,-370.81 245.74,-367.31 235.74,-363.81 235.74,-370.81"/>
</g>
<!-- 5&#45;&gt;9 -->
<g id="edge17" class="edge">
<title>5&#45;&gt;9</title>
<path fill="none" stroke="black" d="M200.76,-341.3C214.99,-329 232.13,-314.19 247.25,-301.14"/>
<polygon fill="black" stroke="black" points="249.66,-303.68 254.94,-294.49 245.09,-298.38 249.66,-303.68"/>
</g>
<!-- 5&#45;&gt;10 -->
<g id="edge18" class="edge">
<title>5&#45;&gt;10</title>
<path fill="none" stroke="black" d="M196.77,-337.17C201.54,-330.85 206.18,-324.06 209.95,-317.31 232.56,-276.79 223.33,-259.83 245.95,-219.31 248.13,-215.41 250.6,-211.49 253.22,-207.66"/>
<polygon fill="black" stroke="black" points="256.12,-209.61 259.12,-199.45 250.44,-205.52 256.12,-209.61"/>
</g>
<!-- 6 -->
<g id="node6" class="node">
<title>6</title>
<ellipse fill="none" stroke="black" stroke-width="2" cx="46.67" cy="-218.31" rx="46.84" ry="46.84"/>
<text text-anchor="middle" x="46.67" y="-222.11" font-family="Times,serif" font-size="14.00">3.0</text>
<text text-anchor="middle" x="46.67" y="-207.11" font-family="Times,serif" font-size="14.00">106 bp</text>
</g>
<!-- 6&#45;&gt;1 -->
<g id="edge1" class="edge">
<title>6&#45;&gt;1</title>
<path fill="none" stroke="black" d="M76.95,-182.48C95.09,-160.29 118.39,-131.79 136.96,-109.07"/>
<polygon fill="black" stroke="black" points="139.7,-111.25 143.32,-101.3 134.28,-106.82 139.7,-111.25"/>
</g>
<!-- 6&#45;&gt;4 -->
<g id="edge13" class="edge">
<title>6&#45;&gt;4</title>
<path fill="none" stroke="black" d="M61.92,-262.41C76.15,-303.65 100.08,-366.22 129.34,-416.31 131.59,-420.17 134.12,-424.06 136.77,-427.87"/>
<polygon fill="black" stroke="black" points="134.01,-430.02 142.72,-436.05 139.67,-425.9 134.01,-430.02"/>
</g>
<!-- 6&#45;&gt;5 -->
<g id="edge16" class="edge">
<title>6&#45;&gt;5</title>
<path fill="none" stroke="black" d="M76.95,-254.38C95.09,-276.72 118.39,-305.41 136.96,-328.29"/>
<polygon fill="black" stroke="black" points="134.29,-330.56 143.32,-336.11 139.73,-326.14 134.29,-330.56"/>
</g>
<!-- 7 -->
<g id="node7" class="node">
<title>7</title>
<ellipse fill="none" stroke="black" stroke-width="2" cx="409.23" cy="-79.31" rx="46.84" ry="46.84"/>
<text text-anchor="middle" x="409.23" y="-83.11" font-family="Times,serif" font-size="14.00">3.106</text>
<text text-anchor="middle" x="409.23" y="-68.11" font-family="Times,serif" font-size="14.00">433 bp</text>
</g>
<!-- 6&#45;&gt;7 -->
<g id="edge21" class="edge">
<title>6&#45;&gt;7</title>
<path fill="none" stroke="black" d="M52.44,-171.61C60.01,-124.66 79.46,-54.62 129.34,-21.31 200.14,25.98 301.84,-16.57 360.87,-49.51"/>
<polygon fill="black" stroke="black" points="359.19,-52.58 369.61,-54.49 362.65,-46.5 359.19,-52.58"/>
</g>
<!-- 11 -->
<g id="node11" class="node">
<title>11</title>
<ellipse fill="none" stroke="red" stroke-width="2" cx="169.64" cy="-268.31" rx="40.11" ry="40.11"/>
<text text-anchor="middle" x="169.64" y="-272.11" font-family="Times,serif" font-size="14.00">7.0</text>
<text text-anchor="middle" x="169.64" y="-257.11" font-family="Times,serif" font-size="14.00">35 bp</text>
</g>
<!-- 6&#45;&gt;11 -->
<g id="edge20" class="edge">
<title>6&#45;&gt;11</title>
<path fill="none" stroke="black" d="M89.98,-235.8C100.63,-240.2 112.1,-244.94 122.9,-249.4"/>
<polygon fill="black" stroke="black" points="121.61,-252.66 132.19,-253.24 124.28,-246.19 121.61,-252.66"/>
</g>
<!-- 12 -->
<g id="node12" class="node">
<title>12</title>
<ellipse fill="none" stroke="red" stroke-width="2" cx="169.64" cy="-169.31" rx="40.11" ry="40.11"/>
<text text-anchor="middle" x="169.64" y="-173.11" font-family="Times,serif" font-size="14.00">9.0</text>
<text text-anchor="middle" x="169.64" y="-158.11" font-family="Times,serif" font-size="14.00">35 bp</text>
</g>
<!-- 6&#45;&gt;12 -->
<g id="edge19" class="edge">
<title>6&#45;&gt;12</title>
<path fill="none" stroke="black" d="M90.32,-201.03C100.74,-196.81 111.93,-192.28 122.5,-188"/>
<polygon fill="black" stroke="black" points="124.04,-191.15 131.99,-184.15 121.41,-184.66 124.04,-191.15"/>
</g>
<!-- 7&#45;&gt;8 -->
<g id="edge22" class="edge">
<title>7&#45;&gt;8</title>
<path fill="none" stroke="black" d="M452.53,-96.71C463.17,-101.09 474.77,-105.86 486.03,-110.49"/>
<polygon fill="black" stroke="black" points="484.8,-113.77 495.38,-114.34 487.46,-107.3 484.8,-113.77"/>
</g>
<!-- 9&#45;&gt;3 -->
<g id="edge10" class="edge">
<title>9&#45;&gt;3</title>
<path fill="none" stroke="black" d="M323.88,-253.17C334.1,-248.95 345.4,-244.28 356.32,-239.76"/>
<polygon fill="black" stroke="black" points="357.88,-242.91 365.78,-235.85 355.2,-236.44 357.88,-242.91"/>
</g>
<!-- 10&#45;&gt;3 -->
<g id="edge11" class="edge">
<title>10&#45;&gt;3</title>
<path fill="none" stroke="black" d="M323.88,-184.14C334.1,-188.28 345.4,-192.86 356.32,-197.28"/>
<polygon fill="black" stroke="black" points="355.2,-200.61 365.78,-201.12 357.83,-194.12 355.2,-200.61"/>
</g>
<!-- 11&#45;&gt;2 -->
<g id="edge6" class="edge">
<title>11&#45;&gt;2</title>
<path fill="none" stroke="black" d="M200.76,-294.32C214.99,-306.61 232.13,-321.42 247.25,-334.48"/>
<polygon fill="black" stroke="black" points="245.09,-337.24 254.94,-341.13 249.66,-331.94 245.09,-337.24"/>
</g>
<!-- 11&#45;&gt;9 -->
<g id="edge24" class="edge">
<title>11&#45;&gt;9</title>
<path fill="none" stroke="black" d="M210.09,-268.31C218.28,-268.31 227.02,-268.31 235.52,-268.31"/>
<polygon fill="black" stroke="black" points="235.74,-271.81 245.74,-268.31 235.74,-264.81 235.74,-271.81"/>
</g>
<!-- 11&#45;&gt;10 -->
<g id="edge25" class="edge">
<title>11&#45;&gt;10</title>
<path fill="none" stroke="black" d="M200.76,-242.3C214.99,-230 232.13,-215.19 247.25,-202.14"/>
<polygon fill="black" stroke="black" points="249.66,-204.68 254.94,-195.49 245.09,-199.38 249.66,-204.68"/>
</g>
<!-- 12&#45;&gt;2 -->
<g id="edge5" class="edge">
<title>12&#45;&gt;2</title>
<path fill="none" stroke="black" d="M196.77,-199.45C201.54,-205.76 206.18,-212.56 209.95,-219.31 232.56,-259.83 223.33,-276.79 245.95,-317.31 248.13,-321.21 250.6,-325.13 253.22,-328.96"/>
<polygon fill="black" stroke="black" points="250.44,-331.1 259.12,-337.17 256.12,-327.01 250.44,-331.1"/>
</g>
<!-- 12&#45;&gt;9 -->
<g id="edge23" class="edge">
<title>12&#45;&gt;9</title>
<path fill="none" stroke="black" d="M200.76,-195.32C214.99,-207.61 232.13,-222.42 247.25,-235.48"/>
<polygon fill="black" stroke="black" points="245.09,-238.24 254.94,-242.13 249.66,-232.94 245.09,-238.24"/>
</g>
<!-- 12&#45;&gt;10 -->
<g id="edge26" class="edge">
<title>12&#45;&gt;10</title>
<path fill="none" stroke="black" d="M210.09,-169.31C218.28,-169.31 227.02,-169.31 235.52,-169.31"/>
<polygon fill="black" stroke="black" points="235.74,-172.81 245.74,-169.31 235.74,-165.81 235.74,-172.81"/>
</g>
</g>
</svg>
